<?xml version="1.0" standalone="no"?>
 <!DOCTYPE svg PUBLIC "-//W3C//DTD SVG 1.1//EN" 
 "http://www.w3.org/Graphics/SVG/1.1/DTD/svg11.dtd"> 
<svg
  xmlns:svg="http://www.w3.org/2000/svg"
  xmlns="http://www.w3.org/2000/svg"
  xmlns:xlink="http://www.w3.org/1999/xlink"
  xmlns:inkscape="http://www.inkscape.org/namespaces/inkscape"
  version="1.1"
  width="22.275800mm" height="10.490200mm" viewBox="0.000000 0.000000 22.275800 10.490200">
<title>SVG Image created as CP_Radial_D6.3mm_P2.50mm.svg date 2026-04-21T12:25:21 </title>
  <desc>Image generated by PCBNEW </desc>
<g style="fill:#000000; fill-opacity:1.000000;stroke:#000000; stroke-opacity:1.000000;
stroke-linecap:round; stroke-linejoin:round;"
 transform="translate(0 0) scale(1 1)">
</g>
<g style="fill:none; 
stroke:#000000; stroke-width:0.150000; stroke-opacity:1; 
stroke-linecap:round; stroke-linejoin:round;">
<text x="11.148809" y="10.148250"
textLength="22.297618" font-size="1.333333" lengthAdjust="spacingAndGlyphs"
text-anchor="middle" opacity="0" stroke-opacity="0">CP_Radial_D6.3mm_P2.50mm</text>
<g class="stroked-text"><desc>CP_Radial_D6.3mm_P2.50mm</desc>
<path d="M0.934524 10.007830
L0.886905 10.055450
" />
<path d="M0.886905 10.055450
L0.744048 10.103069
" />
<path d="M0.744048 10.103069
L0.648810 10.103069
" />
<path d="M0.648810 10.103069
L0.505953 10.055450
" />
<path d="M0.505953 10.055450
L0.410715 9.960211
" />
<path d="M0.410715 9.960211
L0.363096 9.864973
" />
<path d="M0.363096 9.864973
L0.315477 9.674497
" />
<path d="M0.315477 9.674497
L0.315477 9.531640
" />
<path d="M0.315477 9.531640
L0.363096 9.341164
" />
<path d="M0.363096 9.341164
L0.410715 9.245926
" />
<path d="M0.410715 9.245926
L0.505953 9.150688
" />
<path d="M0.505953 9.150688
L0.648810 9.103069
" />
<path d="M0.648810 9.103069
L0.744048 9.103069
" />
<path d="M0.744048 9.103069
L0.886905 9.150688
" />
<path d="M0.886905 9.150688
L0.934524 9.198307
" />
<path d="M1.363096 10.103069
L1.363096 9.103069
" />
<path d="M1.363096 9.103069
L1.744048 9.103069
" />
<path d="M1.744048 9.103069
L1.839286 9.150688
" />
<path d="M1.839286 9.150688
L1.886905 9.198307
" />
<path d="M1.886905 9.198307
L1.934524 9.293545
" />
<path d="M1.934524 9.293545
L1.934524 9.436402
" />
<path d="M1.934524 9.436402
L1.886905 9.531640
" />
<path d="M1.886905 9.531640
L1.839286 9.579259
" />
<path d="M1.839286 9.579259
L1.744048 9.626878
" />
<path d="M1.744048 9.626878
L1.363096 9.626878
" />
<path d="M2.125000 10.198307
L2.886905 10.198307
" />
<path d="M3.696429 10.103069
L3.363096 9.626878
" />
<path d="M3.125001 10.103069
L3.125001 9.103069
" />
<path d="M3.125001 9.103069
L3.505953 9.103069
" />
<path d="M3.505953 9.103069
L3.601191 9.150688
" />
<path d="M3.601191 9.150688
L3.648810 9.198307
" />
<path d="M3.648810 9.198307
L3.696429 9.293545
" />
<path d="M3.696429 9.293545
L3.696429 9.436402
" />
<path d="M3.696429 9.436402
L3.648810 9.531640
" />
<path d="M3.648810 9.531640
L3.601191 9.579259
" />
<path d="M3.601191 9.579259
L3.505953 9.626878
" />
<path d="M3.505953 9.626878
L3.125001 9.626878
" />
<path d="M4.553572 10.103069
L4.553572 9.579259
" />
<path d="M4.553572 9.579259
L4.505953 9.484021
" />
<path d="M4.505953 9.484021
L4.410715 9.436402
" />
<path d="M4.410715 9.436402
L4.220239 9.436402
" />
<path d="M4.220239 9.436402
L4.125001 9.484021
" />
<path d="M4.553572 10.055450
L4.458334 10.103069
" />
<path d="M4.458334 10.103069
L4.220239 10.103069
" />
<path d="M4.220239 10.103069
L4.125001 10.055450
" />
<path d="M4.125001 10.055450
L4.077382 9.960211
" />
<path d="M4.077382 9.960211
L4.077382 9.864973
" />
<path d="M4.077382 9.864973
L4.125001 9.769735
" />
<path d="M4.125001 9.769735
L4.220239 9.722116
" />
<path d="M4.220239 9.722116
L4.458334 9.722116
" />
<path d="M4.458334 9.722116
L4.553572 9.674497
" />
<path d="M5.458334 10.103069
L5.458334 9.103069
" />
<path d="M5.458334 10.055450
L5.363096 10.103069
" />
<path d="M5.363096 10.103069
L5.172620 10.103069
" />
<path d="M5.172620 10.103069
L5.077382 10.055450
" />
<path d="M5.077382 10.055450
L5.029763 10.007830
" />
<path d="M5.029763 10.007830
L4.982144 9.912592
" />
<path d="M4.982144 9.912592
L4.982144 9.626878
" />
<path d="M4.982144 9.626878
L5.029763 9.531640
" />
<path d="M5.029763 9.531640
L5.077382 9.484021
" />
<path d="M5.077382 9.484021
L5.172620 9.436402
" />
<path d="M5.172620 9.436402
L5.363096 9.436402
" />
<path d="M5.363096 9.436402
L5.458334 9.484021
" />
<path d="M5.934525 10.103069
L5.934525 9.436402
" />
<path d="M5.934525 9.103069
L5.886906 9.150688
" />
<path d="M5.886906 9.150688
L5.934525 9.198307
" />
<path d="M5.934525 9.198307
L5.982144 9.150688
" />
<path d="M5.982144 9.150688
L5.934525 9.103069
" />
<path d="M5.934525 9.103069
L5.934525 9.198307
" />
<path d="M6.839286 10.103069
L6.839286 9.579259
" />
<path d="M6.839286 9.579259
L6.791667 9.484021
" />
<path d="M6.791667 9.484021
L6.696429 9.436402
" />
<path d="M6.696429 9.436402
L6.505953 9.436402
" />
<path d="M6.505953 9.436402
L6.410715 9.484021
" />
<path d="M6.839286 10.055450
L6.744048 10.103069
" />
<path d="M6.744048 10.103069
L6.505953 10.103069
" />
<path d="M6.505953 10.103069
L6.410715 10.055450
" />
<path d="M6.410715 10.055450
L6.363096 9.960211
" />
<path d="M6.363096 9.960211
L6.363096 9.864973
" />
<path d="M6.363096 9.864973
L6.410715 9.769735
" />
<path d="M6.410715 9.769735
L6.505953 9.722116
" />
<path d="M6.505953 9.722116
L6.744048 9.722116
" />
<path d="M6.744048 9.722116
L6.839286 9.674497
" />
<path d="M7.458334 10.103069
L7.363096 10.055450
" />
<path d="M7.363096 10.055450
L7.315477 9.960211
" />
<path d="M7.315477 9.960211
L7.315477 9.103069
" />
<path d="M7.601191 10.198307
L8.363096 10.198307
" />
<path d="M8.601192 10.103069
L8.601192 9.103069
" />
<path d="M8.601192 9.103069
L8.839287 9.103069
" />
<path d="M8.839287 9.103069
L8.982144 9.150688
" />
<path d="M8.982144 9.150688
L9.077382 9.245926
" />
<path d="M9.077382 9.245926
L9.125001 9.341164
" />
<path d="M9.125001 9.341164
L9.172620 9.531640
" />
<path d="M9.172620 9.531640
L9.172620 9.674497
" />
<path d="M9.172620 9.674497
L9.125001 9.864973
" />
<path d="M9.125001 9.864973
L9.077382 9.960211
" />
<path d="M9.077382 9.960211
L8.982144 10.055450
" />
<path d="M8.982144 10.055450
L8.839287 10.103069
" />
<path d="M8.839287 10.103069
L8.601192 10.103069
" />
<path d="M10.029762 9.103069
L9.839287 9.103069
" />
<path d="M9.839287 9.103069
L9.744049 9.150688
" />
<path d="M9.744049 9.150688
L9.696430 9.198307
" />
<path d="M9.696430 9.198307
L9.601192 9.341164
" />
<path d="M9.601192 9.341164
L9.553573 9.531640
" />
<path d="M9.553573 9.531640
L9.553573 9.912592
" />
<path d="M9.553573 9.912592
L9.601192 10.007830
" />
<path d="M9.601192 10.007830
L9.648811 10.055450
" />
<path d="M9.648811 10.055450
L9.744049 10.103069
" />
<path d="M9.744049 10.103069
L9.934524 10.103069
" />
<path d="M9.934524 10.103069
L10.029762 10.055450
" />
<path d="M10.029762 10.055450
L10.077381 10.007830
" />
<path d="M10.077381 10.007830
L10.125000 9.912592
" />
<path d="M10.125000 9.912592
L10.125000 9.674497
" />
<path d="M10.125000 9.674497
L10.077381 9.579259
" />
<path d="M10.077381 9.579259
L10.029762 9.531640
" />
<path d="M10.029762 9.531640
L9.934524 9.484021
" />
<path d="M9.934524 9.484021
L9.744049 9.484021
" />
<path d="M9.744049 9.484021
L9.648811 9.531640
" />
<path d="M9.648811 9.531640
L9.601192 9.579259
" />
<path d="M9.601192 9.579259
L9.553573 9.674497
" />
<path d="M10.553572 10.007830
L10.601191 10.055450
" />
<path d="M10.601191 10.055450
L10.553572 10.103069
" />
<path d="M10.553572 10.103069
L10.505953 10.055450
" />
<path d="M10.505953 10.055450
L10.553572 10.007830
" />
<path d="M10.553572 10.007830
L10.553572 10.103069
" />
<path d="M10.934524 9.103069
L11.553571 9.103069
" />
<path d="M11.553571 9.103069
L11.220238 9.484021
" />
<path d="M11.220238 9.484021
L11.363095 9.484021
" />
<path d="M11.363095 9.484021
L11.458333 9.531640
" />
<path d="M11.458333 9.531640
L11.505952 9.579259
" />
<path d="M11.505952 9.579259
L11.553571 9.674497
" />
<path d="M11.553571 9.674497
L11.553571 9.912592
" />
<path d="M11.553571 9.912592
L11.505952 10.007830
" />
<path d="M11.505952 10.007830
L11.458333 10.055450
" />
<path d="M11.458333 10.055450
L11.363095 10.103069
" />
<path d="M11.363095 10.103069
L11.077381 10.103069
" />
<path d="M11.077381 10.103069
L10.982143 10.055450
" />
<path d="M10.982143 10.055450
L10.934524 10.007830
" />
<path d="M11.982143 10.103069
L11.982143 9.436402
" />
<path d="M11.982143 9.531640
L12.029762 9.484021
" />
<path d="M12.029762 9.484021
L12.125000 9.436402
" />
<path d="M12.125000 9.436402
L12.267857 9.436402
" />
<path d="M12.267857 9.436402
L12.363095 9.484021
" />
<path d="M12.363095 9.484021
L12.410714 9.579259
" />
<path d="M12.410714 9.579259
L12.410714 10.103069
" />
<path d="M12.410714 9.579259
L12.458333 9.484021
" />
<path d="M12.458333 9.484021
L12.553571 9.436402
" />
<path d="M12.553571 9.436402
L12.696428 9.436402
" />
<path d="M12.696428 9.436402
L12.791667 9.484021
" />
<path d="M12.791667 9.484021
L12.839286 9.579259
" />
<path d="M12.839286 9.579259
L12.839286 10.103069
" />
<path d="M13.315476 10.103069
L13.315476 9.436402
" />
<path d="M13.315476 9.531640
L13.363095 9.484021
" />
<path d="M13.363095 9.484021
L13.458333 9.436402
" />
<path d="M13.458333 9.436402
L13.601190 9.436402
" />
<path d="M13.601190 9.436402
L13.696428 9.484021
" />
<path d="M13.696428 9.484021
L13.744047 9.579259
" />
<path d="M13.744047 9.579259
L13.744047 10.103069
" />
<path d="M13.744047 9.579259
L13.791666 9.484021
" />
<path d="M13.791666 9.484021
L13.886904 9.436402
" />
<path d="M13.886904 9.436402
L14.029761 9.436402
" />
<path d="M14.029761 9.436402
L14.125000 9.484021
" />
<path d="M14.125000 9.484021
L14.172619 9.579259
" />
<path d="M14.172619 9.579259
L14.172619 10.103069
" />
<path d="M14.410714 10.198307
L15.172618 10.198307
" />
<path d="M15.410714 10.103069
L15.410714 9.103069
" />
<path d="M15.410714 9.103069
L15.791666 9.103069
" />
<path d="M15.791666 9.103069
L15.886904 9.150688
" />
<path d="M15.886904 9.150688
L15.934523 9.198307
" />
<path d="M15.934523 9.198307
L15.982142 9.293545
" />
<path d="M15.982142 9.293545
L15.982142 9.436402
" />
<path d="M15.982142 9.436402
L15.934523 9.531640
" />
<path d="M15.934523 9.531640
L15.886904 9.579259
" />
<path d="M15.886904 9.579259
L15.791666 9.626878
" />
<path d="M15.791666 9.626878
L15.410714 9.626878
" />
<path d="M16.363095 9.198307
L16.410714 9.150688
" />
<path d="M16.410714 9.150688
L16.505952 9.103069
" />
<path d="M16.505952 9.103069
L16.744047 9.103069
" />
<path d="M16.744047 9.103069
L16.839285 9.150688
" />
<path d="M16.839285 9.150688
L16.886904 9.198307
" />
<path d="M16.886904 9.198307
L16.934523 9.293545
" />
<path d="M16.934523 9.293545
L16.934523 9.388783
" />
<path d="M16.934523 9.388783
L16.886904 9.531640
" />
<path d="M16.886904 9.531640
L16.315476 10.103069
" />
<path d="M16.315476 10.103069
L16.934523 10.103069
" />
<path d="M17.363095 10.007830
L17.410714 10.055450
" />
<path d="M17.410714 10.055450
L17.363095 10.103069
" />
<path d="M17.363095 10.103069
L17.315476 10.055450
" />
<path d="M17.315476 10.055450
L17.363095 10.007830
" />
<path d="M17.363095 10.007830
L17.363095 10.103069
" />
<path d="M18.315475 9.103069
L17.839285 9.103069
" />
<path d="M17.839285 9.103069
L17.791666 9.579259
" />
<path d="M17.791666 9.579259
L17.839285 9.531640
" />
<path d="M17.839285 9.531640
L17.934523 9.484021
" />
<path d="M17.934523 9.484021
L18.172618 9.484021
" />
<path d="M18.172618 9.484021
L18.267856 9.531640
" />
<path d="M18.267856 9.531640
L18.315475 9.579259
" />
<path d="M18.315475 9.579259
L18.363094 9.674497
" />
<path d="M18.363094 9.674497
L18.363094 9.912592
" />
<path d="M18.363094 9.912592
L18.315475 10.007830
" />
<path d="M18.315475 10.007830
L18.267856 10.055450
" />
<path d="M18.267856 10.055450
L18.172618 10.103069
" />
<path d="M18.172618 10.103069
L17.934523 10.103069
" />
<path d="M17.934523 10.103069
L17.839285 10.055450
" />
<path d="M17.839285 10.055450
L17.791666 10.007830
" />
<path d="M18.982142 9.103069
L19.077380 9.103069
" />
<path d="M19.077380 9.103069
L19.172618 9.150688
" />
<path d="M19.172618 9.150688
L19.220237 9.198307
" />
<path d="M19.220237 9.198307
L19.267856 9.293545
" />
<path d="M19.267856 9.293545
L19.315475 9.484021
" />
<path d="M19.315475 9.484021
L19.315475 9.722116
" />
<path d="M19.315475 9.722116
L19.267856 9.912592
" />
<path d="M19.267856 9.912592
L19.220237 10.007830
" />
<path d="M19.220237 10.007830
L19.172618 10.055450
" />
<path d="M19.172618 10.055450
L19.077380 10.103069
" />
<path d="M19.077380 10.103069
L18.982142 10.103069
" />
<path d="M18.982142 10.103069
L18.886904 10.055450
" />
<path d="M18.886904 10.055450
L18.839285 10.007830
" />
<path d="M18.839285 10.007830
L18.791666 9.912592
" />
<path d="M18.791666 9.912592
L18.744047 9.722116
" />
<path d="M18.744047 9.722116
L18.744047 9.484021
" />
<path d="M18.744047 9.484021
L18.791666 9.293545
" />
<path d="M18.791666 9.293545
L18.839285 9.198307
" />
<path d="M18.839285 9.198307
L18.886904 9.150688
" />
<path d="M18.886904 9.150688
L18.982142 9.103069
" />
<path d="M19.744047 10.103069
L19.744047 9.436402
" />
<path d="M19.744047 9.531640
L19.791666 9.484021
" />
<path d="M19.791666 9.484021
L19.886904 9.436402
" />
<path d="M19.886904 9.436402
L20.029761 9.436402
" />
<path d="M20.029761 9.436402
L20.124999 9.484021
" />
<path d="M20.124999 9.484021
L20.172618 9.579259
" />
<path d="M20.172618 9.579259
L20.172618 10.103069
" />
<path d="M20.172618 9.579259
L20.220237 9.484021
" />
<path d="M20.220237 9.484021
L20.315475 9.436402
" />
<path d="M20.315475 9.436402
L20.458332 9.436402
" />
<path d="M20.458332 9.436402
L20.553571 9.484021
" />
<path d="M20.553571 9.484021
L20.601190 9.579259
" />
<path d="M20.601190 9.579259
L20.601190 10.103069
" />
<path d="M21.077380 10.103069
L21.077380 9.436402
" />
<path d="M21.077380 9.531640
L21.124999 9.484021
" />
<path d="M21.124999 9.484021
L21.220237 9.436402
" />
<path d="M21.220237 9.436402
L21.363094 9.436402
" />
<path d="M21.363094 9.436402
L21.458332 9.484021
" />
<path d="M21.458332 9.484021
L21.505951 9.579259
" />
<path d="M21.505951 9.579259
L21.505951 10.103069
" />
<path d="M21.505951 9.579259
L21.553570 9.484021
" />
<path d="M21.553570 9.484021
L21.648808 9.436402
" />
<path d="M21.648808 9.436402
L21.791665 9.436402
" />
<path d="M21.791665 9.436402
L21.886904 9.484021
" />
<path d="M21.886904 9.484021
L21.934523 9.579259
" />
<path d="M21.934523 9.579259
L21.934523 10.103069
" />
</g><text x="11.148809" y="5.748250"
textLength="4.535715" font-size="1.333333" lengthAdjust="spacingAndGlyphs"
text-anchor="middle" opacity="0" stroke-opacity="0">REF**</text>
<g class="stroked-text"><desc>REF**</desc>
<path d="M9.815476 5.703069
L9.482143 5.226879
" />
<path d="M9.244048 5.703069
L9.244048 4.703070
" />
<path d="M9.244048 4.703070
L9.625000 4.703070
" />
<path d="M9.625000 4.703070
L9.720238 4.750689
" />
<path d="M9.720238 4.750689
L9.767857 4.798308
" />
<path d="M9.767857 4.798308
L9.815476 4.893546
" />
<path d="M9.815476 4.893546
L9.815476 5.036403
" />
<path d="M9.815476 5.036403
L9.767857 5.131641
" />
<path d="M9.767857 5.131641
L9.720238 5.179260
" />
<path d="M9.720238 5.179260
L9.625000 5.226879
" />
<path d="M9.625000 5.226879
L9.244048 5.226879
" />
<path d="M10.244047 5.179260
L10.577380 5.179260
" />
<path d="M10.720237 5.703069
L10.244047 5.703069
" />
<path d="M10.244047 5.703069
L10.244047 4.703070
" />
<path d="M10.244047 4.703070
L10.720237 4.703070
" />
<path d="M11.482142 5.179260
L11.148809 5.179260
" />
<path d="M11.148809 5.703069
L11.148809 4.703070
" />
<path d="M11.148809 4.703070
L11.624999 4.703070
" />
<path d="M12.148809 4.703070
L12.148809 4.941165
" />
<path d="M11.910714 4.845927
L12.148809 4.941165
" />
<path d="M12.148809 4.941165
L12.386904 4.845927
" />
<path d="M12.005952 5.131641
L12.148809 4.941165
" />
<path d="M12.148809 4.941165
L12.291666 5.131641
" />
<path d="M12.910714 4.703070
L12.910714 4.941165
" />
<path d="M12.672619 4.845927
L12.910714 4.941165
" />
<path d="M12.910714 4.941165
L13.148809 4.845927
" />
<path d="M12.767857 5.131641
L12.910714 4.941165
" />
<path d="M12.910714 4.941165
L13.053571 5.131641
" />
</g></g>
<g style="fill:none; 
stroke:#000000; stroke-width:0.100000; stroke-opacity:1; 
stroke-linecap:round; stroke-linejoin:round;">
<path d="M8.454837 3.874750
L9.084837 3.874750
" />
<path d="M8.769837 3.559750
L8.769837 4.189750
" />
<circle cx="11.148809" cy="5.248250" r="3.150000" /> 
</g>
<g style="fill:#000000; fill-opacity:1.000000; stroke:none;">
<circle cx="9.898809" cy="5.248250" r="0.400000" /> 
<circle cx="12.398809" cy="5.248250" r="0.400000" /> 
</g> 
</svg>
