<?xml version="1.0" standalone="no"?>
 <!DOCTYPE svg PUBLIC "-//W3C//DTD SVG 1.1//EN" 
 "http://www.w3.org/Graphics/SVG/1.1/DTD/svg11.dtd"> 
<svg
  xmlns:svg="http://www.w3.org/2000/svg"
  xmlns="http://www.w3.org/2000/svg"
  xmlns:xlink="http://www.w3.org/1999/xlink"
  xmlns:inkscape="http://www.inkscape.org/namespaces/inkscape"
  version="1.1"
  width="22.275800mm" height="10.490200mm" viewBox="0.000000 0.000000 22.275800 10.490200">
<title>SVG Image created as CP_Radial_D6.3mm_P2.50mm.svg date 2026-04-21T12:25:20 </title>
  <desc>Image generated by PCBNEW </desc>
<g style="fill:#000000; fill-opacity:1.000000;stroke:#000000; stroke-opacity:1.000000;
stroke-linecap:round; stroke-linejoin:round;"
 transform="translate(0 0) scale(1 1)">
</g>
<g style="fill:none; 
stroke:#000000; stroke-width:0.050000; stroke-opacity:1; 
stroke-linecap:round; stroke-linejoin:round;">
<circle cx="11.148809" cy="5.248250" r="3.400000" /> 
<path style="fill:#000000; fill-opacity:1.000000; stroke:none;fill-rule:evenodd;"
d="M 9.098809,4.698250
9.117839,4.602579
9.172032,4.521473
9.253138,4.467280
9.348809,4.448250
10.448809,4.448250
10.544480,4.467280
10.625586,4.521473
10.679779,4.602579
10.698809,4.698250
10.698809,5.798250
10.679779,5.893921
10.625586,5.975027
10.544480,6.029220
10.448809,6.048250
9.348809,6.048250
9.253138,6.029220
9.172032,5.975027
9.117839,5.893921
9.098809,5.798250
Z" /> 
</g>
<g style="fill:#000000; fill-opacity:1.000000; stroke:none;">
<circle cx="12.398809" cy="5.248250" r="0.800000" /> 
<path style="fill:#000000; fill-opacity:1.000000; stroke:none;fill-rule:evenodd;"
d="M 9.098809,4.698250
9.117839,4.602579
9.172032,4.521473
9.253138,4.467280
9.348809,4.448250
10.448809,4.448250
10.544480,4.467280
10.625586,4.521473
10.679779,4.602579
10.698809,4.698250
10.698809,5.798250
10.679779,5.893921
10.625586,5.975027
10.544480,6.029220
10.448809,6.048250
9.348809,6.048250
9.253138,6.029220
9.172032,5.975027
9.117839,5.893921
9.098809,5.798250
Z" /> 
<circle cx="12.398809" cy="5.248250" r="0.800000" /> 
</g>
<g style="fill:#FFFFFF; fill-opacity:1.000000; stroke:none;">
<circle cx="9.898809" cy="5.248250" r="0.400000" /> 
</g>
<g style="fill:#FFFFFF; fill-opacity:1.000000; stroke:none;">
<circle cx="12.398809" cy="5.248250" r="0.400000" /> 
</g> 
</svg>
