<?xml version="1.0" standalone="no"?>
 <!DOCTYPE svg PUBLIC "-//W3C//DTD SVG 1.1//EN" 
 "http://www.w3.org/Graphics/SVG/1.1/DTD/svg11.dtd"> 
<svg
  xmlns:svg="http://www.w3.org/2000/svg"
  xmlns="http://www.w3.org/2000/svg"
  xmlns:xlink="http://www.w3.org/1999/xlink"
  xmlns:inkscape="http://www.inkscape.org/namespaces/inkscape"
  version="1.1"
  width="12.471400mm" height="10.388600mm" viewBox="0.000000 0.000000 12.471400 10.388600">
<title>SVG Image created as CP_Elec_6.3x5.2.svg date 2026-04-21T00:15:17 </title>
  <desc>Image generated by PCBNEW </desc>
<g style="fill:#000000; fill-opacity:1.000000;stroke:#000000; stroke-opacity:1.000000;
stroke-linecap:round; stroke-linejoin:round;"
 transform="translate(0 0) scale(1 1)">
</g>
<g style="fill:none; 
stroke:#000000; stroke-width:0.050000; stroke-opacity:1; 
stroke-linecap:round; stroke-linejoin:round;">
<path d="M1.444048 4.148250
L1.444048 6.248250
" />
<path d="M1.444048 6.248250
L2.694048 6.248250
" />
<path d="M2.694048 2.798250
L2.694048 4.148250
" />
<path d="M2.694048 2.798250
L3.844048 1.648250
" />
<path d="M2.694048 4.148250
L1.444048 4.148250
" />
<path d="M2.694048 6.248250
L2.694048 7.598250
" />
<path d="M2.694048 7.598250
L3.844048 8.748250
" />
<path d="M3.844048 1.648250
L9.794048 1.648250
" />
<path d="M3.844048 8.748250
L9.794048 8.748250
" />
<path d="M9.794048 1.648250
L9.794048 4.148250
" />
<path d="M9.794048 4.148250
L11.044048 4.148250
" />
<path d="M9.794048 6.248250
L9.794048 8.748250
" />
<path d="M11.044048 4.148250
L11.044048 6.248250
" />
<path d="M11.044048 6.248250
L9.794048 6.248250
" />
</g> 
</svg>
