<?xml version="1.0" standalone="no"?>
 <!DOCTYPE svg PUBLIC "-//W3C//DTD SVG 1.1//EN" 
 "http://www.w3.org/Graphics/SVG/1.1/DTD/svg11.dtd"> 
<svg
  xmlns:svg="http://www.w3.org/2000/svg"
  xmlns="http://www.w3.org/2000/svg"
  xmlns:xlink="http://www.w3.org/1999/xlink"
  xmlns:inkscape="http://www.inkscape.org/namespaces/inkscape"
  version="1.1"
  width="42.291000mm" height="6.426200mm" viewBox="0.000000 0.000000 42.291000 6.426200">
<title>SVG Image created as R_Axial_DIN0207_L6.3mm_D2.5mm_P7.62mm_Horizontal.svg date 2026-04-21T12:25:40 </title>
  <desc>Image generated by PCBNEW </desc>
<g style="fill:#000000; fill-opacity:1.000000;stroke:#000000; stroke-opacity:1.000000;
stroke-linecap:round; stroke-linejoin:round;"
 transform="translate(0 0) scale(1 1)">
</g>
<g style="fill:none; 
stroke:#000000; stroke-width:0.150000; stroke-opacity:1; 
stroke-linecap:round; stroke-linejoin:round;">
<text x="21.148809" y="6.088250"
textLength="42.297619" font-size="1.333333" lengthAdjust="spacingAndGlyphs"
text-anchor="middle" opacity="0" stroke-opacity="0">R_Axial_DIN0207_L6.3mm_D2.5mm_P7.62mm_Horizontal</text>
<g class="stroked-text"><desc>R_Axial_DIN0207_L6.3mm_D2.5mm_P7.62mm_Horizontal</desc>
<path d="M0.934524 6.043069
L0.601191 5.566878
" />
<path d="M0.363096 6.043069
L0.363096 5.043069
" />
<path d="M0.363096 5.043069
L0.744048 5.043069
" />
<path d="M0.744048 5.043069
L0.839286 5.090688
" />
<path d="M0.839286 5.090688
L0.886905 5.138307
" />
<path d="M0.886905 5.138307
L0.934524 5.233545
" />
<path d="M0.934524 5.233545
L0.934524 5.376402
" />
<path d="M0.934524 5.376402
L0.886905 5.471640
" />
<path d="M0.886905 5.471640
L0.839286 5.519259
" />
<path d="M0.839286 5.519259
L0.744048 5.566878
" />
<path d="M0.744048 5.566878
L0.363096 5.566878
" />
<path d="M1.125000 6.138307
L1.886905 6.138307
" />
<path d="M2.077382 5.757354
L2.553572 5.757354
" />
<path d="M1.982144 6.043069
L2.315477 5.043069
" />
<path d="M2.315477 5.043069
L2.648810 6.043069
" />
<path d="M2.886906 6.043069
L3.410715 5.376402
" />
<path d="M2.886906 5.376402
L3.410715 6.043069
" />
<path d="M3.791668 6.043069
L3.791668 5.376402
" />
<path d="M3.791668 5.043069
L3.744049 5.090688
" />
<path d="M3.744049 5.090688
L3.791668 5.138307
" />
<path d="M3.791668 5.138307
L3.839287 5.090688
" />
<path d="M3.839287 5.090688
L3.791668 5.043069
" />
<path d="M3.791668 5.043069
L3.791668 5.138307
" />
<path d="M4.696429 6.043069
L4.696429 5.519259
" />
<path d="M4.696429 5.519259
L4.648810 5.424021
" />
<path d="M4.648810 5.424021
L4.553572 5.376402
" />
<path d="M4.553572 5.376402
L4.363096 5.376402
" />
<path d="M4.363096 5.376402
L4.267858 5.424021
" />
<path d="M4.696429 5.995450
L4.601191 6.043069
" />
<path d="M4.601191 6.043069
L4.363096 6.043069
" />
<path d="M4.363096 6.043069
L4.267858 5.995450
" />
<path d="M4.267858 5.995450
L4.220239 5.900211
" />
<path d="M4.220239 5.900211
L4.220239 5.804973
" />
<path d="M4.220239 5.804973
L4.267858 5.709735
" />
<path d="M4.267858 5.709735
L4.363096 5.662116
" />
<path d="M4.363096 5.662116
L4.601191 5.662116
" />
<path d="M4.601191 5.662116
L4.696429 5.614497
" />
<path d="M5.315477 6.043069
L5.220239 5.995450
" />
<path d="M5.220239 5.995450
L5.172620 5.900211
" />
<path d="M5.172620 5.900211
L5.172620 5.043069
" />
<path d="M5.458334 6.138307
L6.220239 6.138307
" />
<path d="M6.458335 6.043069
L6.458335 5.043069
" />
<path d="M6.458335 5.043069
L6.696430 5.043069
" />
<path d="M6.696430 5.043069
L6.839287 5.090688
" />
<path d="M6.839287 5.090688
L6.934525 5.185926
" />
<path d="M6.934525 5.185926
L6.982144 5.281164
" />
<path d="M6.982144 5.281164
L7.029763 5.471640
" />
<path d="M7.029763 5.471640
L7.029763 5.614497
" />
<path d="M7.029763 5.614497
L6.982144 5.804973
" />
<path d="M6.982144 5.804973
L6.934525 5.900211
" />
<path d="M6.934525 5.900211
L6.839287 5.995450
" />
<path d="M6.839287 5.995450
L6.696430 6.043069
" />
<path d="M6.696430 6.043069
L6.458335 6.043069
" />
<path d="M7.458335 6.043069
L7.458335 5.043069
" />
<path d="M7.934525 6.043069
L7.934525 5.043069
" />
<path d="M7.934525 5.043069
L8.505953 6.043069
" />
<path d="M8.505953 6.043069
L8.505953 5.043069
" />
<path d="M9.172620 5.043069
L9.267858 5.043069
" />
<path d="M9.267858 5.043069
L9.363096 5.090688
" />
<path d="M9.363096 5.090688
L9.410715 5.138307
" />
<path d="M9.410715 5.138307
L9.458334 5.233545
" />
<path d="M9.458334 5.233545
L9.505953 5.424021
" />
<path d="M9.505953 5.424021
L9.505953 5.662116
" />
<path d="M9.505953 5.662116
L9.458334 5.852592
" />
<path d="M9.458334 5.852592
L9.410715 5.947830
" />
<path d="M9.410715 5.947830
L9.363096 5.995450
" />
<path d="M9.363096 5.995450
L9.267858 6.043069
" />
<path d="M9.267858 6.043069
L9.172620 6.043069
" />
<path d="M9.172620 6.043069
L9.077382 5.995450
" />
<path d="M9.077382 5.995450
L9.029763 5.947830
" />
<path d="M9.029763 5.947830
L8.982144 5.852592
" />
<path d="M8.982144 5.852592
L8.934525 5.662116
" />
<path d="M8.934525 5.662116
L8.934525 5.424021
" />
<path d="M8.934525 5.424021
L8.982144 5.233545
" />
<path d="M8.982144 5.233545
L9.029763 5.138307
" />
<path d="M9.029763 5.138307
L9.077382 5.090688
" />
<path d="M9.077382 5.090688
L9.172620 5.043069
" />
<path d="M9.886906 5.138307
L9.934525 5.090688
" />
<path d="M9.934525 5.090688
L10.029763 5.043069
" />
<path d="M10.029763 5.043069
L10.267858 5.043069
" />
<path d="M10.267858 5.043069
L10.363096 5.090688
" />
<path d="M10.363096 5.090688
L10.410715 5.138307
" />
<path d="M10.410715 5.138307
L10.458334 5.233545
" />
<path d="M10.458334 5.233545
L10.458334 5.328783
" />
<path d="M10.458334 5.328783
L10.410715 5.471640
" />
<path d="M10.410715 5.471640
L9.839287 6.043069
" />
<path d="M9.839287 6.043069
L10.458334 6.043069
" />
<path d="M11.077382 5.043069
L11.172620 5.043069
" />
<path d="M11.172620 5.043069
L11.267858 5.090688
" />
<path d="M11.267858 5.090688
L11.315477 5.138307
" />
<path d="M11.315477 5.138307
L11.363096 5.233545
" />
<path d="M11.363096 5.233545
L11.410715 5.424021
" />
<path d="M11.410715 5.424021
L11.410715 5.662116
" />
<path d="M11.410715 5.662116
L11.363096 5.852592
" />
<path d="M11.363096 5.852592
L11.315477 5.947830
" />
<path d="M11.315477 5.947830
L11.267858 5.995450
" />
<path d="M11.267858 5.995450
L11.172620 6.043069
" />
<path d="M11.172620 6.043069
L11.077382 6.043069
" />
<path d="M11.077382 6.043069
L10.982144 5.995450
" />
<path d="M10.982144 5.995450
L10.934525 5.947830
" />
<path d="M10.934525 5.947830
L10.886906 5.852592
" />
<path d="M10.886906 5.852592
L10.839287 5.662116
" />
<path d="M10.839287 5.662116
L10.839287 5.424021
" />
<path d="M10.839287 5.424021
L10.886906 5.233545
" />
<path d="M10.886906 5.233545
L10.934525 5.138307
" />
<path d="M10.934525 5.138307
L10.982144 5.090688
" />
<path d="M10.982144 5.090688
L11.077382 5.043069
" />
<path d="M11.744049 5.043069
L12.410715 5.043069
" />
<path d="M12.410715 5.043069
L11.982144 6.043069
" />
<path d="M12.553572 6.138307
L13.315477 6.138307
" />
<path d="M14.029763 6.043069
L13.553573 6.043069
" />
<path d="M13.553573 6.043069
L13.553573 5.043069
" />
<path d="M14.791668 5.043069
L14.601192 5.043069
" />
<path d="M14.601192 5.043069
L14.505954 5.090688
" />
<path d="M14.505954 5.090688
L14.458335 5.138307
" />
<path d="M14.458335 5.138307
L14.363097 5.281164
" />
<path d="M14.363097 5.281164
L14.315478 5.471640
" />
<path d="M14.315478 5.471640
L14.315478 5.852592
" />
<path d="M14.315478 5.852592
L14.363097 5.947830
" />
<path d="M14.363097 5.947830
L14.410716 5.995450
" />
<path d="M14.410716 5.995450
L14.505954 6.043069
" />
<path d="M14.505954 6.043069
L14.696430 6.043069
" />
<path d="M14.696430 6.043069
L14.791668 5.995450
" />
<path d="M14.791668 5.995450
L14.839287 5.947830
" />
<path d="M14.839287 5.947830
L14.886906 5.852592
" />
<path d="M14.886906 5.852592
L14.886906 5.614497
" />
<path d="M14.886906 5.614497
L14.839287 5.519259
" />
<path d="M14.839287 5.519259
L14.791668 5.471640
" />
<path d="M14.791668 5.471640
L14.696430 5.424021
" />
<path d="M14.696430 5.424021
L14.505954 5.424021
" />
<path d="M14.505954 5.424021
L14.410716 5.471640
" />
<path d="M14.410716 5.471640
L14.363097 5.519259
" />
<path d="M14.363097 5.519259
L14.315478 5.614497
" />
<path d="M15.315478 5.947830
L15.363097 5.995450
" />
<path d="M15.363097 5.995450
L15.315478 6.043069
" />
<path d="M15.315478 6.043069
L15.267859 5.995450
" />
<path d="M15.267859 5.995450
L15.315478 5.947830
" />
<path d="M15.315478 5.947830
L15.315478 6.043069
" />
<path d="M15.696430 5.043069
L16.315477 5.043069
" />
<path d="M16.315477 5.043069
L15.982144 5.424021
" />
<path d="M15.982144 5.424021
L16.125001 5.424021
" />
<path d="M16.125001 5.424021
L16.220239 5.471640
" />
<path d="M16.220239 5.471640
L16.267858 5.519259
" />
<path d="M16.267858 5.519259
L16.315477 5.614497
" />
<path d="M16.315477 5.614497
L16.315477 5.852592
" />
<path d="M16.315477 5.852592
L16.267858 5.947830
" />
<path d="M16.267858 5.947830
L16.220239 5.995450
" />
<path d="M16.220239 5.995450
L16.125001 6.043069
" />
<path d="M16.125001 6.043069
L15.839287 6.043069
" />
<path d="M15.839287 6.043069
L15.744049 5.995450
" />
<path d="M15.744049 5.995450
L15.696430 5.947830
" />
<path d="M16.744049 6.043069
L16.744049 5.376402
" />
<path d="M16.744049 5.471640
L16.791668 5.424021
" />
<path d="M16.791668 5.424021
L16.886906 5.376402
" />
<path d="M16.886906 5.376402
L17.029763 5.376402
" />
<path d="M17.029763 5.376402
L17.125001 5.424021
" />
<path d="M17.125001 5.424021
L17.172620 5.519259
" />
<path d="M17.172620 5.519259
L17.172620 6.043069
" />
<path d="M17.172620 5.519259
L17.220239 5.424021
" />
<path d="M17.220239 5.424021
L17.315477 5.376402
" />
<path d="M17.315477 5.376402
L17.458333 5.376402
" />
<path d="M17.458333 5.376402
L17.553572 5.424021
" />
<path d="M17.553572 5.424021
L17.601191 5.519259
" />
<path d="M17.601191 5.519259
L17.601191 6.043069
" />
<path d="M18.077381 6.043069
L18.077381 5.376402
" />
<path d="M18.077381 5.471640
L18.125000 5.424021
" />
<path d="M18.125000 5.424021
L18.220238 5.376402
" />
<path d="M18.220238 5.376402
L18.363095 5.376402
" />
<path d="M18.363095 5.376402
L18.458333 5.424021
" />
<path d="M18.458333 5.424021
L18.505952 5.519259
" />
<path d="M18.505952 5.519259
L18.505952 6.043069
" />
<path d="M18.505952 5.519259
L18.553571 5.424021
" />
<path d="M18.553571 5.424021
L18.648809 5.376402
" />
<path d="M18.648809 5.376402
L18.791666 5.376402
" />
<path d="M18.791666 5.376402
L18.886905 5.424021
" />
<path d="M18.886905 5.424021
L18.934524 5.519259
" />
<path d="M18.934524 5.519259
L18.934524 6.043069
" />
<path d="M19.172619 6.138307
L19.934523 6.138307
" />
<path d="M20.172619 6.043069
L20.172619 5.043069
" />
<path d="M20.172619 5.043069
L20.410714 5.043069
" />
<path d="M20.410714 5.043069
L20.553571 5.090688
" />
<path d="M20.553571 5.090688
L20.648809 5.185926
" />
<path d="M20.648809 5.185926
L20.696428 5.281164
" />
<path d="M20.696428 5.281164
L20.744047 5.471640
" />
<path d="M20.744047 5.471640
L20.744047 5.614497
" />
<path d="M20.744047 5.614497
L20.696428 5.804973
" />
<path d="M20.696428 5.804973
L20.648809 5.900211
" />
<path d="M20.648809 5.900211
L20.553571 5.995450
" />
<path d="M20.553571 5.995450
L20.410714 6.043069
" />
<path d="M20.410714 6.043069
L20.172619 6.043069
" />
<path d="M21.125000 5.138307
L21.172619 5.090688
" />
<path d="M21.172619 5.090688
L21.267857 5.043069
" />
<path d="M21.267857 5.043069
L21.505952 5.043069
" />
<path d="M21.505952 5.043069
L21.601190 5.090688
" />
<path d="M21.601190 5.090688
L21.648809 5.138307
" />
<path d="M21.648809 5.138307
L21.696428 5.233545
" />
<path d="M21.696428 5.233545
L21.696428 5.328783
" />
<path d="M21.696428 5.328783
L21.648809 5.471640
" />
<path d="M21.648809 5.471640
L21.077381 6.043069
" />
<path d="M21.077381 6.043069
L21.696428 6.043069
" />
<path d="M22.125000 5.947830
L22.172619 5.995450
" />
<path d="M22.172619 5.995450
L22.125000 6.043069
" />
<path d="M22.125000 6.043069
L22.077381 5.995450
" />
<path d="M22.077381 5.995450
L22.125000 5.947830
" />
<path d="M22.125000 5.947830
L22.125000 6.043069
" />
<path d="M23.077380 5.043069
L22.601190 5.043069
" />
<path d="M22.601190 5.043069
L22.553571 5.519259
" />
<path d="M22.553571 5.519259
L22.601190 5.471640
" />
<path d="M22.601190 5.471640
L22.696428 5.424021
" />
<path d="M22.696428 5.424021
L22.934523 5.424021
" />
<path d="M22.934523 5.424021
L23.029761 5.471640
" />
<path d="M23.029761 5.471640
L23.077380 5.519259
" />
<path d="M23.077380 5.519259
L23.124999 5.614497
" />
<path d="M23.124999 5.614497
L23.124999 5.852592
" />
<path d="M23.124999 5.852592
L23.077380 5.947830
" />
<path d="M23.077380 5.947830
L23.029761 5.995450
" />
<path d="M23.029761 5.995450
L22.934523 6.043069
" />
<path d="M22.934523 6.043069
L22.696428 6.043069
" />
<path d="M22.696428 6.043069
L22.601190 5.995450
" />
<path d="M22.601190 5.995450
L22.553571 5.947830
" />
<path d="M23.553571 6.043069
L23.553571 5.376402
" />
<path d="M23.553571 5.471640
L23.601190 5.424021
" />
<path d="M23.601190 5.424021
L23.696428 5.376402
" />
<path d="M23.696428 5.376402
L23.839285 5.376402
" />
<path d="M23.839285 5.376402
L23.934523 5.424021
" />
<path d="M23.934523 5.424021
L23.982142 5.519259
" />
<path d="M23.982142 5.519259
L23.982142 6.043069
" />
<path d="M23.982142 5.519259
L24.029761 5.424021
" />
<path d="M24.029761 5.424021
L24.124999 5.376402
" />
<path d="M24.124999 5.376402
L24.267856 5.376402
" />
<path d="M24.267856 5.376402
L24.363095 5.424021
" />
<path d="M24.363095 5.424021
L24.410714 5.519259
" />
<path d="M24.410714 5.519259
L24.410714 6.043069
" />
<path d="M24.886904 6.043069
L24.886904 5.376402
" />
<path d="M24.886904 5.471640
L24.934523 5.424021
" />
<path d="M24.934523 5.424021
L25.029761 5.376402
" />
<path d="M25.029761 5.376402
L25.172618 5.376402
" />
<path d="M25.172618 5.376402
L25.267856 5.424021
" />
<path d="M25.267856 5.424021
L25.315475 5.519259
" />
<path d="M25.315475 5.519259
L25.315475 6.043069
" />
<path d="M25.315475 5.519259
L25.363094 5.424021
" />
<path d="M25.363094 5.424021
L25.458332 5.376402
" />
<path d="M25.458332 5.376402
L25.601189 5.376402
" />
<path d="M25.601189 5.376402
L25.696428 5.424021
" />
<path d="M25.696428 5.424021
L25.744047 5.519259
" />
<path d="M25.744047 5.519259
L25.744047 6.043069
" />
<path d="M25.982142 6.138307
L26.744046 6.138307
" />
<path d="M26.982142 6.043069
L26.982142 5.043069
" />
<path d="M26.982142 5.043069
L27.363094 5.043069
" />
<path d="M27.363094 5.043069
L27.458332 5.090688
" />
<path d="M27.458332 5.090688
L27.505951 5.138307
" />
<path d="M27.505951 5.138307
L27.553570 5.233545
" />
<path d="M27.553570 5.233545
L27.553570 5.376402
" />
<path d="M27.553570 5.376402
L27.505951 5.471640
" />
<path d="M27.505951 5.471640
L27.458332 5.519259
" />
<path d="M27.458332 5.519259
L27.363094 5.566878
" />
<path d="M27.363094 5.566878
L26.982142 5.566878
" />
<path d="M27.886904 5.043069
L28.553570 5.043069
" />
<path d="M28.553570 5.043069
L28.124999 6.043069
" />
<path d="M28.934523 5.947830
L28.982142 5.995450
" />
<path d="M28.982142 5.995450
L28.934523 6.043069
" />
<path d="M28.934523 6.043069
L28.886904 5.995450
" />
<path d="M28.886904 5.995450
L28.934523 5.947830
" />
<path d="M28.934523 5.947830
L28.934523 6.043069
" />
<path d="M29.839284 5.043069
L29.648808 5.043069
" />
<path d="M29.648808 5.043069
L29.553570 5.090688
" />
<path d="M29.553570 5.090688
L29.505951 5.138307
" />
<path d="M29.505951 5.138307
L29.410713 5.281164
" />
<path d="M29.410713 5.281164
L29.363094 5.471640
" />
<path d="M29.363094 5.471640
L29.363094 5.852592
" />
<path d="M29.363094 5.852592
L29.410713 5.947830
" />
<path d="M29.410713 5.947830
L29.458332 5.995450
" />
<path d="M29.458332 5.995450
L29.553570 6.043069
" />
<path d="M29.553570 6.043069
L29.744046 6.043069
" />
<path d="M29.744046 6.043069
L29.839284 5.995450
" />
<path d="M29.839284 5.995450
L29.886903 5.947830
" />
<path d="M29.886903 5.947830
L29.934522 5.852592
" />
<path d="M29.934522 5.852592
L29.934522 5.614497
" />
<path d="M29.934522 5.614497
L29.886903 5.519259
" />
<path d="M29.886903 5.519259
L29.839284 5.471640
" />
<path d="M29.839284 5.471640
L29.744046 5.424021
" />
<path d="M29.744046 5.424021
L29.553570 5.424021
" />
<path d="M29.553570 5.424021
L29.458332 5.471640
" />
<path d="M29.458332 5.471640
L29.410713 5.519259
" />
<path d="M29.410713 5.519259
L29.363094 5.614497
" />
<path d="M30.315475 5.138307
L30.363094 5.090688
" />
<path d="M30.363094 5.090688
L30.458332 5.043069
" />
<path d="M30.458332 5.043069
L30.696427 5.043069
" />
<path d="M30.696427 5.043069
L30.791665 5.090688
" />
<path d="M30.791665 5.090688
L30.839284 5.138307
" />
<path d="M30.839284 5.138307
L30.886903 5.233545
" />
<path d="M30.886903 5.233545
L30.886903 5.328783
" />
<path d="M30.886903 5.328783
L30.839284 5.471640
" />
<path d="M30.839284 5.471640
L30.267856 6.043069
" />
<path d="M30.267856 6.043069
L30.886903 6.043069
" />
<path d="M31.315475 6.043069
L31.315475 5.376402
" />
<path d="M31.315475 5.471640
L31.363094 5.424021
" />
<path d="M31.363094 5.424021
L31.458332 5.376402
" />
<path d="M31.458332 5.376402
L31.601189 5.376402
" />
<path d="M31.601189 5.376402
L31.696427 5.424021
" />
<path d="M31.696427 5.424021
L31.744046 5.519259
" />
<path d="M31.744046 5.519259
L31.744046 6.043069
" />
<path d="M31.744046 5.519259
L31.791665 5.424021
" />
<path d="M31.791665 5.424021
L31.886903 5.376402
" />
<path d="M31.886903 5.376402
L32.029760 5.376402
" />
<path d="M32.029760 5.376402
L32.124999 5.424021
" />
<path d="M32.124999 5.424021
L32.172618 5.519259
" />
<path d="M32.172618 5.519259
L32.172618 6.043069
" />
<path d="M32.648808 6.043069
L32.648808 5.376402
" />
<path d="M32.648808 5.471640
L32.696427 5.424021
" />
<path d="M32.696427 5.424021
L32.791665 5.376402
" />
<path d="M32.791665 5.376402
L32.934522 5.376402
" />
<path d="M32.934522 5.376402
L33.029760 5.424021
" />
<path d="M33.029760 5.424021
L33.077379 5.519259
" />
<path d="M33.077379 5.519259
L33.077379 6.043069
" />
<path d="M33.077379 5.519259
L33.124998 5.424021
" />
<path d="M33.124998 5.424021
L33.220236 5.376402
" />
<path d="M33.220236 5.376402
L33.363093 5.376402
" />
<path d="M33.363093 5.376402
L33.458332 5.424021
" />
<path d="M33.458332 5.424021
L33.505951 5.519259
" />
<path d="M33.505951 5.519259
L33.505951 6.043069
" />
<path d="M33.744046 6.138307
L34.505950 6.138307
" />
<path d="M34.744046 6.043069
L34.744046 5.043069
" />
<path d="M34.744046 5.519259
L35.315474 5.519259
" />
<path d="M35.315474 6.043069
L35.315474 5.043069
" />
<path d="M35.934522 6.043069
L35.839284 5.995450
" />
<path d="M35.839284 5.995450
L35.791665 5.947830
" />
<path d="M35.791665 5.947830
L35.744046 5.852592
" />
<path d="M35.744046 5.852592
L35.744046 5.566878
" />
<path d="M35.744046 5.566878
L35.791665 5.471640
" />
<path d="M35.791665 5.471640
L35.839284 5.424021
" />
<path d="M35.839284 5.424021
L35.934522 5.376402
" />
<path d="M35.934522 5.376402
L36.077379 5.376402
" />
<path d="M36.077379 5.376402
L36.172617 5.424021
" />
<path d="M36.172617 5.424021
L36.220236 5.471640
" />
<path d="M36.220236 5.471640
L36.267855 5.566878
" />
<path d="M36.267855 5.566878
L36.267855 5.852592
" />
<path d="M36.267855 5.852592
L36.220236 5.947830
" />
<path d="M36.220236 5.947830
L36.172617 5.995450
" />
<path d="M36.172617 5.995450
L36.077379 6.043069
" />
<path d="M36.077379 6.043069
L35.934522 6.043069
" />
<path d="M36.696427 6.043069
L36.696427 5.376402
" />
<path d="M36.696427 5.566878
L36.744046 5.471640
" />
<path d="M36.744046 5.471640
L36.791665 5.424021
" />
<path d="M36.791665 5.424021
L36.886903 5.376402
" />
<path d="M36.886903 5.376402
L36.982141 5.376402
" />
<path d="M37.315475 6.043069
L37.315475 5.376402
" />
<path d="M37.315475 5.043069
L37.267856 5.090688
" />
<path d="M37.267856 5.090688
L37.315475 5.138307
" />
<path d="M37.315475 5.138307
L37.363094 5.090688
" />
<path d="M37.363094 5.090688
L37.315475 5.043069
" />
<path d="M37.315475 5.043069
L37.315475 5.138307
" />
<path d="M37.696427 5.376402
L38.220236 5.376402
" />
<path d="M38.220236 5.376402
L37.696427 6.043069
" />
<path d="M37.696427 6.043069
L38.220236 6.043069
" />
<path d="M38.744046 6.043069
L38.648808 5.995450
" />
<path d="M38.648808 5.995450
L38.601189 5.947830
" />
<path d="M38.601189 5.947830
L38.553570 5.852592
" />
<path d="M38.553570 5.852592
L38.553570 5.566878
" />
<path d="M38.553570 5.566878
L38.601189 5.471640
" />
<path d="M38.601189 5.471640
L38.648808 5.424021
" />
<path d="M38.648808 5.424021
L38.744046 5.376402
" />
<path d="M38.744046 5.376402
L38.886903 5.376402
" />
<path d="M38.886903 5.376402
L38.982141 5.424021
" />
<path d="M38.982141 5.424021
L39.029760 5.471640
" />
<path d="M39.029760 5.471640
L39.077379 5.566878
" />
<path d="M39.077379 5.566878
L39.077379 5.852592
" />
<path d="M39.077379 5.852592
L39.029760 5.947830
" />
<path d="M39.029760 5.947830
L38.982141 5.995450
" />
<path d="M38.982141 5.995450
L38.886903 6.043069
" />
<path d="M38.886903 6.043069
L38.744046 6.043069
" />
<path d="M39.505951 5.376402
L39.505951 6.043069
" />
<path d="M39.505951 5.471640
L39.553570 5.424021
" />
<path d="M39.553570 5.424021
L39.648808 5.376402
" />
<path d="M39.648808 5.376402
L39.791665 5.376402
" />
<path d="M39.791665 5.376402
L39.886903 5.424021
" />
<path d="M39.886903 5.424021
L39.934522 5.519259
" />
<path d="M39.934522 5.519259
L39.934522 6.043069
" />
<path d="M40.267856 5.376402
L40.648808 5.376402
" />
<path d="M40.410713 5.043069
L40.410713 5.900211
" />
<path d="M40.410713 5.900211
L40.458332 5.995450
" />
<path d="M40.458332 5.995450
L40.553570 6.043069
" />
<path d="M40.553570 6.043069
L40.648808 6.043069
" />
<path d="M41.410713 6.043069
L41.410713 5.519259
" />
<path d="M41.410713 5.519259
L41.363094 5.424021
" />
<path d="M41.363094 5.424021
L41.267856 5.376402
" />
<path d="M41.267856 5.376402
L41.077380 5.376402
" />
<path d="M41.077380 5.376402
L40.982142 5.424021
" />
<path d="M41.410713 5.995450
L41.315475 6.043069
" />
<path d="M41.315475 6.043069
L41.077380 6.043069
" />
<path d="M41.077380 6.043069
L40.982142 5.995450
" />
<path d="M40.982142 5.995450
L40.934523 5.900211
" />
<path d="M40.934523 5.900211
L40.934523 5.804973
" />
<path d="M40.934523 5.804973
L40.982142 5.709735
" />
<path d="M40.982142 5.709735
L41.077380 5.662116
" />
<path d="M41.077380 5.662116
L41.315475 5.662116
" />
<path d="M41.315475 5.662116
L41.410713 5.614497
" />
<path d="M42.029761 6.043069
L41.934523 5.995450
" />
<path d="M41.934523 5.995450
L41.886904 5.900211
" />
<path d="M41.886904 5.900211
L41.886904 5.043069
" />
</g><text x="21.148809" y="3.718250"
textLength="4.535715" font-size="1.333333" lengthAdjust="spacingAndGlyphs"
text-anchor="middle" opacity="0" stroke-opacity="0">REF**</text>
<g class="stroked-text"><desc>REF**</desc>
<path d="M19.815475 3.673069
L19.482142 3.196879
" />
<path d="M19.244047 3.673069
L19.244047 2.673070
" />
<path d="M19.244047 2.673070
L19.624999 2.673070
" />
<path d="M19.624999 2.673070
L19.720237 2.720689
" />
<path d="M19.720237 2.720689
L19.767856 2.768308
" />
<path d="M19.767856 2.768308
L19.815475 2.863546
" />
<path d="M19.815475 2.863546
L19.815475 3.006403
" />
<path d="M19.815475 3.006403
L19.767856 3.101641
" />
<path d="M19.767856 3.101641
L19.720237 3.149260
" />
<path d="M19.720237 3.149260
L19.624999 3.196879
" />
<path d="M19.624999 3.196879
L19.244047 3.196879
" />
<path d="M20.244047 3.149260
L20.577380 3.149260
" />
<path d="M20.720237 3.673069
L20.244047 3.673069
" />
<path d="M20.244047 3.673069
L20.244047 2.673070
" />
<path d="M20.244047 2.673070
L20.720237 2.673070
" />
<path d="M21.482142 3.149260
L21.148809 3.149260
" />
<path d="M21.148809 3.673069
L21.148809 2.673070
" />
<path d="M21.148809 2.673070
L21.624999 2.673070
" />
<path d="M22.148809 2.673070
L22.148809 2.911165
" />
<path d="M21.910714 2.815927
L22.148809 2.911165
" />
<path d="M22.148809 2.911165
L22.386904 2.815927
" />
<path d="M22.005952 3.101641
L22.148809 2.911165
" />
<path d="M22.148809 2.911165
L22.291666 3.101641
" />
<path d="M22.910714 2.673070
L22.910714 2.911165
" />
<path d="M22.672619 2.815927
L22.910714 2.911165
" />
<path d="M22.910714 2.911165
L23.148809 2.815927
" />
<path d="M22.767857 3.101641
L22.910714 2.911165
" />
<path d="M22.910714 2.911165
L23.053571 3.101641
" />
</g></g>
<g style="fill:none; 
stroke:#000000; stroke-width:0.100000; stroke-opacity:1; 
stroke-linecap:round; stroke-linejoin:round;">
<path d="M17.338809 3.218250
L17.998809 3.218250
" />
<path d="M24.958809 3.218250
L24.298809 3.218250
" />
<path style="fill:none; 
stroke:#000000; stroke-width:0.100000; stroke-opacity:1; 
stroke-linecap:round; stroke-linejoin:round;fill:none"
d="M 17.998809,1.968250
24.298809,1.968250
24.298809,4.468250
17.998809,4.468250
Z" /> 
</g>
<g style="fill:#000000; fill-opacity:1.000000; stroke:none;">
<circle cx="17.338809" cy="3.218250" r="0.400000" /> 
<circle cx="24.958809" cy="3.218250" r="0.400000" /> 
</g> 
</svg>
