<?xml version="1.0" standalone="no"?>
 <!DOCTYPE svg PUBLIC "-//W3C//DTD SVG 1.1//EN" 
 "http://www.w3.org/Graphics/SVG/1.1/DTD/svg11.dtd"> 
<svg
  xmlns:svg="http://www.w3.org/2000/svg"
  xmlns="http://www.w3.org/2000/svg"
  xmlns:xlink="http://www.w3.org/1999/xlink"
  xmlns:inkscape="http://www.inkscape.org/namespaces/inkscape"
  version="1.1"
  width="9.093200mm" height="5.435600mm" viewBox="0.000000 0.000000 9.093200 5.435600">
<title>SVG Image created as D_SOD-323.svg date 2026-04-21T17:26:52 </title>
  <desc>Image generated by PCBNEW </desc>
<g style="fill:#000000; fill-opacity:1.000000;stroke:#000000; stroke-opacity:1.000000;
stroke-linecap:round; stroke-linejoin:round;"
 transform="translate(0 0) scale(1 1)">
</g>
<g style="fill:none; 
stroke:#000000; stroke-width:0.150000; stroke-opacity:1; 
stroke-linecap:round; stroke-linejoin:round;">
<text x="4.553571" y="5.098250"
textLength="9.107143" font-size="1.333333" lengthAdjust="spacingAndGlyphs"
text-anchor="middle" opacity="0" stroke-opacity="0">D_SOD-323</text>
<g class="stroked-text"><desc>D_SOD-323</desc>
<path d="M0.363096 5.053069
L0.363096 4.053069
" />
<path d="M0.363096 4.053069
L0.601191 4.053069
" />
<path d="M0.601191 4.053069
L0.744048 4.100688
" />
<path d="M0.744048 4.100688
L0.839286 4.195926
" />
<path d="M0.839286 4.195926
L0.886905 4.291164
" />
<path d="M0.886905 4.291164
L0.934524 4.481640
" />
<path d="M0.934524 4.481640
L0.934524 4.624497
" />
<path d="M0.934524 4.624497
L0.886905 4.814973
" />
<path d="M0.886905 4.814973
L0.839286 4.910211
" />
<path d="M0.839286 4.910211
L0.744048 5.005450
" />
<path d="M0.744048 5.005450
L0.601191 5.053069
" />
<path d="M0.601191 5.053069
L0.363096 5.053069
" />
<path d="M1.125000 5.148307
L1.886905 5.148307
" />
<path d="M2.077382 5.005450
L2.220239 5.053069
" />
<path d="M2.220239 5.053069
L2.458334 5.053069
" />
<path d="M2.458334 5.053069
L2.553572 5.005450
" />
<path d="M2.553572 5.005450
L2.601191 4.957830
" />
<path d="M2.601191 4.957830
L2.648810 4.862592
" />
<path d="M2.648810 4.862592
L2.648810 4.767354
" />
<path d="M2.648810 4.767354
L2.601191 4.672116
" />
<path d="M2.601191 4.672116
L2.553572 4.624497
" />
<path d="M2.553572 4.624497
L2.458334 4.576878
" />
<path d="M2.458334 4.576878
L2.267858 4.529259
" />
<path d="M2.267858 4.529259
L2.172620 4.481640
" />
<path d="M2.172620 4.481640
L2.125001 4.434021
" />
<path d="M2.125001 4.434021
L2.077382 4.338783
" />
<path d="M2.077382 4.338783
L2.077382 4.243545
" />
<path d="M2.077382 4.243545
L2.125001 4.148307
" />
<path d="M2.125001 4.148307
L2.172620 4.100688
" />
<path d="M2.172620 4.100688
L2.267858 4.053069
" />
<path d="M2.267858 4.053069
L2.505953 4.053069
" />
<path d="M2.505953 4.053069
L2.648810 4.100688
" />
<path d="M3.267858 4.053069
L3.458334 4.053069
" />
<path d="M3.458334 4.053069
L3.553572 4.100688
" />
<path d="M3.553572 4.100688
L3.648810 4.195926
" />
<path d="M3.648810 4.195926
L3.696429 4.386402
" />
<path d="M3.696429 4.386402
L3.696429 4.719735
" />
<path d="M3.696429 4.719735
L3.648810 4.910211
" />
<path d="M3.648810 4.910211
L3.553572 5.005450
" />
<path d="M3.553572 5.005450
L3.458334 5.053069
" />
<path d="M3.458334 5.053069
L3.267858 5.053069
" />
<path d="M3.267858 5.053069
L3.172620 5.005450
" />
<path d="M3.172620 5.005450
L3.077382 4.910211
" />
<path d="M3.077382 4.910211
L3.029763 4.719735
" />
<path d="M3.029763 4.719735
L3.029763 4.386402
" />
<path d="M3.029763 4.386402
L3.077382 4.195926
" />
<path d="M3.077382 4.195926
L3.172620 4.100688
" />
<path d="M3.172620 4.100688
L3.267858 4.053069
" />
<path d="M4.125001 5.053069
L4.125001 4.053069
" />
<path d="M4.125001 4.053069
L4.363096 4.053069
" />
<path d="M4.363096 4.053069
L4.505952 4.100688
" />
<path d="M4.505952 4.100688
L4.601190 4.195926
" />
<path d="M4.601190 4.195926
L4.648809 4.291164
" />
<path d="M4.648809 4.291164
L4.696428 4.481640
" />
<path d="M4.696428 4.481640
L4.696428 4.624497
" />
<path d="M4.696428 4.624497
L4.648809 4.814973
" />
<path d="M4.648809 4.814973
L4.601190 4.910211
" />
<path d="M4.601190 4.910211
L4.505952 5.005450
" />
<path d="M4.505952 5.005450
L4.363096 5.053069
" />
<path d="M4.363096 5.053069
L4.125001 5.053069
" />
<path d="M5.125000 4.672116
L5.886905 4.672116
" />
<path d="M6.267857 4.053069
L6.886904 4.053069
" />
<path d="M6.886904 4.053069
L6.553571 4.434021
" />
<path d="M6.553571 4.434021
L6.696428 4.434021
" />
<path d="M6.696428 4.434021
L6.791666 4.481640
" />
<path d="M6.791666 4.481640
L6.839285 4.529259
" />
<path d="M6.839285 4.529259
L6.886904 4.624497
" />
<path d="M6.886904 4.624497
L6.886904 4.862592
" />
<path d="M6.886904 4.862592
L6.839285 4.957830
" />
<path d="M6.839285 4.957830
L6.791666 5.005450
" />
<path d="M6.791666 5.005450
L6.696428 5.053069
" />
<path d="M6.696428 5.053069
L6.410714 5.053069
" />
<path d="M6.410714 5.053069
L6.315476 5.005450
" />
<path d="M6.315476 5.005450
L6.267857 4.957830
" />
<path d="M7.267857 4.148307
L7.315476 4.100688
" />
<path d="M7.315476 4.100688
L7.410714 4.053069
" />
<path d="M7.410714 4.053069
L7.648809 4.053069
" />
<path d="M7.648809 4.053069
L7.744047 4.100688
" />
<path d="M7.744047 4.100688
L7.791666 4.148307
" />
<path d="M7.791666 4.148307
L7.839285 4.243545
" />
<path d="M7.839285 4.243545
L7.839285 4.338783
" />
<path d="M7.839285 4.338783
L7.791666 4.481640
" />
<path d="M7.791666 4.481640
L7.220238 5.053069
" />
<path d="M7.220238 5.053069
L7.839285 5.053069
" />
<path d="M8.172619 4.053069
L8.791666 4.053069
" />
<path d="M8.791666 4.053069
L8.458333 4.434021
" />
<path d="M8.458333 4.434021
L8.601190 4.434021
" />
<path d="M8.601190 4.434021
L8.696428 4.481640
" />
<path d="M8.696428 4.481640
L8.744047 4.529259
" />
<path d="M8.744047 4.529259
L8.791666 4.624497
" />
<path d="M8.791666 4.624497
L8.791666 4.862592
" />
<path d="M8.791666 4.862592
L8.744047 4.957830
" />
<path d="M8.744047 4.957830
L8.696428 5.005450
" />
<path d="M8.696428 5.005450
L8.601190 5.053069
" />
<path d="M8.601190 5.053069
L8.315476 5.053069
" />
<path d="M8.315476 5.053069
L8.220238 5.005450
" />
<path d="M8.220238 5.005450
L8.172619 4.957830
" />
</g><text x="4.453571" y="1.348250"
textLength="4.535715" font-size="1.333333" lengthAdjust="spacingAndGlyphs"
text-anchor="middle" opacity="0" stroke-opacity="0">REF**</text>
<g class="stroked-text"><desc>REF**</desc>
<path d="M3.120238 1.303070
L2.786905 0.826879
" />
<path d="M2.548810 1.303070
L2.548810 0.303070
" />
<path d="M2.548810 0.303070
L2.929762 0.303070
" />
<path d="M2.929762 0.303070
L3.025000 0.350689
" />
<path d="M3.025000 0.350689
L3.072619 0.398308
" />
<path d="M3.072619 0.398308
L3.120238 0.493546
" />
<path d="M3.120238 0.493546
L3.120238 0.636403
" />
<path d="M3.120238 0.636403
L3.072619 0.731641
" />
<path d="M3.072619 0.731641
L3.025000 0.779260
" />
<path d="M3.025000 0.779260
L2.929762 0.826879
" />
<path d="M2.929762 0.826879
L2.548810 0.826879
" />
<path d="M3.548810 0.779260
L3.882143 0.779260
" />
<path d="M4.025000 1.303070
L3.548810 1.303070
" />
<path d="M3.548810 1.303070
L3.548810 0.303070
" />
<path d="M3.548810 0.303070
L4.025000 0.303070
" />
<path d="M4.786904 0.779260
L4.453571 0.779260
" />
<path d="M4.453571 1.303070
L4.453571 0.303070
" />
<path d="M4.453571 0.303070
L4.929761 0.303070
" />
<path d="M5.453571 0.303070
L5.453571 0.541165
" />
<path d="M5.215476 0.445927
L5.453571 0.541165
" />
<path d="M5.453571 0.541165
L5.691666 0.445927
" />
<path d="M5.310714 0.731641
L5.453571 0.541165
" />
<path d="M5.453571 0.541165
L5.596428 0.731641
" />
<path d="M6.215476 0.303070
L6.215476 0.541165
" />
<path d="M5.977381 0.445927
L6.215476 0.541165
" />
<path d="M6.215476 0.541165
L6.453571 0.445927
" />
<path d="M6.072619 0.731641
L6.215476 0.541165
" />
<path d="M6.215476 0.541165
L6.358333 0.731641
" />
</g></g>
<g style="fill:none; 
stroke:#000000; stroke-width:0.100000; stroke-opacity:1; 
stroke-linecap:round; stroke-linejoin:round;">
<path d="M3.553571 1.998250
L5.353571 1.998250
" />
<path d="M3.553571 3.398250
L3.553571 1.998250
" />
<path d="M4.153571 2.348250
L4.153571 3.048250
" />
<path d="M4.153571 2.698250
L3.953571 2.698250
" />
<path d="M4.153571 2.698250
L4.653571 2.348250
" />
<path d="M4.653571 2.348250
L4.653571 3.048250
" />
<path d="M4.653571 2.698250
L4.903571 2.698250
" />
<path d="M4.653571 3.048250
L4.153571 2.698250
" />
<path d="M5.353571 1.998250
L5.353571 3.398250
" />
<path d="M5.353571 3.398250
L3.553571 3.398250
" />
</g> 
</svg>
