<?xml version="1.0" standalone="no"?>
 <!DOCTYPE svg PUBLIC "-//W3C//DTD SVG 1.1//EN" 
 "http://www.w3.org/Graphics/SVG/1.1/DTD/svg11.dtd"> 
<svg
  xmlns:svg="http://www.w3.org/2000/svg"
  xmlns="http://www.w3.org/2000/svg"
  xmlns:xlink="http://www.w3.org/1999/xlink"
  xmlns:inkscape="http://www.inkscape.org/namespaces/inkscape"
  version="1.1"
  width="9.093200mm" height="5.435600mm" viewBox="0.000000 0.000000 9.093200 5.435600">
<title>SVG Image created as D_SOD-323.svg date 2026-04-21T00:15:36 </title>
  <desc>Image generated by PCBNEW </desc>
<g style="fill:#000000; fill-opacity:1.000000;stroke:#000000; stroke-opacity:1.000000;
stroke-linecap:round; stroke-linejoin:round;"
 transform="translate(0 0) scale(1 1)">
</g>
<g style="fill:none; 
stroke:#000000; stroke-width:0.050000; stroke-opacity:1; 
stroke-linecap:round; stroke-linejoin:round;">
<path d="M2.853571 1.748250
L2.853571 3.648250
" />
<path d="M2.853571 1.748250
L6.053571 1.748250
" />
<path d="M2.853571 3.648250
L6.053571 3.648250
" />
<path d="M6.053571 1.748250
L6.053571 3.648250
" />
<path style="fill:#000000; fill-opacity:1.000000; stroke:none;fill-rule:evenodd;"
d="M 3.103571,2.585750
3.112135,2.542698
3.136521,2.506200
3.173019,2.481814
3.216071,2.473250
3.591071,2.473250
3.634123,2.481814
3.670621,2.506200
3.695007,2.542698
3.703571,2.585750
3.703571,2.810750
3.695007,2.853802
3.670621,2.890300
3.634123,2.914686
3.591071,2.923250
3.216071,2.923250
3.173019,2.914686
3.136521,2.890300
3.112135,2.853802
3.103571,2.810750
Z" /> 
<path style="fill:#000000; fill-opacity:1.000000; stroke:none;fill-rule:evenodd;"
d="M 5.203571,2.585750
5.212135,2.542698
5.236521,2.506200
5.273019,2.481814
5.316071,2.473250
5.691071,2.473250
5.734123,2.481814
5.770621,2.506200
5.795007,2.542698
5.803571,2.585750
5.803571,2.810750
5.795007,2.853802
5.770621,2.890300
5.734123,2.914686
5.691071,2.923250
5.316071,2.923250
5.273019,2.914686
5.236521,2.890300
5.212135,2.853802
5.203571,2.810750
Z" /> 
<path style="fill:#000000; fill-opacity:1.000000; stroke:none;fill-rule:evenodd;"
d="M 3.103571,2.585750
3.112135,2.542698
3.136521,2.506200
3.173019,2.481814
3.216071,2.473250
3.591071,2.473250
3.634123,2.481814
3.670621,2.506200
3.695007,2.542698
3.703571,2.585750
3.703571,2.810750
3.695007,2.853802
3.670621,2.890300
3.634123,2.914686
3.591071,2.923250
3.216071,2.923250
3.173019,2.914686
3.136521,2.890300
3.112135,2.853802
3.103571,2.810750
Z" /> 
<path style="fill:#000000; fill-opacity:1.000000; stroke:none;fill-rule:evenodd;"
d="M 5.203571,2.585750
5.212135,2.542698
5.236521,2.506200
5.273019,2.481814
5.316071,2.473250
5.691071,2.473250
5.734123,2.481814
5.770621,2.506200
5.795007,2.542698
5.803571,2.585750
5.803571,2.810750
5.795007,2.853802
5.770621,2.890300
5.734123,2.914686
5.691071,2.923250
5.316071,2.923250
5.273019,2.914686
5.236521,2.890300
5.212135,2.853802
5.203571,2.810750
Z" /> 
</g> 
</svg>
