<?xml version="1.0" standalone="no"?>
 <!DOCTYPE svg PUBLIC "-//W3C//DTD SVG 1.1//EN" 
 "http://www.w3.org/Graphics/SVG/1.1/DTD/svg11.dtd"> 
<svg
  xmlns:svg="http://www.w3.org/2000/svg"
  xmlns="http://www.w3.org/2000/svg"
  xmlns:xlink="http://www.w3.org/1999/xlink"
  xmlns:inkscape="http://www.inkscape.org/namespaces/inkscape"
  version="1.1"
  width="45.389800mm" height="7.188200mm" viewBox="0.000000 0.000000 45.389800 7.188200">
<title>SVG Image created as C_Rect_L7.2mm_W3.0mm_P5.00mm_FKS2_FKP2_MKS2_MKP2.svg date 2026-04-21T12:25:27 </title>
  <desc>Image generated by PCBNEW </desc>
<g style="fill:#000000; fill-opacity:1.000000;stroke:#000000; stroke-opacity:1.000000;
stroke-linecap:round; stroke-linejoin:round;"
 transform="translate(0 0) scale(1 1)">
</g>
<g style="fill:none; 
stroke:#000000; stroke-width:0.150000; stroke-opacity:1; 
stroke-linecap:round; stroke-linejoin:round;">
<text x="22.696428" y="6.848250"
textLength="45.392857" font-size="1.333333" lengthAdjust="spacingAndGlyphs"
text-anchor="middle" opacity="0" stroke-opacity="0">C_Rect_L7.2mm_W3.0mm_P5.00mm_FKS2_FKP2_MKS2_MKP2</text>
<g class="stroked-text"><desc>C_Rect_L7.2mm_W3.0mm_P5.00mm_FKS2_FKP2_MKS2_MKP2</desc>
<path d="M0.934524 6.707830
L0.886905 6.755450
" />
<path d="M0.886905 6.755450
L0.744048 6.803069
" />
<path d="M0.744048 6.803069
L0.648810 6.803069
" />
<path d="M0.648810 6.803069
L0.505953 6.755450
" />
<path d="M0.505953 6.755450
L0.410715 6.660211
" />
<path d="M0.410715 6.660211
L0.363096 6.564973
" />
<path d="M0.363096 6.564973
L0.315477 6.374497
" />
<path d="M0.315477 6.374497
L0.315477 6.231640
" />
<path d="M0.315477 6.231640
L0.363096 6.041164
" />
<path d="M0.363096 6.041164
L0.410715 5.945926
" />
<path d="M0.410715 5.945926
L0.505953 5.850688
" />
<path d="M0.505953 5.850688
L0.648810 5.803069
" />
<path d="M0.648810 5.803069
L0.744048 5.803069
" />
<path d="M0.744048 5.803069
L0.886905 5.850688
" />
<path d="M0.886905 5.850688
L0.934524 5.898307
" />
<path d="M1.125000 6.898307
L1.886905 6.898307
" />
<path d="M2.696429 6.803069
L2.363096 6.326878
" />
<path d="M2.125001 6.803069
L2.125001 5.803069
" />
<path d="M2.125001 5.803069
L2.505953 5.803069
" />
<path d="M2.505953 5.803069
L2.601191 5.850688
" />
<path d="M2.601191 5.850688
L2.648810 5.898307
" />
<path d="M2.648810 5.898307
L2.696429 5.993545
" />
<path d="M2.696429 5.993545
L2.696429 6.136402
" />
<path d="M2.696429 6.136402
L2.648810 6.231640
" />
<path d="M2.648810 6.231640
L2.601191 6.279259
" />
<path d="M2.601191 6.279259
L2.505953 6.326878
" />
<path d="M2.505953 6.326878
L2.125001 6.326878
" />
<path d="M3.505953 6.755450
L3.410715 6.803069
" />
<path d="M3.410715 6.803069
L3.220239 6.803069
" />
<path d="M3.220239 6.803069
L3.125001 6.755450
" />
<path d="M3.125001 6.755450
L3.077382 6.660211
" />
<path d="M3.077382 6.660211
L3.077382 6.279259
" />
<path d="M3.077382 6.279259
L3.125001 6.184021
" />
<path d="M3.125001 6.184021
L3.220239 6.136402
" />
<path d="M3.220239 6.136402
L3.410715 6.136402
" />
<path d="M3.410715 6.136402
L3.505953 6.184021
" />
<path d="M3.505953 6.184021
L3.553572 6.279259
" />
<path d="M3.553572 6.279259
L3.553572 6.374497
" />
<path d="M3.553572 6.374497
L3.077382 6.469735
" />
<path d="M4.410715 6.755450
L4.315477 6.803069
" />
<path d="M4.315477 6.803069
L4.125001 6.803069
" />
<path d="M4.125001 6.803069
L4.029763 6.755450
" />
<path d="M4.029763 6.755450
L3.982144 6.707830
" />
<path d="M3.982144 6.707830
L3.934525 6.612592
" />
<path d="M3.934525 6.612592
L3.934525 6.326878
" />
<path d="M3.934525 6.326878
L3.982144 6.231640
" />
<path d="M3.982144 6.231640
L4.029763 6.184021
" />
<path d="M4.029763 6.184021
L4.125001 6.136402
" />
<path d="M4.125001 6.136402
L4.315477 6.136402
" />
<path d="M4.315477 6.136402
L4.410715 6.184021
" />
<path d="M4.696430 6.136402
L5.077382 6.136402
" />
<path d="M4.839287 5.803069
L4.839287 6.660211
" />
<path d="M4.839287 6.660211
L4.886906 6.755450
" />
<path d="M4.886906 6.755450
L4.982144 6.803069
" />
<path d="M4.982144 6.803069
L5.077382 6.803069
" />
<path d="M5.172620 6.898307
L5.934525 6.898307
" />
<path d="M6.648811 6.803069
L6.172621 6.803069
" />
<path d="M6.172621 6.803069
L6.172621 5.803069
" />
<path d="M6.886907 5.803069
L7.553573 5.803069
" />
<path d="M7.553573 5.803069
L7.125002 6.803069
" />
<path d="M7.934526 6.707830
L7.982145 6.755450
" />
<path d="M7.982145 6.755450
L7.934526 6.803069
" />
<path d="M7.934526 6.803069
L7.886907 6.755450
" />
<path d="M7.886907 6.755450
L7.934526 6.707830
" />
<path d="M7.934526 6.707830
L7.934526 6.803069
" />
<path d="M8.363097 5.898307
L8.410716 5.850688
" />
<path d="M8.410716 5.850688
L8.505954 5.803069
" />
<path d="M8.505954 5.803069
L8.744049 5.803069
" />
<path d="M8.744049 5.803069
L8.839287 5.850688
" />
<path d="M8.839287 5.850688
L8.886906 5.898307
" />
<path d="M8.886906 5.898307
L8.934525 5.993545
" />
<path d="M8.934525 5.993545
L8.934525 6.088783
" />
<path d="M8.934525 6.088783
L8.886906 6.231640
" />
<path d="M8.886906 6.231640
L8.315478 6.803069
" />
<path d="M8.315478 6.803069
L8.934525 6.803069
" />
<path d="M9.363097 6.803069
L9.363097 6.136402
" />
<path d="M9.363097 6.231640
L9.410716 6.184021
" />
<path d="M9.410716 6.184021
L9.505954 6.136402
" />
<path d="M9.505954 6.136402
L9.648811 6.136402
" />
<path d="M9.648811 6.136402
L9.744049 6.184021
" />
<path d="M9.744049 6.184021
L9.791668 6.279259
" />
<path d="M9.791668 6.279259
L9.791668 6.803069
" />
<path d="M9.791668 6.279259
L9.839287 6.184021
" />
<path d="M9.839287 6.184021
L9.934525 6.136402
" />
<path d="M9.934525 6.136402
L10.077382 6.136402
" />
<path d="M10.077382 6.136402
L10.172621 6.184021
" />
<path d="M10.172621 6.184021
L10.220240 6.279259
" />
<path d="M10.220240 6.279259
L10.220240 6.803069
" />
<path d="M10.696430 6.803069
L10.696430 6.136402
" />
<path d="M10.696430 6.231640
L10.744049 6.184021
" />
<path d="M10.744049 6.184021
L10.839287 6.136402
" />
<path d="M10.839287 6.136402
L10.982144 6.136402
" />
<path d="M10.982144 6.136402
L11.077382 6.184021
" />
<path d="M11.077382 6.184021
L11.125001 6.279259
" />
<path d="M11.125001 6.279259
L11.125001 6.803069
" />
<path d="M11.125001 6.279259
L11.172620 6.184021
" />
<path d="M11.172620 6.184021
L11.267858 6.136402
" />
<path d="M11.267858 6.136402
L11.410715 6.136402
" />
<path d="M11.410715 6.136402
L11.505954 6.184021
" />
<path d="M11.505954 6.184021
L11.553573 6.279259
" />
<path d="M11.553573 6.279259
L11.553573 6.803069
" />
<path d="M11.791667 6.898307
L12.553572 6.898307
" />
<path d="M12.696430 5.803069
L12.934525 6.803069
" />
<path d="M12.934525 6.803069
L13.125001 6.088783
" />
<path d="M13.125001 6.088783
L13.315477 6.803069
" />
<path d="M13.315477 6.803069
L13.553572 5.803069
" />
<path d="M13.839287 5.803069
L14.458334 5.803069
" />
<path d="M14.458334 5.803069
L14.125001 6.184021
" />
<path d="M14.125001 6.184021
L14.267858 6.184021
" />
<path d="M14.267858 6.184021
L14.363096 6.231640
" />
<path d="M14.363096 6.231640
L14.410715 6.279259
" />
<path d="M14.410715 6.279259
L14.458334 6.374497
" />
<path d="M14.458334 6.374497
L14.458334 6.612592
" />
<path d="M14.458334 6.612592
L14.410715 6.707830
" />
<path d="M14.410715 6.707830
L14.363096 6.755450
" />
<path d="M14.363096 6.755450
L14.267858 6.803069
" />
<path d="M14.267858 6.803069
L13.982144 6.803069
" />
<path d="M13.982144 6.803069
L13.886906 6.755450
" />
<path d="M13.886906 6.755450
L13.839287 6.707830
" />
<path d="M14.886906 6.707830
L14.934525 6.755450
" />
<path d="M14.934525 6.755450
L14.886906 6.803069
" />
<path d="M14.886906 6.803069
L14.839287 6.755450
" />
<path d="M14.839287 6.755450
L14.886906 6.707830
" />
<path d="M14.886906 6.707830
L14.886906 6.803069
" />
<path d="M15.553572 5.803069
L15.648810 5.803069
" />
<path d="M15.648810 5.803069
L15.744048 5.850688
" />
<path d="M15.744048 5.850688
L15.791667 5.898307
" />
<path d="M15.791667 5.898307
L15.839286 5.993545
" />
<path d="M15.839286 5.993545
L15.886905 6.184021
" />
<path d="M15.886905 6.184021
L15.886905 6.422116
" />
<path d="M15.886905 6.422116
L15.839286 6.612592
" />
<path d="M15.839286 6.612592
L15.791667 6.707830
" />
<path d="M15.791667 6.707830
L15.744048 6.755450
" />
<path d="M15.744048 6.755450
L15.648810 6.803069
" />
<path d="M15.648810 6.803069
L15.553572 6.803069
" />
<path d="M15.553572 6.803069
L15.458334 6.755450
" />
<path d="M15.458334 6.755450
L15.410715 6.707830
" />
<path d="M15.410715 6.707830
L15.363096 6.612592
" />
<path d="M15.363096 6.612592
L15.315477 6.422116
" />
<path d="M15.315477 6.422116
L15.315477 6.184021
" />
<path d="M15.315477 6.184021
L15.363096 5.993545
" />
<path d="M15.363096 5.993545
L15.410715 5.898307
" />
<path d="M15.410715 5.898307
L15.458334 5.850688
" />
<path d="M15.458334 5.850688
L15.553572 5.803069
" />
<path d="M16.315477 6.803069
L16.315477 6.136402
" />
<path d="M16.315477 6.231640
L16.363096 6.184021
" />
<path d="M16.363096 6.184021
L16.458334 6.136402
" />
<path d="M16.458334 6.136402
L16.601191 6.136402
" />
<path d="M16.601191 6.136402
L16.696429 6.184021
" />
<path d="M16.696429 6.184021
L16.744048 6.279259
" />
<path d="M16.744048 6.279259
L16.744048 6.803069
" />
<path d="M16.744048 6.279259
L16.791667 6.184021
" />
<path d="M16.791667 6.184021
L16.886905 6.136402
" />
<path d="M16.886905 6.136402
L17.029762 6.136402
" />
<path d="M17.029762 6.136402
L17.125001 6.184021
" />
<path d="M17.125001 6.184021
L17.172620 6.279259
" />
<path d="M17.172620 6.279259
L17.172620 6.803069
" />
<path d="M17.648810 6.803069
L17.648810 6.136402
" />
<path d="M17.648810 6.231640
L17.696429 6.184021
" />
<path d="M17.696429 6.184021
L17.791667 6.136402
" />
<path d="M17.791667 6.136402
L17.934524 6.136402
" />
<path d="M17.934524 6.136402
L18.029762 6.184021
" />
<path d="M18.029762 6.184021
L18.077381 6.279259
" />
<path d="M18.077381 6.279259
L18.077381 6.803069
" />
<path d="M18.077381 6.279259
L18.125000 6.184021
" />
<path d="M18.125000 6.184021
L18.220238 6.136402
" />
<path d="M18.220238 6.136402
L18.363095 6.136402
" />
<path d="M18.363095 6.136402
L18.458334 6.184021
" />
<path d="M18.458334 6.184021
L18.505953 6.279259
" />
<path d="M18.505953 6.279259
L18.505953 6.803069
" />
<path d="M18.744047 6.898307
L19.505952 6.898307
" />
<path d="M19.744048 6.803069
L19.744048 5.803069
" />
<path d="M19.744048 5.803069
L20.125000 5.803069
" />
<path d="M20.125000 5.803069
L20.220237 5.850688
" />
<path d="M20.220237 5.850688
L20.267856 5.898307
" />
<path d="M20.267856 5.898307
L20.315475 5.993545
" />
<path d="M20.315475 5.993545
L20.315475 6.136402
" />
<path d="M20.315475 6.136402
L20.267856 6.231640
" />
<path d="M20.267856 6.231640
L20.220237 6.279259
" />
<path d="M20.220237 6.279259
L20.125000 6.326878
" />
<path d="M20.125000 6.326878
L19.744048 6.326878
" />
<path d="M21.220237 5.803069
L20.744047 5.803069
" />
<path d="M20.744047 5.803069
L20.696428 6.279259
" />
<path d="M20.696428 6.279259
L20.744047 6.231640
" />
<path d="M20.744047 6.231640
L20.839285 6.184021
" />
<path d="M20.839285 6.184021
L21.077380 6.184021
" />
<path d="M21.077380 6.184021
L21.172618 6.231640
" />
<path d="M21.172618 6.231640
L21.220237 6.279259
" />
<path d="M21.220237 6.279259
L21.267856 6.374497
" />
<path d="M21.267856 6.374497
L21.267856 6.612592
" />
<path d="M21.267856 6.612592
L21.220237 6.707830
" />
<path d="M21.220237 6.707830
L21.172618 6.755450
" />
<path d="M21.172618 6.755450
L21.077380 6.803069
" />
<path d="M21.077380 6.803069
L20.839285 6.803069
" />
<path d="M20.839285 6.803069
L20.744047 6.755450
" />
<path d="M20.744047 6.755450
L20.696428 6.707830
" />
<path d="M21.696428 6.707830
L21.744047 6.755450
" />
<path d="M21.744047 6.755450
L21.696428 6.803069
" />
<path d="M21.696428 6.803069
L21.648809 6.755450
" />
<path d="M21.648809 6.755450
L21.696428 6.707830
" />
<path d="M21.696428 6.707830
L21.696428 6.803069
" />
<path d="M22.363094 5.803069
L22.458332 5.803069
" />
<path d="M22.458332 5.803069
L22.553570 5.850688
" />
<path d="M22.553570 5.850688
L22.601189 5.898307
" />
<path d="M22.601189 5.898307
L22.648808 5.993545
" />
<path d="M22.648808 5.993545
L22.696427 6.184021
" />
<path d="M22.696427 6.184021
L22.696427 6.422116
" />
<path d="M22.696427 6.422116
L22.648808 6.612592
" />
<path d="M22.648808 6.612592
L22.601189 6.707830
" />
<path d="M22.601189 6.707830
L22.553570 6.755450
" />
<path d="M22.553570 6.755450
L22.458332 6.803069
" />
<path d="M22.458332 6.803069
L22.363094 6.803069
" />
<path d="M22.363094 6.803069
L22.267856 6.755450
" />
<path d="M22.267856 6.755450
L22.220237 6.707830
" />
<path d="M22.220237 6.707830
L22.172618 6.612592
" />
<path d="M22.172618 6.612592
L22.124999 6.422116
" />
<path d="M22.124999 6.422116
L22.124999 6.184021
" />
<path d="M22.124999 6.184021
L22.172618 5.993545
" />
<path d="M22.172618 5.993545
L22.220237 5.898307
" />
<path d="M22.220237 5.898307
L22.267856 5.850688
" />
<path d="M22.267856 5.850688
L22.363094 5.803069
" />
<path d="M23.315475 5.803069
L23.410713 5.803069
" />
<path d="M23.410713 5.803069
L23.505951 5.850688
" />
<path d="M23.505951 5.850688
L23.553570 5.898307
" />
<path d="M23.553570 5.898307
L23.601189 5.993545
" />
<path d="M23.601189 5.993545
L23.648808 6.184021
" />
<path d="M23.648808 6.184021
L23.648808 6.422116
" />
<path d="M23.648808 6.422116
L23.601189 6.612592
" />
<path d="M23.601189 6.612592
L23.553570 6.707830
" />
<path d="M23.553570 6.707830
L23.505951 6.755450
" />
<path d="M23.505951 6.755450
L23.410713 6.803069
" />
<path d="M23.410713 6.803069
L23.315475 6.803069
" />
<path d="M23.315475 6.803069
L23.220237 6.755450
" />
<path d="M23.220237 6.755450
L23.172618 6.707830
" />
<path d="M23.172618 6.707830
L23.124999 6.612592
" />
<path d="M23.124999 6.612592
L23.077380 6.422116
" />
<path d="M23.077380 6.422116
L23.077380 6.184021
" />
<path d="M23.077380 6.184021
L23.124999 5.993545
" />
<path d="M23.124999 5.993545
L23.172618 5.898307
" />
<path d="M23.172618 5.898307
L23.220237 5.850688
" />
<path d="M23.220237 5.850688
L23.315475 5.803069
" />
<path d="M24.077380 6.803069
L24.077380 6.136402
" />
<path d="M24.077380 6.231640
L24.124999 6.184021
" />
<path d="M24.124999 6.184021
L24.220237 6.136402
" />
<path d="M24.220237 6.136402
L24.363094 6.136402
" />
<path d="M24.363094 6.136402
L24.458332 6.184021
" />
<path d="M24.458332 6.184021
L24.505951 6.279259
" />
<path d="M24.505951 6.279259
L24.505951 6.803069
" />
<path d="M24.505951 6.279259
L24.553570 6.184021
" />
<path d="M24.553570 6.184021
L24.648808 6.136402
" />
<path d="M24.648808 6.136402
L24.791665 6.136402
" />
<path d="M24.791665 6.136402
L24.886904 6.184021
" />
<path d="M24.886904 6.184021
L24.934523 6.279259
" />
<path d="M24.934523 6.279259
L24.934523 6.803069
" />
<path d="M25.410713 6.803069
L25.410713 6.136402
" />
<path d="M25.410713 6.231640
L25.458332 6.184021
" />
<path d="M25.458332 6.184021
L25.553570 6.136402
" />
<path d="M25.553570 6.136402
L25.696427 6.136402
" />
<path d="M25.696427 6.136402
L25.791665 6.184021
" />
<path d="M25.791665 6.184021
L25.839284 6.279259
" />
<path d="M25.839284 6.279259
L25.839284 6.803069
" />
<path d="M25.839284 6.279259
L25.886903 6.184021
" />
<path d="M25.886903 6.184021
L25.982141 6.136402
" />
<path d="M25.982141 6.136402
L26.124998 6.136402
" />
<path d="M26.124998 6.136402
L26.220237 6.184021
" />
<path d="M26.220237 6.184021
L26.267856 6.279259
" />
<path d="M26.267856 6.279259
L26.267856 6.803069
" />
<path d="M26.505951 6.898307
L27.267855 6.898307
" />
<path d="M27.839284 6.279259
L27.505951 6.279259
" />
<path d="M27.505951 6.803069
L27.505951 5.803069
" />
<path d="M27.505951 5.803069
L27.982141 5.803069
" />
<path d="M28.363094 6.803069
L28.363094 5.803069
" />
<path d="M28.934522 6.803069
L28.505951 6.231640
" />
<path d="M28.934522 5.803069
L28.363094 6.374497
" />
<path d="M29.315475 6.755450
L29.458332 6.803069
" />
<path d="M29.458332 6.803069
L29.696427 6.803069
" />
<path d="M29.696427 6.803069
L29.791665 6.755450
" />
<path d="M29.791665 6.755450
L29.839284 6.707830
" />
<path d="M29.839284 6.707830
L29.886903 6.612592
" />
<path d="M29.886903 6.612592
L29.886903 6.517354
" />
<path d="M29.886903 6.517354
L29.839284 6.422116
" />
<path d="M29.839284 6.422116
L29.791665 6.374497
" />
<path d="M29.791665 6.374497
L29.696427 6.326878
" />
<path d="M29.696427 6.326878
L29.505951 6.279259
" />
<path d="M29.505951 6.279259
L29.410713 6.231640
" />
<path d="M29.410713 6.231640
L29.363094 6.184021
" />
<path d="M29.363094 6.184021
L29.315475 6.088783
" />
<path d="M29.315475 6.088783
L29.315475 5.993545
" />
<path d="M29.315475 5.993545
L29.363094 5.898307
" />
<path d="M29.363094 5.898307
L29.410713 5.850688
" />
<path d="M29.410713 5.850688
L29.505951 5.803069
" />
<path d="M29.505951 5.803069
L29.744046 5.803069
" />
<path d="M29.744046 5.803069
L29.886903 5.850688
" />
<path d="M30.267856 5.898307
L30.315475 5.850688
" />
<path d="M30.315475 5.850688
L30.410713 5.803069
" />
<path d="M30.410713 5.803069
L30.648808 5.803069
" />
<path d="M30.648808 5.803069
L30.744046 5.850688
" />
<path d="M30.744046 5.850688
L30.791665 5.898307
" />
<path d="M30.791665 5.898307
L30.839284 5.993545
" />
<path d="M30.839284 5.993545
L30.839284 6.088783
" />
<path d="M30.839284 6.088783
L30.791665 6.231640
" />
<path d="M30.791665 6.231640
L30.220237 6.803069
" />
<path d="M30.220237 6.803069
L30.839284 6.803069
" />
<path d="M31.029761 6.898307
L31.791665 6.898307
" />
<path d="M32.363094 6.279259
L32.029761 6.279259
" />
<path d="M32.029761 6.803069
L32.029761 5.803069
" />
<path d="M32.029761 5.803069
L32.505951 5.803069
" />
<path d="M32.886904 6.803069
L32.886904 5.803069
" />
<path d="M33.458332 6.803069
L33.029761 6.231640
" />
<path d="M33.458332 5.803069
L32.886904 6.374497
" />
<path d="M33.886904 6.803069
L33.886904 5.803069
" />
<path d="M33.886904 5.803069
L34.267856 5.803069
" />
<path d="M34.267856 5.803069
L34.363094 5.850688
" />
<path d="M34.363094 5.850688
L34.410713 5.898307
" />
<path d="M34.410713 5.898307
L34.458332 5.993545
" />
<path d="M34.458332 5.993545
L34.458332 6.136402
" />
<path d="M34.458332 6.136402
L34.410713 6.231640
" />
<path d="M34.410713 6.231640
L34.363094 6.279259
" />
<path d="M34.363094 6.279259
L34.267856 6.326878
" />
<path d="M34.267856 6.326878
L33.886904 6.326878
" />
<path d="M34.839285 5.898307
L34.886904 5.850688
" />
<path d="M34.886904 5.850688
L34.982142 5.803069
" />
<path d="M34.982142 5.803069
L35.220237 5.803069
" />
<path d="M35.220237 5.803069
L35.315475 5.850688
" />
<path d="M35.315475 5.850688
L35.363094 5.898307
" />
<path d="M35.363094 5.898307
L35.410713 5.993545
" />
<path d="M35.410713 5.993545
L35.410713 6.088783
" />
<path d="M35.410713 6.088783
L35.363094 6.231640
" />
<path d="M35.363094 6.231640
L34.791666 6.803069
" />
<path d="M34.791666 6.803069
L35.410713 6.803069
" />
<path d="M35.601190 6.898307
L36.363094 6.898307
" />
<path d="M36.601190 6.803069
L36.601190 5.803069
" />
<path d="M36.601190 5.803069
L36.934523 6.517354
" />
<path d="M36.934523 6.517354
L37.267856 5.803069
" />
<path d="M37.267856 5.803069
L37.267856 6.803069
" />
<path d="M37.744047 6.803069
L37.744047 5.803069
" />
<path d="M38.315475 6.803069
L37.886904 6.231640
" />
<path d="M38.315475 5.803069
L37.744047 6.374497
" />
<path d="M38.696428 6.755450
L38.839285 6.803069
" />
<path d="M38.839285 6.803069
L39.077380 6.803069
" />
<path d="M39.077380 6.803069
L39.172618 6.755450
" />
<path d="M39.172618 6.755450
L39.220237 6.707830
" />
<path d="M39.220237 6.707830
L39.267856 6.612592
" />
<path d="M39.267856 6.612592
L39.267856 6.517354
" />
<path d="M39.267856 6.517354
L39.220237 6.422116
" />
<path d="M39.220237 6.422116
L39.172618 6.374497
" />
<path d="M39.172618 6.374497
L39.077380 6.326878
" />
<path d="M39.077380 6.326878
L38.886904 6.279259
" />
<path d="M38.886904 6.279259
L38.791666 6.231640
" />
<path d="M38.791666 6.231640
L38.744047 6.184021
" />
<path d="M38.744047 6.184021
L38.696428 6.088783
" />
<path d="M38.696428 6.088783
L38.696428 5.993545
" />
<path d="M38.696428 5.993545
L38.744047 5.898307
" />
<path d="M38.744047 5.898307
L38.791666 5.850688
" />
<path d="M38.791666 5.850688
L38.886904 5.803069
" />
<path d="M38.886904 5.803069
L39.124999 5.803069
" />
<path d="M39.124999 5.803069
L39.267856 5.850688
" />
<path d="M39.648809 5.898307
L39.696428 5.850688
" />
<path d="M39.696428 5.850688
L39.791666 5.803069
" />
<path d="M39.791666 5.803069
L40.029761 5.803069
" />
<path d="M40.029761 5.803069
L40.124999 5.850688
" />
<path d="M40.124999 5.850688
L40.172618 5.898307
" />
<path d="M40.172618 5.898307
L40.220237 5.993545
" />
<path d="M40.220237 5.993545
L40.220237 6.088783
" />
<path d="M40.220237 6.088783
L40.172618 6.231640
" />
<path d="M40.172618 6.231640
L39.601190 6.803069
" />
<path d="M39.601190 6.803069
L40.220237 6.803069
" />
<path d="M40.410714 6.898307
L41.172618 6.898307
" />
<path d="M41.410714 6.803069
L41.410714 5.803069
" />
<path d="M41.410714 5.803069
L41.744047 6.517354
" />
<path d="M41.744047 6.517354
L42.077380 5.803069
" />
<path d="M42.077380 5.803069
L42.077380 6.803069
" />
<path d="M42.553571 6.803069
L42.553571 5.803069
" />
<path d="M43.124999 6.803069
L42.696428 6.231640
" />
<path d="M43.124999 5.803069
L42.553571 6.374497
" />
<path d="M43.553571 6.803069
L43.553571 5.803069
" />
<path d="M43.553571 5.803069
L43.934523 5.803069
" />
<path d="M43.934523 5.803069
L44.029761 5.850688
" />
<path d="M44.029761 5.850688
L44.077380 5.898307
" />
<path d="M44.077380 5.898307
L44.124999 5.993545
" />
<path d="M44.124999 5.993545
L44.124999 6.136402
" />
<path d="M44.124999 6.136402
L44.077380 6.231640
" />
<path d="M44.077380 6.231640
L44.029761 6.279259
" />
<path d="M44.029761 6.279259
L43.934523 6.326878
" />
<path d="M43.934523 6.326878
L43.553571 6.326878
" />
<path d="M44.505952 5.898307
L44.553571 5.850688
" />
<path d="M44.553571 5.850688
L44.648809 5.803069
" />
<path d="M44.648809 5.803069
L44.886904 5.803069
" />
<path d="M44.886904 5.803069
L44.982142 5.850688
" />
<path d="M44.982142 5.850688
L45.029761 5.898307
" />
<path d="M45.029761 5.898307
L45.077380 5.993545
" />
<path d="M45.077380 5.993545
L45.077380 6.088783
" />
<path d="M45.077380 6.088783
L45.029761 6.231640
" />
<path d="M45.029761 6.231640
L44.458333 6.803069
" />
<path d="M44.458333 6.803069
L45.077380 6.803069
" />
</g><text x="22.696428" y="4.098250"
textLength="4.535715" font-size="1.333333" lengthAdjust="spacingAndGlyphs"
text-anchor="middle" opacity="0" stroke-opacity="0">REF**</text>
<g class="stroked-text"><desc>REF**</desc>
<path d="M21.363094 4.053069
L21.029761 3.576879
" />
<path d="M20.791666 4.053069
L20.791666 3.053070
" />
<path d="M20.791666 3.053070
L21.172618 3.053070
" />
<path d="M21.172618 3.053070
L21.267856 3.100689
" />
<path d="M21.267856 3.100689
L21.315475 3.148308
" />
<path d="M21.315475 3.148308
L21.363094 3.243546
" />
<path d="M21.363094 3.243546
L21.363094 3.386403
" />
<path d="M21.363094 3.386403
L21.315475 3.481641
" />
<path d="M21.315475 3.481641
L21.267856 3.529260
" />
<path d="M21.267856 3.529260
L21.172618 3.576879
" />
<path d="M21.172618 3.576879
L20.791666 3.576879
" />
<path d="M21.791666 3.529260
L22.124999 3.529260
" />
<path d="M22.267856 4.053069
L21.791666 4.053069
" />
<path d="M21.791666 4.053069
L21.791666 3.053070
" />
<path d="M21.791666 3.053070
L22.267856 3.053070
" />
<path d="M23.029761 3.529260
L22.696428 3.529260
" />
<path d="M22.696428 4.053069
L22.696428 3.053070
" />
<path d="M22.696428 3.053070
L23.172618 3.053070
" />
<path d="M23.696428 3.053070
L23.696428 3.291165
" />
<path d="M23.458333 3.195927
L23.696428 3.291165
" />
<path d="M23.696428 3.291165
L23.934523 3.195927
" />
<path d="M23.553571 3.481641
L23.696428 3.291165
" />
<path d="M23.696428 3.291165
L23.839285 3.481641
" />
<path d="M24.458333 3.053070
L24.458333 3.291165
" />
<path d="M24.220238 3.195927
L24.458333 3.291165
" />
<path d="M24.458333 3.291165
L24.696428 3.195927
" />
<path d="M24.315476 3.481641
L24.458333 3.291165
" />
<path d="M24.458333 3.291165
L24.601190 3.481641
" />
</g><path style="fill:none; 
stroke:#000000; stroke-width:0.100000; stroke-opacity:1; 
stroke-linecap:round; stroke-linejoin:round;fill:none"
d="M 19.096428,2.098250
26.296428,2.098250
26.296428,5.098250
19.096428,5.098250
Z" /> 
</g>
<g style="fill:#000000; fill-opacity:1.000000; stroke:none;">
<circle cx="20.196428" cy="3.598250" r="0.400000" /> 
<circle cx="25.196428" cy="3.598250" r="0.400000" /> 
</g> 
</svg>
