<?xml version="1.0" standalone="no"?>
 <!DOCTYPE svg PUBLIC "-//W3C//DTD SVG 1.1//EN" 
 "http://www.w3.org/Graphics/SVG/1.1/DTD/svg11.dtd"> 
<svg
  xmlns:svg="http://www.w3.org/2000/svg"
  xmlns="http://www.w3.org/2000/svg"
  xmlns:xlink="http://www.w3.org/1999/xlink"
  xmlns:inkscape="http://www.inkscape.org/namespaces/inkscape"
  version="1.1"
  width="11.049000mm" height="8.077200mm" viewBox="0.000000 0.000000 11.049000 8.077200">
<title>SVG Image created as CP_Elec_4x5.3.svg date 2026-04-21T00:15:16 </title>
  <desc>Image generated by PCBNEW </desc>
<g style="fill:#000000; fill-opacity:1.000000;stroke:#000000; stroke-opacity:1.000000;
stroke-linecap:round; stroke-linejoin:round;"
 transform="translate(0 0) scale(1 1)">
</g>
<g style="fill:none; 
stroke:#000000; stroke-width:0.050000; stroke-opacity:1; 
stroke-linecap:round; stroke-linejoin:round;">
<path d="M2.179762 2.998250
L2.179762 5.098250
" />
<path d="M2.179762 5.098250
L3.129762 5.098250
" />
<path d="M3.129762 2.798250
L3.129762 2.998250
" />
<path d="M3.129762 2.798250
L4.279762 1.648250
" />
<path d="M3.129762 2.998250
L2.179762 2.998250
" />
<path d="M3.129762 5.098250
L3.129762 5.298250
" />
<path d="M3.129762 5.298250
L4.279762 6.448250
" />
<path d="M4.279762 1.648250
L7.929762 1.648250
" />
<path d="M4.279762 6.448250
L7.929762 6.448250
" />
<path d="M7.929762 1.648250
L7.929762 2.998250
" />
<path d="M7.929762 2.998250
L8.879762 2.998250
" />
<path d="M7.929762 5.098250
L7.929762 6.448250
" />
<path d="M8.879762 2.998250
L8.879762 5.098250
" />
<path d="M8.879762 5.098250
L7.929762 5.098250
" />
</g> 
</svg>
