<?xml version="1.0" standalone="no"?>
 <!DOCTYPE svg PUBLIC "-//W3C//DTD SVG 1.1//EN" 
 "http://www.w3.org/Graphics/SVG/1.1/DTD/svg11.dtd"> 
<svg
  xmlns:svg="http://www.w3.org/2000/svg"
  xmlns="http://www.w3.org/2000/svg"
  xmlns:xlink="http://www.w3.org/1999/xlink"
  xmlns:inkscape="http://www.inkscape.org/namespaces/inkscape"
  version="1.1"
  width="11.049000mm" height="8.077200mm" viewBox="0.000000 0.000000 11.049000 8.077200">
<title>SVG Image created as CP_Elec_4x5.3.svg date 2026-04-21T17:26:31 </title>
  <desc>Image generated by PCBNEW </desc>
<g style="fill:#000000; fill-opacity:1.000000;stroke:#000000; stroke-opacity:1.000000;
stroke-linecap:round; stroke-linejoin:round;"
 transform="translate(0 0) scale(1 1)">
</g>
<g style="fill:none; 
stroke:#000000; stroke-width:0.150000; stroke-opacity:1; 
stroke-linecap:round; stroke-linejoin:round;">
<text x="5.529762" y="7.748250"
textLength="11.059525" font-size="1.333333" lengthAdjust="spacingAndGlyphs"
text-anchor="middle" opacity="0" stroke-opacity="0">CP_Elec_4x5.3</text>
<g class="stroked-text"><desc>CP_Elec_4x5.3</desc>
<path d="M0.934524 7.607830
L0.886905 7.655450
" />
<path d="M0.886905 7.655450
L0.744048 7.703069
" />
<path d="M0.744048 7.703069
L0.648810 7.703069
" />
<path d="M0.648810 7.703069
L0.505953 7.655450
" />
<path d="M0.505953 7.655450
L0.410715 7.560211
" />
<path d="M0.410715 7.560211
L0.363096 7.464973
" />
<path d="M0.363096 7.464973
L0.315477 7.274497
" />
<path d="M0.315477 7.274497
L0.315477 7.131640
" />
<path d="M0.315477 7.131640
L0.363096 6.941164
" />
<path d="M0.363096 6.941164
L0.410715 6.845926
" />
<path d="M0.410715 6.845926
L0.505953 6.750688
" />
<path d="M0.505953 6.750688
L0.648810 6.703069
" />
<path d="M0.648810 6.703069
L0.744048 6.703069
" />
<path d="M0.744048 6.703069
L0.886905 6.750688
" />
<path d="M0.886905 6.750688
L0.934524 6.798307
" />
<path d="M1.363096 7.703069
L1.363096 6.703069
" />
<path d="M1.363096 6.703069
L1.744048 6.703069
" />
<path d="M1.744048 6.703069
L1.839286 6.750688
" />
<path d="M1.839286 6.750688
L1.886905 6.798307
" />
<path d="M1.886905 6.798307
L1.934524 6.893545
" />
<path d="M1.934524 6.893545
L1.934524 7.036402
" />
<path d="M1.934524 7.036402
L1.886905 7.131640
" />
<path d="M1.886905 7.131640
L1.839286 7.179259
" />
<path d="M1.839286 7.179259
L1.744048 7.226878
" />
<path d="M1.744048 7.226878
L1.363096 7.226878
" />
<path d="M2.125000 7.798307
L2.886905 7.798307
" />
<path d="M3.125001 7.179259
L3.458334 7.179259
" />
<path d="M3.601191 7.703069
L3.125001 7.703069
" />
<path d="M3.125001 7.703069
L3.125001 6.703069
" />
<path d="M3.125001 6.703069
L3.601191 6.703069
" />
<path d="M4.172620 7.703069
L4.077382 7.655450
" />
<path d="M4.077382 7.655450
L4.029763 7.560211
" />
<path d="M4.029763 7.560211
L4.029763 6.703069
" />
<path d="M4.934525 7.655450
L4.839287 7.703069
" />
<path d="M4.839287 7.703069
L4.648811 7.703069
" />
<path d="M4.648811 7.703069
L4.553573 7.655450
" />
<path d="M4.553573 7.655450
L4.505954 7.560211
" />
<path d="M4.505954 7.560211
L4.505954 7.179259
" />
<path d="M4.505954 7.179259
L4.553573 7.084021
" />
<path d="M4.553573 7.084021
L4.648811 7.036402
" />
<path d="M4.648811 7.036402
L4.839287 7.036402
" />
<path d="M4.839287 7.036402
L4.934525 7.084021
" />
<path d="M4.934525 7.084021
L4.982144 7.179259
" />
<path d="M4.982144 7.179259
L4.982144 7.274497
" />
<path d="M4.982144 7.274497
L4.505954 7.369735
" />
<path d="M5.839286 7.655450
L5.744048 7.703069
" />
<path d="M5.744048 7.703069
L5.553572 7.703069
" />
<path d="M5.553572 7.703069
L5.458335 7.655450
" />
<path d="M5.458335 7.655450
L5.410716 7.607830
" />
<path d="M5.410716 7.607830
L5.363097 7.512592
" />
<path d="M5.363097 7.512592
L5.363097 7.226878
" />
<path d="M5.363097 7.226878
L5.410716 7.131640
" />
<path d="M5.410716 7.131640
L5.458335 7.084021
" />
<path d="M5.458335 7.084021
L5.553572 7.036402
" />
<path d="M5.553572 7.036402
L5.744048 7.036402
" />
<path d="M5.744048 7.036402
L5.839286 7.084021
" />
<path d="M6.029763 7.798307
L6.791667 7.798307
" />
<path d="M7.458334 7.036402
L7.458334 7.703069
" />
<path d="M7.220239 6.655450
L6.982144 7.369735
" />
<path d="M6.982144 7.369735
L7.601191 7.369735
" />
<path d="M7.886906 7.703069
L8.410715 7.036402
" />
<path d="M7.886906 7.036402
L8.410715 7.703069
" />
<path d="M9.267858 6.703069
L8.791668 6.703069
" />
<path d="M8.791668 6.703069
L8.744049 7.179259
" />
<path d="M8.744049 7.179259
L8.791668 7.131640
" />
<path d="M8.791668 7.131640
L8.886906 7.084021
" />
<path d="M8.886906 7.084021
L9.125001 7.084021
" />
<path d="M9.125001 7.084021
L9.220239 7.131640
" />
<path d="M9.220239 7.131640
L9.267858 7.179259
" />
<path d="M9.267858 7.179259
L9.315477 7.274497
" />
<path d="M9.315477 7.274497
L9.315477 7.512592
" />
<path d="M9.315477 7.512592
L9.267858 7.607830
" />
<path d="M9.267858 7.607830
L9.220239 7.655450
" />
<path d="M9.220239 7.655450
L9.125001 7.703069
" />
<path d="M9.125001 7.703069
L8.886906 7.703069
" />
<path d="M8.886906 7.703069
L8.791668 7.655450
" />
<path d="M8.791668 7.655450
L8.744049 7.607830
" />
<path d="M9.744049 7.607830
L9.791668 7.655450
" />
<path d="M9.791668 7.655450
L9.744049 7.703069
" />
<path d="M9.744049 7.703069
L9.696430 7.655450
" />
<path d="M9.696430 7.655450
L9.744049 7.607830
" />
<path d="M9.744049 7.607830
L9.744049 7.703069
" />
<path d="M10.125001 6.703069
L10.744048 6.703069
" />
<path d="M10.744048 6.703069
L10.410715 7.084021
" />
<path d="M10.410715 7.084021
L10.553572 7.084021
" />
<path d="M10.553572 7.084021
L10.648810 7.131640
" />
<path d="M10.648810 7.131640
L10.696429 7.179259
" />
<path d="M10.696429 7.179259
L10.744048 7.274497
" />
<path d="M10.744048 7.274497
L10.744048 7.512592
" />
<path d="M10.744048 7.512592
L10.696429 7.607830
" />
<path d="M10.696429 7.607830
L10.648810 7.655450
" />
<path d="M10.648810 7.655450
L10.553572 7.703069
" />
<path d="M10.553572 7.703069
L10.267858 7.703069
" />
<path d="M10.267858 7.703069
L10.172620 7.655450
" />
<path d="M10.172620 7.655450
L10.125001 7.607830
" />
</g></g>
<g style="fill:none; 
stroke:#000000; stroke-width:0.120000; stroke-opacity:1; 
stroke-linecap:round; stroke-linejoin:round;">
<text x="5.529762" y="4.448250"
textLength="3.628572" font-size="1.066666" lengthAdjust="spacingAndGlyphs"
text-anchor="middle" opacity="0" stroke-opacity="0">REF**</text>
<g class="stroked-text"><desc>REF**</desc>
<path d="M4.463096 4.412105
L4.196429 4.031153
" />
<path d="M4.005953 4.412105
L4.005953 3.612106
" />
<path d="M4.005953 3.612106
L4.310715 3.612106
" />
<path d="M4.310715 3.612106
L4.386905 3.650201
" />
<path d="M4.386905 3.650201
L4.425000 3.688296
" />
<path d="M4.425000 3.688296
L4.463096 3.764487
" />
<path d="M4.463096 3.764487
L4.463096 3.878772
" />
<path d="M4.463096 3.878772
L4.425000 3.954963
" />
<path d="M4.425000 3.954963
L4.386905 3.993058
" />
<path d="M4.386905 3.993058
L4.310715 4.031153
" />
<path d="M4.310715 4.031153
L4.005953 4.031153
" />
<path d="M4.805953 3.993058
L5.072619 3.993058
" />
<path d="M5.186905 4.412105
L4.805953 4.412105
" />
<path d="M4.805953 4.412105
L4.805953 3.612106
" />
<path d="M4.805953 3.612106
L5.186905 3.612106
" />
<path d="M5.796428 3.993058
L5.529762 3.993058
" />
<path d="M5.529762 4.412105
L5.529762 3.612106
" />
<path d="M5.529762 3.612106
L5.910714 3.612106
" />
<path d="M6.329761 3.612106
L6.329761 3.802582
" />
<path d="M6.139285 3.726391
L6.329761 3.802582
" />
<path d="M6.329761 3.802582
L6.520238 3.726391
" />
<path d="M6.215476 3.954963
L6.329761 3.802582
" />
<path d="M6.329761 3.802582
L6.444047 3.954963
" />
<path d="M6.939285 3.612106
L6.939285 3.802582
" />
<path d="M6.748809 3.726391
L6.939285 3.802582
" />
<path d="M6.939285 3.802582
L7.129762 3.726391
" />
<path d="M6.825000 3.954963
L6.939285 3.802582
" />
<path d="M6.939285 3.802582
L7.053571 3.954963
" />
</g></g>
<g style="fill:none; 
stroke:#000000; stroke-width:0.100000; stroke-opacity:1; 
stroke-linecap:round; stroke-linejoin:round;">
<path d="M3.379762 2.898250
L3.379762 5.198250
" />
<path d="M3.379762 2.898250
L4.379762 1.898250
" />
<path d="M3.379762 5.198250
L4.379762 6.198250
" />
<path d="M3.954989 3.048250
L4.354989 3.048250
" />
<path d="M4.154989 2.848250
L4.154989 3.248250
" />
<path d="M4.379762 1.898250
L7.679762 1.898250
" />
<path d="M4.379762 6.198250
L7.679762 6.198250
" />
<path d="M7.679762 1.898250
L7.679762 6.198250
" />
<circle cx="5.529762" cy="4.048250" r="2.000000" /> 
</g> 
</svg>
