<?xml version="1.0" standalone="no"?>
 <!DOCTYPE svg PUBLIC "-//W3C//DTD SVG 1.1//EN" 
 "http://www.w3.org/Graphics/SVG/1.1/DTD/svg11.dtd"> 
<svg
  xmlns:svg="http://www.w3.org/2000/svg"
  xmlns="http://www.w3.org/2000/svg"
  xmlns:xlink="http://www.w3.org/1999/xlink"
  xmlns:inkscape="http://www.inkscape.org/namespaces/inkscape"
  version="1.1"
  width="29.057600mm" height="5.511800mm" viewBox="0.000000 0.000000 29.057600 5.511800">
<title>SVG Image created as D_DO-34_SOD68_P7.62mm_Horizontal.svg date 2026-04-21T12:25:35 </title>
  <desc>Image generated by PCBNEW </desc>
<g style="fill:#000000; fill-opacity:1.000000;stroke:#000000; stroke-opacity:1.000000;
stroke-linecap:round; stroke-linejoin:round;"
 transform="translate(0 0) scale(1 1)">
</g>
<g style="fill:none; 
stroke:#000000; stroke-width:0.150000; stroke-opacity:1; 
stroke-linecap:round; stroke-linejoin:round;">
<text x="14.529762" y="5.188250"
textLength="29.059525" font-size="1.333333" lengthAdjust="spacingAndGlyphs"
text-anchor="middle" opacity="0" stroke-opacity="0">D_DO-34_SOD68_P7.62mm_Horizontal</text>
<g class="stroked-text"><desc>D_DO-34_SOD68_P7.62mm_Horizontal</desc>
<path d="M0.363096 5.143069
L0.363096 4.143069
" />
<path d="M0.363096 4.143069
L0.601191 4.143069
" />
<path d="M0.601191 4.143069
L0.744048 4.190688
" />
<path d="M0.744048 4.190688
L0.839286 4.285926
" />
<path d="M0.839286 4.285926
L0.886905 4.381164
" />
<path d="M0.886905 4.381164
L0.934524 4.571640
" />
<path d="M0.934524 4.571640
L0.934524 4.714497
" />
<path d="M0.934524 4.714497
L0.886905 4.904973
" />
<path d="M0.886905 4.904973
L0.839286 5.000211
" />
<path d="M0.839286 5.000211
L0.744048 5.095450
" />
<path d="M0.744048 5.095450
L0.601191 5.143069
" />
<path d="M0.601191 5.143069
L0.363096 5.143069
" />
<path d="M1.125000 5.238307
L1.886905 5.238307
" />
<path d="M2.125001 5.143069
L2.125001 4.143069
" />
<path d="M2.125001 4.143069
L2.363096 4.143069
" />
<path d="M2.363096 4.143069
L2.505953 4.190688
" />
<path d="M2.505953 4.190688
L2.601191 4.285926
" />
<path d="M2.601191 4.285926
L2.648810 4.381164
" />
<path d="M2.648810 4.381164
L2.696429 4.571640
" />
<path d="M2.696429 4.571640
L2.696429 4.714497
" />
<path d="M2.696429 4.714497
L2.648810 4.904973
" />
<path d="M2.648810 4.904973
L2.601191 5.000211
" />
<path d="M2.601191 5.000211
L2.505953 5.095450
" />
<path d="M2.505953 5.095450
L2.363096 5.143069
" />
<path d="M2.363096 5.143069
L2.125001 5.143069
" />
<path d="M3.315477 4.143069
L3.505953 4.143069
" />
<path d="M3.505953 4.143069
L3.601191 4.190688
" />
<path d="M3.601191 4.190688
L3.696429 4.285926
" />
<path d="M3.696429 4.285926
L3.744048 4.476402
" />
<path d="M3.744048 4.476402
L3.744048 4.809735
" />
<path d="M3.744048 4.809735
L3.696429 5.000211
" />
<path d="M3.696429 5.000211
L3.601191 5.095450
" />
<path d="M3.601191 5.095450
L3.505953 5.143069
" />
<path d="M3.505953 5.143069
L3.315477 5.143069
" />
<path d="M3.315477 5.143069
L3.220239 5.095450
" />
<path d="M3.220239 5.095450
L3.125001 5.000211
" />
<path d="M3.125001 5.000211
L3.077382 4.809735
" />
<path d="M3.077382 4.809735
L3.077382 4.476402
" />
<path d="M3.077382 4.476402
L3.125001 4.285926
" />
<path d="M3.125001 4.285926
L3.220239 4.190688
" />
<path d="M3.220239 4.190688
L3.315477 4.143069
" />
<path d="M4.172620 4.762116
L4.934524 4.762116
" />
<path d="M5.315477 4.143069
L5.934524 4.143069
" />
<path d="M5.934524 4.143069
L5.601191 4.524021
" />
<path d="M5.601191 4.524021
L5.744048 4.524021
" />
<path d="M5.744048 4.524021
L5.839286 4.571640
" />
<path d="M5.839286 4.571640
L5.886905 4.619259
" />
<path d="M5.886905 4.619259
L5.934524 4.714497
" />
<path d="M5.934524 4.714497
L5.934524 4.952592
" />
<path d="M5.934524 4.952592
L5.886905 5.047830
" />
<path d="M5.886905 5.047830
L5.839286 5.095450
" />
<path d="M5.839286 5.095450
L5.744048 5.143069
" />
<path d="M5.744048 5.143069
L5.458334 5.143069
" />
<path d="M5.458334 5.143069
L5.363096 5.095450
" />
<path d="M5.363096 5.095450
L5.315477 5.047830
" />
<path d="M6.791667 4.476402
L6.791667 5.143069
" />
<path d="M6.553572 4.095450
L6.315477 4.809735
" />
<path d="M6.315477 4.809735
L6.934524 4.809735
" />
<path d="M7.077381 5.238307
L7.839286 5.238307
" />
<path d="M8.029763 5.095450
L8.172620 5.143069
" />
<path d="M8.172620 5.143069
L8.410715 5.143069
" />
<path d="M8.410715 5.143069
L8.505953 5.095450
" />
<path d="M8.505953 5.095450
L8.553572 5.047830
" />
<path d="M8.553572 5.047830
L8.601191 4.952592
" />
<path d="M8.601191 4.952592
L8.601191 4.857354
" />
<path d="M8.601191 4.857354
L8.553572 4.762116
" />
<path d="M8.553572 4.762116
L8.505953 4.714497
" />
<path d="M8.505953 4.714497
L8.410715 4.666878
" />
<path d="M8.410715 4.666878
L8.220239 4.619259
" />
<path d="M8.220239 4.619259
L8.125001 4.571640
" />
<path d="M8.125001 4.571640
L8.077382 4.524021
" />
<path d="M8.077382 4.524021
L8.029763 4.428783
" />
<path d="M8.029763 4.428783
L8.029763 4.333545
" />
<path d="M8.029763 4.333545
L8.077382 4.238307
" />
<path d="M8.077382 4.238307
L8.125001 4.190688
" />
<path d="M8.125001 4.190688
L8.220239 4.143069
" />
<path d="M8.220239 4.143069
L8.458334 4.143069
" />
<path d="M8.458334 4.143069
L8.601191 4.190688
" />
<path d="M9.220239 4.143069
L9.410715 4.143069
" />
<path d="M9.410715 4.143069
L9.505953 4.190688
" />
<path d="M9.505953 4.190688
L9.601191 4.285926
" />
<path d="M9.601191 4.285926
L9.648810 4.476402
" />
<path d="M9.648810 4.476402
L9.648810 4.809735
" />
<path d="M9.648810 4.809735
L9.601191 5.000211
" />
<path d="M9.601191 5.000211
L9.505953 5.095450
" />
<path d="M9.505953 5.095450
L9.410715 5.143069
" />
<path d="M9.410715 5.143069
L9.220239 5.143069
" />
<path d="M9.220239 5.143069
L9.125001 5.095450
" />
<path d="M9.125001 5.095450
L9.029763 5.000211
" />
<path d="M9.029763 5.000211
L8.982144 4.809735
" />
<path d="M8.982144 4.809735
L8.982144 4.476402
" />
<path d="M8.982144 4.476402
L9.029763 4.285926
" />
<path d="M9.029763 4.285926
L9.125001 4.190688
" />
<path d="M9.125001 4.190688
L9.220239 4.143069
" />
<path d="M10.077382 5.143069
L10.077382 4.143069
" />
<path d="M10.077382 4.143069
L10.315477 4.143069
" />
<path d="M10.315477 4.143069
L10.458334 4.190688
" />
<path d="M10.458334 4.190688
L10.553572 4.285926
" />
<path d="M10.553572 4.285926
L10.601191 4.381164
" />
<path d="M10.601191 4.381164
L10.648810 4.571640
" />
<path d="M10.648810 4.571640
L10.648810 4.714497
" />
<path d="M10.648810 4.714497
L10.601191 4.904973
" />
<path d="M10.601191 4.904973
L10.553572 5.000211
" />
<path d="M10.553572 5.000211
L10.458334 5.095450
" />
<path d="M10.458334 5.095450
L10.315477 5.143069
" />
<path d="M10.315477 5.143069
L10.077382 5.143069
" />
<path d="M11.505952 4.143069
L11.315476 4.143069
" />
<path d="M11.315476 4.143069
L11.220238 4.190688
" />
<path d="M11.220238 4.190688
L11.172619 4.238307
" />
<path d="M11.172619 4.238307
L11.077381 4.381164
" />
<path d="M11.077381 4.381164
L11.029762 4.571640
" />
<path d="M11.029762 4.571640
L11.029762 4.952592
" />
<path d="M11.029762 4.952592
L11.077381 5.047830
" />
<path d="M11.077381 5.047830
L11.125000 5.095450
" />
<path d="M11.125000 5.095450
L11.220238 5.143069
" />
<path d="M11.220238 5.143069
L11.410714 5.143069
" />
<path d="M11.410714 5.143069
L11.505952 5.095450
" />
<path d="M11.505952 5.095450
L11.553571 5.047830
" />
<path d="M11.553571 5.047830
L11.601190 4.952592
" />
<path d="M11.601190 4.952592
L11.601190 4.714497
" />
<path d="M11.601190 4.714497
L11.553571 4.619259
" />
<path d="M11.553571 4.619259
L11.505952 4.571640
" />
<path d="M11.505952 4.571640
L11.410714 4.524021
" />
<path d="M11.410714 4.524021
L11.220238 4.524021
" />
<path d="M11.220238 4.524021
L11.125000 4.571640
" />
<path d="M11.125000 4.571640
L11.077381 4.619259
" />
<path d="M11.077381 4.619259
L11.029762 4.714497
" />
<path d="M12.172619 4.571640
L12.077381 4.524021
" />
<path d="M12.077381 4.524021
L12.029762 4.476402
" />
<path d="M12.029762 4.476402
L11.982143 4.381164
" />
<path d="M11.982143 4.381164
L11.982143 4.333545
" />
<path d="M11.982143 4.333545
L12.029762 4.238307
" />
<path d="M12.029762 4.238307
L12.077381 4.190688
" />
<path d="M12.077381 4.190688
L12.172619 4.143069
" />
<path d="M12.172619 4.143069
L12.363095 4.143069
" />
<path d="M12.363095 4.143069
L12.458333 4.190688
" />
<path d="M12.458333 4.190688
L12.505952 4.238307
" />
<path d="M12.505952 4.238307
L12.553571 4.333545
" />
<path d="M12.553571 4.333545
L12.553571 4.381164
" />
<path d="M12.553571 4.381164
L12.505952 4.476402
" />
<path d="M12.505952 4.476402
L12.458333 4.524021
" />
<path d="M12.458333 4.524021
L12.363095 4.571640
" />
<path d="M12.363095 4.571640
L12.172619 4.571640
" />
<path d="M12.172619 4.571640
L12.077381 4.619259
" />
<path d="M12.077381 4.619259
L12.029762 4.666878
" />
<path d="M12.029762 4.666878
L11.982143 4.762116
" />
<path d="M11.982143 4.762116
L11.982143 4.952592
" />
<path d="M11.982143 4.952592
L12.029762 5.047830
" />
<path d="M12.029762 5.047830
L12.077381 5.095450
" />
<path d="M12.077381 5.095450
L12.172619 5.143069
" />
<path d="M12.172619 5.143069
L12.363095 5.143069
" />
<path d="M12.363095 5.143069
L12.458333 5.095450
" />
<path d="M12.458333 5.095450
L12.505952 5.047830
" />
<path d="M12.505952 5.047830
L12.553571 4.952592
" />
<path d="M12.553571 4.952592
L12.553571 4.762116
" />
<path d="M12.553571 4.762116
L12.505952 4.666878
" />
<path d="M12.505952 4.666878
L12.458333 4.619259
" />
<path d="M12.458333 4.619259
L12.363095 4.571640
" />
<path d="M12.744048 5.238307
L13.505952 5.238307
" />
<path d="M13.744048 5.143069
L13.744048 4.143069
" />
<path d="M13.744048 4.143069
L14.125000 4.143069
" />
<path d="M14.125000 4.143069
L14.220238 4.190688
" />
<path d="M14.220238 4.190688
L14.267857 4.238307
" />
<path d="M14.267857 4.238307
L14.315476 4.333545
" />
<path d="M14.315476 4.333545
L14.315476 4.476402
" />
<path d="M14.315476 4.476402
L14.267857 4.571640
" />
<path d="M14.267857 4.571640
L14.220238 4.619259
" />
<path d="M14.220238 4.619259
L14.125000 4.666878
" />
<path d="M14.125000 4.666878
L13.744048 4.666878
" />
<path d="M14.648810 4.143069
L15.315476 4.143069
" />
<path d="M15.315476 4.143069
L14.886905 5.143069
" />
<path d="M15.696429 5.047830
L15.744048 5.095450
" />
<path d="M15.744048 5.095450
L15.696429 5.143069
" />
<path d="M15.696429 5.143069
L15.648810 5.095450
" />
<path d="M15.648810 5.095450
L15.696429 5.047830
" />
<path d="M15.696429 5.047830
L15.696429 5.143069
" />
<path d="M16.601190 4.143069
L16.410714 4.143069
" />
<path d="M16.410714 4.143069
L16.315476 4.190688
" />
<path d="M16.315476 4.190688
L16.267857 4.238307
" />
<path d="M16.267857 4.238307
L16.172619 4.381164
" />
<path d="M16.172619 4.381164
L16.125000 4.571640
" />
<path d="M16.125000 4.571640
L16.125000 4.952592
" />
<path d="M16.125000 4.952592
L16.172619 5.047830
" />
<path d="M16.172619 5.047830
L16.220238 5.095450
" />
<path d="M16.220238 5.095450
L16.315476 5.143069
" />
<path d="M16.315476 5.143069
L16.505952 5.143069
" />
<path d="M16.505952 5.143069
L16.601190 5.095450
" />
<path d="M16.601190 5.095450
L16.648809 5.047830
" />
<path d="M16.648809 5.047830
L16.696428 4.952592
" />
<path d="M16.696428 4.952592
L16.696428 4.714497
" />
<path d="M16.696428 4.714497
L16.648809 4.619259
" />
<path d="M16.648809 4.619259
L16.601190 4.571640
" />
<path d="M16.601190 4.571640
L16.505952 4.524021
" />
<path d="M16.505952 4.524021
L16.315476 4.524021
" />
<path d="M16.315476 4.524021
L16.220238 4.571640
" />
<path d="M16.220238 4.571640
L16.172619 4.619259
" />
<path d="M16.172619 4.619259
L16.125000 4.714497
" />
<path d="M17.077381 4.238307
L17.125000 4.190688
" />
<path d="M17.125000 4.190688
L17.220238 4.143069
" />
<path d="M17.220238 4.143069
L17.458333 4.143069
" />
<path d="M17.458333 4.143069
L17.553571 4.190688
" />
<path d="M17.553571 4.190688
L17.601190 4.238307
" />
<path d="M17.601190 4.238307
L17.648809 4.333545
" />
<path d="M17.648809 4.333545
L17.648809 4.428783
" />
<path d="M17.648809 4.428783
L17.601190 4.571640
" />
<path d="M17.601190 4.571640
L17.029762 5.143069
" />
<path d="M17.029762 5.143069
L17.648809 5.143069
" />
<path d="M18.077381 5.143069
L18.077381 4.476402
" />
<path d="M18.077381 4.571640
L18.125000 4.524021
" />
<path d="M18.125000 4.524021
L18.220238 4.476402
" />
<path d="M18.220238 4.476402
L18.363095 4.476402
" />
<path d="M18.363095 4.476402
L18.458333 4.524021
" />
<path d="M18.458333 4.524021
L18.505952 4.619259
" />
<path d="M18.505952 4.619259
L18.505952 5.143069
" />
<path d="M18.505952 4.619259
L18.553571 4.524021
" />
<path d="M18.553571 4.524021
L18.648809 4.476402
" />
<path d="M18.648809 4.476402
L18.791666 4.476402
" />
<path d="M18.791666 4.476402
L18.886905 4.524021
" />
<path d="M18.886905 4.524021
L18.934524 4.619259
" />
<path d="M18.934524 4.619259
L18.934524 5.143069
" />
<path d="M19.410714 5.143069
L19.410714 4.476402
" />
<path d="M19.410714 4.571640
L19.458333 4.524021
" />
<path d="M19.458333 4.524021
L19.553571 4.476402
" />
<path d="M19.553571 4.476402
L19.696428 4.476402
" />
<path d="M19.696428 4.476402
L19.791666 4.524021
" />
<path d="M19.791666 4.524021
L19.839285 4.619259
" />
<path d="M19.839285 4.619259
L19.839285 5.143069
" />
<path d="M19.839285 4.619259
L19.886904 4.524021
" />
<path d="M19.886904 4.524021
L19.982142 4.476402
" />
<path d="M19.982142 4.476402
L20.124999 4.476402
" />
<path d="M20.124999 4.476402
L20.220238 4.524021
" />
<path d="M20.220238 4.524021
L20.267857 4.619259
" />
<path d="M20.267857 4.619259
L20.267857 5.143069
" />
<path d="M20.505952 5.238307
L21.267856 5.238307
" />
<path d="M21.505952 5.143069
L21.505952 4.143069
" />
<path d="M21.505952 4.619259
L22.077380 4.619259
" />
<path d="M22.077380 5.143069
L22.077380 4.143069
" />
<path d="M22.696428 5.143069
L22.601190 5.095450
" />
<path d="M22.601190 5.095450
L22.553571 5.047830
" />
<path d="M22.553571 5.047830
L22.505952 4.952592
" />
<path d="M22.505952 4.952592
L22.505952 4.666878
" />
<path d="M22.505952 4.666878
L22.553571 4.571640
" />
<path d="M22.553571 4.571640
L22.601190 4.524021
" />
<path d="M22.601190 4.524021
L22.696428 4.476402
" />
<path d="M22.696428 4.476402
L22.839285 4.476402
" />
<path d="M22.839285 4.476402
L22.934523 4.524021
" />
<path d="M22.934523 4.524021
L22.982142 4.571640
" />
<path d="M22.982142 4.571640
L23.029761 4.666878
" />
<path d="M23.029761 4.666878
L23.029761 4.952592
" />
<path d="M23.029761 4.952592
L22.982142 5.047830
" />
<path d="M22.982142 5.047830
L22.934523 5.095450
" />
<path d="M22.934523 5.095450
L22.839285 5.143069
" />
<path d="M22.839285 5.143069
L22.696428 5.143069
" />
<path d="M23.458333 5.143069
L23.458333 4.476402
" />
<path d="M23.458333 4.666878
L23.505952 4.571640
" />
<path d="M23.505952 4.571640
L23.553571 4.524021
" />
<path d="M23.553571 4.524021
L23.648809 4.476402
" />
<path d="M23.648809 4.476402
L23.744047 4.476402
" />
<path d="M24.077381 5.143069
L24.077381 4.476402
" />
<path d="M24.077381 4.143069
L24.029762 4.190688
" />
<path d="M24.029762 4.190688
L24.077381 4.238307
" />
<path d="M24.077381 4.238307
L24.125000 4.190688
" />
<path d="M24.125000 4.190688
L24.077381 4.143069
" />
<path d="M24.077381 4.143069
L24.077381 4.238307
" />
<path d="M24.458333 4.476402
L24.982142 4.476402
" />
<path d="M24.982142 4.476402
L24.458333 5.143069
" />
<path d="M24.458333 5.143069
L24.982142 5.143069
" />
<path d="M25.505952 5.143069
L25.410714 5.095450
" />
<path d="M25.410714 5.095450
L25.363095 5.047830
" />
<path d="M25.363095 5.047830
L25.315476 4.952592
" />
<path d="M25.315476 4.952592
L25.315476 4.666878
" />
<path d="M25.315476 4.666878
L25.363095 4.571640
" />
<path d="M25.363095 4.571640
L25.410714 4.524021
" />
<path d="M25.410714 4.524021
L25.505952 4.476402
" />
<path d="M25.505952 4.476402
L25.648809 4.476402
" />
<path d="M25.648809 4.476402
L25.744047 4.524021
" />
<path d="M25.744047 4.524021
L25.791666 4.571640
" />
<path d="M25.791666 4.571640
L25.839285 4.666878
" />
<path d="M25.839285 4.666878
L25.839285 4.952592
" />
<path d="M25.839285 4.952592
L25.791666 5.047830
" />
<path d="M25.791666 5.047830
L25.744047 5.095450
" />
<path d="M25.744047 5.095450
L25.648809 5.143069
" />
<path d="M25.648809 5.143069
L25.505952 5.143069
" />
<path d="M26.267857 4.476402
L26.267857 5.143069
" />
<path d="M26.267857 4.571640
L26.315476 4.524021
" />
<path d="M26.315476 4.524021
L26.410714 4.476402
" />
<path d="M26.410714 4.476402
L26.553571 4.476402
" />
<path d="M26.553571 4.476402
L26.648809 4.524021
" />
<path d="M26.648809 4.524021
L26.696428 4.619259
" />
<path d="M26.696428 4.619259
L26.696428 5.143069
" />
<path d="M27.029762 4.476402
L27.410714 4.476402
" />
<path d="M27.172619 4.143069
L27.172619 5.000211
" />
<path d="M27.172619 5.000211
L27.220238 5.095450
" />
<path d="M27.220238 5.095450
L27.315476 5.143069
" />
<path d="M27.315476 5.143069
L27.410714 5.143069
" />
<path d="M28.172619 5.143069
L28.172619 4.619259
" />
<path d="M28.172619 4.619259
L28.125000 4.524021
" />
<path d="M28.125000 4.524021
L28.029762 4.476402
" />
<path d="M28.029762 4.476402
L27.839286 4.476402
" />
<path d="M27.839286 4.476402
L27.744048 4.524021
" />
<path d="M28.172619 5.095450
L28.077381 5.143069
" />
<path d="M28.077381 5.143069
L27.839286 5.143069
" />
<path d="M27.839286 5.143069
L27.744048 5.095450
" />
<path d="M27.744048 5.095450
L27.696429 5.000211
" />
<path d="M27.696429 5.000211
L27.696429 4.904973
" />
<path d="M27.696429 4.904973
L27.744048 4.809735
" />
<path d="M27.744048 4.809735
L27.839286 4.762116
" />
<path d="M27.839286 4.762116
L28.077381 4.762116
" />
<path d="M28.077381 4.762116
L28.172619 4.714497
" />
<path d="M28.791667 5.143069
L28.696429 5.095450
" />
<path d="M28.696429 5.095450
L28.648810 5.000211
" />
<path d="M28.648810 5.000211
L28.648810 4.143069
" />
</g><text x="10.719762" y="1.518250"
textLength="1.250000" font-size="1.333333" lengthAdjust="spacingAndGlyphs"
text-anchor="middle" opacity="0" stroke-opacity="0">K</text>
<g class="stroked-text"><desc>K</desc>
<path d="M10.457858 1.473070
L10.457858 0.473070
" />
<path d="M11.029285 1.473070
L10.600715 0.901641
" />
<path d="M11.029285 0.473070
L10.457858 1.044498
" />
</g></g>
<g style="fill:none; 
stroke:#000000; stroke-width:0.091200; stroke-opacity:1; 
stroke-linecap:round; stroke-linejoin:round;">
<text x="14.757762" y="3.072250"
textLength="2.757714" font-size="0.810666" lengthAdjust="spacingAndGlyphs"
text-anchor="middle" opacity="0" stroke-opacity="0">REF**</text>
<g class="stroked-text"><desc>REF**</desc>
<path d="M13.947095 3.044779
L13.744428 2.755256
" />
<path d="M13.599666 3.044779
L13.599666 2.436780
" />
<path d="M13.599666 2.436780
L13.831285 2.436780
" />
<path d="M13.831285 2.436780
L13.889190 2.465732
" />
<path d="M13.889190 2.465732
L13.918143 2.494685
" />
<path d="M13.918143 2.494685
L13.947095 2.552589
" />
<path d="M13.947095 2.552589
L13.947095 2.639447
" />
<path d="M13.947095 2.639447
L13.918143 2.697351
" />
<path d="M13.918143 2.697351
L13.889190 2.726304
" />
<path d="M13.889190 2.726304
L13.831285 2.755256
" />
<path d="M13.831285 2.755256
L13.599666 2.755256
" />
<path d="M14.207666 2.726304
L14.410333 2.726304
" />
<path d="M14.497190 3.044779
L14.207666 3.044779
" />
<path d="M14.207666 3.044779
L14.207666 2.436780
" />
<path d="M14.207666 2.436780
L14.497190 2.436780
" />
<path d="M14.960428 2.726304
L14.757761 2.726304
" />
<path d="M14.757761 3.044779
L14.757761 2.436780
" />
<path d="M14.757761 2.436780
L15.047285 2.436780
" />
<path d="M15.365762 2.436780
L15.365762 2.581542
" />
<path d="M15.221000 2.523637
L15.365762 2.581542
" />
<path d="M15.365762 2.581542
L15.510523 2.523637
" />
<path d="M15.278904 2.697351
L15.365762 2.581542
" />
<path d="M15.365762 2.581542
L15.452619 2.697351
" />
<path d="M15.829000 2.436780
L15.829000 2.581542
" />
<path d="M15.684238 2.523637
L15.829000 2.581542
" />
<path d="M15.829000 2.581542
L15.973761 2.523637
" />
<path d="M15.742142 2.697351
L15.829000 2.581542
" />
<path d="M15.829000 2.581542
L15.915857 2.697351
" />
</g></g>
<g style="fill:none; 
stroke:#000000; stroke-width:0.100000; stroke-opacity:1; 
stroke-linecap:round; stroke-linejoin:round;">
<path d="M10.719762 2.768250
L13.009762 2.768250
" />
<path d="M13.365762 1.968250
L13.365762 3.568250
" />
<path d="M13.465762 1.968250
L13.465762 3.568250
" />
<path d="M13.565762 1.968250
L13.565762 3.568250
" />
<path d="M18.339762 2.768250
L16.049762 2.768250
" />
<path style="fill:none; 
stroke:#000000; stroke-width:0.100000; stroke-opacity:1; 
stroke-linecap:round; stroke-linejoin:round;fill:none"
d="M 13.009762,1.968250
16.049762,1.968250
16.049762,3.568250
13.009762,3.568250
Z" /> 
</g>
<g style="fill:#000000; fill-opacity:1.000000; stroke:none;">
<circle cx="10.719762" cy="2.768250" r="0.375000" /> 
<circle cx="18.339762" cy="2.768250" r="0.375000" /> 
</g> 
</svg>
