<?xml version="1.0" standalone="no"?>
 <!DOCTYPE svg PUBLIC "-//W3C//DTD SVG 1.1//EN" 
 "http://www.w3.org/Graphics/SVG/1.1/DTD/svg11.dtd"> 
<svg
  xmlns:svg="http://www.w3.org/2000/svg"
  xmlns="http://www.w3.org/2000/svg"
  xmlns:xlink="http://www.w3.org/1999/xlink"
  xmlns:inkscape="http://www.inkscape.org/namespaces/inkscape"
  version="1.1"
  width="29.057600mm" height="5.511800mm" viewBox="0.000000 0.000000 29.057600 5.511800">
<title>SVG Image created as D_DO-34_SOD68_P7.62mm_Horizontal.svg date 2026-04-21T12:25:34 </title>
  <desc>Image generated by PCBNEW </desc>
<g style="fill:#000000; fill-opacity:1.000000;stroke:#000000; stroke-opacity:1.000000;
stroke-linecap:round; stroke-linejoin:round;"
 transform="translate(0 0) scale(1 1)">
<path style="fill:none; 
stroke:#000000; stroke-width:0.050000; stroke-opacity:1; 
stroke-linecap:round; stroke-linejoin:round;fill:none"
d="M 9.719762,1.718250
19.349762,1.718250
19.349762,3.818250
9.719762,3.818250
Z" /> 
<path style="fill:#000000; fill-opacity:1.000000; stroke:none;fill-rule:evenodd;"
d="M 9.969762,2.268251
9.988792,2.172580
10.042986,2.091474
10.124092,2.037280
10.219764,2.018251
11.219761,2.018250
11.315432,2.037280
11.396538,2.091474
11.450732,2.172580
11.469761,2.268252
11.469762,3.268249
11.450732,3.363920
11.396538,3.445026
11.315432,3.499220
11.219760,3.518249
10.219763,3.518250
10.124092,3.499220
10.042986,3.445026
9.988792,3.363920
9.969763,3.268248
Z" /> 
</g>
<g style="fill:#000000; fill-opacity:1.000000; stroke:none;">
<circle cx="18.339762" cy="2.768250" r="0.750000" /> 
<path style="fill:#000000; fill-opacity:1.000000; stroke:none;fill-rule:evenodd;"
d="M 9.969762,2.268251
9.988792,2.172580
10.042986,2.091474
10.124092,2.037280
10.219764,2.018251
11.219761,2.018250
11.315432,2.037280
11.396538,2.091474
11.450732,2.172580
11.469761,2.268252
11.469762,3.268249
11.450732,3.363920
11.396538,3.445026
11.315432,3.499220
11.219760,3.518249
10.219763,3.518250
10.124092,3.499220
10.042986,3.445026
9.988792,3.363920
9.969763,3.268248
Z" /> 
<circle cx="18.339762" cy="2.768250" r="0.750000" /> 
</g>
<g style="fill:#FFFFFF; fill-opacity:1.000000; stroke:none;">
<circle cx="10.719762" cy="2.768250" r="0.375000" /> 
</g>
<g style="fill:#FFFFFF; fill-opacity:1.000000; stroke:none;">
<circle cx="18.339762" cy="2.768250" r="0.375000" /> 
</g> 
</svg>
