<?xml version="1.0" standalone="no"?>
 <!DOCTYPE svg PUBLIC "-//W3C//DTD SVG 1.1//EN" 
 "http://www.w3.org/Graphics/SVG/1.1/DTD/svg11.dtd"> 
<svg
  xmlns:svg="http://www.w3.org/2000/svg"
  xmlns="http://www.w3.org/2000/svg"
  xmlns:xlink="http://www.w3.org/1999/xlink"
  xmlns:inkscape="http://www.inkscape.org/namespaces/inkscape"
  version="1.1"
  width="18.516600mm" height="13.970000mm" viewBox="0.000000 0.000000 18.516600 13.970000">
<title>SVG Image created as DIP-8_W7.62mm_Socket.svg date 2026-04-21T12:25:38 </title>
  <desc>Image generated by PCBNEW </desc>
<g style="fill:#000000; fill-opacity:1.000000;stroke:#000000; stroke-opacity:1.000000;
stroke-linecap:round; stroke-linejoin:round;"
 transform="translate(0 0) scale(1 1)">
</g>
<g style="fill:none; 
stroke:#000000; stroke-width:0.150000; stroke-opacity:1; 
stroke-linecap:round; stroke-linejoin:round;">
<text x="9.267857" y="13.628250"
textLength="18.535714" font-size="1.333333" lengthAdjust="spacingAndGlyphs"
text-anchor="middle" opacity="0" stroke-opacity="0">DIP-8_W7.62mm_Socket</text>
<g class="stroked-text"><desc>DIP-8_W7.62mm_Socket</desc>
<path d="M0.363096 13.583069
L0.363096 12.583069
" />
<path d="M0.363096 12.583069
L0.601191 12.583069
" />
<path d="M0.601191 12.583069
L0.744048 12.630688
" />
<path d="M0.744048 12.630688
L0.839286 12.725926
" />
<path d="M0.839286 12.725926
L0.886905 12.821164
" />
<path d="M0.886905 12.821164
L0.934524 13.011640
" />
<path d="M0.934524 13.011640
L0.934524 13.154497
" />
<path d="M0.934524 13.154497
L0.886905 13.344973
" />
<path d="M0.886905 13.344973
L0.839286 13.440211
" />
<path d="M0.839286 13.440211
L0.744048 13.535450
" />
<path d="M0.744048 13.535450
L0.601191 13.583069
" />
<path d="M0.601191 13.583069
L0.363096 13.583069
" />
<path d="M1.363096 13.583069
L1.363096 12.583069
" />
<path d="M1.839286 13.583069
L1.839286 12.583069
" />
<path d="M1.839286 12.583069
L2.220238 12.583069
" />
<path d="M2.220238 12.583069
L2.315476 12.630688
" />
<path d="M2.315476 12.630688
L2.363095 12.678307
" />
<path d="M2.363095 12.678307
L2.410714 12.773545
" />
<path d="M2.410714 12.773545
L2.410714 12.916402
" />
<path d="M2.410714 12.916402
L2.363095 13.011640
" />
<path d="M2.363095 13.011640
L2.315476 13.059259
" />
<path d="M2.315476 13.059259
L2.220238 13.106878
" />
<path d="M2.220238 13.106878
L1.839286 13.106878
" />
<path d="M2.839286 13.202116
L3.601190 13.202116
" />
<path d="M4.220238 13.011640
L4.125000 12.964021
" />
<path d="M4.125000 12.964021
L4.077381 12.916402
" />
<path d="M4.077381 12.916402
L4.029762 12.821164
" />
<path d="M4.029762 12.821164
L4.029762 12.773545
" />
<path d="M4.029762 12.773545
L4.077381 12.678307
" />
<path d="M4.077381 12.678307
L4.125000 12.630688
" />
<path d="M4.125000 12.630688
L4.220238 12.583069
" />
<path d="M4.220238 12.583069
L4.410714 12.583069
" />
<path d="M4.410714 12.583069
L4.505952 12.630688
" />
<path d="M4.505952 12.630688
L4.553571 12.678307
" />
<path d="M4.553571 12.678307
L4.601190 12.773545
" />
<path d="M4.601190 12.773545
L4.601190 12.821164
" />
<path d="M4.601190 12.821164
L4.553571 12.916402
" />
<path d="M4.553571 12.916402
L4.505952 12.964021
" />
<path d="M4.505952 12.964021
L4.410714 13.011640
" />
<path d="M4.410714 13.011640
L4.220238 13.011640
" />
<path d="M4.220238 13.011640
L4.125000 13.059259
" />
<path d="M4.125000 13.059259
L4.077381 13.106878
" />
<path d="M4.077381 13.106878
L4.029762 13.202116
" />
<path d="M4.029762 13.202116
L4.029762 13.392592
" />
<path d="M4.029762 13.392592
L4.077381 13.487830
" />
<path d="M4.077381 13.487830
L4.125000 13.535450
" />
<path d="M4.125000 13.535450
L4.220238 13.583069
" />
<path d="M4.220238 13.583069
L4.410714 13.583069
" />
<path d="M4.410714 13.583069
L4.505952 13.535450
" />
<path d="M4.505952 13.535450
L4.553571 13.487830
" />
<path d="M4.553571 13.487830
L4.601190 13.392592
" />
<path d="M4.601190 13.392592
L4.601190 13.202116
" />
<path d="M4.601190 13.202116
L4.553571 13.106878
" />
<path d="M4.553571 13.106878
L4.505952 13.059259
" />
<path d="M4.505952 13.059259
L4.410714 13.011640
" />
<path d="M4.791666 13.678307
L5.553570 13.678307
" />
<path d="M5.696428 12.583069
L5.934523 13.583069
" />
<path d="M5.934523 13.583069
L6.124999 12.868783
" />
<path d="M6.124999 12.868783
L6.315475 13.583069
" />
<path d="M6.315475 13.583069
L6.553571 12.583069
" />
<path d="M6.839285 12.583069
L7.505951 12.583069
" />
<path d="M7.505951 12.583069
L7.077380 13.583069
" />
<path d="M7.886904 13.487830
L7.934523 13.535450
" />
<path d="M7.934523 13.535450
L7.886904 13.583069
" />
<path d="M7.886904 13.583069
L7.839285 13.535450
" />
<path d="M7.839285 13.535450
L7.886904 13.487830
" />
<path d="M7.886904 13.487830
L7.886904 13.583069
" />
<path d="M8.791665 12.583069
L8.601189 12.583069
" />
<path d="M8.601189 12.583069
L8.505951 12.630688
" />
<path d="M8.505951 12.630688
L8.458332 12.678307
" />
<path d="M8.458332 12.678307
L8.363094 12.821164
" />
<path d="M8.363094 12.821164
L8.315475 13.011640
" />
<path d="M8.315475 13.011640
L8.315475 13.392592
" />
<path d="M8.315475 13.392592
L8.363094 13.487830
" />
<path d="M8.363094 13.487830
L8.410713 13.535450
" />
<path d="M8.410713 13.535450
L8.505951 13.583069
" />
<path d="M8.505951 13.583069
L8.696427 13.583069
" />
<path d="M8.696427 13.583069
L8.791665 13.535450
" />
<path d="M8.791665 13.535450
L8.839284 13.487830
" />
<path d="M8.839284 13.487830
L8.886903 13.392592
" />
<path d="M8.886903 13.392592
L8.886903 13.154497
" />
<path d="M8.886903 13.154497
L8.839284 13.059259
" />
<path d="M8.839284 13.059259
L8.791665 13.011640
" />
<path d="M8.791665 13.011640
L8.696427 12.964021
" />
<path d="M8.696427 12.964021
L8.505951 12.964021
" />
<path d="M8.505951 12.964021
L8.410713 13.011640
" />
<path d="M8.410713 13.011640
L8.363094 13.059259
" />
<path d="M8.363094 13.059259
L8.315475 13.154497
" />
<path d="M9.267856 12.678307
L9.315475 12.630688
" />
<path d="M9.315475 12.630688
L9.410713 12.583069
" />
<path d="M9.410713 12.583069
L9.648808 12.583069
" />
<path d="M9.648808 12.583069
L9.744046 12.630688
" />
<path d="M9.744046 12.630688
L9.791665 12.678307
" />
<path d="M9.791665 12.678307
L9.839284 12.773545
" />
<path d="M9.839284 12.773545
L9.839284 12.868783
" />
<path d="M9.839284 12.868783
L9.791665 13.011640
" />
<path d="M9.791665 13.011640
L9.220237 13.583069
" />
<path d="M9.220237 13.583069
L9.839284 13.583069
" />
<path d="M10.267856 13.583069
L10.267856 12.916402
" />
<path d="M10.267856 13.011640
L10.315475 12.964021
" />
<path d="M10.315475 12.964021
L10.410713 12.916402
" />
<path d="M10.410713 12.916402
L10.553570 12.916402
" />
<path d="M10.553570 12.916402
L10.648808 12.964021
" />
<path d="M10.648808 12.964021
L10.696427 13.059259
" />
<path d="M10.696427 13.059259
L10.696427 13.583069
" />
<path d="M10.696427 13.059259
L10.744046 12.964021
" />
<path d="M10.744046 12.964021
L10.839284 12.916402
" />
<path d="M10.839284 12.916402
L10.982141 12.916402
" />
<path d="M10.982141 12.916402
L11.077380 12.964021
" />
<path d="M11.077380 12.964021
L11.124999 13.059259
" />
<path d="M11.124999 13.059259
L11.124999 13.583069
" />
<path d="M11.601189 13.583069
L11.601189 12.916402
" />
<path d="M11.601189 13.011640
L11.648808 12.964021
" />
<path d="M11.648808 12.964021
L11.744046 12.916402
" />
<path d="M11.744046 12.916402
L11.886903 12.916402
" />
<path d="M11.886903 12.916402
L11.982141 12.964021
" />
<path d="M11.982141 12.964021
L12.029760 13.059259
" />
<path d="M12.029760 13.059259
L12.029760 13.583069
" />
<path d="M12.029760 13.059259
L12.077379 12.964021
" />
<path d="M12.077379 12.964021
L12.172617 12.916402
" />
<path d="M12.172617 12.916402
L12.315474 12.916402
" />
<path d="M12.315474 12.916402
L12.410713 12.964021
" />
<path d="M12.410713 12.964021
L12.458332 13.059259
" />
<path d="M12.458332 13.059259
L12.458332 13.583069
" />
<path d="M12.696427 13.678307
L13.458331 13.678307
" />
<path d="M13.648808 13.535450
L13.791665 13.583069
" />
<path d="M13.791665 13.583069
L14.029760 13.583069
" />
<path d="M14.029760 13.583069
L14.124998 13.535450
" />
<path d="M14.124998 13.535450
L14.172617 13.487830
" />
<path d="M14.172617 13.487830
L14.220236 13.392592
" />
<path d="M14.220236 13.392592
L14.220236 13.297354
" />
<path d="M14.220236 13.297354
L14.172617 13.202116
" />
<path d="M14.172617 13.202116
L14.124998 13.154497
" />
<path d="M14.124998 13.154497
L14.029760 13.106878
" />
<path d="M14.029760 13.106878
L13.839284 13.059259
" />
<path d="M13.839284 13.059259
L13.744046 13.011640
" />
<path d="M13.744046 13.011640
L13.696427 12.964021
" />
<path d="M13.696427 12.964021
L13.648808 12.868783
" />
<path d="M13.648808 12.868783
L13.648808 12.773545
" />
<path d="M13.648808 12.773545
L13.696427 12.678307
" />
<path d="M13.696427 12.678307
L13.744046 12.630688
" />
<path d="M13.744046 12.630688
L13.839284 12.583069
" />
<path d="M13.839284 12.583069
L14.077379 12.583069
" />
<path d="M14.077379 12.583069
L14.220236 12.630688
" />
<path d="M14.791665 13.583069
L14.696427 13.535450
" />
<path d="M14.696427 13.535450
L14.648808 13.487830
" />
<path d="M14.648808 13.487830
L14.601189 13.392592
" />
<path d="M14.601189 13.392592
L14.601189 13.106878
" />
<path d="M14.601189 13.106878
L14.648808 13.011640
" />
<path d="M14.648808 13.011640
L14.696427 12.964021
" />
<path d="M14.696427 12.964021
L14.791665 12.916402
" />
<path d="M14.791665 12.916402
L14.934522 12.916402
" />
<path d="M14.934522 12.916402
L15.029760 12.964021
" />
<path d="M15.029760 12.964021
L15.077379 13.011640
" />
<path d="M15.077379 13.011640
L15.124998 13.106878
" />
<path d="M15.124998 13.106878
L15.124998 13.392592
" />
<path d="M15.124998 13.392592
L15.077379 13.487830
" />
<path d="M15.077379 13.487830
L15.029760 13.535450
" />
<path d="M15.029760 13.535450
L14.934522 13.583069
" />
<path d="M14.934522 13.583069
L14.791665 13.583069
" />
<path d="M15.982141 13.535450
L15.886903 13.583069
" />
<path d="M15.886903 13.583069
L15.696427 13.583069
" />
<path d="M15.696427 13.583069
L15.601189 13.535450
" />
<path d="M15.601189 13.535450
L15.553570 13.487830
" />
<path d="M15.553570 13.487830
L15.505951 13.392592
" />
<path d="M15.505951 13.392592
L15.505951 13.106878
" />
<path d="M15.505951 13.106878
L15.553570 13.011640
" />
<path d="M15.553570 13.011640
L15.601189 12.964021
" />
<path d="M15.601189 12.964021
L15.696427 12.916402
" />
<path d="M15.696427 12.916402
L15.886903 12.916402
" />
<path d="M15.886903 12.916402
L15.982141 12.964021
" />
<path d="M16.410713 13.583069
L16.410713 12.583069
" />
<path d="M16.505951 13.202116
L16.791665 13.583069
" />
<path d="M16.791665 12.916402
L16.410713 13.297354
" />
<path d="M17.601189 13.535450
L17.505951 13.583069
" />
<path d="M17.505951 13.583069
L17.315475 13.583069
" />
<path d="M17.315475 13.583069
L17.220237 13.535450
" />
<path d="M17.220237 13.535450
L17.172618 13.440211
" />
<path d="M17.172618 13.440211
L17.172618 13.059259
" />
<path d="M17.172618 13.059259
L17.220237 12.964021
" />
<path d="M17.220237 12.964021
L17.315475 12.916402
" />
<path d="M17.315475 12.916402
L17.505951 12.916402
" />
<path d="M17.505951 12.916402
L17.601189 12.964021
" />
<path d="M17.601189 12.964021
L17.648808 13.059259
" />
<path d="M17.648808 13.059259
L17.648808 13.154497
" />
<path d="M17.648808 13.154497
L17.172618 13.249735
" />
<path d="M17.934523 12.916402
L18.315475 12.916402
" />
<path d="M18.077380 12.583069
L18.077380 13.440211
" />
<path d="M18.077380 13.440211
L18.124999 13.535450
" />
<path d="M18.124999 13.535450
L18.220237 13.583069
" />
<path d="M18.220237 13.583069
L18.315475 13.583069
" />
</g><g transform="rotate(-90.000000 9.267857 6.988250)">
<text x="9.267857" y="7.488250"
textLength="4.535715" font-size="1.333333" lengthAdjust="spacingAndGlyphs"
text-anchor="middle" opacity="0" stroke-opacity="0">REF**</text>
</g>
<g class="stroked-text"><desc>REF**</desc>
<path d="M9.722676 8.321583
L9.246485 8.654916
" />
<path d="M9.722676 8.893011
L8.722676 8.893011
" />
<path d="M8.722676 8.893011
L8.722676 8.512059
" />
<path d="M8.722676 8.512059
L8.770295 8.416821
" />
<path d="M8.770295 8.416821
L8.817914 8.369202
" />
<path d="M8.817914 8.369202
L8.913152 8.321583
" />
<path d="M8.913152 8.321583
L9.056009 8.321583
" />
<path d="M9.056009 8.321583
L9.151247 8.369202
" />
<path d="M9.151247 8.369202
L9.198866 8.416821
" />
<path d="M9.198866 8.416821
L9.246485 8.512059
" />
<path d="M9.246485 8.512059
L9.246485 8.893011
" />
<path d="M9.198866 7.893011
L9.198866 7.559678
" />
<path d="M9.722676 7.416821
L9.722676 7.893011
" />
<path d="M9.722676 7.893011
L8.722676 7.893011
" />
<path d="M8.722676 7.893011
L8.722676 7.416821
" />
<path d="M9.198866 6.654916
L9.198866 6.988249
" />
<path d="M9.722676 6.988249
L8.722676 6.988249
" />
<path d="M8.722676 6.988249
L8.722676 6.512059
" />
<path d="M8.722676 5.988249
L8.960771 5.988249
" />
<path d="M8.865533 6.226344
L8.960771 5.988249
" />
<path d="M8.960771 5.988249
L8.865533 5.750154
" />
<path d="M9.151247 6.131106
L8.960771 5.988249
" />
<path d="M8.960771 5.988249
L9.151247 5.845392
" />
<path d="M8.722676 5.226344
L8.960771 5.226344
" />
<path d="M8.865533 5.464439
L8.960771 5.226344
" />
<path d="M8.960771 5.226344
L8.865533 4.988249
" />
<path d="M9.151247 5.369201
L8.960771 5.226344
" />
<path d="M8.960771 5.226344
L9.151247 5.083487
" />
</g></g>
<g style="fill:none; 
stroke:#000000; stroke-width:0.100000; stroke-opacity:1; 
stroke-linecap:round; stroke-linejoin:round;">
<path d="M6.092857 2.908250
L7.092857 1.908250
" />
<path d="M6.092857 12.068250
L6.092857 2.908250
" />
<path d="M7.092857 1.908250
L12.442857 1.908250
" />
<path d="M12.442857 1.908250
L12.442857 12.068250
" />
<path d="M12.442857 12.068250
L6.092857 12.068250
" />
<path style="fill:none; 
stroke:#000000; stroke-width:0.100000; stroke-opacity:1; 
stroke-linecap:round; stroke-linejoin:round;fill:none"
d="M 4.187857,1.848250
14.347857,1.848250
14.347857,12.128250
4.187857,12.128250
Z" /> 
</g>
<g style="fill:#000000; fill-opacity:1.000000; stroke:none;">
<circle cx="5.457857" cy="3.178250" r="0.400000" /> 
<circle cx="5.457857" cy="5.718250" r="0.400000" /> 
<circle cx="5.457857" cy="8.258250" r="0.400000" /> 
<circle cx="5.457857" cy="10.798250" r="0.400000" /> 
<circle cx="13.077857" cy="10.798250" r="0.400000" /> 
<circle cx="13.077857" cy="8.258250" r="0.400000" /> 
<circle cx="13.077857" cy="5.718250" r="0.400000" /> 
<circle cx="13.077857" cy="3.178250" r="0.400000" /> 
</g> 
</svg>
