<?xml version="1.0" standalone="no"?>
 <!DOCTYPE svg PUBLIC "-//W3C//DTD SVG 1.1//EN" 
 "http://www.w3.org/Graphics/SVG/1.1/DTD/svg11.dtd"> 
<svg
  xmlns:svg="http://www.w3.org/2000/svg"
  xmlns="http://www.w3.org/2000/svg"
  xmlns:xlink="http://www.w3.org/1999/xlink"
  xmlns:inkscape="http://www.inkscape.org/namespaces/inkscape"
  version="1.1"
  width="18.516600mm" height="13.970000mm" viewBox="0.000000 0.000000 18.516600 13.970000">
<title>SVG Image created as DIP-8_W7.62mm_Socket.svg date 2026-04-21T12:25:38 </title>
  <desc>Image generated by PCBNEW </desc>
<g style="fill:#000000; fill-opacity:1.000000;stroke:#000000; stroke-opacity:1.000000;
stroke-linecap:round; stroke-linejoin:round;"
 transform="translate(0 0) scale(1 1)">
<path style="fill:none; 
stroke:#000000; stroke-width:0.050000; stroke-opacity:1; 
stroke-linecap:round; stroke-linejoin:round;fill:none"
d="M 3.937857,1.598250
14.597857,1.598250
14.597857,12.378250
3.937857,12.378250
Z" /> 
<path style="fill:#000000; fill-opacity:1.000000; stroke:none;fill-rule:evenodd;"
d="M 4.657857,2.628250
4.676887,2.532579
4.731080,2.451473
4.812186,2.397280
4.907857,2.378250
6.007857,2.378250
6.103528,2.397280
6.184634,2.451473
6.238827,2.532579
6.257857,2.628250
6.257857,3.728250
6.238827,3.823921
6.184634,3.905027
6.103528,3.959220
6.007857,3.978250
4.907857,3.978250
4.812186,3.959220
4.731080,3.905027
4.676887,3.823921
4.657857,3.728250
Z" /> 
</g>
<g style="fill:#000000; fill-opacity:1.000000; stroke:none;">
<circle cx="5.457857" cy="5.718250" r="0.800000" /> 
<circle cx="5.457857" cy="8.258250" r="0.800000" /> 
<circle cx="5.457857" cy="10.798250" r="0.800000" /> 
<circle cx="13.077857" cy="10.798250" r="0.800000" /> 
<circle cx="13.077857" cy="8.258250" r="0.800000" /> 
<circle cx="13.077857" cy="5.718250" r="0.800000" /> 
<circle cx="13.077857" cy="3.178250" r="0.800000" /> 
<path style="fill:#000000; fill-opacity:1.000000; stroke:none;fill-rule:evenodd;"
d="M 4.657857,2.628250
4.676887,2.532579
4.731080,2.451473
4.812186,2.397280
4.907857,2.378250
6.007857,2.378250
6.103528,2.397280
6.184634,2.451473
6.238827,2.532579
6.257857,2.628250
6.257857,3.728250
6.238827,3.823921
6.184634,3.905027
6.103528,3.959220
6.007857,3.978250
4.907857,3.978250
4.812186,3.959220
4.731080,3.905027
4.676887,3.823921
4.657857,3.728250
Z" /> 
<circle cx="5.457857" cy="5.718250" r="0.800000" /> 
<circle cx="5.457857" cy="8.258250" r="0.800000" /> 
<circle cx="5.457857" cy="10.798250" r="0.800000" /> 
<circle cx="13.077857" cy="10.798250" r="0.800000" /> 
<circle cx="13.077857" cy="8.258250" r="0.800000" /> 
<circle cx="13.077857" cy="5.718250" r="0.800000" /> 
<circle cx="13.077857" cy="3.178250" r="0.800000" /> 
</g>
<g style="fill:#FFFFFF; fill-opacity:1.000000; stroke:none;">
<circle cx="5.457857" cy="3.178250" r="0.400000" /> 
</g>
<g style="fill:#FFFFFF; fill-opacity:1.000000; stroke:none;">
<circle cx="5.457857" cy="5.718250" r="0.400000" /> 
</g>
<g style="fill:#FFFFFF; fill-opacity:1.000000; stroke:none;">
<circle cx="5.457857" cy="8.258250" r="0.400000" /> 
</g>
<g style="fill:#FFFFFF; fill-opacity:1.000000; stroke:none;">
<circle cx="5.457857" cy="10.798250" r="0.400000" /> 
</g>
<g style="fill:#FFFFFF; fill-opacity:1.000000; stroke:none;">
<circle cx="13.077857" cy="10.798250" r="0.400000" /> 
</g>
<g style="fill:#FFFFFF; fill-opacity:1.000000; stroke:none;">
<circle cx="13.077857" cy="8.258250" r="0.400000" /> 
</g>
<g style="fill:#FFFFFF; fill-opacity:1.000000; stroke:none;">
<circle cx="13.077857" cy="5.718250" r="0.400000" /> 
</g>
<g style="fill:#FFFFFF; fill-opacity:1.000000; stroke:none;">
<circle cx="13.077857" cy="3.178250" r="0.400000" /> 
</g> 
</svg>
