<?xml version="1.0" standalone="no"?>
 <!DOCTYPE svg PUBLIC "-//W3C//DTD SVG 1.1//EN" 
 "http://www.w3.org/Graphics/SVG/1.1/DTD/svg11.dtd"> 
<svg
  xmlns:svg="http://www.w3.org/2000/svg"
  xmlns="http://www.w3.org/2000/svg"
  xmlns:xlink="http://www.w3.org/1999/xlink"
  xmlns:inkscape="http://www.inkscape.org/namespaces/inkscape"
  version="1.1"
  width="58.0000mm" height="100.0000mm" viewBox="25.0000 13.6605 58.0000 100.0000">
<title>SVG Image created as edge_cuts.svg date 2026-04-21T00:15:12 </title>
  <desc>Image generated by PCBNEW </desc>
<g style="fill:#000000; fill-opacity:1.0000;stroke:#000000; stroke-opacity:1.0000;
stroke-linecap:round; stroke-linejoin:round;"
 transform="translate(0 0) scale(1 1)">
</g>
<g style="fill:none; 
stroke:#000000; stroke-width:0.0500; stroke-opacity:1; 
stroke-linecap:round; stroke-linejoin:round;">
<path d="M25.0000 20.6105
L25.0000 20.6605
" />
<path d="M26.0000 19.6105 A1.0000 1.0000 0.0 0 0 25.0000 20.6105" />
<path d="M25.0000 112.6605
L25.0000 20.6605
" />
<path d="M25.0000 112.6605 A1.0000 1.0000 0.0 0 0 26.0000 113.6605" />
<path d="M27.3500 19.6105
L26.0000 19.6105
" />
<path d="M28.3500 18.0247
L28.3500 18.6105
" />
<path d="M28.6429 17.3176 A1.0000 1.0000 0.0 0 0 28.3500 18.0247" />
<path d="M27.3500 19.6105 A1.0000 1.0000 0.0 0 0 28.3500 18.6105" />
<path d="M28.8000 17.1605
L28.6429 17.3176
" />
<path d="M28.8000 17.1605
L32.0071 13.9534
" />
<path d="M32.7142 13.6605 A1.0001 1.0001 0.0 0 0 32.0071 13.9534" />
<path d="M32.7142 13.6605
L75.2858 13.6605
" />
<path d="M42.0000 113.6605
L26.0000 113.6605
" />
<path d="M43.0000 107.6605
L43.0000 112.4605
" />
<path d="M44.0000 106.6605 A1.0000 1.0000 0.0 0 0 43.0000 107.6605" />
<path d="M42.0000 113.6605 A1.0000 1.0000 0.0 0 0 43.0000 112.6605" />
<path d="M43.0000 112.6605
L43.0000 112.4605
" />
<path d="M64.0000 106.6605
L44.0000 106.6605
" />
<path d="M65.0000 107.6605 A1.0000 1.0000 0.0 0 0 64.0000 106.6605" />
<path d="M65.0000 109.7605
L65.0000 109.9105
" />
<path d="M65.0000 109.7605
L65.0000 112.6605
" />
<path d="M65.0000 109.9105
L65.0000 107.6605
" />
<path d="M65.0000 112.6605 A1.0000 1.0000 0.0 0 0 66.0000 113.6605" />
<path d="M75.9929 13.9534 A1.0000 1.0000 0.0 0 0 75.2858 13.6605" />
<path d="M75.9929 13.9534
L79.0071 16.9676
" />
<path d="M79.3000 17.6747 A1.0000 1.0000 0.0 0 0 79.0071 16.9676" />
<path d="M79.3000 17.6747
L79.3000 18.6605
" />
<path d="M79.3000 18.6605 A1.0000 1.0000 0.0 0 0 80.3000 19.6605" />
<path d="M80.3000 19.6605
L80.6500 19.6605
" />
<path d="M82.0000 19.6605
L80.6500 19.6605
" />
<path d="M83.0000 20.6605 A1.0000 1.0000 0.0 0 0 82.0000 19.6605" />
<path d="M82.0000 113.6605
L66.0000 113.6605
" />
<path d="M83.0000 20.6605
L83.0000 112.6605
" />
<path d="M82.0000 113.6605 A1.0000 1.0000 0.0 0 0 83.0000 112.6605" />
</g>
<g style="fill:#000000; fill-opacity:1.0000; stroke:none;">
<circle cx="45.0000" cy="104.4105" r="0.5000" /> 
<circle cx="47.5400" cy="104.4105" r="0.5000" /> 
<circle cx="50.0800" cy="104.4105" r="0.5000" /> 
<circle cx="52.6200" cy="104.4105" r="0.5000" /> 
<circle cx="55.1600" cy="104.4105" r="0.5000" /> 
<circle cx="57.7000" cy="104.4105" r="0.5000" /> 
<circle cx="60.2400" cy="104.4105" r="0.5000" /> 
<circle cx="62.7800" cy="104.4105" r="0.5000" /> 
</g>
<g style="fill:none; 
stroke:#000000; stroke-width:1.4000; stroke-opacity:1; 
stroke-linecap:round; stroke-linejoin:round;">
<path d="M30.4700 26.0955
L30.4700 25.3955
" />
<path d="M46.7000 26.0955
L46.7000 25.3955
" />
<path d="M30.4700 19.7455
L30.4700 19.0455
" />
<path d="M46.7000 19.7455
L46.7000 19.0455
" />
<path d="M30.4700 32.4455
L30.4700 31.7455
" />
<path d="M46.7000 32.4455
L46.7000 31.7455
" />
</g>
<g style="fill:#000000; fill-opacity:1.0000; stroke:none;">
<circle cx="79.0000" cy="68.4605" r="0.4000" /> 
<circle cx="79.0000" cy="63.4605" r="0.4000" /> 
</g>
<g style="fill:none; 
stroke:#000000; stroke-width:1.4000; stroke-opacity:1; 
stroke-linecap:round; stroke-linejoin:round;">
<path d="M60.9850 26.0955
L60.9850 25.3955
" />
<path d="M77.2150 26.0955
L77.2150 25.3955
" />
<path d="M60.9850 19.7455
L60.9850 19.0455
" />
<path d="M77.2150 19.7455
L77.2150 19.0455
" />
<path d="M60.9850 32.4455
L60.9850 31.7455
" />
<path d="M77.2150 32.4455
L77.2150 31.7455
" />
</g>
<g style="fill:none; 
stroke:#000000; stroke-width:0.5000; stroke-opacity:1; 
stroke-linecap:round; stroke-linejoin:round;">
<path d="M77.8000 109.7055
L77.0000 109.7055
" />
<path d="M80.4500 105.6605
L80.4500 104.8605
" />
<path d="M77.8000 100.8155
L77.0000 100.8155
" />
</g>
<g style="fill:#000000; fill-opacity:1.0000; stroke:none;">
<circle cx="44.0000" cy="48.4105" r="0.8000" /> 
<circle cx="29.4000" cy="41.6605" r="0.8000" /> 
<circle cx="45.5000" cy="96.6605" r="0.8000" /> 
<circle cx="35.2000" cy="102.4605" r="0.8000" /> 
<circle cx="44.0000" cy="41.7605" r="0.8000" /> 
<circle cx="38.7500" cy="48.4105" r="0.5500" /> 
<circle cx="33.6700" cy="48.4105" r="0.6500" /> 
<circle cx="28.5900" cy="48.4105" r="0.5500" /> 
<circle cx="64.6000" cy="48.2605" r="0.8000" /> 
<circle cx="79.5800" cy="73.6605" r="0.5500" /> 
<circle cx="74.5000" cy="73.6605" r="0.6500" /> 
<circle cx="69.4200" cy="73.6605" r="0.5500" /> 
<circle cx="61.6000" cy="96.6605" r="0.8000" /> 
<circle cx="79.3300" cy="48.1605" r="0.5500" /> 
<circle cx="74.2500" cy="48.1605" r="0.6500" /> 
<circle cx="69.1700" cy="48.1605" r="0.5500" /> 
<circle cx="56.3400" cy="89.0605" r="0.5000" /> 
<circle cx="53.8000" cy="91.6005" r="0.5000" /> 
<circle cx="51.2600" cy="89.0605" r="0.5000" /> 
<circle cx="59.0800" cy="48.4105" r="0.5500" /> 
<circle cx="54.0000" cy="48.4105" r="0.6500" /> 
<circle cx="48.9200" cy="48.4105" r="0.5500" /> 
</g>
<g style="fill:none; 
stroke:#000000; stroke-width:0.8000; stroke-opacity:1; 
stroke-linecap:round; stroke-linejoin:round;">
<path d="M55.4000 23.8105
L52.8000 23.8105
" />
<path d="M55.2000 18.0105
L53.0000 18.0105
" />
<path d="M49.3000 19.7105
L49.3000 21.9105
" />
</g>
<g style="fill:#000000; fill-opacity:1.0000; stroke:none;">
<circle cx="74.6000" cy="104.0605" r="0.8000" /> 
<circle cx="38.5800" cy="73.6605" r="0.5500" /> 
<circle cx="33.5000" cy="73.6605" r="0.6500" /> 
<circle cx="28.4200" cy="73.6605" r="0.5500" /> 
<circle cx="59.0800" cy="73.6605" r="0.5500" /> 
<circle cx="54.0000" cy="73.6605" r="0.6500" /> 
<circle cx="48.9200" cy="73.6605" r="0.5500" /> 
<circle cx="52.5000" cy="98.6605" r="0.4500" /> 
<circle cx="55.0400" cy="98.6605" r="0.4500" /> 
</g> 
</svg>
