<?xml version="1.0" standalone="no"?>
 <!DOCTYPE svg PUBLIC "-//W3C//DTD SVG 1.1//EN" 
 "http://www.w3.org/Graphics/SVG/1.1/DTD/svg11.dtd"> 
<svg
  xmlns:svg="http://www.w3.org/2000/svg"
  xmlns="http://www.w3.org/2000/svg"
  xmlns:xlink="http://www.w3.org/1999/xlink"
  xmlns:inkscape="http://www.inkscape.org/namespaces/inkscape"
  version="1.1"
  width="58.0000mm" height="100.0000mm" viewBox="25.0000 13.6605 58.0000 100.0000">
<title>SVG Image created as f_mask.svg date 2026-04-21T17:26:24 </title>
  <desc>Image generated by PCBNEW </desc>
<g style="fill:#000000; fill-opacity:1.0000;stroke:#000000; stroke-opacity:1.0000;
stroke-linecap:round; stroke-linejoin:round;"
 transform="translate(0 0) scale(1 1)">
<path style="fill:#000000; fill-opacity:1.0000; stroke:none;fill-rule:evenodd;"
d="M 80.2750,57.4355
80.3515,57.4507
80.4164,57.4941
80.4598,57.5590
80.4750,57.6355
80.4750,58.0355
80.4598,58.1120
80.4164,58.1769
80.3515,58.2203
80.2750,58.2355
79.7250,58.2355
79.6485,58.2203
79.5836,58.1769
79.5402,58.1120
79.5250,58.0355
79.5250,57.6355
79.5402,57.5590
79.5836,57.4941
79.6485,57.4507
79.7250,57.4355
Z" /> 
<path style="fill:#000000; fill-opacity:1.0000; stroke:none;fill-rule:evenodd;"
d="M 80.2750,59.0855
80.3515,59.1007
80.4164,59.1441
80.4598,59.2090
80.4750,59.2855
80.4750,59.6855
80.4598,59.7620
80.4164,59.8269
80.3515,59.8703
80.2750,59.8855
79.7250,59.8855
79.6485,59.8703
79.5836,59.8269
79.5402,59.7620
79.5250,59.6855
79.5250,59.2855
79.5402,59.2090
79.5836,59.1441
79.6485,59.1007
79.7250,59.0855
Z" /> 
<path style="fill:#000000; fill-opacity:1.0000; stroke:none;fill-rule:evenodd;"
d="M 75.4500,57.4355
75.5361,57.4526
75.6091,57.5014
75.6579,57.5744
75.6750,57.6605
75.6750,58.1105
75.6579,58.1966
75.6091,58.2696
75.5361,58.3184
75.4500,58.3355
74.9500,58.3355
74.8639,58.3184
74.7909,58.2696
74.7421,58.1966
74.7250,58.1105
74.7250,57.6605
74.7421,57.5744
74.7909,57.5014
74.8639,57.4526
74.9500,57.4355
Z" /> 
<path style="fill:#000000; fill-opacity:1.0000; stroke:none;fill-rule:evenodd;"
d="M 75.4500,58.9855
75.5361,59.0026
75.6091,59.0514
75.6579,59.1244
75.6750,59.2105
75.6750,59.6605
75.6579,59.7466
75.6091,59.8196
75.5361,59.8684
75.4500,59.8855
74.9500,59.8855
74.8639,59.8684
74.7909,59.8196
74.7421,59.7466
74.7250,59.6605
74.7250,59.2105
74.7421,59.1244
74.7909,59.0514
74.8639,59.0026
74.9500,58.9855
Z" /> 
<path style="fill:#000000; fill-opacity:1.0000; stroke:none;fill-rule:evenodd;"
d="M 35.0250,94.6255
35.1015,94.6407
35.1664,94.6841
35.2098,94.7490
35.2250,94.8255
35.2250,95.2255
35.2098,95.3020
35.1664,95.3669
35.1015,95.4103
35.0250,95.4255
34.4750,95.4255
34.3985,95.4103
34.3336,95.3669
34.2902,95.3020
34.2750,95.2255
34.2750,94.8255
34.2902,94.7490
34.3336,94.6841
34.3985,94.6407
34.4750,94.6255
Z" /> 
<path style="fill:#000000; fill-opacity:1.0000; stroke:none;fill-rule:evenodd;"
d="M 35.0250,96.2755
35.1015,96.2907
35.1664,96.3341
35.2098,96.3990
35.2250,96.4755
35.2250,96.8755
35.2098,96.9520
35.1664,97.0169
35.1015,97.0603
35.0250,97.0755
34.4750,97.0755
34.3985,97.0603
34.3336,97.0169
34.2902,96.9520
34.2750,96.8755
34.2750,96.4755
34.2902,96.3990
34.3336,96.3341
34.3985,96.2907
34.4750,96.2755
Z" /> 
<path style="fill:#000000; fill-opacity:1.0000; stroke:none;fill-rule:evenodd;"
d="M 63.5750,69.0105
63.4793,68.9915
63.3982,68.9373
63.3440,68.8562
63.3250,68.7605
63.3250,68.2605
63.3440,68.1648
63.3982,68.0837
63.4793,68.0295
63.5750,68.0105
64.5250,68.0105
64.6207,68.0295
64.7018,68.0837
64.7560,68.1648
64.7750,68.2605
64.7750,68.7605
64.7560,68.8562
64.7018,68.9373
64.6207,68.9915
64.5250,69.0105
Z" /> 
<path style="fill:#000000; fill-opacity:1.0000; stroke:none;fill-rule:evenodd;"
d="M 63.5750,67.1105
63.4793,67.0915
63.3982,67.0373
63.3440,66.9562
63.3250,66.8605
63.3250,66.3605
63.3440,66.2648
63.3982,66.1837
63.4793,66.1295
63.5750,66.1105
64.5250,66.1105
64.6207,66.1295
64.7018,66.1837
64.7560,66.2648
64.7750,66.3605
64.7750,66.8605
64.7560,66.9562
64.7018,67.0373
64.6207,67.0915
64.5250,67.1105
Z" /> 
<path style="fill:#000000; fill-opacity:1.0000; stroke:none;fill-rule:evenodd;"
d="M 35.5250,78.4355
35.6015,78.4507
35.6664,78.4941
35.7098,78.5590
35.7250,78.6355
35.7250,79.0355
35.7098,79.1120
35.6664,79.1769
35.6015,79.2203
35.5250,79.2355
34.9750,79.2355
34.8985,79.2203
34.8336,79.1769
34.7902,79.1120
34.7750,79.0355
34.7750,78.6355
34.7902,78.5590
34.8336,78.4941
34.8985,78.4507
34.9750,78.4355
Z" /> 
<path style="fill:#000000; fill-opacity:1.0000; stroke:none;fill-rule:evenodd;"
d="M 35.5250,80.0855
35.6015,80.1007
35.6664,80.1441
35.7098,80.2090
35.7250,80.2855
35.7250,80.6855
35.7098,80.7620
35.6664,80.8269
35.6015,80.8703
35.5250,80.8855
34.9750,80.8855
34.8985,80.8703
34.8336,80.8269
34.7902,80.7620
34.7750,80.6855
34.7750,80.2855
34.7902,80.2090
34.8336,80.1441
34.8985,80.1007
34.9750,80.0855
Z" /> 
<path style="fill:#000000; fill-opacity:1.0000; stroke:none;fill-rule:evenodd;"
d="M 54.1500,36.6855
54.0639,36.6684
53.9909,36.6196
53.9421,36.5466
53.9250,36.4605
53.9250,36.0105
53.9421,35.9244
53.9909,35.8514
54.0639,35.8026
54.1500,35.7855
54.6500,35.7855
54.7361,35.8026
54.8091,35.8514
54.8579,35.9244
54.8750,36.0105
54.8750,36.4605
54.8579,36.5466
54.8091,36.6196
54.7361,36.6684
54.6500,36.6855
Z" /> 
<path style="fill:#000000; fill-opacity:1.0000; stroke:none;fill-rule:evenodd;"
d="M 54.1500,35.1355
54.0639,35.1184
53.9909,35.0696
53.9421,34.9966
53.9250,34.9105
53.9250,34.4605
53.9421,34.3744
53.9909,34.3014
54.0639,34.2526
54.1500,34.2355
54.6500,34.2355
54.7361,34.2526
54.8091,34.3014
54.8579,34.3744
54.8750,34.4605
54.8750,34.9105
54.8579,34.9966
54.8091,35.0696
54.7361,35.1184
54.6500,35.1355
Z" /> 
<path style="fill:#000000; fill-opacity:1.0000; stroke:none;fill-rule:evenodd;"
d="M 45.8500,105.2605
44.1500,105.2605
44.1500,103.5605
45.8500,103.5605
Z" /> 
</g>
<g style="fill:#000000; fill-opacity:1.0000; stroke:none;">
<circle cx="47.5400" cy="104.4105" r="0.8500" /> 
<circle cx="50.0800" cy="104.4105" r="0.8500" /> 
<circle cx="52.6200" cy="104.4105" r="0.8500" /> 
<circle cx="55.1600" cy="104.4105" r="0.8500" /> 
<circle cx="57.7000" cy="104.4105" r="0.8500" /> 
<circle cx="60.2400" cy="104.4105" r="0.8500" /> 
<circle cx="62.7800" cy="104.4105" r="0.8500" /> 
<path style="fill:#000000; fill-opacity:1.0000; stroke:none;fill-rule:evenodd;"
d="M 32.1250,55.0855
32.0485,55.0703
31.9836,55.0269
31.9402,54.9620
31.9250,54.8855
31.9250,54.4855
31.9402,54.4090
31.9836,54.3441
32.0485,54.3007
32.1250,54.2855
32.6750,54.2855
32.7515,54.3007
32.8164,54.3441
32.8598,54.4090
32.8750,54.4855
32.8750,54.8855
32.8598,54.9620
32.8164,55.0269
32.7515,55.0703
32.6750,55.0855
Z" /> 
<path style="fill:#000000; fill-opacity:1.0000; stroke:none;fill-rule:evenodd;"
d="M 32.1250,53.4355
32.0485,53.4203
31.9836,53.3769
31.9402,53.3120
31.9250,53.2355
31.9250,52.8355
31.9402,52.7590
31.9836,52.6941
32.0485,52.6507
32.1250,52.6355
32.6750,52.6355
32.7515,52.6507
32.8164,52.6941
32.8598,52.7590
32.8750,52.8355
32.8750,53.2355
32.8598,53.3120
32.8164,53.3769
32.7515,53.4203
32.6750,53.4355
Z" /> 
</g>
<g style="fill:none; 
stroke:#000000; stroke-width:3.0000; stroke-opacity:1; 
stroke-linecap:round; stroke-linejoin:round;">
<path d="M30.4700 26.2455
L30.4700 25.2455
" />
<path d="M46.7000 26.2455
L46.7000 25.2455
" />
<path d="M30.4700 19.8955
L30.4700 18.8955
" />
<path d="M46.7000 19.8955
L46.7000 18.8955
" />
<path d="M30.4700 32.5955
L30.4700 31.5955
" />
<path d="M46.7000 32.5955
L46.7000 31.5955
" />
<path style="fill:#000000; fill-opacity:1.0000; stroke:none;fill-rule:evenodd;"
d="M 66.0500,56.2355
66.1361,56.2526
66.2091,56.3014
66.2579,56.3744
66.2750,56.4605
66.2750,56.9105
66.2579,56.9966
66.2091,57.0696
66.1361,57.1184
66.0500,57.1355
65.5500,57.1355
65.4639,57.1184
65.3909,57.0696
65.3421,56.9966
65.3250,56.9105
65.3250,56.4605
65.3421,56.3744
65.3909,56.3014
65.4639,56.2526
65.5500,56.2355
Z" /> 
<path style="fill:#000000; fill-opacity:1.0000; stroke:none;fill-rule:evenodd;"
d="M 66.0500,57.7855
66.1361,57.8026
66.2091,57.8514
66.2579,57.9244
66.2750,58.0105
66.2750,58.4605
66.2579,58.5466
66.2091,58.6196
66.1361,58.6684
66.0500,58.6855
65.5500,58.6855
65.4639,58.6684
65.3909,58.6196
65.3421,58.5466
65.3250,58.4605
65.3250,58.0105
65.3421,57.9244
65.3909,57.8514
65.4639,57.8026
65.5500,57.7855
Z" /> 
<path style="fill:#000000; fill-opacity:1.0000; stroke:none;fill-rule:evenodd;"
d="M 68.0500,93.9105
68.1457,93.9295
68.2268,93.9837
68.2810,94.0648
68.3000,94.1605
68.3000,97.1605
68.2810,97.2562
68.2268,97.3373
68.1457,97.3915
68.0500,97.4105
66.9500,97.4105
66.8543,97.3915
66.7732,97.3373
66.7190,97.2562
66.7000,97.1605
66.7000,94.1605
66.7190,94.0648
66.7732,93.9837
66.8543,93.9295
66.9500,93.9105
Z" /> 
<path style="fill:#000000; fill-opacity:1.0000; stroke:none;fill-rule:evenodd;"
d="M 68.0500,99.5105
68.1457,99.5295
68.2268,99.5837
68.2810,99.6648
68.3000,99.7605
68.3000,102.7605
68.2810,102.8562
68.2268,102.9373
68.1457,102.9915
68.0500,103.0105
66.9500,103.0105
66.8543,102.9915
66.7732,102.9373
66.7190,102.8562
66.7000,102.7605
66.7000,99.7605
66.7190,99.6648
66.7732,99.5837
66.8543,99.5295
66.9500,99.5105
Z" /> 
<path style="fill:#000000; fill-opacity:1.0000; stroke:none;fill-rule:evenodd;"
d="M 60.4250,69.1355
60.3485,69.1203
60.2836,69.0769
60.2402,69.0120
60.2250,68.9355
60.2250,68.5355
60.2402,68.4590
60.2836,68.3941
60.3485,68.3507
60.4250,68.3355
60.9750,68.3355
61.0515,68.3507
61.1164,68.3941
61.1598,68.4590
61.1750,68.5355
61.1750,68.9355
61.1598,69.0120
61.1164,69.0769
61.0515,69.1203
60.9750,69.1355
Z" /> 
<path style="fill:#000000; fill-opacity:1.0000; stroke:none;fill-rule:evenodd;"
d="M 60.4250,67.4855
60.3485,67.4703
60.2836,67.4269
60.2402,67.3620
60.2250,67.2855
60.2250,66.8855
60.2402,66.8090
60.2836,66.7441
60.3485,66.7007
60.4250,66.6855
60.9750,66.6855
61.0515,66.7007
61.1164,66.7441
61.1598,66.8090
61.1750,66.8855
61.1750,67.2855
61.1598,67.3620
61.1164,67.4269
61.0515,67.4703
60.9750,67.4855
Z" /> 
</g>
<g style="fill:#000000; fill-opacity:1.0000; stroke:none;">
<circle cx="79.0000" cy="68.4605" r="0.8000" /> 
<circle cx="79.0000" cy="63.4605" r="0.8000" /> 
<path style="fill:#000000; fill-opacity:1.0000; stroke:none;fill-rule:evenodd;"
d="M 50.0875,36.6105
50.0444,36.6019
50.0080,36.5775
49.9836,36.5411
49.9750,36.4980
49.9750,36.1230
49.9836,36.0799
50.0080,36.0434
50.0444,36.0191
50.0875,36.0105
50.3125,36.0105
50.3556,36.0191
50.3920,36.0434
50.4164,36.0799
50.4250,36.1230
50.4250,36.4980
50.4164,36.5411
50.3920,36.5775
50.3556,36.6019
50.3125,36.6105
Z" /> 
<path style="fill:#000000; fill-opacity:1.0000; stroke:none;fill-rule:evenodd;"
d="M 50.0875,34.5105
50.0444,34.5019
50.0080,34.4776
49.9836,34.4411
49.9750,34.3980
49.9750,34.0230
49.9836,33.9799
50.0080,33.9434
50.0444,33.9191
50.0875,33.9105
50.3125,33.9105
50.3556,33.9191
50.3920,33.9434
50.4164,33.9799
50.4250,34.0230
50.4250,34.3980
50.4164,34.4411
50.3920,34.4776
50.3556,34.5019
50.3125,34.5105
Z" /> 
</g>
<g style="fill:none; 
stroke:#000000; stroke-width:3.0000; stroke-opacity:1; 
stroke-linecap:round; stroke-linejoin:round;">
<path d="M60.9850 26.2455
L60.9850 25.2455
" />
<path d="M77.2150 26.2455
L77.2150 25.2455
" />
<path d="M60.9850 19.8955
L60.9850 18.8955
" />
<path d="M77.2150 19.8955
L77.2150 18.8955
" />
<path d="M60.9850 32.5955
L60.9850 31.5955
" />
<path d="M77.2150 32.5955
L77.2150 31.5955
" />
<path style="fill:#000000; fill-opacity:1.0000; stroke:none;fill-rule:evenodd;"
d="M 49.3125,52.9105
49.3556,52.9191
49.3920,52.9434
49.4164,52.9799
49.4250,53.0230
49.4250,53.3980
49.4164,53.4411
49.3920,53.4776
49.3556,53.5019
49.3125,53.5105
49.0875,53.5105
49.0444,53.5019
49.0080,53.4776
48.9836,53.4411
48.9750,53.3980
48.9750,53.0230
48.9836,52.9799
49.0080,52.9434
49.0444,52.9191
49.0875,52.9105
Z" /> 
<path style="fill:#000000; fill-opacity:1.0000; stroke:none;fill-rule:evenodd;"
d="M 49.3125,55.0105
49.3556,55.0191
49.3920,55.0434
49.4164,55.0799
49.4250,55.1230
49.4250,55.4980
49.4164,55.5411
49.3920,55.5775
49.3556,55.6019
49.3125,55.6105
49.0875,55.6105
49.0444,55.6019
49.0080,55.5775
48.9836,55.5411
48.9750,55.4980
48.9750,55.1230
48.9836,55.0799
49.0080,55.0434
49.0444,55.0191
49.0875,55.0105
Z" /> 
<path style="fill:#000000; fill-opacity:1.0000; stroke:none;fill-rule:evenodd;"
d="M 30.6500,104.8605
30.7457,104.8795
30.8268,104.9337
30.8810,105.0148
30.9000,105.1105
30.9000,105.7605
30.8810,105.8562
30.8268,105.9373
30.7457,105.9915
30.6500,106.0105
29.3500,106.0105
29.2543,105.9915
29.1732,105.9373
29.1190,105.8562
29.1000,105.7605
29.1000,105.1105
29.1190,105.0148
29.1732,104.9337
29.2543,104.8795
29.3500,104.8605
Z" /> 
<path style="fill:#000000; fill-opacity:1.0000; stroke:none;fill-rule:evenodd;"
d="M 30.6500,107.8105
30.7457,107.8295
30.8268,107.8837
30.8810,107.9648
30.9000,108.0605
30.9000,108.7105
30.8810,108.8062
30.8268,108.8873
30.7457,108.9415
30.6500,108.9605
29.3500,108.9605
29.2543,108.9415
29.1732,108.8873
29.1190,108.8062
29.1000,108.7105
29.1000,108.0605
29.1190,107.9648
29.1732,107.8837
29.2543,107.8295
29.3500,107.8105
Z" /> 
<path style="fill:#000000; fill-opacity:1.0000; stroke:none;fill-rule:evenodd;"
d="M 79.9437,97.5855
79.8505,97.5669
79.7714,97.5141
79.7186,97.4350
79.7000,97.3417
79.7000,96.8542
79.7186,96.7610
79.7714,96.6819
79.8505,96.6291
79.9437,96.6105
80.8563,96.6105
80.9495,96.6291
81.0286,96.6819
81.0814,96.7610
81.1000,96.8542
81.1000,97.3417
81.0814,97.4350
81.0286,97.5141
80.9495,97.5669
80.8563,97.5855
Z" /> 
<path style="fill:#000000; fill-opacity:1.0000; stroke:none;fill-rule:evenodd;"
d="M 79.9437,95.7105
79.8505,95.6919
79.7714,95.6391
79.7186,95.5600
79.7000,95.4667
79.7000,94.9792
79.7186,94.8860
79.7714,94.8069
79.8505,94.7541
79.9437,94.7355
80.8563,94.7355
80.9495,94.7541
81.0286,94.8069
81.0814,94.8860
81.1000,94.9792
81.1000,95.4667
81.0814,95.5600
81.0286,95.6391
80.9495,95.6919
80.8563,95.7105
Z" /> 
<path style="fill:#000000; fill-opacity:1.0000; stroke:none;fill-rule:evenodd;"
d="M 50.0750,77.8355
50.1515,77.8507
50.2164,77.8941
50.2598,77.9590
50.2750,78.0355
50.2750,78.4355
50.2598,78.5120
50.2164,78.5769
50.1515,78.6203
50.0750,78.6355
49.5250,78.6355
49.4485,78.6203
49.3836,78.5769
49.3402,78.5120
49.3250,78.4355
49.3250,78.0355
49.3402,77.9590
49.3836,77.8941
49.4485,77.8507
49.5250,77.8355
Z" /> 
<path style="fill:#000000; fill-opacity:1.0000; stroke:none;fill-rule:evenodd;"
d="M 50.0750,79.4855
50.1515,79.5007
50.2164,79.5441
50.2598,79.6090
50.2750,79.6855
50.2750,80.0855
50.2598,80.1620
50.2164,80.2269
50.1515,80.2703
50.0750,80.2855
49.5250,80.2855
49.4485,80.2703
49.3836,80.2269
49.3402,80.1620
49.3250,80.0855
49.3250,79.6855
49.3402,79.6090
49.3836,79.5441
49.4485,79.5007
49.5250,79.4855
Z" /> 
<path style="fill:#000000; fill-opacity:1.0000; stroke:none;fill-rule:evenodd;"
d="M 36.5250,106.4355
36.6015,106.4507
36.6664,106.4941
36.7098,106.5590
36.7250,106.6355
36.7250,107.0355
36.7098,107.1120
36.6664,107.1769
36.6015,107.2203
36.5250,107.2355
35.9750,107.2355
35.8985,107.2203
35.8336,107.1769
35.7902,107.1120
35.7750,107.0355
35.7750,106.6355
35.7902,106.5590
35.8336,106.4941
35.8985,106.4507
35.9750,106.4355
Z" /> 
<path style="fill:#000000; fill-opacity:1.0000; stroke:none;fill-rule:evenodd;"
d="M 36.5250,108.0855
36.6015,108.1007
36.6664,108.1441
36.7098,108.2090
36.7250,108.2855
36.7250,108.6855
36.7098,108.7620
36.6664,108.8269
36.6015,108.8703
36.5250,108.8855
35.9750,108.8855
35.8985,108.8703
35.8336,108.8269
35.7902,108.7620
35.7750,108.6855
35.7750,108.2855
35.7902,108.2090
35.8336,108.1441
35.8985,108.1007
35.9750,108.0855
Z" /> 
<path style="fill:#000000; fill-opacity:1.0000; stroke:none;fill-rule:evenodd;"
d="M 73.9437,97.4855
73.8505,97.4669
73.7714,97.4141
73.7186,97.3350
73.7000,97.2417
73.7000,96.7542
73.7186,96.6610
73.7714,96.5819
73.8505,96.5291
73.9437,96.5105
74.8563,96.5105
74.9495,96.5291
75.0286,96.5819
75.0814,96.6610
75.1000,96.7542
75.1000,97.2417
75.0814,97.3350
75.0286,97.4141
74.9495,97.4669
74.8563,97.4855
Z" /> 
<path style="fill:#000000; fill-opacity:1.0000; stroke:none;fill-rule:evenodd;"
d="M 73.9437,95.6105
73.8505,95.5919
73.7714,95.5391
73.7186,95.4600
73.7000,95.3667
73.7000,94.8792
73.7186,94.7860
73.7714,94.7069
73.8505,94.6541
73.9437,94.6355
74.8563,94.6355
74.9495,94.6541
75.0286,94.7069
75.0814,94.7860
75.1000,94.8792
75.1000,95.3667
75.0814,95.4600
75.0286,95.5391
74.9495,95.5919
74.8563,95.6105
Z" /> 
<path style="fill:#000000; fill-opacity:1.0000; stroke:none;fill-rule:evenodd;"
d="M 77.0500,57.4355
77.1361,57.4526
77.2091,57.5014
77.2579,57.5744
77.2750,57.6605
77.2750,58.1105
77.2579,58.1966
77.2091,58.2696
77.1361,58.3184
77.0500,58.3355
76.5500,58.3355
76.4639,58.3184
76.3909,58.2696
76.3421,58.1966
76.3250,58.1105
76.3250,57.6605
76.3421,57.5744
76.3909,57.5014
76.4639,57.4526
76.5500,57.4355
Z" /> 
<path style="fill:#000000; fill-opacity:1.0000; stroke:none;fill-rule:evenodd;"
d="M 77.0500,58.9855
77.1361,59.0026
77.2091,59.0514
77.2579,59.1244
77.2750,59.2105
77.2750,59.6605
77.2579,59.7466
77.2091,59.8196
77.1361,59.8684
77.0500,59.8855
76.5500,59.8855
76.4639,59.8684
76.3909,59.8196
76.3421,59.7466
76.3250,59.6605
76.3250,59.2105
76.3421,59.1244
76.3909,59.0514
76.4639,59.0026
76.5500,58.9855
Z" /> 
<path style="fill:#000000; fill-opacity:1.0000; stroke:none;fill-rule:evenodd;"
d="M 46.4250,80.6105
46.3293,80.5915
46.2482,80.5373
46.1940,80.4562
46.1750,80.3605
46.1750,79.8605
46.1940,79.7648
46.2482,79.6837
46.3293,79.6295
46.4250,79.6105
47.3750,79.6105
47.4707,79.6295
47.5518,79.6837
47.6060,79.7648
47.6250,79.8605
47.6250,80.3605
47.6060,80.4562
47.5518,80.5373
47.4707,80.5915
47.3750,80.6105
Z" /> 
<path style="fill:#000000; fill-opacity:1.0000; stroke:none;fill-rule:evenodd;"
d="M 46.4250,78.7105
46.3293,78.6915
46.2482,78.6373
46.1940,78.5562
46.1750,78.4605
46.1750,77.9605
46.1940,77.8648
46.2482,77.7837
46.3293,77.7295
46.4250,77.7105
47.3750,77.7105
47.4707,77.7295
47.5518,77.7837
47.6060,77.8648
47.6250,77.9605
47.6250,78.4605
47.6060,78.5562
47.5518,78.6373
47.4707,78.6915
47.3750,78.7105
Z" /> 
<path style="fill:#000000; fill-opacity:1.0000; stroke:none;fill-rule:evenodd;"
d="M 45.6250,55.4105
45.5485,55.3953
45.4836,55.3519
45.4402,55.2870
45.4250,55.2105
45.4250,54.8105
45.4402,54.7340
45.4836,54.6691
45.5485,54.6257
45.6250,54.6105
46.1750,54.6105
46.2515,54.6257
46.3164,54.6691
46.3598,54.7340
46.3750,54.8105
46.3750,55.2105
46.3598,55.2870
46.3164,55.3519
46.2515,55.3953
46.1750,55.4105
Z" /> 
<path style="fill:#000000; fill-opacity:1.0000; stroke:none;fill-rule:evenodd;"
d="M 45.6250,53.7605
45.5485,53.7453
45.4836,53.7019
45.4402,53.6370
45.4250,53.5605
45.4250,53.1605
45.4402,53.0840
45.4836,53.0191
45.5485,52.9757
45.6250,52.9605
46.1750,52.9605
46.2515,52.9757
46.3164,53.0191
46.3598,53.0840
46.3750,53.1605
46.3750,53.5605
46.3598,53.6370
46.3164,53.7019
46.2515,53.7453
46.1750,53.7605
Z" /> 
</g>
<g style="fill:none; 
stroke:#000000; stroke-width:1.4000; stroke-opacity:1; 
stroke-linecap:round; stroke-linejoin:round;">
<path d="M77.6500 109.7055
L77.1500 109.7055
" />
<path d="M80.4500 105.5105
L80.4500 105.0105
" />
<path d="M77.6500 100.8155
L77.1500 100.8155
" />
<path style="fill:#000000; fill-opacity:1.0000; stroke:none;fill-rule:evenodd;"
d="M 46.2250,45.1855
46.2098,45.2620
46.1664,45.3269
46.1015,45.3703
46.0250,45.3855
45.6250,45.3855
45.5485,45.3703
45.4836,45.3269
45.4402,45.2620
45.4250,45.1855
45.4250,44.6355
45.4402,44.5590
45.4836,44.4941
45.5485,44.4507
45.6250,44.4355
46.0250,44.4355
46.1015,44.4507
46.1664,44.4941
46.2098,44.5590
46.2250,44.6355
Z" /> 
<path style="fill:#000000; fill-opacity:1.0000; stroke:none;fill-rule:evenodd;"
d="M 44.5750,45.1855
44.5598,45.2620
44.5164,45.3269
44.4515,45.3703
44.3750,45.3855
43.9750,45.3855
43.8985,45.3703
43.8336,45.3269
43.7902,45.2620
43.7750,45.1855
43.7750,44.6355
43.7902,44.5590
43.8336,44.4941
43.8985,44.4507
43.9750,44.4355
44.3750,44.4355
44.4515,44.4507
44.5164,44.4941
44.5598,44.5590
44.5750,44.6355
Z" /> 
<path style="fill:#000000; fill-opacity:1.0000; stroke:none;fill-rule:evenodd;"
d="M 59.9000,88.3355
59.8426,88.3241
59.7939,88.2916
59.7614,88.2429
59.7500,88.1855
59.7500,87.0105
59.7614,86.9531
59.7939,86.9044
59.8426,86.8719
59.9000,86.8605
60.2000,86.8605
60.2574,86.8719
60.3061,86.9044
60.3386,86.9531
60.3500,87.0105
60.3500,88.1855
60.3386,88.2429
60.3061,88.2916
60.2574,88.3241
60.2000,88.3355
Z" /> 
<path style="fill:#000000; fill-opacity:1.0000; stroke:none;fill-rule:evenodd;"
d="M 61.8000,88.3355
61.7426,88.3241
61.6939,88.2916
61.6614,88.2429
61.6500,88.1855
61.6500,87.0105
61.6614,86.9531
61.6939,86.9044
61.7426,86.8719
61.8000,86.8605
62.1000,86.8605
62.1574,86.8719
62.2061,86.9044
62.2386,86.9531
62.2500,87.0105
62.2500,88.1855
62.2386,88.2429
62.2061,88.2916
62.1574,88.3241
62.1000,88.3355
Z" /> 
<path style="fill:#000000; fill-opacity:1.0000; stroke:none;fill-rule:evenodd;"
d="M 60.8500,86.4605
60.7926,86.4491
60.7439,86.4166
60.7114,86.3679
60.7000,86.3105
60.7000,85.1355
60.7114,85.0781
60.7439,85.0294
60.7926,84.9969
60.8500,84.9855
61.1500,84.9855
61.2074,84.9969
61.2561,85.0294
61.2886,85.0781
61.3000,85.1355
61.3000,86.3105
61.2886,86.3679
61.2561,86.4166
61.2074,86.4491
61.1500,86.4605
Z" /> 
<path style="fill:#000000; fill-opacity:1.0000; stroke:none;fill-rule:evenodd;"
d="M 72.9750,55.0105
72.9921,54.9244
73.0409,54.8514
73.1139,54.8026
73.2000,54.7855
73.6500,54.7855
73.7361,54.8026
73.8091,54.8514
73.8579,54.9244
73.8750,55.0105
73.8750,55.5105
73.8579,55.5966
73.8091,55.6696
73.7361,55.7184
73.6500,55.7355
73.2000,55.7355
73.1139,55.7184
73.0409,55.6696
72.9921,55.5966
72.9750,55.5105
Z" /> 
<path style="fill:#000000; fill-opacity:1.0000; stroke:none;fill-rule:evenodd;"
d="M 74.5250,55.0105
74.5421,54.9244
74.5909,54.8514
74.6639,54.8026
74.7500,54.7855
75.2000,54.7855
75.2861,54.8026
75.3591,54.8514
75.4079,54.9244
75.4250,55.0105
75.4250,55.5105
75.4079,55.5966
75.3591,55.6696
75.2861,55.7184
75.2000,55.7355
74.7500,55.7355
74.6639,55.7184
74.5909,55.6696
74.5421,55.5966
74.5250,55.5105
Z" /> 
</g>
<g style="fill:#000000; fill-opacity:1.0000; stroke:none;">
<circle cx="44.0000" cy="48.4105" r="1.4000" /> 
<path style="fill:#000000; fill-opacity:1.0000; stroke:none;fill-rule:evenodd;"
d="M 66.9500,56.4055
66.9614,56.3481
66.9939,56.2994
67.0426,56.2669
67.1000,56.2555
68.7500,56.2555
68.8074,56.2669
68.8561,56.2994
68.8886,56.3481
68.9000,56.4055
68.9000,56.7055
68.8886,56.7629
68.8561,56.8116
68.8074,56.8441
68.7500,56.8555
67.1000,56.8555
67.0426,56.8441
66.9939,56.8116
66.9614,56.7629
66.9500,56.7055
Z" /> 
<path style="fill:#000000; fill-opacity:1.0000; stroke:none;fill-rule:evenodd;"
d="M 66.9500,57.6755
66.9614,57.6181
66.9939,57.5694
67.0426,57.5369
67.1000,57.5255
68.7500,57.5255
68.8074,57.5369
68.8561,57.5694
68.8886,57.6181
68.9000,57.6755
68.9000,57.9755
68.8886,58.0329
68.8561,58.0816
68.8074,58.1141
68.7500,58.1255
67.1000,58.1255
67.0426,58.1141
66.9939,58.0816
66.9614,58.0329
66.9500,57.9755
Z" /> 
<path style="fill:#000000; fill-opacity:1.0000; stroke:none;fill-rule:evenodd;"
d="M 66.9500,58.9455
66.9614,58.8881
66.9939,58.8394
67.0426,58.8069
67.1000,58.7955
68.7500,58.7955
68.8074,58.8069
68.8561,58.8394
68.8886,58.8881
68.9000,58.9455
68.9000,59.2455
68.8886,59.3029
68.8561,59.3516
68.8074,59.3841
68.7500,59.3955
67.1000,59.3955
67.0426,59.3841
66.9939,59.3516
66.9614,59.3029
66.9500,59.2455
Z" /> 
<path style="fill:#000000; fill-opacity:1.0000; stroke:none;fill-rule:evenodd;"
d="M 66.9500,60.2155
66.9614,60.1581
66.9939,60.1094
67.0426,60.0769
67.1000,60.0655
68.7500,60.0655
68.8074,60.0769
68.8561,60.1094
68.8886,60.1581
68.9000,60.2155
68.9000,60.5155
68.8886,60.5729
68.8561,60.6216
68.8074,60.6541
68.7500,60.6655
67.1000,60.6655
67.0426,60.6541
66.9939,60.6216
66.9614,60.5729
66.9500,60.5155
Z" /> 
<path style="fill:#000000; fill-opacity:1.0000; stroke:none;fill-rule:evenodd;"
d="M 71.9000,60.2155
71.9114,60.1581
71.9439,60.1094
71.9926,60.0769
72.0500,60.0655
73.7000,60.0655
73.7574,60.0769
73.8061,60.1094
73.8386,60.1581
73.8500,60.2155
73.8500,60.5155
73.8386,60.5729
73.8061,60.6216
73.7574,60.6541
73.7000,60.6655
72.0500,60.6655
71.9926,60.6541
71.9439,60.6216
71.9114,60.5729
71.9000,60.5155
Z" /> 
<path style="fill:#000000; fill-opacity:1.0000; stroke:none;fill-rule:evenodd;"
d="M 71.9000,58.9455
71.9114,58.8881
71.9439,58.8394
71.9926,58.8069
72.0500,58.7955
73.7000,58.7955
73.7574,58.8069
73.8061,58.8394
73.8386,58.8881
73.8500,58.9455
73.8500,59.2455
73.8386,59.3029
73.8061,59.3516
73.7574,59.3841
73.7000,59.3955
72.0500,59.3955
71.9926,59.3841
71.9439,59.3516
71.9114,59.3029
71.9000,59.2455
Z" /> 
<path style="fill:#000000; fill-opacity:1.0000; stroke:none;fill-rule:evenodd;"
d="M 71.9000,57.6755
71.9114,57.6181
71.9439,57.5694
71.9926,57.5369
72.0500,57.5255
73.7000,57.5255
73.7574,57.5369
73.8061,57.5694
73.8386,57.6181
73.8500,57.6755
73.8500,57.9755
73.8386,58.0329
73.8061,58.0816
73.7574,58.1141
73.7000,58.1255
72.0500,58.1255
71.9926,58.1141
71.9439,58.0816
71.9114,58.0329
71.9000,57.9755
Z" /> 
<path style="fill:#000000; fill-opacity:1.0000; stroke:none;fill-rule:evenodd;"
d="M 71.9000,56.4055
71.9114,56.3481
71.9439,56.2994
71.9926,56.2669
72.0500,56.2555
73.7000,56.2555
73.7574,56.2669
73.8061,56.2994
73.8386,56.3481
73.8500,56.4055
73.8500,56.7055
73.8386,56.7629
73.8061,56.8116
73.7574,56.8441
73.7000,56.8555
72.0500,56.8555
71.9926,56.8441
71.9439,56.8116
71.9114,56.7629
71.9000,56.7055
Z" /> 
<circle cx="29.4000" cy="41.6605" r="1.4000" /> 
<path style="fill:#000000; fill-opacity:1.0000; stroke:none;fill-rule:evenodd;"
d="M 32.4000,77.1105
32.4957,77.1295
32.5768,77.1837
32.6310,77.2648
32.6500,77.3605
32.6500,78.0105
32.6310,78.1062
32.5768,78.1873
32.4957,78.2415
32.4000,78.2605
31.1000,78.2605
31.0043,78.2415
30.9232,78.1873
30.8690,78.1062
30.8500,78.0105
30.8500,77.3605
30.8690,77.2648
30.9232,77.1837
31.0043,77.1295
31.1000,77.1105
Z" /> 
<path style="fill:#000000; fill-opacity:1.0000; stroke:none;fill-rule:evenodd;"
d="M 32.4000,80.0605
32.4957,80.0795
32.5768,80.1337
32.6310,80.2148
32.6500,80.3105
32.6500,80.9605
32.6310,81.0562
32.5768,81.1373
32.4957,81.1915
32.4000,81.2105
31.1000,81.2105
31.0043,81.1915
30.9232,81.1373
30.8690,81.0562
30.8500,80.9605
30.8500,80.3105
30.8690,80.2148
30.9232,80.1337
31.0043,80.0795
31.1000,80.0605
Z" /> 
<path style="fill:#000000; fill-opacity:1.0000; stroke:none;fill-rule:evenodd;"
d="M 57.7250,36.6355
57.6485,36.6203
57.5836,36.5769
57.5402,36.5120
57.5250,36.4355
57.5250,36.0355
57.5402,35.9590
57.5836,35.8941
57.6485,35.8507
57.7250,35.8355
58.2750,35.8355
58.3515,35.8507
58.4164,35.8941
58.4598,35.9590
58.4750,36.0355
58.4750,36.4355
58.4598,36.5120
58.4164,36.5769
58.3515,36.6203
58.2750,36.6355
Z" /> 
<path style="fill:#000000; fill-opacity:1.0000; stroke:none;fill-rule:evenodd;"
d="M 57.7250,34.9855
57.6485,34.9703
57.5836,34.9269
57.5402,34.8620
57.5250,34.7855
57.5250,34.3855
57.5402,34.3090
57.5836,34.2441
57.6485,34.2007
57.7250,34.1855
58.2750,34.1855
58.3515,34.2007
58.4164,34.2441
58.4598,34.3090
58.4750,34.3855
58.4750,34.7855
58.4598,34.8620
58.4164,34.9269
58.3515,34.9703
58.2750,34.9855
Z" /> 
<circle cx="45.5000" cy="96.6605" r="1.4000" /> 
<circle cx="35.2000" cy="102.4605" r="1.4000" /> 
<path style="fill:#000000; fill-opacity:1.0000; stroke:none;fill-rule:evenodd;"
d="M 54.5500,54.3105
54.6457,54.3295
54.7268,54.3837
54.7810,54.4648
54.8000,54.5605
54.8000,57.5605
54.7810,57.6562
54.7268,57.7373
54.6457,57.7915
54.5500,57.8105
53.4500,57.8105
53.3543,57.7915
53.2732,57.7373
53.2190,57.6562
53.2000,57.5605
53.2000,54.5605
53.2190,54.4648
53.2732,54.3837
53.3543,54.3295
53.4500,54.3105
Z" /> 
<path style="fill:#000000; fill-opacity:1.0000; stroke:none;fill-rule:evenodd;"
d="M 54.5500,59.9105
54.6457,59.9295
54.7268,59.9837
54.7810,60.0648
54.8000,60.1605
54.8000,63.1605
54.7810,63.2562
54.7268,63.3373
54.6457,63.3915
54.5500,63.4105
53.4500,63.4105
53.3543,63.3915
53.2732,63.3373
53.2190,63.2562
53.2000,63.1605
53.2000,60.1605
53.2190,60.0648
53.2732,59.9837
53.3543,59.9295
53.4500,59.9105
Z" /> 
<path style="fill:#000000; fill-opacity:1.0000; stroke:none;fill-rule:evenodd;"
d="M 33.9500,56.4055
33.9614,56.3481
33.9939,56.2994
34.0426,56.2669
34.1000,56.2555
35.7500,56.2555
35.8074,56.2669
35.8561,56.2994
35.8886,56.3481
35.9000,56.4055
35.9000,56.7055
35.8886,56.7629
35.8561,56.8116
35.8074,56.8441
35.7500,56.8555
34.1000,56.8555
34.0426,56.8441
33.9939,56.8116
33.9614,56.7629
33.9500,56.7055
Z" /> 
<path style="fill:#000000; fill-opacity:1.0000; stroke:none;fill-rule:evenodd;"
d="M 33.9500,57.6755
33.9614,57.6181
33.9939,57.5694
34.0426,57.5369
34.1000,57.5255
35.7500,57.5255
35.8074,57.5369
35.8561,57.5694
35.8886,57.6181
35.9000,57.6755
35.9000,57.9755
35.8886,58.0329
35.8561,58.0816
35.8074,58.1141
35.7500,58.1255
34.1000,58.1255
34.0426,58.1141
33.9939,58.0816
33.9614,58.0329
33.9500,57.9755
Z" /> 
<path style="fill:#000000; fill-opacity:1.0000; stroke:none;fill-rule:evenodd;"
d="M 33.9500,58.9455
33.9614,58.8881
33.9939,58.8394
34.0426,58.8069
34.1000,58.7955
35.7500,58.7955
35.8074,58.8069
35.8561,58.8394
35.8886,58.8881
35.9000,58.9455
35.9000,59.2455
35.8886,59.3029
35.8561,59.3516
35.8074,59.3841
35.7500,59.3955
34.1000,59.3955
34.0426,59.3841
33.9939,59.3516
33.9614,59.3029
33.9500,59.2455
Z" /> 
<path style="fill:#000000; fill-opacity:1.0000; stroke:none;fill-rule:evenodd;"
d="M 33.9500,60.2155
33.9614,60.1581
33.9939,60.1094
34.0426,60.0769
34.1000,60.0655
35.7500,60.0655
35.8074,60.0769
35.8561,60.1094
35.8886,60.1581
35.9000,60.2155
35.9000,60.5155
35.8886,60.5729
35.8561,60.6216
35.8074,60.6541
35.7500,60.6655
34.1000,60.6655
34.0426,60.6541
33.9939,60.6216
33.9614,60.5729
33.9500,60.5155
Z" /> 
<path style="fill:#000000; fill-opacity:1.0000; stroke:none;fill-rule:evenodd;"
d="M 38.9000,60.2155
38.9114,60.1581
38.9439,60.1094
38.9926,60.0769
39.0500,60.0655
40.7000,60.0655
40.7574,60.0769
40.8061,60.1094
40.8386,60.1581
40.8500,60.2155
40.8500,60.5155
40.8386,60.5729
40.8061,60.6216
40.7574,60.6541
40.7000,60.6655
39.0500,60.6655
38.9926,60.6541
38.9439,60.6216
38.9114,60.5729
38.9000,60.5155
Z" /> 
<path style="fill:#000000; fill-opacity:1.0000; stroke:none;fill-rule:evenodd;"
d="M 38.9000,58.9455
38.9114,58.8881
38.9439,58.8394
38.9926,58.8069
39.0500,58.7955
40.7000,58.7955
40.7574,58.8069
40.8061,58.8394
40.8386,58.8881
40.8500,58.9455
40.8500,59.2455
40.8386,59.3029
40.8061,59.3516
40.7574,59.3841
40.7000,59.3955
39.0500,59.3955
38.9926,59.3841
38.9439,59.3516
38.9114,59.3029
38.9000,59.2455
Z" /> 
<path style="fill:#000000; fill-opacity:1.0000; stroke:none;fill-rule:evenodd;"
d="M 38.9000,57.6755
38.9114,57.6181
38.9439,57.5694
38.9926,57.5369
39.0500,57.5255
40.7000,57.5255
40.7574,57.5369
40.8061,57.5694
40.8386,57.6181
40.8500,57.6755
40.8500,57.9755
40.8386,58.0329
40.8061,58.0816
40.7574,58.1141
40.7000,58.1255
39.0500,58.1255
38.9926,58.1141
38.9439,58.0816
38.9114,58.0329
38.9000,57.9755
Z" /> 
<path style="fill:#000000; fill-opacity:1.0000; stroke:none;fill-rule:evenodd;"
d="M 38.9000,56.4055
38.9114,56.3481
38.9439,56.2994
38.9926,56.2669
39.0500,56.2555
40.7000,56.2555
40.7574,56.2669
40.8061,56.2994
40.8386,56.3481
40.8500,56.4055
40.8500,56.7055
40.8386,56.7629
40.8061,56.8116
40.7574,56.8441
40.7000,56.8555
39.0500,56.8555
38.9926,56.8441
38.9439,56.8116
38.9114,56.7629
38.9000,56.7055
Z" /> 
<path style="fill:#000000; fill-opacity:1.0000; stroke:none;fill-rule:evenodd;"
d="M 31.8500,108.9605
31.7543,108.9415
31.6732,108.8873
31.6190,108.8062
31.6000,108.7105
31.6000,108.0605
31.6190,107.9648
31.6732,107.8837
31.7543,107.8295
31.8500,107.8105
33.1500,107.8105
33.2457,107.8295
33.3268,107.8837
33.3810,107.9648
33.4000,108.0605
33.4000,108.7105
33.3810,108.8062
33.3268,108.8873
33.2457,108.9415
33.1500,108.9605
Z" /> 
<path style="fill:#000000; fill-opacity:1.0000; stroke:none;fill-rule:evenodd;"
d="M 31.8500,106.0105
31.7543,105.9915
31.6732,105.9373
31.6190,105.8562
31.6000,105.7605
31.6000,105.1105
31.6190,105.0148
31.6732,104.9337
31.7543,104.8795
31.8500,104.8605
33.1500,104.8605
33.2457,104.8795
33.3268,104.9337
33.3810,105.0148
33.4000,105.1105
33.4000,105.7605
33.3810,105.8562
33.3268,105.9373
33.2457,105.9915
33.1500,106.0105
Z" /> 
<path style="fill:#000000; fill-opacity:1.0000; stroke:none;fill-rule:evenodd;"
d="M 38.9750,105.1355
38.8985,105.1203
38.8336,105.0769
38.7902,105.0120
38.7750,104.9355
38.7750,104.5355
38.7902,104.4590
38.8336,104.3941
38.8985,104.3507
38.9750,104.3355
39.5250,104.3355
39.6015,104.3507
39.6664,104.3941
39.7098,104.4590
39.7250,104.5355
39.7250,104.9355
39.7098,105.0120
39.6664,105.0769
39.6015,105.1203
39.5250,105.1355
Z" /> 
<path style="fill:#000000; fill-opacity:1.0000; stroke:none;fill-rule:evenodd;"
d="M 38.9750,103.4855
38.8985,103.4703
38.8336,103.4269
38.7902,103.3620
38.7750,103.2855
38.7750,102.8855
38.7902,102.8090
38.8336,102.7441
38.8985,102.7007
38.9750,102.6855
39.5250,102.6855
39.6015,102.7007
39.6664,102.7441
39.7098,102.8090
39.7250,102.8855
39.7250,103.2855
39.7098,103.3620
39.6664,103.4269
39.6015,103.4703
39.5250,103.4855
Z" /> 
<circle cx="44.0000" cy="41.7605" r="1.4000" /> 
<path style="fill:#000000; fill-opacity:1.0000; stroke:none;fill-rule:evenodd;"
d="M 78.6500,57.4355
78.7361,57.4526
78.8091,57.5014
78.8579,57.5744
78.8750,57.6605
78.8750,58.1105
78.8579,58.1966
78.8091,58.2696
78.7361,58.3184
78.6500,58.3355
78.1500,58.3355
78.0639,58.3184
77.9909,58.2696
77.9421,58.1966
77.9250,58.1105
77.9250,57.6605
77.9421,57.5744
77.9909,57.5014
78.0639,57.4526
78.1500,57.4355
Z" /> 
<path style="fill:#000000; fill-opacity:1.0000; stroke:none;fill-rule:evenodd;"
d="M 78.6500,58.9855
78.7361,59.0026
78.8091,59.0514
78.8579,59.1244
78.8750,59.2105
78.8750,59.6605
78.8579,59.7466
78.8091,59.8196
78.7361,59.8684
78.6500,59.8855
78.1500,59.8855
78.0639,59.8684
77.9909,59.8196
77.9421,59.7466
77.9250,59.6605
77.9250,59.2105
77.9421,59.1244
77.9909,59.0514
78.0639,59.0026
78.1500,58.9855
Z" /> 
<path style="fill:#000000; fill-opacity:1.0000; stroke:none;fill-rule:evenodd;"
d="M 40.0000,49.4105
39.9810,49.5062
39.9268,49.5873
39.8457,49.6415
39.7500,49.6605
37.7500,49.6605
37.6543,49.6415
37.5732,49.5873
37.5190,49.5062
37.5000,49.4105
37.5000,47.4105
37.5190,47.3148
37.5732,47.2337
37.6543,47.1795
37.7500,47.1605
39.7500,47.1605
39.8457,47.1795
39.9268,47.2337
39.9810,47.3148
40.0000,47.4105
Z" /> 
<circle cx="33.6700" cy="48.4105" r="1.2500" /> 
<circle cx="28.5900" cy="48.4105" r="1.2500" /> 
<path style="fill:#000000; fill-opacity:1.0000; stroke:none;fill-rule:evenodd;"
d="M 42.3500,77.1605
42.4457,77.1795
42.5268,77.2337
42.5810,77.3148
42.6000,77.4105
42.6000,79.5105
42.5810,79.6062
42.5268,79.6873
42.4457,79.7415
42.3500,79.7605
41.2500,79.7605
41.1543,79.7415
41.0732,79.6873
41.0190,79.6062
41.0000,79.5105
41.0000,77.4105
41.0190,77.3148
41.0732,77.2337
41.1543,77.1795
41.2500,77.1605
Z" /> 
<path style="fill:#000000; fill-opacity:1.0000; stroke:none;fill-rule:evenodd;"
d="M 42.3500,80.7605
42.4457,80.7795
42.5268,80.8337
42.5810,80.9148
42.6000,81.0105
42.6000,83.1105
42.5810,83.2062
42.5268,83.2873
42.4457,83.3415
42.3500,83.3605
41.2500,83.3605
41.1543,83.3415
41.0732,83.2873
41.0190,83.2062
41.0000,83.1105
41.0000,81.0105
41.0190,80.9148
41.0732,80.8337
41.1543,80.7795
41.2500,80.7605
Z" /> 
<path style="fill:#000000; fill-opacity:1.0000; stroke:none;fill-rule:evenodd;"
d="M 39.5000,106.4355
39.5861,106.4526
39.6591,106.5014
39.7079,106.5744
39.7250,106.6605
39.7250,107.1105
39.7079,107.1966
39.6591,107.2696
39.5861,107.3184
39.5000,107.3355
39.0000,107.3355
38.9139,107.3184
38.8409,107.2696
38.7921,107.1966
38.7750,107.1105
38.7750,106.6605
38.7921,106.5744
38.8409,106.5014
38.9139,106.4526
39.0000,106.4355
Z" /> 
<path style="fill:#000000; fill-opacity:1.0000; stroke:none;fill-rule:evenodd;"
d="M 39.5000,107.9855
39.5861,108.0026
39.6591,108.0514
39.7079,108.1244
39.7250,108.2105
39.7250,108.6605
39.7079,108.7466
39.6591,108.8196
39.5861,108.8684
39.5000,108.8855
39.0000,108.8855
38.9139,108.8684
38.8409,108.8196
38.7921,108.7466
38.7750,108.6605
38.7750,108.2105
38.7921,108.1244
38.8409,108.0514
38.9139,108.0026
39.0000,107.9855
Z" /> 
<path style="fill:#000000; fill-opacity:1.0000; stroke:none;fill-rule:evenodd;"
d="M 62.2750,89.8355
62.3515,89.8507
62.4164,89.8941
62.4598,89.9590
62.4750,90.0355
62.4750,90.4355
62.4598,90.5120
62.4164,90.5769
62.3515,90.6203
62.2750,90.6355
61.7250,90.6355
61.6485,90.6203
61.5836,90.5769
61.5402,90.5120
61.5250,90.4355
61.5250,90.0355
61.5402,89.9590
61.5836,89.8941
61.6485,89.8507
61.7250,89.8355
Z" /> 
<path style="fill:#000000; fill-opacity:1.0000; stroke:none;fill-rule:evenodd;"
d="M 62.2750,91.4855
62.3515,91.5007
62.4164,91.5441
62.4598,91.6090
62.4750,91.6855
62.4750,92.0855
62.4598,92.1620
62.4164,92.2269
62.3515,92.2703
62.2750,92.2855
61.7250,92.2855
61.6485,92.2703
61.5836,92.2269
61.5402,92.1620
61.5250,92.0855
61.5250,91.6855
61.5402,91.6090
61.5836,91.5441
61.6485,91.5007
61.7250,91.4855
Z" /> 
<path style="fill:#000000; fill-opacity:1.0000; stroke:none;fill-rule:evenodd;"
d="M 71.1250,81.2855
71.0485,81.2703
70.9836,81.2269
70.9402,81.1620
70.9250,81.0855
70.9250,80.6855
70.9402,80.6090
70.9836,80.5441
71.0485,80.5007
71.1250,80.4855
71.6750,80.4855
71.7515,80.5007
71.8164,80.5441
71.8598,80.6090
71.8750,80.6855
71.8750,81.0855
71.8598,81.1620
71.8164,81.2269
71.7515,81.2703
71.6750,81.2855
Z" /> 
<path style="fill:#000000; fill-opacity:1.0000; stroke:none;fill-rule:evenodd;"
d="M 71.1250,79.6355
71.0485,79.6203
70.9836,79.5769
70.9402,79.5120
70.9250,79.4355
70.9250,79.0355
70.9402,78.9590
70.9836,78.8941
71.0485,78.8507
71.1250,78.8355
71.6750,78.8355
71.7515,78.8507
71.8164,78.8941
71.8598,78.9590
71.8750,79.0355
71.8750,79.4355
71.8598,79.5120
71.8164,79.5769
71.7515,79.6203
71.6750,79.6355
Z" /> 
<path style="fill:#000000; fill-opacity:1.0000; stroke:none;fill-rule:evenodd;"
d="M 71.7250,62.3355
71.7098,62.4120
71.6664,62.4769
71.6015,62.5203
71.5250,62.5355
71.1250,62.5355
71.0485,62.5203
70.9836,62.4769
70.9402,62.4120
70.9250,62.3355
70.9250,61.7855
70.9402,61.7090
70.9836,61.6441
71.0485,61.6007
71.1250,61.5855
71.5250,61.5855
71.6015,61.6007
71.6664,61.6441
71.7098,61.7090
71.7250,61.7855
Z" /> 
<path style="fill:#000000; fill-opacity:1.0000; stroke:none;fill-rule:evenodd;"
d="M 70.0750,62.3355
70.0598,62.4120
70.0164,62.4769
69.9515,62.5203
69.8750,62.5355
69.4750,62.5355
69.3985,62.5203
69.3336,62.4769
69.2902,62.4120
69.2750,62.3355
69.2750,61.7855
69.2902,61.7090
69.3336,61.6441
69.3985,61.6007
69.4750,61.5855
69.8750,61.5855
69.9515,61.6007
70.0164,61.6441
70.0598,61.7090
70.0750,61.7855
Z" /> 
<circle cx="64.6000" cy="48.2605" r="1.4000" /> 
<path style="fill:#000000; fill-opacity:1.0000; stroke:none;fill-rule:evenodd;"
d="M 46.1500,88.3355
46.0926,88.3241
46.0439,88.2916
46.0114,88.2429
46.0000,88.1855
46.0000,87.0105
46.0114,86.9531
46.0439,86.9044
46.0926,86.8719
46.1500,86.8605
46.4500,86.8605
46.5074,86.8719
46.5561,86.9044
46.5886,86.9531
46.6000,87.0105
46.6000,88.1855
46.5886,88.2429
46.5561,88.2916
46.5074,88.3241
46.4500,88.3355
Z" /> 
<path style="fill:#000000; fill-opacity:1.0000; stroke:none;fill-rule:evenodd;"
d="M 48.0500,88.3355
47.9926,88.3241
47.9439,88.2916
47.9114,88.2429
47.9000,88.1855
47.9000,87.0105
47.9114,86.9531
47.9439,86.9044
47.9926,86.8719
48.0500,86.8605
48.3500,86.8605
48.4074,86.8719
48.4561,86.9044
48.4886,86.9531
48.5000,87.0105
48.5000,88.1855
48.4886,88.2429
48.4561,88.2916
48.4074,88.3241
48.3500,88.3355
Z" /> 
<path style="fill:#000000; fill-opacity:1.0000; stroke:none;fill-rule:evenodd;"
d="M 47.1000,86.4605
47.0426,86.4491
46.9939,86.4166
46.9614,86.3679
46.9500,86.3105
46.9500,85.1355
46.9614,85.0781
46.9939,85.0294
47.0426,84.9969
47.1000,84.9855
47.4000,84.9855
47.4574,84.9969
47.5061,85.0294
47.5386,85.0781
47.5500,85.1355
47.5500,86.3105
47.5386,86.3679
47.5061,86.4166
47.4574,86.4491
47.4000,86.4605
Z" /> 
<path style="fill:#000000; fill-opacity:1.0000; stroke:none;fill-rule:evenodd;"
d="M 64.4750,56.2355
64.5515,56.2507
64.6164,56.2941
64.6598,56.3590
64.6750,56.4355
64.6750,56.8355
64.6598,56.9120
64.6164,56.9769
64.5515,57.0203
64.4750,57.0355
63.9250,57.0355
63.8485,57.0203
63.7836,56.9769
63.7402,56.9120
63.7250,56.8355
63.7250,56.4355
63.7402,56.3590
63.7836,56.2941
63.8485,56.2507
63.9250,56.2355
Z" /> 
<path style="fill:#000000; fill-opacity:1.0000; stroke:none;fill-rule:evenodd;"
d="M 64.4750,57.8855
64.5515,57.9007
64.6164,57.9441
64.6598,58.0090
64.6750,58.0855
64.6750,58.4855
64.6598,58.5620
64.6164,58.6269
64.5515,58.6703
64.4750,58.6855
63.9250,58.6855
63.8485,58.6703
63.7836,58.6269
63.7402,58.5620
63.7250,58.4855
63.7250,58.0855
63.7402,58.0090
63.7836,57.9441
63.8485,57.9007
63.9250,57.8855
Z" /> 
<path style="fill:#000000; fill-opacity:1.0000; stroke:none;fill-rule:evenodd;"
d="M 54.5500,37.3105
54.6457,37.3295
54.7268,37.3837
54.7810,37.4648
54.8000,37.5605
54.8000,40.5605
54.7810,40.6562
54.7268,40.7373
54.6457,40.7915
54.5500,40.8105
53.4500,40.8105
53.3543,40.7915
53.2732,40.7373
53.2190,40.6562
53.2000,40.5605
53.2000,37.5605
53.2190,37.4648
53.2732,37.3837
53.3543,37.3295
53.4500,37.3105
Z" /> 
<path style="fill:#000000; fill-opacity:1.0000; stroke:none;fill-rule:evenodd;"
d="M 54.5500,42.9105
54.6457,42.9295
54.7268,42.9837
54.7810,43.0648
54.8000,43.1605
54.8000,46.1605
54.7810,46.2562
54.7268,46.3373
54.6457,46.3915
54.5500,46.4105
53.4500,46.4105
53.3543,46.3915
53.2732,46.3373
53.2190,46.2562
53.2000,46.1605
53.2000,43.1605
53.2190,43.0648
53.2732,42.9837
53.3543,42.9295
53.4500,42.9105
Z" /> 
<path style="fill:#000000; fill-opacity:1.0000; stroke:none;fill-rule:evenodd;"
d="M 58.2875,55.0105
58.2444,55.0019
58.2079,54.9776
58.1836,54.9411
58.1750,54.8980
58.1750,54.5230
58.1836,54.4799
58.2079,54.4434
58.2444,54.4191
58.2875,54.4105
58.5125,54.4105
58.5556,54.4191
58.5921,54.4434
58.6164,54.4799
58.6250,54.5230
58.6250,54.8980
58.6164,54.9411
58.5921,54.9776
58.5556,55.0019
58.5125,55.0105
Z" /> 
<path style="fill:#000000; fill-opacity:1.0000; stroke:none;fill-rule:evenodd;"
d="M 58.2875,52.9105
58.2444,52.9019
58.2079,52.8775
58.1836,52.8411
58.1750,52.7980
58.1750,52.4230
58.1836,52.3799
58.2079,52.3434
58.2444,52.3191
58.2875,52.3105
58.5125,52.3105
58.5556,52.3191
58.5921,52.3434
58.6164,52.3799
58.6250,52.4230
58.6250,52.7980
58.6164,52.8411
58.5921,52.8775
58.5556,52.9019
58.5125,52.9105
Z" /> 
<path style="fill:#000000; fill-opacity:1.0000; stroke:none;fill-rule:evenodd;"
d="M 61.6750,52.4355
61.7515,52.4507
61.8164,52.4941
61.8598,52.5590
61.8750,52.6355
61.8750,53.0355
61.8598,53.1120
61.8164,53.1769
61.7515,53.2203
61.6750,53.2355
61.1250,53.2355
61.0485,53.2203
60.9836,53.1769
60.9402,53.1120
60.9250,53.0355
60.9250,52.6355
60.9402,52.5590
60.9836,52.4941
61.0485,52.4507
61.1250,52.4355
Z" /> 
<path style="fill:#000000; fill-opacity:1.0000; stroke:none;fill-rule:evenodd;"
d="M 61.6750,54.0855
61.7515,54.1007
61.8164,54.1441
61.8598,54.2090
61.8750,54.2855
61.8750,54.6855
61.8598,54.7620
61.8164,54.8269
61.7515,54.8703
61.6750,54.8855
61.1250,54.8855
61.0485,54.8703
60.9836,54.8269
60.9402,54.7620
60.9250,54.6855
60.9250,54.2855
60.9402,54.2090
60.9836,54.1441
61.0485,54.1007
61.1250,54.0855
Z" /> 
<path style="fill:#000000; fill-opacity:1.0000; stroke:none;fill-rule:evenodd;"
d="M 39.9750,55.0105
39.9921,54.9244
40.0409,54.8514
40.1139,54.8026
40.2000,54.7855
40.6500,54.7855
40.7361,54.8026
40.8091,54.8514
40.8579,54.9244
40.8750,55.0105
40.8750,55.5105
40.8579,55.5966
40.8091,55.6696
40.7361,55.7184
40.6500,55.7355
40.2000,55.7355
40.1139,55.7184
40.0409,55.6696
39.9921,55.5966
39.9750,55.5105
Z" /> 
<path style="fill:#000000; fill-opacity:1.0000; stroke:none;fill-rule:evenodd;"
d="M 41.5250,55.0105
41.5421,54.9244
41.5909,54.8514
41.6639,54.8026
41.7500,54.7855
42.2000,54.7855
42.2861,54.8026
42.3591,54.8514
42.4079,54.9244
42.4250,55.0105
42.4250,55.5105
42.4079,55.5966
42.3591,55.6696
42.2861,55.7184
42.2000,55.7355
41.7500,55.7355
41.6639,55.7184
41.5909,55.6696
41.5421,55.5966
41.5250,55.5105
Z" /> 
<path style="fill:#000000; fill-opacity:1.0000; stroke:none;fill-rule:evenodd;"
d="M 80.8300,74.6605
80.8110,74.7562
80.7568,74.8373
80.6757,74.8915
80.5800,74.9105
78.5800,74.9105
78.4843,74.8915
78.4032,74.8373
78.3490,74.7562
78.3300,74.6605
78.3300,72.6605
78.3490,72.5648
78.4032,72.4837
78.4843,72.4295
78.5800,72.4105
80.5800,72.4105
80.6757,72.4295
80.7568,72.4837
80.8110,72.5648
80.8300,72.6605
Z" /> 
<circle cx="74.5000" cy="73.6605" r="1.2500" /> 
<circle cx="69.4200" cy="73.6605" r="1.2500" /> 
<path style="fill:#000000; fill-opacity:1.0000; stroke:none;fill-rule:evenodd;"
d="M 29.3500,54.1605
29.4457,54.1795
29.5268,54.2337
29.5810,54.3148
29.6000,54.4105
29.6000,56.5105
29.5810,56.6062
29.5268,56.6873
29.4457,56.7415
29.3500,56.7605
28.2500,56.7605
28.1543,56.7415
28.0732,56.6873
28.0190,56.6062
28.0000,56.5105
28.0000,54.4105
28.0190,54.3148
28.0732,54.2337
28.1543,54.1795
28.2500,54.1605
Z" /> 
<path style="fill:#000000; fill-opacity:1.0000; stroke:none;fill-rule:evenodd;"
d="M 29.3500,57.7605
29.4457,57.7795
29.5268,57.8337
29.5810,57.9148
29.6000,58.0105
29.6000,60.1105
29.5810,60.2062
29.5268,60.2873
29.4457,60.3415
29.3500,60.3605
28.2500,60.3605
28.1543,60.3415
28.0732,60.2873
28.0190,60.2062
28.0000,60.1105
28.0000,58.0105
28.0190,57.9148
28.0732,57.8337
28.1543,57.7795
28.2500,57.7605
Z" /> 
<path style="fill:#000000; fill-opacity:1.0000; stroke:none;fill-rule:evenodd;"
d="M 80.2750,51.8410
80.3515,51.8563
80.4164,51.8996
80.4598,51.9645
80.4750,52.0410
80.4750,52.4410
80.4598,52.5176
80.4164,52.5824
80.3515,52.6258
80.2750,52.6410
79.7250,52.6410
79.6485,52.6258
79.5836,52.5824
79.5402,52.5176
79.5250,52.4410
79.5250,52.0410
79.5402,51.9645
79.5836,51.8996
79.6485,51.8563
79.7250,51.8410
Z" /> 
<path style="fill:#000000; fill-opacity:1.0000; stroke:none;fill-rule:evenodd;"
d="M 80.2750,53.4910
80.3515,53.5063
80.4164,53.5496
80.4598,53.6145
80.4750,53.6910
80.4750,54.0910
80.4598,54.1676
80.4164,54.2324
80.3515,54.2758
80.2750,54.2910
79.7250,54.2910
79.6485,54.2758
79.5836,54.2324
79.5402,54.1676
79.5250,54.0910
79.5250,53.6910
79.5402,53.6145
79.5836,53.5496
79.6485,53.5063
79.7250,53.4910
Z" /> 
<path style="fill:#000000; fill-opacity:1.0000; stroke:none;fill-rule:evenodd;"
d="M 49.9250,32.6855
49.8485,32.6703
49.7836,32.6269
49.7402,32.5620
49.7250,32.4855
49.7250,32.0855
49.7402,32.0090
49.7836,31.9441
49.8485,31.9007
49.9250,31.8855
50.4750,31.8855
50.5515,31.9007
50.6164,31.9441
50.6598,32.0090
50.6750,32.0855
50.6750,32.4855
50.6598,32.5620
50.6164,32.6269
50.5515,32.6703
50.4750,32.6855
Z" /> 
<path style="fill:#000000; fill-opacity:1.0000; stroke:none;fill-rule:evenodd;"
d="M 49.9250,31.0355
49.8485,31.0203
49.7836,30.9769
49.7402,30.9120
49.7250,30.8355
49.7250,30.4355
49.7402,30.3590
49.7836,30.2941
49.8485,30.2507
49.9250,30.2355
50.4750,30.2355
50.5515,30.2507
50.6164,30.2941
50.6598,30.3590
50.6750,30.4355
50.6750,30.8355
50.6598,30.9120
50.6164,30.9769
50.5515,31.0203
50.4750,31.0355
Z" /> 
<circle cx="61.6000" cy="96.6605" r="1.4000" /> 
<path style="fill:#000000; fill-opacity:1.0000; stroke:none;fill-rule:evenodd;"
d="M 80.5800,49.1605
80.5610,49.2562
80.5068,49.3373
80.4257,49.3915
80.3300,49.4105
78.3300,49.4105
78.2343,49.3915
78.1532,49.3373
78.0990,49.2562
78.0800,49.1605
78.0800,47.1605
78.0990,47.0648
78.1532,46.9837
78.2343,46.9295
78.3300,46.9105
80.3300,46.9105
80.4257,46.9295
80.5068,46.9837
80.5610,47.0648
80.5800,47.1605
Z" /> 
<circle cx="74.2500" cy="48.1605" r="1.2500" /> 
<circle cx="69.1700" cy="48.1605" r="1.2500" /> 
<path style="fill:#000000; fill-opacity:1.0000; stroke:none;fill-rule:evenodd;"
d="M 67.0500,88.3555
67.0614,88.2981
67.0939,88.2494
67.1426,88.2169
67.2000,88.2055
68.8500,88.2055
68.9074,88.2169
68.9561,88.2494
68.9886,88.2981
69.0000,88.3555
69.0000,88.6555
68.9886,88.7129
68.9561,88.7616
68.9074,88.7941
68.8500,88.8055
67.2000,88.8055
67.1426,88.7941
67.0939,88.7616
67.0614,88.7129
67.0500,88.6555
Z" /> 
<path style="fill:#000000; fill-opacity:1.0000; stroke:none;fill-rule:evenodd;"
d="M 67.0500,89.6255
67.0614,89.5681
67.0939,89.5194
67.1426,89.4869
67.2000,89.4755
68.8500,89.4755
68.9074,89.4869
68.9561,89.5194
68.9886,89.5681
69.0000,89.6255
69.0000,89.9255
68.9886,89.9829
68.9561,90.0316
68.9074,90.0641
68.8500,90.0755
67.2000,90.0755
67.1426,90.0641
67.0939,90.0316
67.0614,89.9829
67.0500,89.9255
Z" /> 
<path style="fill:#000000; fill-opacity:1.0000; stroke:none;fill-rule:evenodd;"
d="M 67.0500,90.8955
67.0614,90.8381
67.0939,90.7894
67.1426,90.7569
67.2000,90.7455
68.8500,90.7455
68.9074,90.7569
68.9561,90.7894
68.9886,90.8381
69.0000,90.8955
69.0000,91.1955
68.9886,91.2529
68.9561,91.3016
68.9074,91.3341
68.8500,91.3455
67.2000,91.3455
67.1426,91.3341
67.0939,91.3016
67.0614,91.2529
67.0500,91.1955
Z" /> 
<path style="fill:#000000; fill-opacity:1.0000; stroke:none;fill-rule:evenodd;"
d="M 67.0500,92.1655
67.0614,92.1081
67.0939,92.0594
67.1426,92.0269
67.2000,92.0155
68.8500,92.0155
68.9074,92.0269
68.9561,92.0594
68.9886,92.1081
69.0000,92.1655
69.0000,92.4655
68.9886,92.5229
68.9561,92.5716
68.9074,92.6041
68.8500,92.6155
67.2000,92.6155
67.1426,92.6041
67.0939,92.5716
67.0614,92.5229
67.0500,92.4655
Z" /> 
<path style="fill:#000000; fill-opacity:1.0000; stroke:none;fill-rule:evenodd;"
d="M 72.0000,92.1655
72.0114,92.1081
72.0439,92.0594
72.0926,92.0269
72.1500,92.0155
73.8000,92.0155
73.8574,92.0269
73.9061,92.0594
73.9386,92.1081
73.9500,92.1655
73.9500,92.4655
73.9386,92.5229
73.9061,92.5716
73.8574,92.6041
73.8000,92.6155
72.1500,92.6155
72.0926,92.6041
72.0439,92.5716
72.0114,92.5229
72.0000,92.4655
Z" /> 
<path style="fill:#000000; fill-opacity:1.0000; stroke:none;fill-rule:evenodd;"
d="M 72.0000,90.8955
72.0114,90.8381
72.0439,90.7894
72.0926,90.7569
72.1500,90.7455
73.8000,90.7455
73.8574,90.7569
73.9061,90.7894
73.9386,90.8381
73.9500,90.8955
73.9500,91.1955
73.9386,91.2529
73.9061,91.3016
73.8574,91.3341
73.8000,91.3455
72.1500,91.3455
72.0926,91.3341
72.0439,91.3016
72.0114,91.2529
72.0000,91.1955
Z" /> 
<path style="fill:#000000; fill-opacity:1.0000; stroke:none;fill-rule:evenodd;"
d="M 72.0000,89.6255
72.0114,89.5681
72.0439,89.5194
72.0926,89.4869
72.1500,89.4755
73.8000,89.4755
73.8574,89.4869
73.9061,89.5194
73.9386,89.5681
73.9500,89.6255
73.9500,89.9255
73.9386,89.9829
73.9061,90.0316
73.8574,90.0641
73.8000,90.0755
72.1500,90.0755
72.0926,90.0641
72.0439,90.0316
72.0114,89.9829
72.0000,89.9255
Z" /> 
<path style="fill:#000000; fill-opacity:1.0000; stroke:none;fill-rule:evenodd;"
d="M 72.0000,88.3555
72.0114,88.2981
72.0439,88.2494
72.0926,88.2169
72.1500,88.2055
73.8000,88.2055
73.8574,88.2169
73.9061,88.2494
73.9386,88.2981
73.9500,88.3555
73.9500,88.6555
73.9386,88.7129
73.9061,88.7616
73.8574,88.7941
73.8000,88.8055
72.1500,88.8055
72.0926,88.7941
72.0439,88.7616
72.0114,88.7129
72.0000,88.6555
Z" /> 
<path style="fill:#000000; fill-opacity:1.0000; stroke:none;fill-rule:evenodd;"
d="M 57.7250,32.8105
57.6485,32.7953
57.5836,32.7519
57.5402,32.6870
57.5250,32.6105
57.5250,32.2105
57.5402,32.1340
57.5836,32.0691
57.6485,32.0257
57.7250,32.0105
58.2750,32.0105
58.3515,32.0257
58.4164,32.0691
58.4598,32.1340
58.4750,32.2105
58.4750,32.6105
58.4598,32.6870
58.4164,32.7519
58.3515,32.7953
58.2750,32.8105
Z" /> 
<path style="fill:#000000; fill-opacity:1.0000; stroke:none;fill-rule:evenodd;"
d="M 57.7250,31.1605
57.6485,31.1453
57.5836,31.1019
57.5402,31.0370
57.5250,30.9605
57.5250,30.5605
57.5402,30.4840
57.5836,30.4191
57.6485,30.3757
57.7250,30.3605
58.2750,30.3605
58.3515,30.3757
58.4164,30.4191
58.4598,30.4840
58.4750,30.5605
58.4750,30.9605
58.4598,31.0370
58.4164,31.1019
58.3515,31.1453
58.2750,31.1605
Z" /> 
<path style="fill:#000000; fill-opacity:1.0000; stroke:none;fill-rule:evenodd;"
d="M 71.6500,81.8105
71.7457,81.8295
71.8268,81.8837
71.8810,81.9648
71.9000,82.0605
71.9000,82.7105
71.8810,82.8062
71.8268,82.8873
71.7457,82.9415
71.6500,82.9605
70.3500,82.9605
70.2543,82.9415
70.1732,82.8873
70.1190,82.8062
70.1000,82.7105
70.1000,82.0605
70.1190,81.9648
70.1732,81.8837
70.2543,81.8295
70.3500,81.8105
Z" /> 
<path style="fill:#000000; fill-opacity:1.0000; stroke:none;fill-rule:evenodd;"
d="M 71.6500,84.7605
71.7457,84.7795
71.8268,84.8337
71.8810,84.9148
71.9000,85.0105
71.9000,85.6605
71.8810,85.7562
71.8268,85.8373
71.7457,85.8915
71.6500,85.9105
70.3500,85.9105
70.2543,85.8915
70.1732,85.8373
70.1190,85.7562
70.1000,85.6605
70.1000,85.0105
70.1190,84.9148
70.1732,84.8337
70.2543,84.7795
70.3500,84.7605
Z" /> 
<path style="fill:#000000; fill-opacity:1.0000; stroke:none;fill-rule:evenodd;"
d="M 37.3500,55.0855
37.2639,55.0684
37.1909,55.0196
37.1421,54.9466
37.1250,54.8605
37.1250,54.4105
37.1421,54.3244
37.1909,54.2514
37.2639,54.2026
37.3500,54.1855
37.8500,54.1855
37.9361,54.2026
38.0091,54.2514
38.0579,54.3244
38.0750,54.4105
38.0750,54.8605
38.0579,54.9466
38.0091,55.0196
37.9361,55.0684
37.8500,55.0855
Z" /> 
<path style="fill:#000000; fill-opacity:1.0000; stroke:none;fill-rule:evenodd;"
d="M 37.3500,53.5355
37.2639,53.5184
37.1909,53.4696
37.1421,53.3966
37.1250,53.3105
37.1250,52.8605
37.1421,52.7744
37.1909,52.7014
37.2639,52.6526
37.3500,52.6355
37.8500,52.6355
37.9361,52.6526
38.0091,52.7014
38.0579,52.7744
38.0750,52.8605
38.0750,53.3105
38.0579,53.3966
38.0091,53.4696
37.9361,53.5184
37.8500,53.5355
Z" /> 
<path style="fill:#000000; fill-opacity:1.0000; stroke:none;fill-rule:evenodd;"
d="M 52.7750,77.8105
52.8515,77.8257
52.9164,77.8691
52.9598,77.9340
52.9750,78.0105
52.9750,78.4105
52.9598,78.4870
52.9164,78.5519
52.8515,78.5953
52.7750,78.6105
52.2250,78.6105
52.1485,78.5953
52.0836,78.5519
52.0402,78.4870
52.0250,78.4105
52.0250,78.0105
52.0402,77.9340
52.0836,77.8691
52.1485,77.8257
52.2250,77.8105
Z" /> 
<path style="fill:#000000; fill-opacity:1.0000; stroke:none;fill-rule:evenodd;"
d="M 52.7750,79.4605
52.8515,79.4757
52.9164,79.5191
52.9598,79.5840
52.9750,79.6605
52.9750,80.0605
52.9598,80.1370
52.9164,80.2019
52.8515,80.2453
52.7750,80.2605
52.2250,80.2605
52.1485,80.2453
52.0836,80.2019
52.0402,80.1370
52.0250,80.0605
52.0250,79.6605
52.0402,79.5840
52.0836,79.5191
52.1485,79.4757
52.2250,79.4605
Z" /> 
<circle cx="56.3400" cy="89.0605" r="0.9652" /> 
<circle cx="53.8000" cy="91.6005" r="0.9652" /> 
<circle cx="51.2600" cy="89.0605" r="0.9652" /> 
<path style="fill:#000000; fill-opacity:1.0000; stroke:none;fill-rule:evenodd;"
d="M 66.5500,76.9605
66.6457,76.9795
66.7268,77.0337
66.7810,77.1148
66.8000,77.2105
66.8000,79.3105
66.7810,79.4062
66.7268,79.4873
66.6457,79.5415
66.5500,79.5605
65.4500,79.5605
65.3543,79.5415
65.2732,79.4873
65.2190,79.4062
65.2000,79.3105
65.2000,77.2105
65.2190,77.1148
65.2732,77.0337
65.3543,76.9795
65.4500,76.9605
Z" /> 
<path style="fill:#000000; fill-opacity:1.0000; stroke:none;fill-rule:evenodd;"
d="M 66.5500,80.5605
66.6457,80.5795
66.7268,80.6337
66.7810,80.7148
66.8000,80.8105
66.8000,82.9105
66.7810,83.0062
66.7268,83.0873
66.6457,83.1415
66.5500,83.1605
65.4500,83.1605
65.3543,83.1415
65.2732,83.0873
65.2190,83.0062
65.2000,82.9105
65.2000,80.8105
65.2190,80.7148
65.2732,80.6337
65.3543,80.5795
65.4500,80.5605
Z" /> 
<path style="fill:#000000; fill-opacity:1.0000; stroke:none;fill-rule:evenodd;"
d="M 48.5500,56.9605
48.6457,56.9795
48.7268,57.0337
48.7810,57.1148
48.8000,57.2105
48.8000,59.3105
48.7810,59.4062
48.7268,59.4873
48.6457,59.5415
48.5500,59.5605
47.4500,59.5605
47.3543,59.5415
47.2732,59.4873
47.2190,59.4062
47.2000,59.3105
47.2000,57.2105
47.2190,57.1148
47.2732,57.0337
47.3543,56.9795
47.4500,56.9605
Z" /> 
<path style="fill:#000000; fill-opacity:1.0000; stroke:none;fill-rule:evenodd;"
d="M 48.5500,60.5605
48.6457,60.5795
48.7268,60.6337
48.7810,60.7148
48.8000,60.8105
48.8000,62.9105
48.7810,63.0062
48.7268,63.0873
48.6457,63.1415
48.5500,63.1605
47.4500,63.1605
47.3543,63.1415
47.2732,63.0873
47.2190,63.0062
47.2000,62.9105
47.2000,60.8105
47.2190,60.7148
47.2732,60.6337
47.3543,60.5795
47.4500,60.5605
Z" /> 
<path style="fill:#000000; fill-opacity:1.0000; stroke:none;fill-rule:evenodd;"
d="M 28.0250,87.6855
28.1015,87.7007
28.1664,87.7441
28.2098,87.8090
28.2250,87.8855
28.2250,88.2855
28.2098,88.3620
28.1664,88.4269
28.1015,88.4703
28.0250,88.4855
27.4750,88.4855
27.3985,88.4703
27.3336,88.4269
27.2902,88.3620
27.2750,88.2855
27.2750,87.8855
27.2902,87.8090
27.3336,87.7441
27.3985,87.7007
27.4750,87.6855
Z" /> 
<path style="fill:#000000; fill-opacity:1.0000; stroke:none;fill-rule:evenodd;"
d="M 28.0250,89.3355
28.1015,89.3507
28.1664,89.3941
28.2098,89.4590
28.2250,89.5355
28.2250,89.9355
28.2098,90.0120
28.1664,90.0769
28.1015,90.1203
28.0250,90.1355
27.4750,90.1355
27.3985,90.1203
27.3336,90.0769
27.2902,90.0120
27.2750,89.9355
27.2750,89.5355
27.2902,89.4590
27.3336,89.3941
27.3985,89.3507
27.4750,89.3355
Z" /> 
<path style="fill:#000000; fill-opacity:1.0000; stroke:none;fill-rule:evenodd;"
d="M 44.6750,66.6355
44.7515,66.6507
44.8164,66.6941
44.8598,66.7590
44.8750,66.8355
44.8750,67.2355
44.8598,67.3120
44.8164,67.3769
44.7515,67.4203
44.6750,67.4355
44.1250,67.4355
44.0485,67.4203
43.9836,67.3769
43.9402,67.3120
43.9250,67.2355
43.9250,66.8355
43.9402,66.7590
43.9836,66.6941
44.0485,66.6507
44.1250,66.6355
Z" /> 
<path style="fill:#000000; fill-opacity:1.0000; stroke:none;fill-rule:evenodd;"
d="M 44.6750,68.2855
44.7515,68.3007
44.8164,68.3441
44.8598,68.4090
44.8750,68.4855
44.8750,68.8855
44.8598,68.9620
44.8164,69.0269
44.7515,69.0703
44.6750,69.0855
44.1250,69.0855
44.0485,69.0703
43.9836,69.0269
43.9402,68.9620
43.9250,68.8855
43.9250,68.4855
43.9402,68.4090
43.9836,68.3441
44.0485,68.3007
44.1250,68.2855
Z" /> 
<path style="fill:#000000; fill-opacity:1.0000; stroke:none;fill-rule:evenodd;"
d="M 73.0250,86.9105
73.0421,86.8244
73.0909,86.7514
73.1639,86.7026
73.2500,86.6855
73.7000,86.6855
73.7861,86.7026
73.8591,86.7514
73.9079,86.8244
73.9250,86.9105
73.9250,87.4105
73.9079,87.4966
73.8591,87.5696
73.7861,87.6184
73.7000,87.6355
73.2500,87.6355
73.1639,87.6184
73.0909,87.5696
73.0421,87.4966
73.0250,87.4105
Z" /> 
<path style="fill:#000000; fill-opacity:1.0000; stroke:none;fill-rule:evenodd;"
d="M 74.5750,86.9105
74.5921,86.8244
74.6409,86.7514
74.7139,86.7026
74.8000,86.6855
75.2500,86.6855
75.3361,86.7026
75.4091,86.7514
75.4579,86.8244
75.4750,86.9105
75.4750,87.4105
75.4579,87.4966
75.4091,87.5696
75.3361,87.6184
75.2500,87.6355
74.8000,87.6355
74.7139,87.6184
74.6409,87.5696
74.5921,87.4966
74.5750,87.4105
Z" /> 
<path style="fill:#000000; fill-opacity:1.0000; stroke:none;fill-rule:evenodd;"
d="M 72.6750,99.4355
72.7515,99.4507
72.8164,99.4941
72.8598,99.5590
72.8750,99.6355
72.8750,100.0355
72.8598,100.1120
72.8164,100.1769
72.7515,100.2203
72.6750,100.2355
72.1250,100.2355
72.0485,100.2203
71.9836,100.1769
71.9402,100.1120
71.9250,100.0355
71.9250,99.6355
71.9402,99.5590
71.9836,99.4941
72.0485,99.4507
72.1250,99.4355
Z" /> 
<path style="fill:#000000; fill-opacity:1.0000; stroke:none;fill-rule:evenodd;"
d="M 72.6750,101.0855
72.7515,101.1007
72.8164,101.1441
72.8598,101.2090
72.8750,101.2855
72.8750,101.6855
72.8598,101.7620
72.8164,101.8269
72.7515,101.8703
72.6750,101.8855
72.1250,101.8855
72.0485,101.8703
71.9836,101.8269
71.9402,101.7620
71.9250,101.6855
71.9250,101.2855
71.9402,101.2090
71.9836,101.1441
72.0485,101.1007
72.1250,101.0855
Z" /> 
<path style="fill:#000000; fill-opacity:1.0000; stroke:none;fill-rule:evenodd;"
d="M 31.5250,83.4355
31.6015,83.4507
31.6664,83.4941
31.7098,83.5590
31.7250,83.6355
31.7250,84.0355
31.7098,84.1120
31.6664,84.1769
31.6015,84.2203
31.5250,84.2355
30.9750,84.2355
30.8985,84.2203
30.8336,84.1769
30.7902,84.1120
30.7750,84.0355
30.7750,83.6355
30.7902,83.5590
30.8336,83.4941
30.8985,83.4507
30.9750,83.4355
Z" /> 
<path style="fill:#000000; fill-opacity:1.0000; stroke:none;fill-rule:evenodd;"
d="M 31.5250,85.0855
31.6015,85.1007
31.6664,85.1441
31.7098,85.2090
31.7250,85.2855
31.7250,85.6855
31.7098,85.7620
31.6664,85.8269
31.6015,85.8703
31.5250,85.8855
30.9750,85.8855
30.8985,85.8703
30.8336,85.8269
30.7902,85.7620
30.7750,85.6855
30.7750,85.2855
30.7902,85.2090
30.8336,85.1441
30.8985,85.1007
30.9750,85.0855
Z" /> 
<path style="fill:#000000; fill-opacity:1.0000; stroke:none;fill-rule:evenodd;"
d="M 40.1750,86.9505
40.1921,86.8644
40.2409,86.7914
40.3139,86.7426
40.4000,86.7255
40.8500,86.7255
40.9361,86.7426
41.0091,86.7914
41.0579,86.8644
41.0750,86.9505
41.0750,87.4505
41.0579,87.5366
41.0091,87.6096
40.9361,87.6584
40.8500,87.6755
40.4000,87.6755
40.3139,87.6584
40.2409,87.6096
40.1921,87.5366
40.1750,87.4505
Z" /> 
<path style="fill:#000000; fill-opacity:1.0000; stroke:none;fill-rule:evenodd;"
d="M 41.7250,86.9505
41.7421,86.8644
41.7909,86.7914
41.8639,86.7426
41.9500,86.7255
42.4000,86.7255
42.4861,86.7426
42.5591,86.7914
42.6079,86.8644
42.6250,86.9505
42.6250,87.4505
42.6079,87.5366
42.5591,87.6096
42.4861,87.6584
42.4000,87.6755
41.9500,87.6755
41.8639,87.6584
41.7909,87.6096
41.7421,87.5366
41.7250,87.4505
Z" /> 
<path style="fill:#000000; fill-opacity:1.0000; stroke:none;fill-rule:evenodd;"
d="M 33.4750,67.0355
33.5515,67.0507
33.6164,67.0941
33.6598,67.1590
33.6750,67.2355
33.6750,67.6355
33.6598,67.7120
33.6164,67.7769
33.5515,67.8203
33.4750,67.8355
32.9250,67.8355
32.8485,67.8203
32.7836,67.7769
32.7402,67.7120
32.7250,67.6355
32.7250,67.2355
32.7402,67.1590
32.7836,67.0941
32.8485,67.0507
32.9250,67.0355
Z" /> 
<path style="fill:#000000; fill-opacity:1.0000; stroke:none;fill-rule:evenodd;"
d="M 33.4750,68.6855
33.5515,68.7007
33.6164,68.7441
33.6598,68.8090
33.6750,68.8855
33.6750,69.2855
33.6598,69.3620
33.6164,69.4269
33.5515,69.4703
33.4750,69.4855
32.9250,69.4855
32.8485,69.4703
32.7836,69.4269
32.7402,69.3620
32.7250,69.2855
32.7250,68.8855
32.7402,68.8090
32.7836,68.7441
32.8485,68.7007
32.9250,68.6855
Z" /> 
<path style="fill:#000000; fill-opacity:1.0000; stroke:none;fill-rule:evenodd;"
d="M 60.3300,49.4105
60.3110,49.5062
60.2568,49.5873
60.1757,49.6415
60.0800,49.6605
58.0800,49.6605
57.9843,49.6415
57.9032,49.5873
57.8490,49.5062
57.8300,49.4105
57.8300,47.4105
57.8490,47.3148
57.9032,47.2337
57.9843,47.1795
58.0800,47.1605
60.0800,47.1605
60.1757,47.1795
60.2568,47.2337
60.3110,47.3148
60.3300,47.4105
Z" /> 
<circle cx="54.0000" cy="48.4105" r="1.2500" /> 
<circle cx="48.9200" cy="48.4105" r="1.2500" /> 
<path style="fill:#000000; fill-opacity:1.0000; stroke:none;fill-rule:evenodd;"
d="M 43.8750,89.2355
43.9515,89.2507
44.0164,89.2941
44.0598,89.3590
44.0750,89.4355
44.0750,89.8355
44.0598,89.9120
44.0164,89.9769
43.9515,90.0203
43.8750,90.0355
43.3250,90.0355
43.2485,90.0203
43.1836,89.9769
43.1402,89.9120
43.1250,89.8355
43.1250,89.4355
43.1402,89.3590
43.1836,89.2941
43.2485,89.2507
43.3250,89.2355
Z" /> 
<path style="fill:#000000; fill-opacity:1.0000; stroke:none;fill-rule:evenodd;"
d="M 43.8750,90.8855
43.9515,90.9007
44.0164,90.9441
44.0598,91.0090
44.0750,91.0855
44.0750,91.4855
44.0598,91.5620
44.0164,91.6269
43.9515,91.6703
43.8750,91.6855
43.3250,91.6855
43.2485,91.6703
43.1836,91.6269
43.1402,91.5620
43.1250,91.4855
43.1250,91.0855
43.1402,91.0090
43.1836,90.9441
43.2485,90.9007
43.3250,90.8855
Z" /> 
<path style="fill:#000000; fill-opacity:1.0000; stroke:none;fill-rule:evenodd;"
d="M 64.7250,92.3355
64.6485,92.3203
64.5836,92.2769
64.5402,92.2120
64.5250,92.1355
64.5250,91.7355
64.5402,91.6590
64.5836,91.5941
64.6485,91.5507
64.7250,91.5355
65.2750,91.5355
65.3515,91.5507
65.4164,91.5941
65.4598,91.6590
65.4750,91.7355
65.4750,92.1355
65.4598,92.2120
65.4164,92.2769
65.3515,92.3203
65.2750,92.3355
Z" /> 
<path style="fill:#000000; fill-opacity:1.0000; stroke:none;fill-rule:evenodd;"
d="M 64.7250,90.6855
64.6485,90.6703
64.5836,90.6269
64.5402,90.5620
64.5250,90.4855
64.5250,90.0855
64.5402,90.0090
64.5836,89.9441
64.6485,89.9007
64.7250,89.8855
65.2750,89.8855
65.3515,89.9007
65.4164,89.9441
65.4598,90.0090
65.4750,90.0855
65.4750,90.4855
65.4598,90.5620
65.4164,90.6269
65.3515,90.6703
65.2750,90.6855
Z" /> 
<path style="fill:#000000; fill-opacity:1.0000; stroke:none;fill-rule:evenodd;"
d="M 37.4500,80.7605
37.3639,80.7434
37.2909,80.6946
37.2421,80.6216
37.2250,80.5355
37.2250,80.0855
37.2421,79.9994
37.2909,79.9264
37.3639,79.8776
37.4500,79.8605
37.9500,79.8605
38.0361,79.8776
38.1091,79.9264
38.1579,79.9994
38.1750,80.0855
38.1750,80.5355
38.1579,80.6216
38.1091,80.6946
38.0361,80.7434
37.9500,80.7605
Z" /> 
<path style="fill:#000000; fill-opacity:1.0000; stroke:none;fill-rule:evenodd;"
d="M 37.4500,79.2105
37.3639,79.1934
37.2909,79.1446
37.2421,79.0716
37.2250,78.9855
37.2250,78.5355
37.2421,78.4494
37.2909,78.3764
37.3639,78.3276
37.4500,78.3105
37.9500,78.3105
38.0361,78.3276
38.1091,78.3764
38.1579,78.4494
38.1750,78.5355
38.1750,78.9855
38.1579,79.0716
38.1091,79.1446
38.0361,79.1934
37.9500,79.2105
Z" /> 
<path style="fill:#000000; fill-opacity:1.0000; stroke:none;fill-rule:evenodd;"
d="M 34.2750,88.4505
34.2864,88.3931
34.3189,88.3444
34.3676,88.3119
34.4250,88.3005
36.0750,88.3005
36.1324,88.3119
36.1811,88.3444
36.2136,88.3931
36.2250,88.4505
36.2250,88.7505
36.2136,88.8079
36.1811,88.8566
36.1324,88.8891
36.0750,88.9005
34.4250,88.9005
34.3676,88.8891
34.3189,88.8566
34.2864,88.8079
34.2750,88.7505
Z" /> 
<path style="fill:#000000; fill-opacity:1.0000; stroke:none;fill-rule:evenodd;"
d="M 34.2750,89.7205
34.2864,89.6631
34.3189,89.6144
34.3676,89.5819
34.4250,89.5705
36.0750,89.5705
36.1324,89.5819
36.1811,89.6144
36.2136,89.6631
36.2250,89.7205
36.2250,90.0205
36.2136,90.0779
36.1811,90.1266
36.1324,90.1591
36.0750,90.1705
34.4250,90.1705
34.3676,90.1591
34.3189,90.1266
34.2864,90.0779
34.2750,90.0205
Z" /> 
<path style="fill:#000000; fill-opacity:1.0000; stroke:none;fill-rule:evenodd;"
d="M 34.2750,90.9905
34.2864,90.9331
34.3189,90.8844
34.3676,90.8519
34.4250,90.8405
36.0750,90.8405
36.1324,90.8519
36.1811,90.8844
36.2136,90.9331
36.2250,90.9905
36.2250,91.2905
36.2136,91.3479
36.1811,91.3966
36.1324,91.4291
36.0750,91.4405
34.4250,91.4405
34.3676,91.4291
34.3189,91.3966
34.2864,91.3479
34.2750,91.2905
Z" /> 
<path style="fill:#000000; fill-opacity:1.0000; stroke:none;fill-rule:evenodd;"
d="M 34.2750,92.2605
34.2864,92.2031
34.3189,92.1544
34.3676,92.1219
34.4250,92.1105
36.0750,92.1105
36.1324,92.1219
36.1811,92.1544
36.2136,92.2031
36.2250,92.2605
36.2250,92.5605
36.2136,92.6179
36.1811,92.6666
36.1324,92.6991
36.0750,92.7105
34.4250,92.7105
34.3676,92.6991
34.3189,92.6666
34.2864,92.6179
34.2750,92.5605
Z" /> 
<path style="fill:#000000; fill-opacity:1.0000; stroke:none;fill-rule:evenodd;"
d="M 39.2250,92.2605
39.2364,92.2031
39.2689,92.1544
39.3176,92.1219
39.3750,92.1105
41.0250,92.1105
41.0824,92.1219
41.1311,92.1544
41.1636,92.2031
41.1750,92.2605
41.1750,92.5605
41.1636,92.6179
41.1311,92.6666
41.0824,92.6991
41.0250,92.7105
39.3750,92.7105
39.3176,92.6991
39.2689,92.6666
39.2364,92.6179
39.2250,92.5605
Z" /> 
<path style="fill:#000000; fill-opacity:1.0000; stroke:none;fill-rule:evenodd;"
d="M 39.2250,90.9905
39.2364,90.9331
39.2689,90.8844
39.3176,90.8519
39.3750,90.8405
41.0250,90.8405
41.0824,90.8519
41.1311,90.8844
41.1636,90.9331
41.1750,90.9905
41.1750,91.2905
41.1636,91.3479
41.1311,91.3966
41.0824,91.4291
41.0250,91.4405
39.3750,91.4405
39.3176,91.4291
39.2689,91.3966
39.2364,91.3479
39.2250,91.2905
Z" /> 
<path style="fill:#000000; fill-opacity:1.0000; stroke:none;fill-rule:evenodd;"
d="M 39.2250,89.7205
39.2364,89.6631
39.2689,89.6144
39.3176,89.5819
39.3750,89.5705
41.0250,89.5705
41.0824,89.5819
41.1311,89.6144
41.1636,89.6631
41.1750,89.7205
41.1750,90.0205
41.1636,90.0779
41.1311,90.1266
41.0824,90.1591
41.0250,90.1705
39.3750,90.1705
39.3176,90.1591
39.2689,90.1266
39.2364,90.0779
39.2250,90.0205
Z" /> 
<path style="fill:#000000; fill-opacity:1.0000; stroke:none;fill-rule:evenodd;"
d="M 39.2250,88.4505
39.2364,88.3931
39.2689,88.3444
39.3176,88.3119
39.3750,88.3005
41.0250,88.3005
41.0824,88.3119
41.1311,88.3444
41.1636,88.3931
41.1750,88.4505
41.1750,88.7505
41.1636,88.8079
41.1311,88.8566
41.0824,88.8891
41.0250,88.9005
39.3750,88.9005
39.3176,88.8891
39.2689,88.8566
39.2364,88.8079
39.2250,88.7505
Z" /> 
<path style="fill:#000000; fill-opacity:1.0000; stroke:none;fill-rule:evenodd;"
d="M 78.6750,104.2605
78.7515,104.2757
78.8164,104.3191
78.8598,104.3840
78.8750,104.4605
78.8750,104.8605
78.8598,104.9370
78.8164,105.0019
78.7515,105.0453
78.6750,105.0605
78.1250,105.0605
78.0485,105.0453
77.9836,105.0019
77.9402,104.9370
77.9250,104.8605
77.9250,104.4605
77.9402,104.3840
77.9836,104.3191
78.0485,104.2757
78.1250,104.2605
Z" /> 
<path style="fill:#000000; fill-opacity:1.0000; stroke:none;fill-rule:evenodd;"
d="M 78.6750,105.9105
78.7515,105.9257
78.8164,105.9691
78.8598,106.0340
78.8750,106.1105
78.8750,106.5105
78.8598,106.5870
78.8164,106.6519
78.7515,106.6953
78.6750,106.7105
78.1250,106.7105
78.0485,106.6953
77.9836,106.6519
77.9402,106.5870
77.9250,106.5105
77.9250,106.1105
77.9402,106.0340
77.9836,105.9691
78.0485,105.9257
78.1250,105.9105
Z" /> 
<path style="fill:#000000; fill-opacity:1.0000; stroke:none;fill-rule:evenodd;"
d="M 47.2750,69.0855
47.1985,69.0703
47.1336,69.0269
47.0902,68.9620
47.0750,68.8855
47.0750,68.4855
47.0902,68.4090
47.1336,68.3441
47.1985,68.3007
47.2750,68.2855
47.8250,68.2855
47.9015,68.3007
47.9664,68.3441
48.0098,68.4090
48.0250,68.4855
48.0250,68.8855
48.0098,68.9620
47.9664,69.0269
47.9015,69.0703
47.8250,69.0855
Z" /> 
<path style="fill:#000000; fill-opacity:1.0000; stroke:none;fill-rule:evenodd;"
d="M 47.2750,67.4355
47.1985,67.4203
47.1336,67.3769
47.0902,67.3120
47.0750,67.2355
47.0750,66.8355
47.0902,66.7590
47.1336,66.6941
47.1985,66.6507
47.2750,66.6355
47.8250,66.6355
47.9015,66.6507
47.9664,66.6941
48.0098,66.7590
48.0250,66.8355
48.0250,67.2355
48.0098,67.3120
47.9664,67.3769
47.9015,67.4203
47.8250,67.4355
Z" /> 
<path style="fill:#000000; fill-opacity:1.0000; stroke:none;fill-rule:evenodd;"
d="M 60.5500,56.9605
60.6457,56.9795
60.7268,57.0337
60.7810,57.1148
60.8000,57.2105
60.8000,59.3105
60.7810,59.4062
60.7268,59.4873
60.6457,59.5415
60.5500,59.5605
59.4500,59.5605
59.3543,59.5415
59.2732,59.4873
59.2190,59.4062
59.2000,59.3105
59.2000,57.2105
59.2190,57.1148
59.2732,57.0337
59.3543,56.9795
59.4500,56.9605
Z" /> 
<path style="fill:#000000; fill-opacity:1.0000; stroke:none;fill-rule:evenodd;"
d="M 60.5500,60.5605
60.6457,60.5795
60.7268,60.6337
60.7810,60.7148
60.8000,60.8105
60.8000,62.9105
60.7810,63.0062
60.7268,63.0873
60.6457,63.1415
60.5500,63.1605
59.4500,63.1605
59.3543,63.1415
59.2732,63.0873
59.2190,63.0062
59.2000,62.9105
59.2000,60.8105
59.2190,60.7148
59.2732,60.6337
59.3543,60.5795
59.4500,60.5605
Z" /> 
<path style="fill:#000000; fill-opacity:1.0000; stroke:none;fill-rule:evenodd;"
d="M 29.3500,61.7105
29.4457,61.7295
29.5268,61.7837
29.5810,61.8648
29.6000,61.9605
29.6000,64.9605
29.5810,65.0562
29.5268,65.1373
29.4457,65.1915
29.3500,65.2105
28.2500,65.2105
28.1543,65.1915
28.0732,65.1373
28.0190,65.0562
28.0000,64.9605
28.0000,61.9605
28.0190,61.8648
28.0732,61.7837
28.1543,61.7295
28.2500,61.7105
Z" /> 
<path style="fill:#000000; fill-opacity:1.0000; stroke:none;fill-rule:evenodd;"
d="M 29.3500,67.3105
29.4457,67.3295
29.5268,67.3837
29.5810,67.4648
29.6000,67.5605
29.6000,70.5605
29.5810,70.6562
29.5268,70.7373
29.4457,70.7915
29.3500,70.8105
28.2500,70.8105
28.1543,70.7915
28.0732,70.7373
28.0190,70.6562
28.0000,70.5605
28.0000,67.5605
28.0190,67.4648
28.0732,67.3837
28.1543,67.3295
28.2500,67.3105
Z" /> 
<path style="fill:#000000; fill-opacity:1.0000; stroke:none;fill-rule:evenodd;"
d="M 42.2750,57.2355
42.3515,57.2507
42.4164,57.2941
42.4598,57.3590
42.4750,57.4355
42.4750,57.8355
42.4598,57.9120
42.4164,57.9769
42.3515,58.0203
42.2750,58.0355
41.7250,58.0355
41.6485,58.0203
41.5836,57.9769
41.5402,57.9120
41.5250,57.8355
41.5250,57.4355
41.5402,57.3590
41.5836,57.2941
41.6485,57.2507
41.7250,57.2355
Z" /> 
<path style="fill:#000000; fill-opacity:1.0000; stroke:none;fill-rule:evenodd;"
d="M 42.2750,58.8855
42.3515,58.9007
42.4164,58.9441
42.4598,59.0090
42.4750,59.0855
42.4750,59.4855
42.4598,59.5620
42.4164,59.6269
42.3515,59.6703
42.2750,59.6855
41.7250,59.6855
41.6485,59.6703
41.5836,59.6269
41.5402,59.5620
41.5250,59.4855
41.5250,59.0855
41.5402,59.0090
41.5836,58.9441
41.6485,58.9007
41.7250,58.8855
Z" /> 
<path style="fill:#000000; fill-opacity:1.0000; stroke:none;fill-rule:evenodd;"
d="M 56.3000,22.9105
56.3000,24.7105
51.9000,24.7105
51.9000,22.9105
Z" /> 
</g>
<g style="fill:none; 
stroke:#000000; stroke-width:1.8000; stroke-opacity:1; 
stroke-linecap:round; stroke-linejoin:round;">
<path d="M55.2000 18.0105
L53.0000 18.0105
" />
<path d="M49.3000 19.7105
L49.3000 21.9105
" />
</g>
<g style="fill:#000000; fill-opacity:1.0000; stroke:none;">
<circle cx="74.6000" cy="104.0605" r="1.4000" /> 
<path style="fill:#000000; fill-opacity:1.0000; stroke:none;fill-rule:evenodd;"
d="M 64.2250,45.1855
64.2098,45.2620
64.1664,45.3269
64.1015,45.3703
64.0250,45.3855
63.6250,45.3855
63.5485,45.3703
63.4836,45.3269
63.4402,45.2620
63.4250,45.1855
63.4250,44.6355
63.4402,44.5590
63.4836,44.4941
63.5485,44.4507
63.6250,44.4355
64.0250,44.4355
64.1015,44.4507
64.1664,44.4941
64.2098,44.5590
64.2250,44.6355
Z" /> 
<path style="fill:#000000; fill-opacity:1.0000; stroke:none;fill-rule:evenodd;"
d="M 62.5750,45.1855
62.5598,45.2620
62.5164,45.3269
62.4515,45.3703
62.3750,45.3855
61.9750,45.3855
61.8985,45.3703
61.8336,45.3269
61.7902,45.2620
61.7750,45.1855
61.7750,44.6355
61.7902,44.5590
61.8336,44.4941
61.8985,44.4507
61.9750,44.4355
62.3750,44.4355
62.4515,44.4507
62.5164,44.4941
62.5598,44.5590
62.5750,44.6355
Z" /> 
<path style="fill:#000000; fill-opacity:1.0000; stroke:none;fill-rule:evenodd;"
d="M 39.8300,74.6605
39.8110,74.7562
39.7568,74.8373
39.6757,74.8915
39.5800,74.9105
37.5800,74.9105
37.4843,74.8915
37.4032,74.8373
37.3490,74.7562
37.3300,74.6605
37.3300,72.6605
37.3490,72.5648
37.4032,72.4837
37.4843,72.4295
37.5800,72.4105
39.5800,72.4105
39.6757,72.4295
39.7568,72.4837
39.8110,72.5648
39.8300,72.6605
Z" /> 
<circle cx="33.5000" cy="73.6605" r="1.2500" /> 
<circle cx="28.4200" cy="73.6605" r="1.2500" /> 
<path style="fill:#000000; fill-opacity:1.0000; stroke:none;fill-rule:evenodd;"
d="M 43.8750,57.2355
43.9515,57.2507
44.0164,57.2941
44.0598,57.3590
44.0750,57.4355
44.0750,57.8355
44.0598,57.9120
44.0164,57.9769
43.9515,58.0203
43.8750,58.0355
43.3250,58.0355
43.2485,58.0203
43.1836,57.9769
43.1402,57.9120
43.1250,57.8355
43.1250,57.4355
43.1402,57.3590
43.1836,57.2941
43.2485,57.2507
43.3250,57.2355
Z" /> 
<path style="fill:#000000; fill-opacity:1.0000; stroke:none;fill-rule:evenodd;"
d="M 43.8750,58.8855
43.9515,58.9007
44.0164,58.9441
44.0598,59.0090
44.0750,59.0855
44.0750,59.4855
44.0598,59.5620
44.0164,59.6269
43.9515,59.6703
43.8750,59.6855
43.3250,59.6855
43.2485,59.6703
43.1836,59.6269
43.1402,59.5620
43.1250,59.4855
43.1250,59.0855
43.1402,59.0090
43.1836,58.9441
43.2485,58.9007
43.3250,58.8855
Z" /> 
<path style="fill:#000000; fill-opacity:1.0000; stroke:none;fill-rule:evenodd;"
d="M 33.4750,64.0355
33.5515,64.0507
33.6164,64.0941
33.6598,64.1590
33.6750,64.2355
33.6750,64.6355
33.6598,64.7120
33.6164,64.7769
33.5515,64.8203
33.4750,64.8355
32.9250,64.8355
32.8485,64.8203
32.7836,64.7769
32.7402,64.7120
32.7250,64.6355
32.7250,64.2355
32.7402,64.1590
32.7836,64.0941
32.8485,64.0507
32.9250,64.0355
Z" /> 
<path style="fill:#000000; fill-opacity:1.0000; stroke:none;fill-rule:evenodd;"
d="M 33.4750,65.6855
33.5515,65.7007
33.6164,65.7441
33.6598,65.8090
33.6750,65.8855
33.6750,66.2855
33.6598,66.3620
33.6164,66.4269
33.5515,66.4703
33.4750,66.4855
32.9250,66.4855
32.8485,66.4703
32.7836,66.4269
32.7402,66.3620
32.7250,66.2855
32.7250,65.8855
32.7402,65.8090
32.7836,65.7441
32.8485,65.7007
32.9250,65.6855
Z" /> 
<path style="fill:#000000; fill-opacity:1.0000; stroke:none;fill-rule:evenodd;"
d="M 34.7250,55.0855
34.6485,55.0703
34.5836,55.0269
34.5402,54.9620
34.5250,54.8855
34.5250,54.4855
34.5402,54.4090
34.5836,54.3441
34.6485,54.3007
34.7250,54.2855
35.2750,54.2855
35.3515,54.3007
35.4164,54.3441
35.4598,54.4090
35.4750,54.4855
35.4750,54.8855
35.4598,54.9620
35.4164,55.0269
35.3515,55.0703
35.2750,55.0855
Z" /> 
<path style="fill:#000000; fill-opacity:1.0000; stroke:none;fill-rule:evenodd;"
d="M 34.7250,53.4355
34.6485,53.4203
34.5836,53.3769
34.5402,53.3120
34.5250,53.2355
34.5250,52.8355
34.5402,52.7590
34.5836,52.6941
34.6485,52.6507
34.7250,52.6355
35.2750,52.6355
35.3515,52.6507
35.4164,52.6941
35.4598,52.7590
35.4750,52.8355
35.4750,53.2355
35.4598,53.3120
35.4164,53.3769
35.3515,53.4203
35.2750,53.4355
Z" /> 
<path style="fill:#000000; fill-opacity:1.0000; stroke:none;fill-rule:evenodd;"
d="M 52.7750,95.3855
52.7902,95.3090
52.8336,95.2441
52.8985,95.2007
52.9750,95.1855
53.3750,95.1855
53.4515,95.2007
53.5164,95.2441
53.5598,95.3090
53.5750,95.3855
53.5750,95.9355
53.5598,96.0120
53.5164,96.0769
53.4515,96.1203
53.3750,96.1355
52.9750,96.1355
52.8985,96.1203
52.8336,96.0769
52.7902,96.0120
52.7750,95.9355
Z" /> 
<path style="fill:#000000; fill-opacity:1.0000; stroke:none;fill-rule:evenodd;"
d="M 54.4250,95.3855
54.4402,95.3090
54.4836,95.2441
54.5485,95.2007
54.6250,95.1855
55.0250,95.1855
55.1015,95.2007
55.1664,95.2441
55.2098,95.3090
55.2250,95.3855
55.2250,95.9355
55.2098,96.0120
55.1664,96.0769
55.1015,96.1203
55.0250,96.1355
54.6250,96.1355
54.5485,96.1203
54.4836,96.0769
54.4402,96.0120
54.4250,95.9355
Z" /> 
<path style="fill:#000000; fill-opacity:1.0000; stroke:none;fill-rule:evenodd;"
d="M 60.3300,74.6605
60.3110,74.7562
60.2568,74.8373
60.1757,74.8915
60.0800,74.9105
58.0800,74.9105
57.9843,74.8915
57.9032,74.8373
57.8490,74.7562
57.8300,74.6605
57.8300,72.6605
57.8490,72.5648
57.9032,72.4837
57.9843,72.4295
58.0800,72.4105
60.0800,72.4105
60.1757,72.4295
60.2568,72.4837
60.3110,72.5648
60.3300,72.6605
Z" /> 
<circle cx="54.0000" cy="73.6605" r="1.2500" /> 
<circle cx="48.9200" cy="73.6605" r="1.2500" /> 
<path style="fill:#000000; fill-opacity:1.0000; stroke:none;fill-rule:evenodd;"
d="M 51.6000,99.5605
51.6000,97.7605
53.4000,97.7605
53.4000,99.5605
Z" /> 
<circle cx="55.0400" cy="98.6605" r="0.9000" /> 
</g>
<g style="fill:#FFFFFF; fill-opacity:1.0000; stroke:none;">
<circle cx="45.0000" cy="104.4105" r="0.5000" /> 
</g>
<g style="fill:#FFFFFF; fill-opacity:1.0000; stroke:none;">
<circle cx="47.5400" cy="104.4105" r="0.5000" /> 
</g>
<g style="fill:#FFFFFF; fill-opacity:1.0000; stroke:none;">
<circle cx="50.0800" cy="104.4105" r="0.5000" /> 
</g>
<g style="fill:#FFFFFF; fill-opacity:1.0000; stroke:none;">
<circle cx="52.6200" cy="104.4105" r="0.5000" /> 
</g>
<g style="fill:#FFFFFF; fill-opacity:1.0000; stroke:none;">
<circle cx="55.1600" cy="104.4105" r="0.5000" /> 
</g>
<g style="fill:#FFFFFF; fill-opacity:1.0000; stroke:none;">
<circle cx="57.7000" cy="104.4105" r="0.5000" /> 
</g>
<g style="fill:#FFFFFF; fill-opacity:1.0000; stroke:none;">
<circle cx="60.2400" cy="104.4105" r="0.5000" /> 
</g>
<g style="fill:#FFFFFF; fill-opacity:1.0000; stroke:none;">
<circle cx="62.7800" cy="104.4105" r="0.5000" /> 
</g>
<g style="fill:none; 
stroke:#FFFFFF; stroke-width:1.4000; stroke-opacity:1; 
stroke-linecap:round; stroke-linejoin:round;">
<path d="M30.4700 26.0955
L30.4700 25.3955
" />
</g>
<g style="fill:none; 
stroke:#FFFFFF; stroke-width:1.4000; stroke-opacity:1; 
stroke-linecap:round; stroke-linejoin:round;">
<path d="M46.7000 26.0955
L46.7000 25.3955
" />
</g>
<g style="fill:none; 
stroke:#FFFFFF; stroke-width:1.4000; stroke-opacity:1; 
stroke-linecap:round; stroke-linejoin:round;">
<path d="M30.4700 19.7455
L30.4700 19.0455
" />
</g>
<g style="fill:none; 
stroke:#FFFFFF; stroke-width:1.4000; stroke-opacity:1; 
stroke-linecap:round; stroke-linejoin:round;">
<path d="M46.7000 19.7455
L46.7000 19.0455
" />
</g>
<g style="fill:none; 
stroke:#FFFFFF; stroke-width:1.4000; stroke-opacity:1; 
stroke-linecap:round; stroke-linejoin:round;">
<path d="M30.4700 32.4455
L30.4700 31.7455
" />
</g>
<g style="fill:none; 
stroke:#FFFFFF; stroke-width:1.4000; stroke-opacity:1; 
stroke-linecap:round; stroke-linejoin:round;">
<path d="M46.7000 32.4455
L46.7000 31.7455
" />
</g>
<g style="fill:#FFFFFF; fill-opacity:1.0000; stroke:none;">
<circle cx="79.0000" cy="68.4605" r="0.4000" /> 
</g>
<g style="fill:#FFFFFF; fill-opacity:1.0000; stroke:none;">
<circle cx="79.0000" cy="63.4605" r="0.4000" /> 
</g>
<g style="fill:none; 
stroke:#FFFFFF; stroke-width:1.4000; stroke-opacity:1; 
stroke-linecap:round; stroke-linejoin:round;">
<path d="M60.9850 26.0955
L60.9850 25.3955
" />
</g>
<g style="fill:none; 
stroke:#FFFFFF; stroke-width:1.4000; stroke-opacity:1; 
stroke-linecap:round; stroke-linejoin:round;">
<path d="M77.2150 26.0955
L77.2150 25.3955
" />
</g>
<g style="fill:none; 
stroke:#FFFFFF; stroke-width:1.4000; stroke-opacity:1; 
stroke-linecap:round; stroke-linejoin:round;">
<path d="M60.9850 19.7455
L60.9850 19.0455
" />
</g>
<g style="fill:none; 
stroke:#FFFFFF; stroke-width:1.4000; stroke-opacity:1; 
stroke-linecap:round; stroke-linejoin:round;">
<path d="M77.2150 19.7455
L77.2150 19.0455
" />
</g>
<g style="fill:none; 
stroke:#FFFFFF; stroke-width:1.4000; stroke-opacity:1; 
stroke-linecap:round; stroke-linejoin:round;">
<path d="M60.9850 32.4455
L60.9850 31.7455
" />
</g>
<g style="fill:none; 
stroke:#FFFFFF; stroke-width:1.4000; stroke-opacity:1; 
stroke-linecap:round; stroke-linejoin:round;">
<path d="M77.2150 32.4455
L77.2150 31.7455
" />
</g>
<g style="fill:none; 
stroke:#FFFFFF; stroke-width:0.5000; stroke-opacity:1; 
stroke-linecap:round; stroke-linejoin:round;">
<path d="M77.8000 109.7055
L77.0000 109.7055
" />
</g>
<g style="fill:none; 
stroke:#FFFFFF; stroke-width:0.5000; stroke-opacity:1; 
stroke-linecap:round; stroke-linejoin:round;">
<path d="M80.4500 105.6605
L80.4500 104.8605
" />
</g>
<g style="fill:none; 
stroke:#FFFFFF; stroke-width:0.5000; stroke-opacity:1; 
stroke-linecap:round; stroke-linejoin:round;">
<path d="M77.8000 100.8155
L77.0000 100.8155
" />
</g>
<g style="fill:#FFFFFF; fill-opacity:1.0000; stroke:none;">
<circle cx="44.0000" cy="48.4105" r="0.8000" /> 
</g>
<g style="fill:#FFFFFF; fill-opacity:1.0000; stroke:none;">
<circle cx="29.4000" cy="41.6605" r="0.8000" /> 
</g>
<g style="fill:#FFFFFF; fill-opacity:1.0000; stroke:none;">
<circle cx="45.5000" cy="96.6605" r="0.8000" /> 
</g>
<g style="fill:#FFFFFF; fill-opacity:1.0000; stroke:none;">
<circle cx="35.2000" cy="102.4605" r="0.8000" /> 
</g>
<g style="fill:#FFFFFF; fill-opacity:1.0000; stroke:none;">
<circle cx="44.0000" cy="41.7605" r="0.8000" /> 
</g>
<g style="fill:#FFFFFF; fill-opacity:1.0000; stroke:none;">
<circle cx="38.7500" cy="48.4105" r="0.5500" /> 
</g>
<g style="fill:#FFFFFF; fill-opacity:1.0000; stroke:none;">
<circle cx="33.6700" cy="48.4105" r="0.6500" /> 
</g>
<g style="fill:#FFFFFF; fill-opacity:1.0000; stroke:none;">
<circle cx="28.5900" cy="48.4105" r="0.5500" /> 
</g>
<g style="fill:#FFFFFF; fill-opacity:1.0000; stroke:none;">
<circle cx="64.6000" cy="48.2605" r="0.8000" /> 
</g>
<g style="fill:#FFFFFF; fill-opacity:1.0000; stroke:none;">
<circle cx="79.5800" cy="73.6605" r="0.5500" /> 
</g>
<g style="fill:#FFFFFF; fill-opacity:1.0000; stroke:none;">
<circle cx="74.5000" cy="73.6605" r="0.6500" /> 
</g>
<g style="fill:#FFFFFF; fill-opacity:1.0000; stroke:none;">
<circle cx="69.4200" cy="73.6605" r="0.5500" /> 
</g>
<g style="fill:#FFFFFF; fill-opacity:1.0000; stroke:none;">
<circle cx="61.6000" cy="96.6605" r="0.8000" /> 
</g>
<g style="fill:#FFFFFF; fill-opacity:1.0000; stroke:none;">
<circle cx="79.3300" cy="48.1605" r="0.5500" /> 
</g>
<g style="fill:#FFFFFF; fill-opacity:1.0000; stroke:none;">
<circle cx="74.2500" cy="48.1605" r="0.6500" /> 
</g>
<g style="fill:#FFFFFF; fill-opacity:1.0000; stroke:none;">
<circle cx="69.1700" cy="48.1605" r="0.5500" /> 
</g>
<g style="fill:#FFFFFF; fill-opacity:1.0000; stroke:none;">
<circle cx="56.3400" cy="89.0605" r="0.5000" /> 
</g>
<g style="fill:#FFFFFF; fill-opacity:1.0000; stroke:none;">
<circle cx="53.8000" cy="91.6005" r="0.5000" /> 
</g>
<g style="fill:#FFFFFF; fill-opacity:1.0000; stroke:none;">
<circle cx="51.2600" cy="89.0605" r="0.5000" /> 
</g>
<g style="fill:#FFFFFF; fill-opacity:1.0000; stroke:none;">
<circle cx="59.0800" cy="48.4105" r="0.5500" /> 
</g>
<g style="fill:#FFFFFF; fill-opacity:1.0000; stroke:none;">
<circle cx="54.0000" cy="48.4105" r="0.6500" /> 
</g>
<g style="fill:#FFFFFF; fill-opacity:1.0000; stroke:none;">
<circle cx="48.9200" cy="48.4105" r="0.5500" /> 
</g>
<g style="fill:none; 
stroke:#FFFFFF; stroke-width:0.8000; stroke-opacity:1; 
stroke-linecap:round; stroke-linejoin:round;">
<path d="M55.4000 23.8105
L52.8000 23.8105
" />
</g>
<g style="fill:none; 
stroke:#FFFFFF; stroke-width:0.8000; stroke-opacity:1; 
stroke-linecap:round; stroke-linejoin:round;">
<path d="M55.2000 18.0105
L53.0000 18.0105
" />
</g>
<g style="fill:none; 
stroke:#FFFFFF; stroke-width:0.8000; stroke-opacity:1; 
stroke-linecap:round; stroke-linejoin:round;">
<path d="M49.3000 19.7105
L49.3000 21.9105
" />
</g>
<g style="fill:#FFFFFF; fill-opacity:1.0000; stroke:none;">
<circle cx="74.6000" cy="104.0605" r="0.8000" /> 
</g>
<g style="fill:#FFFFFF; fill-opacity:1.0000; stroke:none;">
<circle cx="38.5800" cy="73.6605" r="0.5500" /> 
</g>
<g style="fill:#FFFFFF; fill-opacity:1.0000; stroke:none;">
<circle cx="33.5000" cy="73.6605" r="0.6500" /> 
</g>
<g style="fill:#FFFFFF; fill-opacity:1.0000; stroke:none;">
<circle cx="28.4200" cy="73.6605" r="0.5500" /> 
</g>
<g style="fill:#FFFFFF; fill-opacity:1.0000; stroke:none;">
<circle cx="59.0800" cy="73.6605" r="0.5500" /> 
</g>
<g style="fill:#FFFFFF; fill-opacity:1.0000; stroke:none;">
<circle cx="54.0000" cy="73.6605" r="0.6500" /> 
</g>
<g style="fill:#FFFFFF; fill-opacity:1.0000; stroke:none;">
<circle cx="48.9200" cy="73.6605" r="0.5500" /> 
</g>
<g style="fill:#FFFFFF; fill-opacity:1.0000; stroke:none;">
<circle cx="52.5000" cy="98.6605" r="0.4500" /> 
</g>
<g style="fill:#FFFFFF; fill-opacity:1.0000; stroke:none;">
<circle cx="55.0400" cy="98.6605" r="0.4500" /> 
</g> 
</svg>
