<?xml version="1.0" standalone="no"?>
 <!DOCTYPE svg PUBLIC "-//W3C//DTD SVG 1.1//EN" 
 "http://www.w3.org/Graphics/SVG/1.1/DTD/svg11.dtd"> 
<svg
  xmlns:svg="http://www.w3.org/2000/svg"
  xmlns="http://www.w3.org/2000/svg"
  xmlns:xlink="http://www.w3.org/1999/xlink"
  xmlns:inkscape="http://www.inkscape.org/namespaces/inkscape"
  version="1.1"
  width="14.909800mm" height="4.546600mm" viewBox="0.000000 0.000000 14.909800 4.546600">
<title>SVG Image created as C_0603_1608Metric.svg date 2026-04-21T17:26:38 </title>
  <desc>Image generated by PCBNEW </desc>
<g style="fill:#000000; fill-opacity:1.000000;stroke:#000000; stroke-opacity:1.000000;
stroke-linecap:round; stroke-linejoin:round;"
 transform="translate(0 0) scale(1 1)">
<path style="fill:none; 
stroke:#000000; stroke-width:0.050000; stroke-opacity:1; 
stroke-linecap:round; stroke-linejoin:round;fill:none"
d="M 5.978334,1.548250
8.938334,1.548250
8.938334,3.008250
5.978334,3.008250
Z" /> 
<path style="fill:#000000; fill-opacity:1.000000; stroke:none;fill-rule:evenodd;"
d="M 6.233334,2.028250
6.250461,1.942146
6.299235,1.869151
6.372230,1.820377
6.458334,1.803250
6.908334,1.803250
6.994438,1.820377
7.067433,1.869151
7.116207,1.942146
7.133334,2.028250
7.133334,2.528250
7.116207,2.614354
7.067433,2.687349
6.994438,2.736123
6.908334,2.753250
6.458334,2.753250
6.372230,2.736123
6.299235,2.687349
6.250461,2.614354
6.233334,2.528250
Z" /> 
<path style="fill:#000000; fill-opacity:1.000000; stroke:none;fill-rule:evenodd;"
d="M 7.783334,2.028250
7.800461,1.942146
7.849235,1.869151
7.922230,1.820377
8.008334,1.803250
8.458334,1.803250
8.544438,1.820377
8.617433,1.869151
8.666207,1.942146
8.683334,2.028250
8.683334,2.528250
8.666207,2.614354
8.617433,2.687349
8.544438,2.736123
8.458334,2.753250
8.008334,2.753250
7.922230,2.736123
7.849235,2.687349
7.800461,2.614354
7.783334,2.528250
Z" /> 
<path style="fill:#000000; fill-opacity:1.000000; stroke:none;fill-rule:evenodd;"
d="M 6.233334,2.028250
6.250461,1.942146
6.299235,1.869151
6.372230,1.820377
6.458334,1.803250
6.908334,1.803250
6.994438,1.820377
7.067433,1.869151
7.116207,1.942146
7.133334,2.028250
7.133334,2.528250
7.116207,2.614354
7.067433,2.687349
6.994438,2.736123
6.908334,2.753250
6.458334,2.753250
6.372230,2.736123
6.299235,2.687349
6.250461,2.614354
6.233334,2.528250
Z" /> 
<path style="fill:#000000; fill-opacity:1.000000; stroke:none;fill-rule:evenodd;"
d="M 7.783334,2.028250
7.800461,1.942146
7.849235,1.869151
7.922230,1.820377
8.008334,1.803250
8.458334,1.803250
8.544438,1.820377
8.617433,1.869151
8.666207,1.942146
8.683334,2.028250
8.683334,2.528250
8.666207,2.614354
8.617433,2.687349
8.544438,2.736123
8.458334,2.753250
8.008334,2.753250
7.922230,2.736123
7.849235,2.687349
7.800461,2.614354
7.783334,2.528250
Z" /> 
</g> 
</svg>
