<?xml version="1.0" standalone="no"?>
 <!DOCTYPE svg PUBLIC "-//W3C//DTD SVG 1.1//EN" 
 "http://www.w3.org/Graphics/SVG/1.1/DTD/svg11.dtd"> 
<svg
  xmlns:svg="http://www.w3.org/2000/svg"
  xmlns="http://www.w3.org/2000/svg"
  xmlns:xlink="http://www.w3.org/1999/xlink"
  xmlns:inkscape="http://www.inkscape.org/namespaces/inkscape"
  version="1.1"
  width="9.753600mm" height="9.601200mm" viewBox="0.000000 0.000000 9.753600 9.601200">
<title>SVG Image created as LED_D5.0mm.svg date 2026-04-21T00:15:40 </title>
  <desc>Image generated by PCBNEW </desc>
<g style="fill:#000000; fill-opacity:1.000000;stroke:#000000; stroke-opacity:1.000000;
stroke-linecap:round; stroke-linejoin:round;"
 transform="translate(0 0) scale(1 1)">
</g>
<g style="fill:none; 
stroke:#000000; stroke-width:0.150000; stroke-opacity:1; 
stroke-linecap:round; stroke-linejoin:round;">
<text x="4.886904" y="9.268250"
textLength="9.773809" font-size="1.333333" lengthAdjust="spacingAndGlyphs"
text-anchor="middle" opacity="0" stroke-opacity="0">LED_D5.0mm</text>
<g class="stroked-text"><desc>LED_D5.0mm</desc>
<path d="M0.839286 9.223069
L0.363096 9.223069
" />
<path d="M0.363096 9.223069
L0.363096 8.223069
" />
<path d="M1.172620 8.699259
L1.505953 8.699259
" />
<path d="M1.648810 9.223069
L1.172620 9.223069
" />
<path d="M1.172620 9.223069
L1.172620 8.223069
" />
<path d="M1.172620 8.223069
L1.648810 8.223069
" />
<path d="M2.077382 9.223069
L2.077382 8.223069
" />
<path d="M2.077382 8.223069
L2.315477 8.223069
" />
<path d="M2.315477 8.223069
L2.458334 8.270688
" />
<path d="M2.458334 8.270688
L2.553572 8.365926
" />
<path d="M2.553572 8.365926
L2.601191 8.461164
" />
<path d="M2.601191 8.461164
L2.648810 8.651640
" />
<path d="M2.648810 8.651640
L2.648810 8.794497
" />
<path d="M2.648810 8.794497
L2.601191 8.984973
" />
<path d="M2.601191 8.984973
L2.553572 9.080211
" />
<path d="M2.553572 9.080211
L2.458334 9.175450
" />
<path d="M2.458334 9.175450
L2.315477 9.223069
" />
<path d="M2.315477 9.223069
L2.077382 9.223069
" />
<path d="M2.839286 9.318307
L3.601191 9.318307
" />
<path d="M3.839286 9.223069
L3.839286 8.223069
" />
<path d="M3.839286 8.223069
L4.077381 8.223069
" />
<path d="M4.077381 8.223069
L4.220238 8.270688
" />
<path d="M4.220238 8.270688
L4.315476 8.365926
" />
<path d="M4.315476 8.365926
L4.363095 8.461164
" />
<path d="M4.363095 8.461164
L4.410714 8.651640
" />
<path d="M4.410714 8.651640
L4.410714 8.794497
" />
<path d="M4.410714 8.794497
L4.363095 8.984973
" />
<path d="M4.363095 8.984973
L4.315476 9.080211
" />
<path d="M4.315476 9.080211
L4.220238 9.175450
" />
<path d="M4.220238 9.175450
L4.077381 9.223069
" />
<path d="M4.077381 9.223069
L3.839286 9.223069
" />
<path d="M5.315476 8.223069
L4.839286 8.223069
" />
<path d="M4.839286 8.223069
L4.791667 8.699259
" />
<path d="M4.791667 8.699259
L4.839286 8.651640
" />
<path d="M4.839286 8.651640
L4.934524 8.604021
" />
<path d="M4.934524 8.604021
L5.172619 8.604021
" />
<path d="M5.172619 8.604021
L5.267857 8.651640
" />
<path d="M5.267857 8.651640
L5.315476 8.699259
" />
<path d="M5.315476 8.699259
L5.363095 8.794497
" />
<path d="M5.363095 8.794497
L5.363095 9.032592
" />
<path d="M5.363095 9.032592
L5.315476 9.127830
" />
<path d="M5.315476 9.127830
L5.267857 9.175450
" />
<path d="M5.267857 9.175450
L5.172619 9.223069
" />
<path d="M5.172619 9.223069
L4.934524 9.223069
" />
<path d="M4.934524 9.223069
L4.839286 9.175450
" />
<path d="M4.839286 9.175450
L4.791667 9.127830
" />
<path d="M5.791667 9.127830
L5.839286 9.175450
" />
<path d="M5.839286 9.175450
L5.791667 9.223069
" />
<path d="M5.791667 9.223069
L5.744048 9.175450
" />
<path d="M5.744048 9.175450
L5.791667 9.127830
" />
<path d="M5.791667 9.127830
L5.791667 9.223069
" />
<path d="M6.458333 8.223069
L6.553571 8.223069
" />
<path d="M6.553571 8.223069
L6.648809 8.270688
" />
<path d="M6.648809 8.270688
L6.696428 8.318307
" />
<path d="M6.696428 8.318307
L6.744047 8.413545
" />
<path d="M6.744047 8.413545
L6.791666 8.604021
" />
<path d="M6.791666 8.604021
L6.791666 8.842116
" />
<path d="M6.791666 8.842116
L6.744047 9.032592
" />
<path d="M6.744047 9.032592
L6.696428 9.127830
" />
<path d="M6.696428 9.127830
L6.648809 9.175450
" />
<path d="M6.648809 9.175450
L6.553571 9.223069
" />
<path d="M6.553571 9.223069
L6.458333 9.223069
" />
<path d="M6.458333 9.223069
L6.363095 9.175450
" />
<path d="M6.363095 9.175450
L6.315476 9.127830
" />
<path d="M6.315476 9.127830
L6.267857 9.032592
" />
<path d="M6.267857 9.032592
L6.220238 8.842116
" />
<path d="M6.220238 8.842116
L6.220238 8.604021
" />
<path d="M6.220238 8.604021
L6.267857 8.413545
" />
<path d="M6.267857 8.413545
L6.315476 8.318307
" />
<path d="M6.315476 8.318307
L6.363095 8.270688
" />
<path d="M6.363095 8.270688
L6.458333 8.223069
" />
<path d="M7.220238 9.223069
L7.220238 8.556402
" />
<path d="M7.220238 8.651640
L7.267857 8.604021
" />
<path d="M7.267857 8.604021
L7.363095 8.556402
" />
<path d="M7.363095 8.556402
L7.505952 8.556402
" />
<path d="M7.505952 8.556402
L7.601190 8.604021
" />
<path d="M7.601190 8.604021
L7.648809 8.699259
" />
<path d="M7.648809 8.699259
L7.648809 9.223069
" />
<path d="M7.648809 8.699259
L7.696428 8.604021
" />
<path d="M7.696428 8.604021
L7.791666 8.556402
" />
<path d="M7.791666 8.556402
L7.934523 8.556402
" />
<path d="M7.934523 8.556402
L8.029762 8.604021
" />
<path d="M8.029762 8.604021
L8.077381 8.699259
" />
<path d="M8.077381 8.699259
L8.077381 9.223069
" />
<path d="M8.553571 9.223069
L8.553571 8.556402
" />
<path d="M8.553571 8.651640
L8.601190 8.604021
" />
<path d="M8.601190 8.604021
L8.696428 8.556402
" />
<path d="M8.696428 8.556402
L8.839285 8.556402
" />
<path d="M8.839285 8.556402
L8.934523 8.604021
" />
<path d="M8.934523 8.604021
L8.982142 8.699259
" />
<path d="M8.982142 8.699259
L8.982142 9.223069
" />
<path d="M8.982142 8.699259
L9.029761 8.604021
" />
<path d="M9.029761 8.604021
L9.124999 8.556402
" />
<path d="M9.124999 8.556402
L9.267856 8.556402
" />
<path d="M9.267856 8.556402
L9.363095 8.604021
" />
<path d="M9.363095 8.604021
L9.410714 8.699259
" />
<path d="M9.410714 8.699259
L9.410714 9.223069
" />
</g></g>
<g style="fill:none; 
stroke:#000000; stroke-width:0.120000; stroke-opacity:1; 
stroke-linecap:round; stroke-linejoin:round;">
<text x="4.886904" y="5.208250"
textLength="3.628572" font-size="1.066666" lengthAdjust="spacingAndGlyphs"
text-anchor="middle" opacity="0" stroke-opacity="0">REF**</text>
<g class="stroked-text"><desc>REF**</desc>
<path d="M3.820237 5.172105
L3.553571 4.791153
" />
<path d="M3.363095 5.172105
L3.363095 4.372106
" />
<path d="M3.363095 4.372106
L3.667856 4.372106
" />
<path d="M3.667856 4.372106
L3.744046 4.410201
" />
<path d="M3.744046 4.410201
L3.782141 4.448296
" />
<path d="M3.782141 4.448296
L3.820237 4.524487
" />
<path d="M3.820237 4.524487
L3.820237 4.638772
" />
<path d="M3.820237 4.638772
L3.782141 4.714963
" />
<path d="M3.782141 4.714963
L3.744046 4.753058
" />
<path d="M3.744046 4.753058
L3.667856 4.791153
" />
<path d="M3.667856 4.791153
L3.363095 4.791153
" />
<path d="M4.163094 4.753058
L4.429760 4.753058
" />
<path d="M4.544046 5.172105
L4.163094 5.172105
" />
<path d="M4.163094 5.172105
L4.163094 4.372106
" />
<path d="M4.163094 4.372106
L4.544046 4.372106
" />
<path d="M5.153570 4.753058
L4.886904 4.753058
" />
<path d="M4.886904 5.172105
L4.886904 4.372106
" />
<path d="M4.886904 4.372106
L5.267856 4.372106
" />
<path d="M5.686903 4.372106
L5.686903 4.562582
" />
<path d="M5.496427 4.486391
L5.686903 4.562582
" />
<path d="M5.686903 4.562582
L5.877380 4.486391
" />
<path d="M5.572618 4.714963
L5.686903 4.562582
" />
<path d="M5.686903 4.562582
L5.801189 4.714963
" />
<path d="M6.296427 4.372106
L6.296427 4.562582
" />
<path d="M6.105951 4.486391
L6.296427 4.562582
" />
<path d="M6.296427 4.562582
L6.486904 4.486391
" />
<path d="M6.182142 4.714963
L6.296427 4.562582
" />
<path d="M6.296427 4.562582
L6.410713 4.714963
" />
</g></g>
<g style="fill:none; 
stroke:#000000; stroke-width:0.100000; stroke-opacity:1; 
stroke-linecap:round; stroke-linejoin:round;">
<path d="M2.386904 3.338556
L2.386904 6.277944
" />
<path d="M2.386904 6.277944 A2.900000 2.900000 0.0 1 0 2.386904 3.338556" />
<circle cx="4.886904" cy="4.808250" r="2.500000" /> 
</g>
<g style="fill:#000000; fill-opacity:1.000000; stroke:none;">
<circle cx="3.616904" cy="4.808250" r="0.450000" /> 
<circle cx="6.156904" cy="4.808250" r="0.450000" /> 
</g> 
</svg>
