<?xml version="1.0" standalone="no"?>
 <!DOCTYPE svg PUBLIC "-//W3C//DTD SVG 1.1//EN" 
 "http://www.w3.org/Graphics/SVG/1.1/DTD/svg11.dtd"> 
<svg
  xmlns:svg="http://www.w3.org/2000/svg"
  xmlns="http://www.w3.org/2000/svg"
  xmlns:xlink="http://www.w3.org/1999/xlink"
  xmlns:inkscape="http://www.inkscape.org/namespaces/inkscape"
  version="1.1"
  width="21.437600mm" height="15.189200mm" viewBox="0.000000 0.000000 21.437600 15.189200">
<title>SVG Image created as BatteryHolder_Keystone_590.svg date 2026-04-21T00:15:15 </title>
  <desc>Image generated by PCBNEW </desc>
<g style="fill:#000000; fill-opacity:1.000000;stroke:#000000; stroke-opacity:1.000000;
stroke-linecap:round; stroke-linejoin:round;"
 transform="translate(0 0) scale(1 1)">
</g>
<g style="fill:none; 
stroke:#000000; stroke-width:0.150000; stroke-opacity:1; 
stroke-linecap:round; stroke-linejoin:round;">
<text x="10.720240" y="1.348250"
textLength="21.440481" font-size="1.333333" lengthAdjust="spacingAndGlyphs"
text-anchor="middle" opacity="0" stroke-opacity="0">BatteryHolder_Keystone_590</text>
<g class="stroked-text"><desc>BatteryHolder_Keystone_590</desc>
<path d="M0.696429 0.779260
L0.839286 0.826879
" />
<path d="M0.839286 0.826879
L0.886905 0.874498
" />
<path d="M0.886905 0.874498
L0.934524 0.969736
" />
<path d="M0.934524 0.969736
L0.934524 1.112593
" />
<path d="M0.934524 1.112593
L0.886905 1.207831
" />
<path d="M0.886905 1.207831
L0.839286 1.255450
" />
<path d="M0.839286 1.255450
L0.744048 1.303070
" />
<path d="M0.744048 1.303070
L0.363096 1.303070
" />
<path d="M0.363096 1.303070
L0.363096 0.303070
" />
<path d="M0.363096 0.303070
L0.696429 0.303070
" />
<path d="M0.696429 0.303070
L0.791667 0.350689
" />
<path d="M0.791667 0.350689
L0.839286 0.398308
" />
<path d="M0.839286 0.398308
L0.886905 0.493546
" />
<path d="M0.886905 0.493546
L0.886905 0.588784
" />
<path d="M0.886905 0.588784
L0.839286 0.684022
" />
<path d="M0.839286 0.684022
L0.791667 0.731641
" />
<path d="M0.791667 0.731641
L0.696429 0.779260
" />
<path d="M0.696429 0.779260
L0.363096 0.779260
" />
<path d="M1.791667 1.303070
L1.791667 0.779260
" />
<path d="M1.791667 0.779260
L1.744048 0.684022
" />
<path d="M1.744048 0.684022
L1.648810 0.636403
" />
<path d="M1.648810 0.636403
L1.458334 0.636403
" />
<path d="M1.458334 0.636403
L1.363096 0.684022
" />
<path d="M1.791667 1.255450
L1.696429 1.303070
" />
<path d="M1.696429 1.303070
L1.458334 1.303070
" />
<path d="M1.458334 1.303070
L1.363096 1.255450
" />
<path d="M1.363096 1.255450
L1.315477 1.160212
" />
<path d="M1.315477 1.160212
L1.315477 1.064974
" />
<path d="M1.315477 1.064974
L1.363096 0.969736
" />
<path d="M1.363096 0.969736
L1.458334 0.922117
" />
<path d="M1.458334 0.922117
L1.696429 0.922117
" />
<path d="M1.696429 0.922117
L1.791667 0.874498
" />
<path d="M2.125001 0.636403
L2.505953 0.636403
" />
<path d="M2.267858 0.303070
L2.267858 1.160212
" />
<path d="M2.267858 1.160212
L2.315477 1.255450
" />
<path d="M2.315477 1.255450
L2.410715 1.303070
" />
<path d="M2.410715 1.303070
L2.505953 1.303070
" />
<path d="M2.696430 0.636403
L3.077382 0.636403
" />
<path d="M2.839287 0.303070
L2.839287 1.160212
" />
<path d="M2.839287 1.160212
L2.886906 1.255450
" />
<path d="M2.886906 1.255450
L2.982144 1.303070
" />
<path d="M2.982144 1.303070
L3.077382 1.303070
" />
<path d="M3.791668 1.255450
L3.696430 1.303070
" />
<path d="M3.696430 1.303070
L3.505954 1.303070
" />
<path d="M3.505954 1.303070
L3.410716 1.255450
" />
<path d="M3.410716 1.255450
L3.363097 1.160212
" />
<path d="M3.363097 1.160212
L3.363097 0.779260
" />
<path d="M3.363097 0.779260
L3.410716 0.684022
" />
<path d="M3.410716 0.684022
L3.505954 0.636403
" />
<path d="M3.505954 0.636403
L3.696430 0.636403
" />
<path d="M3.696430 0.636403
L3.791668 0.684022
" />
<path d="M3.791668 0.684022
L3.839287 0.779260
" />
<path d="M3.839287 0.779260
L3.839287 0.874498
" />
<path d="M3.839287 0.874498
L3.363097 0.969736
" />
<path d="M4.267859 1.303070
L4.267859 0.636403
" />
<path d="M4.267859 0.826879
L4.315478 0.731641
" />
<path d="M4.315478 0.731641
L4.363097 0.684022
" />
<path d="M4.363097 0.684022
L4.458335 0.636403
" />
<path d="M4.458335 0.636403
L4.553573 0.636403
" />
<path d="M4.791669 0.636403
L5.029764 1.303070
" />
<path d="M5.267859 0.636403
L5.029764 1.303070
" />
<path d="M5.029764 1.303070
L4.934526 1.541165
" />
<path d="M4.934526 1.541165
L4.886907 1.588784
" />
<path d="M4.886907 1.588784
L4.791669 1.636403
" />
<path d="M5.648812 1.303070
L5.648812 0.303070
" />
<path d="M5.648812 0.779260
L6.220240 0.779260
" />
<path d="M6.220240 1.303070
L6.220240 0.303070
" />
<path d="M6.839288 1.303070
L6.744050 1.255450
" />
<path d="M6.744050 1.255450
L6.696431 1.207831
" />
<path d="M6.696431 1.207831
L6.648812 1.112593
" />
<path d="M6.648812 1.112593
L6.648812 0.826879
" />
<path d="M6.648812 0.826879
L6.696431 0.731641
" />
<path d="M6.696431 0.731641
L6.744050 0.684022
" />
<path d="M6.744050 0.684022
L6.839288 0.636403
" />
<path d="M6.839288 0.636403
L6.982145 0.636403
" />
<path d="M6.982145 0.636403
L7.077383 0.684022
" />
<path d="M7.077383 0.684022
L7.125002 0.731641
" />
<path d="M7.125002 0.731641
L7.172621 0.826879
" />
<path d="M7.172621 0.826879
L7.172621 1.112593
" />
<path d="M7.172621 1.112593
L7.125002 1.207831
" />
<path d="M7.125002 1.207831
L7.077383 1.255450
" />
<path d="M7.077383 1.255450
L6.982145 1.303070
" />
<path d="M6.982145 1.303070
L6.839288 1.303070
" />
<path d="M7.744050 1.303070
L7.648812 1.255450
" />
<path d="M7.648812 1.255450
L7.601193 1.160212
" />
<path d="M7.601193 1.160212
L7.601193 0.303070
" />
<path d="M8.553574 1.303070
L8.553574 0.303070
" />
<path d="M8.553574 1.255450
L8.458336 1.303070
" />
<path d="M8.458336 1.303070
L8.267860 1.303070
" />
<path d="M8.267860 1.303070
L8.172622 1.255450
" />
<path d="M8.172622 1.255450
L8.125003 1.207831
" />
<path d="M8.125003 1.207831
L8.077384 1.112593
" />
<path d="M8.077384 1.112593
L8.077384 0.826879
" />
<path d="M8.077384 0.826879
L8.125003 0.731641
" />
<path d="M8.125003 0.731641
L8.172622 0.684022
" />
<path d="M8.172622 0.684022
L8.267860 0.636403
" />
<path d="M8.267860 0.636403
L8.458336 0.636403
" />
<path d="M8.458336 0.636403
L8.553574 0.684022
" />
<path d="M9.410717 1.255450
L9.315479 1.303070
" />
<path d="M9.315479 1.303070
L9.125003 1.303070
" />
<path d="M9.125003 1.303070
L9.029765 1.255450
" />
<path d="M9.029765 1.255450
L8.982146 1.160212
" />
<path d="M8.982146 1.160212
L8.982146 0.779260
" />
<path d="M8.982146 0.779260
L9.029765 0.684022
" />
<path d="M9.029765 0.684022
L9.125003 0.636403
" />
<path d="M9.125003 0.636403
L9.315479 0.636403
" />
<path d="M9.315479 0.636403
L9.410717 0.684022
" />
<path d="M9.410717 0.684022
L9.458336 0.779260
" />
<path d="M9.458336 0.779260
L9.458336 0.874498
" />
<path d="M9.458336 0.874498
L8.982146 0.969736
" />
<path d="M9.886908 1.303070
L9.886908 0.636403
" />
<path d="M9.886908 0.826879
L9.934527 0.731641
" />
<path d="M9.934527 0.731641
L9.982146 0.684022
" />
<path d="M9.982146 0.684022
L10.077384 0.636403
" />
<path d="M10.077384 0.636403
L10.172622 0.636403
" />
<path d="M10.267860 1.398308
L11.029764 1.398308
" />
<path d="M11.267860 1.303070
L11.267860 0.303070
" />
<path d="M11.839288 1.303070
L11.410717 0.731641
" />
<path d="M11.839288 0.303070
L11.267860 0.874498
" />
<path d="M12.648812 1.255450
L12.553574 1.303070
" />
<path d="M12.553574 1.303070
L12.363098 1.303070
" />
<path d="M12.363098 1.303070
L12.267860 1.255450
" />
<path d="M12.267860 1.255450
L12.220241 1.160212
" />
<path d="M12.220241 1.160212
L12.220241 0.779260
" />
<path d="M12.220241 0.779260
L12.267860 0.684022
" />
<path d="M12.267860 0.684022
L12.363098 0.636403
" />
<path d="M12.363098 0.636403
L12.553574 0.636403
" />
<path d="M12.553574 0.636403
L12.648812 0.684022
" />
<path d="M12.648812 0.684022
L12.696431 0.779260
" />
<path d="M12.696431 0.779260
L12.696431 0.874498
" />
<path d="M12.696431 0.874498
L12.220241 0.969736
" />
<path d="M13.029765 0.636403
L13.267860 1.303070
" />
<path d="M13.505955 0.636403
L13.267860 1.303070
" />
<path d="M13.267860 1.303070
L13.172622 1.541165
" />
<path d="M13.172622 1.541165
L13.125003 1.588784
" />
<path d="M13.125003 1.588784
L13.029765 1.636403
" />
<path d="M13.839289 1.255450
L13.934527 1.303070
" />
<path d="M13.934527 1.303070
L14.125003 1.303070
" />
<path d="M14.125003 1.303070
L14.220241 1.255450
" />
<path d="M14.220241 1.255450
L14.267860 1.160212
" />
<path d="M14.267860 1.160212
L14.267860 1.112593
" />
<path d="M14.267860 1.112593
L14.220241 1.017355
" />
<path d="M14.220241 1.017355
L14.125003 0.969736
" />
<path d="M14.125003 0.969736
L13.982146 0.969736
" />
<path d="M13.982146 0.969736
L13.886908 0.922117
" />
<path d="M13.886908 0.922117
L13.839289 0.826879
" />
<path d="M13.839289 0.826879
L13.839289 0.779260
" />
<path d="M13.839289 0.779260
L13.886908 0.684022
" />
<path d="M13.886908 0.684022
L13.982146 0.636403
" />
<path d="M13.982146 0.636403
L14.125003 0.636403
" />
<path d="M14.125003 0.636403
L14.220241 0.684022
" />
<path d="M14.553575 0.636403
L14.934527 0.636403
" />
<path d="M14.696432 0.303070
L14.696432 1.160212
" />
<path d="M14.696432 1.160212
L14.744051 1.255450
" />
<path d="M14.744051 1.255450
L14.839289 1.303070
" />
<path d="M14.839289 1.303070
L14.934527 1.303070
" />
<path d="M15.410718 1.303070
L15.315480 1.255450
" />
<path d="M15.315480 1.255450
L15.267861 1.207831
" />
<path d="M15.267861 1.207831
L15.220242 1.112593
" />
<path d="M15.220242 1.112593
L15.220242 0.826879
" />
<path d="M15.220242 0.826879
L15.267861 0.731641
" />
<path d="M15.267861 0.731641
L15.315480 0.684022
" />
<path d="M15.315480 0.684022
L15.410718 0.636403
" />
<path d="M15.410718 0.636403
L15.553575 0.636403
" />
<path d="M15.553575 0.636403
L15.648813 0.684022
" />
<path d="M15.648813 0.684022
L15.696432 0.731641
" />
<path d="M15.696432 0.731641
L15.744051 0.826879
" />
<path d="M15.744051 0.826879
L15.744051 1.112593
" />
<path d="M15.744051 1.112593
L15.696432 1.207831
" />
<path d="M15.696432 1.207831
L15.648813 1.255450
" />
<path d="M15.648813 1.255450
L15.553575 1.303070
" />
<path d="M15.553575 1.303070
L15.410718 1.303070
" />
<path d="M16.172623 0.636403
L16.172623 1.303070
" />
<path d="M16.172623 0.731641
L16.220242 0.684022
" />
<path d="M16.220242 0.684022
L16.315480 0.636403
" />
<path d="M16.315480 0.636403
L16.458337 0.636403
" />
<path d="M16.458337 0.636403
L16.553575 0.684022
" />
<path d="M16.553575 0.684022
L16.601194 0.779260
" />
<path d="M16.601194 0.779260
L16.601194 1.303070
" />
<path d="M17.458337 1.255450
L17.363099 1.303070
" />
<path d="M17.363099 1.303070
L17.172623 1.303070
" />
<path d="M17.172623 1.303070
L17.077385 1.255450
" />
<path d="M17.077385 1.255450
L17.029766 1.160212
" />
<path d="M17.029766 1.160212
L17.029766 0.779260
" />
<path d="M17.029766 0.779260
L17.077385 0.684022
" />
<path d="M17.077385 0.684022
L17.172623 0.636403
" />
<path d="M17.172623 0.636403
L17.363099 0.636403
" />
<path d="M17.363099 0.636403
L17.458337 0.684022
" />
<path d="M17.458337 0.684022
L17.505956 0.779260
" />
<path d="M17.505956 0.779260
L17.505956 0.874498
" />
<path d="M17.505956 0.874498
L17.029766 0.969736
" />
<path d="M17.696433 1.398308
L18.458337 1.398308
" />
<path d="M19.172623 0.303070
L18.696433 0.303070
" />
<path d="M18.696433 0.303070
L18.648814 0.779260
" />
<path d="M18.648814 0.779260
L18.696433 0.731641
" />
<path d="M18.696433 0.731641
L18.791671 0.684022
" />
<path d="M18.791671 0.684022
L19.029766 0.684022
" />
<path d="M19.029766 0.684022
L19.125004 0.731641
" />
<path d="M19.125004 0.731641
L19.172623 0.779260
" />
<path d="M19.172623 0.779260
L19.220242 0.874498
" />
<path d="M19.220242 0.874498
L19.220242 1.112593
" />
<path d="M19.220242 1.112593
L19.172623 1.207831
" />
<path d="M19.172623 1.207831
L19.125004 1.255450
" />
<path d="M19.125004 1.255450
L19.029766 1.303070
" />
<path d="M19.029766 1.303070
L18.791671 1.303070
" />
<path d="M18.791671 1.303070
L18.696433 1.255450
" />
<path d="M18.696433 1.255450
L18.648814 1.207831
" />
<path d="M19.696433 1.303070
L19.886909 1.303070
" />
<path d="M19.886909 1.303070
L19.982147 1.255450
" />
<path d="M19.982147 1.255450
L20.029766 1.207831
" />
<path d="M20.029766 1.207831
L20.125004 1.064974
" />
<path d="M20.125004 1.064974
L20.172623 0.874498
" />
<path d="M20.172623 0.874498
L20.172623 0.493546
" />
<path d="M20.172623 0.493546
L20.125004 0.398308
" />
<path d="M20.125004 0.398308
L20.077385 0.350689
" />
<path d="M20.077385 0.350689
L19.982147 0.303070
" />
<path d="M19.982147 0.303070
L19.791671 0.303070
" />
<path d="M19.791671 0.303070
L19.696433 0.350689
" />
<path d="M19.696433 0.350689
L19.648814 0.398308
" />
<path d="M19.648814 0.398308
L19.601195 0.493546
" />
<path d="M19.601195 0.493546
L19.601195 0.731641
" />
<path d="M19.601195 0.731641
L19.648814 0.826879
" />
<path d="M19.648814 0.826879
L19.696433 0.874498
" />
<path d="M19.696433 0.874498
L19.791671 0.922117
" />
<path d="M19.791671 0.922117
L19.982147 0.922117
" />
<path d="M19.982147 0.922117
L20.077385 0.874498
" />
<path d="M20.077385 0.874498
L20.125004 0.826879
" />
<path d="M20.125004 0.826879
L20.172623 0.731641
" />
<path d="M20.791671 0.303070
L20.886909 0.303070
" />
<path d="M20.886909 0.303070
L20.982147 0.350689
" />
<path d="M20.982147 0.350689
L21.029766 0.398308
" />
<path d="M21.029766 0.398308
L21.077385 0.493546
" />
<path d="M21.077385 0.493546
L21.125004 0.684022
" />
<path d="M21.125004 0.684022
L21.125004 0.922117
" />
<path d="M21.125004 0.922117
L21.077385 1.112593
" />
<path d="M21.077385 1.112593
L21.029766 1.207831
" />
<path d="M21.029766 1.207831
L20.982147 1.255450
" />
<path d="M20.982147 1.255450
L20.886909 1.303070
" />
<path d="M20.886909 1.303070
L20.791671 1.303070
" />
<path d="M20.791671 1.303070
L20.696433 1.255450
" />
<path d="M20.696433 1.255450
L20.648814 1.207831
" />
<path d="M20.648814 1.207831
L20.601195 1.112593
" />
<path d="M20.601195 1.112593
L20.553576 0.922117
" />
<path d="M20.553576 0.922117
L20.553576 0.684022
" />
<path d="M20.553576 0.684022
L20.601195 0.493546
" />
<path d="M20.601195 0.493546
L20.648814 0.398308
" />
<path d="M20.648814 0.398308
L20.696433 0.350689
" />
<path d="M20.696433 0.350689
L20.791671 0.303070
" />
</g><text x="10.720240" y="7.348250"
textLength="4.535715" font-size="1.333333" lengthAdjust="spacingAndGlyphs"
text-anchor="middle" opacity="0" stroke-opacity="0">REF**</text>
<g class="stroked-text"><desc>REF**</desc>
<path d="M9.386907 7.303070
L9.053574 6.826879
" />
<path d="M8.815479 7.303070
L8.815479 6.303070
" />
<path d="M8.815479 6.303070
L9.196431 6.303070
" />
<path d="M9.196431 6.303070
L9.291669 6.350689
" />
<path d="M9.291669 6.350689
L9.339288 6.398308
" />
<path d="M9.339288 6.398308
L9.386907 6.493546
" />
<path d="M9.386907 6.493546
L9.386907 6.636403
" />
<path d="M9.386907 6.636403
L9.339288 6.731641
" />
<path d="M9.339288 6.731641
L9.291669 6.779260
" />
<path d="M9.291669 6.779260
L9.196431 6.826879
" />
<path d="M9.196431 6.826879
L8.815479 6.826879
" />
<path d="M9.815479 6.779260
L10.148812 6.779260
" />
<path d="M10.291669 7.303070
L9.815479 7.303070
" />
<path d="M9.815479 7.303070
L9.815479 6.303070
" />
<path d="M9.815479 6.303070
L10.291669 6.303070
" />
<path d="M11.053573 6.779260
L10.720240 6.779260
" />
<path d="M10.720240 7.303070
L10.720240 6.303070
" />
<path d="M10.720240 6.303070
L11.196430 6.303070
" />
<path d="M11.720240 6.303070
L11.720240 6.541165
" />
<path d="M11.482145 6.445927
L11.720240 6.541165
" />
<path d="M11.720240 6.541165
L11.958335 6.445927
" />
<path d="M11.577383 6.731641
L11.720240 6.541165
" />
<path d="M11.720240 6.541165
L11.863097 6.731641
" />
<path d="M12.482145 6.303070
L12.482145 6.541165
" />
<path d="M12.244050 6.445927
L12.482145 6.541165
" />
<path d="M12.482145 6.541165
L12.720240 6.445927
" />
<path d="M12.339288 6.731641
L12.482145 6.541165
" />
<path d="M12.482145 6.541165
L12.625002 6.731641
" />
</g></g>
<g style="fill:none; 
stroke:#000000; stroke-width:0.100000; stroke-opacity:1; 
stroke-linecap:round; stroke-linejoin:round;">
<path d="M6.170240 8.848250
L6.170240 2.548250
" />
<path d="M6.470240 2.548250
L6.170240 2.548250
" />
<path d="M6.470240 8.548250
L6.470240 2.548250
" />
<path d="M8.170240 11.948250
L13.270240 11.948250
" />
<path d="M8.170240 12.948250
L8.170240 8.848250
" />
<path d="M13.270240 8.848250
L13.270240 12.948250
" />
<path d="M13.270240 12.948250
L8.170240 12.948250
" />
<path d="M14.970240 2.548250
L14.970240 8.548250
" />
<path d="M14.970240 8.548250
L6.470240 8.548250
" />
<path d="M15.270240 2.548250
L14.970240 2.548250
" />
<path d="M15.270240 8.848250
L6.170240 8.848250
" />
<path d="M15.270240 8.848250
L15.270240 2.548250
" />
</g>
<g style="fill:none; 
stroke:#000000; stroke-width:0.500000; stroke-opacity:1; 
stroke-linecap:round; stroke-linejoin:round;">
<path d="M6.275240 6.198250
L6.275240 5.398250
" />
<path d="M10.320240 8.848250
L11.120240 8.848250
" />
<path d="M15.165240 6.198250
L15.165240 5.398250
" />
</g> 
</svg>
