<?xml version="1.0" standalone="no"?>
 <!DOCTYPE svg PUBLIC "-//W3C//DTD SVG 1.1//EN" 
 "http://www.w3.org/Graphics/SVG/1.1/DTD/svg11.dtd"> 
<svg
  xmlns:svg="http://www.w3.org/2000/svg"
  xmlns="http://www.w3.org/2000/svg"
  xmlns:xlink="http://www.w3.org/1999/xlink"
  xmlns:inkscape="http://www.inkscape.org/namespaces/inkscape"
  version="1.1"
  width="21.437600mm" height="15.189200mm" viewBox="0.000000 0.000000 21.437600 15.189200">
<title>SVG Image created as BatteryHolder_Keystone_590.svg date 2026-04-21T00:15:15 </title>
  <desc>Image generated by PCBNEW </desc>
<g style="fill:#000000; fill-opacity:1.000000;stroke:#000000; stroke-opacity:1.000000;
stroke-linecap:round; stroke-linejoin:round;"
 transform="translate(0 0) scale(1 1)">
</g>
<g style="fill:none; 
stroke:#000000; stroke-width:0.050000; stroke-opacity:1; 
stroke-linecap:round; stroke-linejoin:round;">
<path d="M4.970240 2.048250
L7.370240 2.048250
" />
<path d="M4.970240 9.348250
L4.970240 2.048250
" />
<path d="M7.370240 7.648250
L7.370240 2.048250
" />
<path d="M7.670240 9.348250
L4.970240 9.348250
" />
<path d="M7.670240 13.448250
L7.670240 9.348250
" />
<path d="M13.770240 9.348250
L13.770240 13.448250
" />
<path d="M13.770240 9.348250
L16.470240 9.348250
" />
<path d="M13.770240 13.448250
L7.670240 13.448250
" />
<path d="M14.070240 2.048250
L16.470240 2.048250
" />
<path d="M14.070240 7.648250
L7.370240 7.648250
" />
<path d="M14.070240 7.648250
L14.070240 2.048250
" />
<path d="M16.470240 2.048250
L16.470240 9.348250
" />
</g>
<g style="fill:none; 
stroke:#000000; stroke-width:1.400000; stroke-opacity:1; 
stroke-linecap:round; stroke-linejoin:round;">
<path d="M6.275240 6.048250
L6.275240 5.548250
" />
<path d="M10.470240 8.848250
L10.970240 8.848250
" />
<path d="M15.165240 6.048250
L15.165240 5.548250
" />
<path d="M6.275240 6.048250
L6.275240 5.548250
" />
<path d="M10.470240 8.848250
L10.970240 8.848250
" />
<path d="M15.165240 6.048250
L15.165240 5.548250
" />
</g>
<g style="fill:none; 
stroke:#FFFFFF; stroke-width:0.500000; stroke-opacity:1; 
stroke-linecap:round; stroke-linejoin:round;">
<path d="M6.275240 6.198250
L6.275240 5.398250
" />
</g>
<g style="fill:none; 
stroke:#FFFFFF; stroke-width:0.500000; stroke-opacity:1; 
stroke-linecap:round; stroke-linejoin:round;">
<path d="M10.320240 8.848250
L11.120240 8.848250
" />
</g>
<g style="fill:none; 
stroke:#FFFFFF; stroke-width:0.500000; stroke-opacity:1; 
stroke-linecap:round; stroke-linejoin:round;">
<path d="M15.165240 6.198250
L15.165240 5.398250
" />
</g> 
</svg>
