<?xml version="1.0" standalone="no"?>
 <!DOCTYPE svg PUBLIC "-//W3C//DTD SVG 1.1//EN" 
 "http://www.w3.org/Graphics/SVG/1.1/DTD/svg11.dtd"> 
<svg
  xmlns:svg="http://www.w3.org/2000/svg"
  xmlns="http://www.w3.org/2000/svg"
  xmlns:xlink="http://www.w3.org/1999/xlink"
  xmlns:inkscape="http://www.inkscape.org/namespaces/inkscape"
  version="1.1"
  width="33.477200mm" height="23.672800mm" viewBox="0.000000 0.000000 33.477200 23.672800">
<title>SVG Image created as Jack_6.35mm_Neutrik_NMJ6HCD2_Horizontal.svg date 2026-04-21T17:26:46 </title>
  <desc>Image generated by PCBNEW </desc>
<g style="fill:#000000; fill-opacity:1.000000;stroke:#000000; stroke-opacity:1.000000;
stroke-linecap:round; stroke-linejoin:round;"
 transform="translate(0 0) scale(1 1)">
</g>
<g style="fill:none; 
stroke:#000000; stroke-width:0.150000; stroke-opacity:1; 
stroke-linecap:round; stroke-linejoin:round;">
<text x="16.744049" y="23.348250"
textLength="33.488098" font-size="1.333333" lengthAdjust="spacingAndGlyphs"
text-anchor="middle" opacity="0" stroke-opacity="0">Jack_6.35mm_Neutrik_NMJ6HCD2_Horizontal</text>
<g class="stroked-text"><desc>Jack_6.35mm_Neutrik_NMJ6HCD2_Horizontal</desc>
<path d="M0.648810 22.303069
L0.648810 23.017354
" />
<path d="M0.648810 23.017354
L0.601191 23.160211
" />
<path d="M0.601191 23.160211
L0.505953 23.255450
" />
<path d="M0.505953 23.255450
L0.363096 23.303069
" />
<path d="M0.363096 23.303069
L0.267858 23.303069
" />
<path d="M1.553572 23.303069
L1.553572 22.779259
" />
<path d="M1.553572 22.779259
L1.505953 22.684021
" />
<path d="M1.505953 22.684021
L1.410715 22.636402
" />
<path d="M1.410715 22.636402
L1.220239 22.636402
" />
<path d="M1.220239 22.636402
L1.125001 22.684021
" />
<path d="M1.553572 23.255450
L1.458334 23.303069
" />
<path d="M1.458334 23.303069
L1.220239 23.303069
" />
<path d="M1.220239 23.303069
L1.125001 23.255450
" />
<path d="M1.125001 23.255450
L1.077382 23.160211
" />
<path d="M1.077382 23.160211
L1.077382 23.064973
" />
<path d="M1.077382 23.064973
L1.125001 22.969735
" />
<path d="M1.125001 22.969735
L1.220239 22.922116
" />
<path d="M1.220239 22.922116
L1.458334 22.922116
" />
<path d="M1.458334 22.922116
L1.553572 22.874497
" />
<path d="M2.458334 23.255450
L2.363096 23.303069
" />
<path d="M2.363096 23.303069
L2.172620 23.303069
" />
<path d="M2.172620 23.303069
L2.077382 23.255450
" />
<path d="M2.077382 23.255450
L2.029763 23.207830
" />
<path d="M2.029763 23.207830
L1.982144 23.112592
" />
<path d="M1.982144 23.112592
L1.982144 22.826878
" />
<path d="M1.982144 22.826878
L2.029763 22.731640
" />
<path d="M2.029763 22.731640
L2.077382 22.684021
" />
<path d="M2.077382 22.684021
L2.172620 22.636402
" />
<path d="M2.172620 22.636402
L2.363096 22.636402
" />
<path d="M2.363096 22.636402
L2.458334 22.684021
" />
<path d="M2.886906 23.303069
L2.886906 22.303069
" />
<path d="M2.982144 22.922116
L3.267858 23.303069
" />
<path d="M3.267858 22.636402
L2.886906 23.017354
" />
<path d="M3.458334 23.398307
L4.220239 23.398307
" />
<path d="M4.886906 22.303069
L4.696430 22.303069
" />
<path d="M4.696430 22.303069
L4.601192 22.350688
" />
<path d="M4.601192 22.350688
L4.553573 22.398307
" />
<path d="M4.553573 22.398307
L4.458335 22.541164
" />
<path d="M4.458335 22.541164
L4.410716 22.731640
" />
<path d="M4.410716 22.731640
L4.410716 23.112592
" />
<path d="M4.410716 23.112592
L4.458335 23.207830
" />
<path d="M4.458335 23.207830
L4.505954 23.255450
" />
<path d="M4.505954 23.255450
L4.601192 23.303069
" />
<path d="M4.601192 23.303069
L4.791668 23.303069
" />
<path d="M4.791668 23.303069
L4.886906 23.255450
" />
<path d="M4.886906 23.255450
L4.934525 23.207830
" />
<path d="M4.934525 23.207830
L4.982144 23.112592
" />
<path d="M4.982144 23.112592
L4.982144 22.874497
" />
<path d="M4.982144 22.874497
L4.934525 22.779259
" />
<path d="M4.934525 22.779259
L4.886906 22.731640
" />
<path d="M4.886906 22.731640
L4.791668 22.684021
" />
<path d="M4.791668 22.684021
L4.601192 22.684021
" />
<path d="M4.601192 22.684021
L4.505954 22.731640
" />
<path d="M4.505954 22.731640
L4.458335 22.779259
" />
<path d="M4.458335 22.779259
L4.410716 22.874497
" />
<path d="M5.410716 23.207830
L5.458335 23.255450
" />
<path d="M5.458335 23.255450
L5.410716 23.303069
" />
<path d="M5.410716 23.303069
L5.363097 23.255450
" />
<path d="M5.363097 23.255450
L5.410716 23.207830
" />
<path d="M5.410716 23.207830
L5.410716 23.303069
" />
<path d="M5.791668 22.303069
L6.410715 22.303069
" />
<path d="M6.410715 22.303069
L6.077382 22.684021
" />
<path d="M6.077382 22.684021
L6.220239 22.684021
" />
<path d="M6.220239 22.684021
L6.315477 22.731640
" />
<path d="M6.315477 22.731640
L6.363096 22.779259
" />
<path d="M6.363096 22.779259
L6.410715 22.874497
" />
<path d="M6.410715 22.874497
L6.410715 23.112592
" />
<path d="M6.410715 23.112592
L6.363096 23.207830
" />
<path d="M6.363096 23.207830
L6.315477 23.255450
" />
<path d="M6.315477 23.255450
L6.220239 23.303069
" />
<path d="M6.220239 23.303069
L5.934525 23.303069
" />
<path d="M5.934525 23.303069
L5.839287 23.255450
" />
<path d="M5.839287 23.255450
L5.791668 23.207830
" />
<path d="M7.315477 22.303069
L6.839287 22.303069
" />
<path d="M6.839287 22.303069
L6.791668 22.779259
" />
<path d="M6.791668 22.779259
L6.839287 22.731640
" />
<path d="M6.839287 22.731640
L6.934525 22.684021
" />
<path d="M6.934525 22.684021
L7.172620 22.684021
" />
<path d="M7.172620 22.684021
L7.267858 22.731640
" />
<path d="M7.267858 22.731640
L7.315477 22.779259
" />
<path d="M7.315477 22.779259
L7.363096 22.874497
" />
<path d="M7.363096 22.874497
L7.363096 23.112592
" />
<path d="M7.363096 23.112592
L7.315477 23.207830
" />
<path d="M7.315477 23.207830
L7.267858 23.255450
" />
<path d="M7.267858 23.255450
L7.172620 23.303069
" />
<path d="M7.172620 23.303069
L6.934525 23.303069
" />
<path d="M6.934525 23.303069
L6.839287 23.255450
" />
<path d="M6.839287 23.255450
L6.791668 23.207830
" />
<path d="M7.791668 23.303069
L7.791668 22.636402
" />
<path d="M7.791668 22.731640
L7.839287 22.684021
" />
<path d="M7.839287 22.684021
L7.934525 22.636402
" />
<path d="M7.934525 22.636402
L8.077382 22.636402
" />
<path d="M8.077382 22.636402
L8.172620 22.684021
" />
<path d="M8.172620 22.684021
L8.220239 22.779259
" />
<path d="M8.220239 22.779259
L8.220239 23.303069
" />
<path d="M8.220239 22.779259
L8.267858 22.684021
" />
<path d="M8.267858 22.684021
L8.363096 22.636402
" />
<path d="M8.363096 22.636402
L8.505953 22.636402
" />
<path d="M8.505953 22.636402
L8.601192 22.684021
" />
<path d="M8.601192 22.684021
L8.648811 22.779259
" />
<path d="M8.648811 22.779259
L8.648811 23.303069
" />
<path d="M9.125001 23.303069
L9.125001 22.636402
" />
<path d="M9.125001 22.731640
L9.172620 22.684021
" />
<path d="M9.172620 22.684021
L9.267858 22.636402
" />
<path d="M9.267858 22.636402
L9.410715 22.636402
" />
<path d="M9.410715 22.636402
L9.505953 22.684021
" />
<path d="M9.505953 22.684021
L9.553572 22.779259
" />
<path d="M9.553572 22.779259
L9.553572 23.303069
" />
<path d="M9.553572 22.779259
L9.601191 22.684021
" />
<path d="M9.601191 22.684021
L9.696429 22.636402
" />
<path d="M9.696429 22.636402
L9.839286 22.636402
" />
<path d="M9.839286 22.636402
L9.934525 22.684021
" />
<path d="M9.934525 22.684021
L9.982144 22.779259
" />
<path d="M9.982144 22.779259
L9.982144 23.303069
" />
<path d="M10.220238 23.398307
L10.982142 23.398307
" />
<path d="M11.220238 23.303069
L11.220238 22.303069
" />
<path d="M11.220238 22.303069
L11.791666 23.303069
" />
<path d="M11.791666 23.303069
L11.791666 22.303069
" />
<path d="M12.648809 23.255450
L12.553571 23.303069
" />
<path d="M12.553571 23.303069
L12.363095 23.303069
" />
<path d="M12.363095 23.303069
L12.267857 23.255450
" />
<path d="M12.267857 23.255450
L12.220238 23.160211
" />
<path d="M12.220238 23.160211
L12.220238 22.779259
" />
<path d="M12.220238 22.779259
L12.267857 22.684021
" />
<path d="M12.267857 22.684021
L12.363095 22.636402
" />
<path d="M12.363095 22.636402
L12.553571 22.636402
" />
<path d="M12.553571 22.636402
L12.648809 22.684021
" />
<path d="M12.648809 22.684021
L12.696428 22.779259
" />
<path d="M12.696428 22.779259
L12.696428 22.874497
" />
<path d="M12.696428 22.874497
L12.220238 22.969735
" />
<path d="M13.553571 22.636402
L13.553571 23.303069
" />
<path d="M13.125000 22.636402
L13.125000 23.160211
" />
<path d="M13.125000 23.160211
L13.172619 23.255450
" />
<path d="M13.172619 23.255450
L13.267857 23.303069
" />
<path d="M13.267857 23.303069
L13.410714 23.303069
" />
<path d="M13.410714 23.303069
L13.505952 23.255450
" />
<path d="M13.505952 23.255450
L13.553571 23.207830
" />
<path d="M13.886905 22.636402
L14.267857 22.636402
" />
<path d="M14.029762 22.303069
L14.029762 23.160211
" />
<path d="M14.029762 23.160211
L14.077381 23.255450
" />
<path d="M14.077381 23.255450
L14.172619 23.303069
" />
<path d="M14.172619 23.303069
L14.267857 23.303069
" />
<path d="M14.601191 23.303069
L14.601191 22.636402
" />
<path d="M14.601191 22.826878
L14.648810 22.731640
" />
<path d="M14.648810 22.731640
L14.696429 22.684021
" />
<path d="M14.696429 22.684021
L14.791667 22.636402
" />
<path d="M14.791667 22.636402
L14.886905 22.636402
" />
<path d="M15.220239 23.303069
L15.220239 22.636402
" />
<path d="M15.220239 22.303069
L15.172620 22.350688
" />
<path d="M15.172620 22.350688
L15.220239 22.398307
" />
<path d="M15.220239 22.398307
L15.267858 22.350688
" />
<path d="M15.267858 22.350688
L15.220239 22.303069
" />
<path d="M15.220239 22.303069
L15.220239 22.398307
" />
<path d="M15.696429 23.303069
L15.696429 22.303069
" />
<path d="M15.791667 22.922116
L16.077381 23.303069
" />
<path d="M16.077381 22.636402
L15.696429 23.017354
" />
<path d="M16.267858 23.398307
L17.029762 23.398307
" />
<path d="M17.267858 23.303069
L17.267858 22.303069
" />
<path d="M17.267858 22.303069
L17.839286 23.303069
" />
<path d="M17.839286 23.303069
L17.839286 22.303069
" />
<path d="M18.315477 23.303069
L18.315477 22.303069
" />
<path d="M18.315477 22.303069
L18.648810 23.017354
" />
<path d="M18.648810 23.017354
L18.982143 22.303069
" />
<path d="M18.982143 22.303069
L18.982143 23.303069
" />
<path d="M19.744048 22.303069
L19.744048 23.017354
" />
<path d="M19.744048 23.017354
L19.696429 23.160211
" />
<path d="M19.696429 23.160211
L19.601191 23.255450
" />
<path d="M19.601191 23.255450
L19.458334 23.303069
" />
<path d="M19.458334 23.303069
L19.363096 23.303069
" />
<path d="M20.648810 22.303069
L20.458334 22.303069
" />
<path d="M20.458334 22.303069
L20.363096 22.350688
" />
<path d="M20.363096 22.350688
L20.315477 22.398307
" />
<path d="M20.315477 22.398307
L20.220239 22.541164
" />
<path d="M20.220239 22.541164
L20.172620 22.731640
" />
<path d="M20.172620 22.731640
L20.172620 23.112592
" />
<path d="M20.172620 23.112592
L20.220239 23.207830
" />
<path d="M20.220239 23.207830
L20.267858 23.255450
" />
<path d="M20.267858 23.255450
L20.363096 23.303069
" />
<path d="M20.363096 23.303069
L20.553572 23.303069
" />
<path d="M20.553572 23.303069
L20.648810 23.255450
" />
<path d="M20.648810 23.255450
L20.696429 23.207830
" />
<path d="M20.696429 23.207830
L20.744048 23.112592
" />
<path d="M20.744048 23.112592
L20.744048 22.874497
" />
<path d="M20.744048 22.874497
L20.696429 22.779259
" />
<path d="M20.696429 22.779259
L20.648810 22.731640
" />
<path d="M20.648810 22.731640
L20.553572 22.684021
" />
<path d="M20.553572 22.684021
L20.363096 22.684021
" />
<path d="M20.363096 22.684021
L20.267858 22.731640
" />
<path d="M20.267858 22.731640
L20.220239 22.779259
" />
<path d="M20.220239 22.779259
L20.172620 22.874497
" />
<path d="M21.172620 23.303069
L21.172620 22.303069
" />
<path d="M21.172620 22.779259
L21.744048 22.779259
" />
<path d="M21.744048 23.303069
L21.744048 22.303069
" />
<path d="M22.791667 23.207830
L22.744048 23.255450
" />
<path d="M22.744048 23.255450
L22.601191 23.303069
" />
<path d="M22.601191 23.303069
L22.505953 23.303069
" />
<path d="M22.505953 23.303069
L22.363096 23.255450
" />
<path d="M22.363096 23.255450
L22.267858 23.160211
" />
<path d="M22.267858 23.160211
L22.220239 23.064973
" />
<path d="M22.220239 23.064973
L22.172620 22.874497
" />
<path d="M22.172620 22.874497
L22.172620 22.731640
" />
<path d="M22.172620 22.731640
L22.220239 22.541164
" />
<path d="M22.220239 22.541164
L22.267858 22.445926
" />
<path d="M22.267858 22.445926
L22.363096 22.350688
" />
<path d="M22.363096 22.350688
L22.505953 22.303069
" />
<path d="M22.505953 22.303069
L22.601191 22.303069
" />
<path d="M22.601191 22.303069
L22.744048 22.350688
" />
<path d="M22.744048 22.350688
L22.791667 22.398307
" />
<path d="M23.220239 23.303069
L23.220239 22.303069
" />
<path d="M23.220239 22.303069
L23.458334 22.303069
" />
<path d="M23.458334 22.303069
L23.601191 22.350688
" />
<path d="M23.601191 22.350688
L23.696429 22.445926
" />
<path d="M23.696429 22.445926
L23.744048 22.541164
" />
<path d="M23.744048 22.541164
L23.791667 22.731640
" />
<path d="M23.791667 22.731640
L23.791667 22.874497
" />
<path d="M23.791667 22.874497
L23.744048 23.064973
" />
<path d="M23.744048 23.064973
L23.696429 23.160211
" />
<path d="M23.696429 23.160211
L23.601191 23.255450
" />
<path d="M23.601191 23.255450
L23.458334 23.303069
" />
<path d="M23.458334 23.303069
L23.220239 23.303069
" />
<path d="M24.172620 22.398307
L24.220239 22.350688
" />
<path d="M24.220239 22.350688
L24.315477 22.303069
" />
<path d="M24.315477 22.303069
L24.553572 22.303069
" />
<path d="M24.553572 22.303069
L24.648810 22.350688
" />
<path d="M24.648810 22.350688
L24.696429 22.398307
" />
<path d="M24.696429 22.398307
L24.744048 22.493545
" />
<path d="M24.744048 22.493545
L24.744048 22.588783
" />
<path d="M24.744048 22.588783
L24.696429 22.731640
" />
<path d="M24.696429 22.731640
L24.125001 23.303069
" />
<path d="M24.125001 23.303069
L24.744048 23.303069
" />
<path d="M24.934525 23.398307
L25.696429 23.398307
" />
<path d="M25.934525 23.303069
L25.934525 22.303069
" />
<path d="M25.934525 22.779259
L26.505953 22.779259
" />
<path d="M26.505953 23.303069
L26.505953 22.303069
" />
<path d="M27.125001 23.303069
L27.029763 23.255450
" />
<path d="M27.029763 23.255450
L26.982144 23.207830
" />
<path d="M26.982144 23.207830
L26.934525 23.112592
" />
<path d="M26.934525 23.112592
L26.934525 22.826878
" />
<path d="M26.934525 22.826878
L26.982144 22.731640
" />
<path d="M26.982144 22.731640
L27.029763 22.684021
" />
<path d="M27.029763 22.684021
L27.125001 22.636402
" />
<path d="M27.125001 22.636402
L27.267858 22.636402
" />
<path d="M27.267858 22.636402
L27.363096 22.684021
" />
<path d="M27.363096 22.684021
L27.410715 22.731640
" />
<path d="M27.410715 22.731640
L27.458334 22.826878
" />
<path d="M27.458334 22.826878
L27.458334 23.112592
" />
<path d="M27.458334 23.112592
L27.410715 23.207830
" />
<path d="M27.410715 23.207830
L27.363096 23.255450
" />
<path d="M27.363096 23.255450
L27.267858 23.303069
" />
<path d="M27.267858 23.303069
L27.125001 23.303069
" />
<path d="M27.886906 23.303069
L27.886906 22.636402
" />
<path d="M27.886906 22.826878
L27.934525 22.731640
" />
<path d="M27.934525 22.731640
L27.982144 22.684021
" />
<path d="M27.982144 22.684021
L28.077382 22.636402
" />
<path d="M28.077382 22.636402
L28.172620 22.636402
" />
<path d="M28.505954 23.303069
L28.505954 22.636402
" />
<path d="M28.505954 22.303069
L28.458335 22.350688
" />
<path d="M28.458335 22.350688
L28.505954 22.398307
" />
<path d="M28.505954 22.398307
L28.553573 22.350688
" />
<path d="M28.553573 22.350688
L28.505954 22.303069
" />
<path d="M28.505954 22.303069
L28.505954 22.398307
" />
<path d="M28.886906 22.636402
L29.410715 22.636402
" />
<path d="M29.410715 22.636402
L28.886906 23.303069
" />
<path d="M28.886906 23.303069
L29.410715 23.303069
" />
<path d="M29.934525 23.303069
L29.839287 23.255450
" />
<path d="M29.839287 23.255450
L29.791668 23.207830
" />
<path d="M29.791668 23.207830
L29.744049 23.112592
" />
<path d="M29.744049 23.112592
L29.744049 22.826878
" />
<path d="M29.744049 22.826878
L29.791668 22.731640
" />
<path d="M29.791668 22.731640
L29.839287 22.684021
" />
<path d="M29.839287 22.684021
L29.934525 22.636402
" />
<path d="M29.934525 22.636402
L30.077382 22.636402
" />
<path d="M30.077382 22.636402
L30.172620 22.684021
" />
<path d="M30.172620 22.684021
L30.220239 22.731640
" />
<path d="M30.220239 22.731640
L30.267858 22.826878
" />
<path d="M30.267858 22.826878
L30.267858 23.112592
" />
<path d="M30.267858 23.112592
L30.220239 23.207830
" />
<path d="M30.220239 23.207830
L30.172620 23.255450
" />
<path d="M30.172620 23.255450
L30.077382 23.303069
" />
<path d="M30.077382 23.303069
L29.934525 23.303069
" />
<path d="M30.696430 22.636402
L30.696430 23.303069
" />
<path d="M30.696430 22.731640
L30.744049 22.684021
" />
<path d="M30.744049 22.684021
L30.839287 22.636402
" />
<path d="M30.839287 22.636402
L30.982144 22.636402
" />
<path d="M30.982144 22.636402
L31.077382 22.684021
" />
<path d="M31.077382 22.684021
L31.125001 22.779259
" />
<path d="M31.125001 22.779259
L31.125001 23.303069
" />
<path d="M31.458335 22.636402
L31.839287 22.636402
" />
<path d="M31.601192 22.303069
L31.601192 23.160211
" />
<path d="M31.601192 23.160211
L31.648811 23.255450
" />
<path d="M31.648811 23.255450
L31.744049 23.303069
" />
<path d="M31.744049 23.303069
L31.839287 23.303069
" />
<path d="M32.601192 23.303069
L32.601192 22.779259
" />
<path d="M32.601192 22.779259
L32.553573 22.684021
" />
<path d="M32.553573 22.684021
L32.458335 22.636402
" />
<path d="M32.458335 22.636402
L32.267859 22.636402
" />
<path d="M32.267859 22.636402
L32.172621 22.684021
" />
<path d="M32.601192 23.255450
L32.505954 23.303069
" />
<path d="M32.505954 23.303069
L32.267859 23.303069
" />
<path d="M32.267859 23.303069
L32.172621 23.255450
" />
<path d="M32.172621 23.255450
L32.125002 23.160211
" />
<path d="M32.125002 23.160211
L32.125002 23.064973
" />
<path d="M32.125002 23.064973
L32.172621 22.969735
" />
<path d="M32.172621 22.969735
L32.267859 22.922116
" />
<path d="M32.267859 22.922116
L32.505954 22.922116
" />
<path d="M32.505954 22.922116
L32.601192 22.874497
" />
<path d="M33.220240 23.303069
L33.125002 23.255450
" />
<path d="M33.125002 23.255450
L33.077383 23.160211
" />
<path d="M33.077383 23.160211
L33.077383 22.303069
" />
</g><text x="16.744049" y="12.463250"
textLength="4.535715" font-size="1.333333" lengthAdjust="spacingAndGlyphs"
text-anchor="middle" opacity="0" stroke-opacity="0">REF**</text>
<g class="stroked-text"><desc>REF**</desc>
<path d="M15.410715 12.418069
L15.077382 11.941878
" />
<path d="M14.839287 12.418069
L14.839287 11.418069
" />
<path d="M14.839287 11.418069
L15.220239 11.418069
" />
<path d="M15.220239 11.418069
L15.315477 11.465688
" />
<path d="M15.315477 11.465688
L15.363096 11.513307
" />
<path d="M15.363096 11.513307
L15.410715 11.608545
" />
<path d="M15.410715 11.608545
L15.410715 11.751402
" />
<path d="M15.410715 11.751402
L15.363096 11.846640
" />
<path d="M15.363096 11.846640
L15.315477 11.894259
" />
<path d="M15.315477 11.894259
L15.220239 11.941878
" />
<path d="M15.220239 11.941878
L14.839287 11.941878
" />
<path d="M15.839287 11.894259
L16.172620 11.894259
" />
<path d="M16.315477 12.418069
L15.839287 12.418069
" />
<path d="M15.839287 12.418069
L15.839287 11.418069
" />
<path d="M15.839287 11.418069
L16.315477 11.418069
" />
<path d="M17.077382 11.894259
L16.744049 11.894259
" />
<path d="M16.744049 12.418069
L16.744049 11.418069
" />
<path d="M16.744049 11.418069
L17.220239 11.418069
" />
<path d="M17.744049 11.418069
L17.744049 11.656164
" />
<path d="M17.505954 11.560926
L17.744049 11.656164
" />
<path d="M17.744049 11.656164
L17.982144 11.560926
" />
<path d="M17.601192 11.846640
L17.744049 11.656164
" />
<path d="M17.744049 11.656164
L17.886906 11.846640
" />
<path d="M18.505954 11.418069
L18.505954 11.656164
" />
<path d="M18.267859 11.560926
L18.505954 11.656164
" />
<path d="M18.505954 11.656164
L18.744049 11.560926
" />
<path d="M18.363097 11.846640
L18.505954 11.656164
" />
<path d="M18.505954 11.656164
L18.648811 11.846640
" />
</g></g>
<g style="fill:none; 
stroke:#000000; stroke-width:0.100000; stroke-opacity:1; 
stroke-linecap:round; stroke-linejoin:round;">
<path d="M3.564049 7.613250
L6.484049 7.613250
" />
<path d="M3.564049 16.313250
L3.564049 7.613250
" />
<path d="M3.564049 16.313250
L6.484049 16.313250
" />
<path d="M6.484049 21.063250
L6.484049 2.863250
" />
<path d="M27.094049 2.863250
L6.484049 2.863250
" />
<path d="M27.094049 21.063250
L6.484049 21.063250
" />
<path d="M27.094049 21.063250
L27.094049 2.863250
" />
<path d="M30.094049 6.263250
L27.094049 6.263250
" />
<path d="M30.094049 17.663250
L27.094049 17.663250
" />
<path d="M30.094049 17.663250
L30.094049 6.263250
" />
</g>
<g style="fill:#000000; fill-opacity:1.000000; stroke:none;">
<circle cx="16.744049" cy="3.848250" r="0.700000" /> 
<circle cx="16.744049" cy="20.078250" r="0.700000" /> 
<circle cx="23.094049" cy="3.848250" r="0.700000" /> 
<circle cx="23.094049" cy="20.078250" r="0.700000" /> 
<circle cx="10.394049" cy="3.848250" r="0.700000" /> 
<circle cx="10.394049" cy="20.078250" r="0.700000" /> 
</g> 
</svg>
