<?xml version="1.0" standalone="no"?>
 <!DOCTYPE svg PUBLIC "-//W3C//DTD SVG 1.1//EN" 
 "http://www.w3.org/Graphics/SVG/1.1/DTD/svg11.dtd"> 
<svg
  xmlns:svg="http://www.w3.org/2000/svg"
  xmlns="http://www.w3.org/2000/svg"
  xmlns:xlink="http://www.w3.org/1999/xlink"
  xmlns:inkscape="http://www.inkscape.org/namespaces/inkscape"
  version="1.1"
  width="34.417000mm" height="7.188200mm" viewBox="0.000000 0.000000 34.417000 7.188200">
<title>SVG Image created as TestPoint_Keystone_5010-5014_Multipurpose.svg date 2026-04-21T17:27:03 </title>
  <desc>Image generated by PCBNEW </desc>
<g style="fill:#000000; fill-opacity:1.000000;stroke:#000000; stroke-opacity:1.000000;
stroke-linecap:round; stroke-linejoin:round;"
 transform="translate(0 0) scale(1 1)">
</g>
<g style="fill:none; 
stroke:#000000; stroke-width:0.150000; stroke-opacity:1; 
stroke-linecap:round; stroke-linejoin:round;">
<text x="17.220240" y="6.848250"
textLength="34.440481" font-size="1.333333" lengthAdjust="spacingAndGlyphs"
text-anchor="middle" opacity="0" stroke-opacity="0">TestPoint_Keystone_5010-5014_Multipurpose</text>
<g class="stroked-text"><desc>TestPoint_Keystone_5010-5014_Multipurpose</desc>
<path d="M0.220239 5.803069
L0.791667 5.803069
" />
<path d="M0.505953 6.803069
L0.505953 5.803069
" />
<path d="M1.505953 6.755450
L1.410715 6.803069
" />
<path d="M1.410715 6.803069
L1.220239 6.803069
" />
<path d="M1.220239 6.803069
L1.125001 6.755450
" />
<path d="M1.125001 6.755450
L1.077382 6.660211
" />
<path d="M1.077382 6.660211
L1.077382 6.279259
" />
<path d="M1.077382 6.279259
L1.125001 6.184021
" />
<path d="M1.125001 6.184021
L1.220239 6.136402
" />
<path d="M1.220239 6.136402
L1.410715 6.136402
" />
<path d="M1.410715 6.136402
L1.505953 6.184021
" />
<path d="M1.505953 6.184021
L1.553572 6.279259
" />
<path d="M1.553572 6.279259
L1.553572 6.374497
" />
<path d="M1.553572 6.374497
L1.077382 6.469735
" />
<path d="M1.934525 6.755450
L2.029763 6.803069
" />
<path d="M2.029763 6.803069
L2.220239 6.803069
" />
<path d="M2.220239 6.803069
L2.315477 6.755450
" />
<path d="M2.315477 6.755450
L2.363096 6.660211
" />
<path d="M2.363096 6.660211
L2.363096 6.612592
" />
<path d="M2.363096 6.612592
L2.315477 6.517354
" />
<path d="M2.315477 6.517354
L2.220239 6.469735
" />
<path d="M2.220239 6.469735
L2.077382 6.469735
" />
<path d="M2.077382 6.469735
L1.982144 6.422116
" />
<path d="M1.982144 6.422116
L1.934525 6.326878
" />
<path d="M1.934525 6.326878
L1.934525 6.279259
" />
<path d="M1.934525 6.279259
L1.982144 6.184021
" />
<path d="M1.982144 6.184021
L2.077382 6.136402
" />
<path d="M2.077382 6.136402
L2.220239 6.136402
" />
<path d="M2.220239 6.136402
L2.315477 6.184021
" />
<path d="M2.648811 6.136402
L3.029763 6.136402
" />
<path d="M2.791668 5.803069
L2.791668 6.660211
" />
<path d="M2.791668 6.660211
L2.839287 6.755450
" />
<path d="M2.839287 6.755450
L2.934525 6.803069
" />
<path d="M2.934525 6.803069
L3.029763 6.803069
" />
<path d="M3.363097 6.803069
L3.363097 5.803069
" />
<path d="M3.363097 5.803069
L3.744049 5.803069
" />
<path d="M3.744049 5.803069
L3.839287 5.850688
" />
<path d="M3.839287 5.850688
L3.886906 5.898307
" />
<path d="M3.886906 5.898307
L3.934525 5.993545
" />
<path d="M3.934525 5.993545
L3.934525 6.136402
" />
<path d="M3.934525 6.136402
L3.886906 6.231640
" />
<path d="M3.886906 6.231640
L3.839287 6.279259
" />
<path d="M3.839287 6.279259
L3.744049 6.326878
" />
<path d="M3.744049 6.326878
L3.363097 6.326878
" />
<path d="M4.505954 6.803069
L4.410716 6.755450
" />
<path d="M4.410716 6.755450
L4.363097 6.707830
" />
<path d="M4.363097 6.707830
L4.315478 6.612592
" />
<path d="M4.315478 6.612592
L4.315478 6.326878
" />
<path d="M4.315478 6.326878
L4.363097 6.231640
" />
<path d="M4.363097 6.231640
L4.410716 6.184021
" />
<path d="M4.410716 6.184021
L4.505954 6.136402
" />
<path d="M4.505954 6.136402
L4.648811 6.136402
" />
<path d="M4.648811 6.136402
L4.744049 6.184021
" />
<path d="M4.744049 6.184021
L4.791668 6.231640
" />
<path d="M4.791668 6.231640
L4.839287 6.326878
" />
<path d="M4.839287 6.326878
L4.839287 6.612592
" />
<path d="M4.839287 6.612592
L4.791668 6.707830
" />
<path d="M4.791668 6.707830
L4.744049 6.755450
" />
<path d="M4.744049 6.755450
L4.648811 6.803069
" />
<path d="M4.648811 6.803069
L4.505954 6.803069
" />
<path d="M5.267859 6.803069
L5.267859 6.136402
" />
<path d="M5.267859 5.803069
L5.220240 5.850688
" />
<path d="M5.220240 5.850688
L5.267859 5.898307
" />
<path d="M5.267859 5.898307
L5.315478 5.850688
" />
<path d="M5.315478 5.850688
L5.267859 5.803069
" />
<path d="M5.267859 5.803069
L5.267859 5.898307
" />
<path d="M5.744049 6.136402
L5.744049 6.803069
" />
<path d="M5.744049 6.231640
L5.791668 6.184021
" />
<path d="M5.791668 6.184021
L5.886906 6.136402
" />
<path d="M5.886906 6.136402
L6.029763 6.136402
" />
<path d="M6.029763 6.136402
L6.125001 6.184021
" />
<path d="M6.125001 6.184021
L6.172620 6.279259
" />
<path d="M6.172620 6.279259
L6.172620 6.803069
" />
<path d="M6.505954 6.136402
L6.886906 6.136402
" />
<path d="M6.648811 5.803069
L6.648811 6.660211
" />
<path d="M6.648811 6.660211
L6.696430 6.755450
" />
<path d="M6.696430 6.755450
L6.791668 6.803069
" />
<path d="M6.791668 6.803069
L6.886906 6.803069
" />
<path d="M6.982144 6.898307
L7.744049 6.898307
" />
<path d="M7.982145 6.803069
L7.982145 5.803069
" />
<path d="M8.553573 6.803069
L8.125002 6.231640
" />
<path d="M8.553573 5.803069
L7.982145 6.374497
" />
<path d="M9.363097 6.755450
L9.267859 6.803069
" />
<path d="M9.267859 6.803069
L9.077383 6.803069
" />
<path d="M9.077383 6.803069
L8.982145 6.755450
" />
<path d="M8.982145 6.755450
L8.934526 6.660211
" />
<path d="M8.934526 6.660211
L8.934526 6.279259
" />
<path d="M8.934526 6.279259
L8.982145 6.184021
" />
<path d="M8.982145 6.184021
L9.077383 6.136402
" />
<path d="M9.077383 6.136402
L9.267859 6.136402
" />
<path d="M9.267859 6.136402
L9.363097 6.184021
" />
<path d="M9.363097 6.184021
L9.410716 6.279259
" />
<path d="M9.410716 6.279259
L9.410716 6.374497
" />
<path d="M9.410716 6.374497
L8.934526 6.469735
" />
<path d="M9.744050 6.136402
L9.982145 6.803069
" />
<path d="M10.220240 6.136402
L9.982145 6.803069
" />
<path d="M9.982145 6.803069
L9.886907 7.041164
" />
<path d="M9.886907 7.041164
L9.839288 7.088783
" />
<path d="M9.839288 7.088783
L9.744050 7.136402
" />
<path d="M10.553574 6.755450
L10.648812 6.803069
" />
<path d="M10.648812 6.803069
L10.839288 6.803069
" />
<path d="M10.839288 6.803069
L10.934526 6.755450
" />
<path d="M10.934526 6.755450
L10.982145 6.660211
" />
<path d="M10.982145 6.660211
L10.982145 6.612592
" />
<path d="M10.982145 6.612592
L10.934526 6.517354
" />
<path d="M10.934526 6.517354
L10.839288 6.469735
" />
<path d="M10.839288 6.469735
L10.696431 6.469735
" />
<path d="M10.696431 6.469735
L10.601193 6.422116
" />
<path d="M10.601193 6.422116
L10.553574 6.326878
" />
<path d="M10.553574 6.326878
L10.553574 6.279259
" />
<path d="M10.553574 6.279259
L10.601193 6.184021
" />
<path d="M10.601193 6.184021
L10.696431 6.136402
" />
<path d="M10.696431 6.136402
L10.839288 6.136402
" />
<path d="M10.839288 6.136402
L10.934526 6.184021
" />
<path d="M11.267860 6.136402
L11.648812 6.136402
" />
<path d="M11.410717 5.803069
L11.410717 6.660211
" />
<path d="M11.410717 6.660211
L11.458336 6.755450
" />
<path d="M11.458336 6.755450
L11.553574 6.803069
" />
<path d="M11.553574 6.803069
L11.648812 6.803069
" />
<path d="M12.125003 6.803069
L12.029765 6.755450
" />
<path d="M12.029765 6.755450
L11.982146 6.707830
" />
<path d="M11.982146 6.707830
L11.934527 6.612592
" />
<path d="M11.934527 6.612592
L11.934527 6.326878
" />
<path d="M11.934527 6.326878
L11.982146 6.231640
" />
<path d="M11.982146 6.231640
L12.029765 6.184021
" />
<path d="M12.029765 6.184021
L12.125003 6.136402
" />
<path d="M12.125003 6.136402
L12.267860 6.136402
" />
<path d="M12.267860 6.136402
L12.363098 6.184021
" />
<path d="M12.363098 6.184021
L12.410717 6.231640
" />
<path d="M12.410717 6.231640
L12.458336 6.326878
" />
<path d="M12.458336 6.326878
L12.458336 6.612592
" />
<path d="M12.458336 6.612592
L12.410717 6.707830
" />
<path d="M12.410717 6.707830
L12.363098 6.755450
" />
<path d="M12.363098 6.755450
L12.267860 6.803069
" />
<path d="M12.267860 6.803069
L12.125003 6.803069
" />
<path d="M12.886908 6.136402
L12.886908 6.803069
" />
<path d="M12.886908 6.231640
L12.934527 6.184021
" />
<path d="M12.934527 6.184021
L13.029765 6.136402
" />
<path d="M13.029765 6.136402
L13.172622 6.136402
" />
<path d="M13.172622 6.136402
L13.267860 6.184021
" />
<path d="M13.267860 6.184021
L13.315479 6.279259
" />
<path d="M13.315479 6.279259
L13.315479 6.803069
" />
<path d="M14.172622 6.755450
L14.077384 6.803069
" />
<path d="M14.077384 6.803069
L13.886908 6.803069
" />
<path d="M13.886908 6.803069
L13.791670 6.755450
" />
<path d="M13.791670 6.755450
L13.744051 6.660211
" />
<path d="M13.744051 6.660211
L13.744051 6.279259
" />
<path d="M13.744051 6.279259
L13.791670 6.184021
" />
<path d="M13.791670 6.184021
L13.886908 6.136402
" />
<path d="M13.886908 6.136402
L14.077384 6.136402
" />
<path d="M14.077384 6.136402
L14.172622 6.184021
" />
<path d="M14.172622 6.184021
L14.220241 6.279259
" />
<path d="M14.220241 6.279259
L14.220241 6.374497
" />
<path d="M14.220241 6.374497
L13.744051 6.469735
" />
<path d="M14.410717 6.898307
L15.172622 6.898307
" />
<path d="M15.886908 5.803069
L15.410718 5.803069
" />
<path d="M15.410718 5.803069
L15.363099 6.279259
" />
<path d="M15.363099 6.279259
L15.410718 6.231640
" />
<path d="M15.410718 6.231640
L15.505956 6.184021
" />
<path d="M15.505956 6.184021
L15.744051 6.184021
" />
<path d="M15.744051 6.184021
L15.839289 6.231640
" />
<path d="M15.839289 6.231640
L15.886908 6.279259
" />
<path d="M15.886908 6.279259
L15.934527 6.374497
" />
<path d="M15.934527 6.374497
L15.934527 6.612592
" />
<path d="M15.934527 6.612592
L15.886908 6.707830
" />
<path d="M15.886908 6.707830
L15.839289 6.755450
" />
<path d="M15.839289 6.755450
L15.744051 6.803069
" />
<path d="M15.744051 6.803069
L15.505956 6.803069
" />
<path d="M15.505956 6.803069
L15.410718 6.755450
" />
<path d="M15.410718 6.755450
L15.363099 6.707830
" />
<path d="M16.553575 5.803069
L16.648813 5.803069
" />
<path d="M16.648813 5.803069
L16.744051 5.850688
" />
<path d="M16.744051 5.850688
L16.791670 5.898307
" />
<path d="M16.791670 5.898307
L16.839289 5.993545
" />
<path d="M16.839289 5.993545
L16.886908 6.184021
" />
<path d="M16.886908 6.184021
L16.886908 6.422116
" />
<path d="M16.886908 6.422116
L16.839289 6.612592
" />
<path d="M16.839289 6.612592
L16.791670 6.707830
" />
<path d="M16.791670 6.707830
L16.744051 6.755450
" />
<path d="M16.744051 6.755450
L16.648813 6.803069
" />
<path d="M16.648813 6.803069
L16.553575 6.803069
" />
<path d="M16.553575 6.803069
L16.458337 6.755450
" />
<path d="M16.458337 6.755450
L16.410718 6.707830
" />
<path d="M16.410718 6.707830
L16.363099 6.612592
" />
<path d="M16.363099 6.612592
L16.315480 6.422116
" />
<path d="M16.315480 6.422116
L16.315480 6.184021
" />
<path d="M16.315480 6.184021
L16.363099 5.993545
" />
<path d="M16.363099 5.993545
L16.410718 5.898307
" />
<path d="M16.410718 5.898307
L16.458337 5.850688
" />
<path d="M16.458337 5.850688
L16.553575 5.803069
" />
<path d="M17.839288 6.803069
L17.267860 6.803069
" />
<path d="M17.553574 6.803069
L17.553574 5.803069
" />
<path d="M17.553574 5.803069
L17.458336 5.945926
" />
<path d="M17.458336 5.945926
L17.363098 6.041164
" />
<path d="M17.363098 6.041164
L17.267860 6.088783
" />
<path d="M18.458336 5.803069
L18.553574 5.803069
" />
<path d="M18.553574 5.803069
L18.648812 5.850688
" />
<path d="M18.648812 5.850688
L18.696431 5.898307
" />
<path d="M18.696431 5.898307
L18.744050 5.993545
" />
<path d="M18.744050 5.993545
L18.791669 6.184021
" />
<path d="M18.791669 6.184021
L18.791669 6.422116
" />
<path d="M18.791669 6.422116
L18.744050 6.612592
" />
<path d="M18.744050 6.612592
L18.696431 6.707830
" />
<path d="M18.696431 6.707830
L18.648812 6.755450
" />
<path d="M18.648812 6.755450
L18.553574 6.803069
" />
<path d="M18.553574 6.803069
L18.458336 6.803069
" />
<path d="M18.458336 6.803069
L18.363098 6.755450
" />
<path d="M18.363098 6.755450
L18.315479 6.707830
" />
<path d="M18.315479 6.707830
L18.267860 6.612592
" />
<path d="M18.267860 6.612592
L18.220241 6.422116
" />
<path d="M18.220241 6.422116
L18.220241 6.184021
" />
<path d="M18.220241 6.184021
L18.267860 5.993545
" />
<path d="M18.267860 5.993545
L18.315479 5.898307
" />
<path d="M18.315479 5.898307
L18.363098 5.850688
" />
<path d="M18.363098 5.850688
L18.458336 5.803069
" />
<path d="M19.220241 6.422116
L19.982146 6.422116
" />
<path d="M20.934526 5.803069
L20.458336 5.803069
" />
<path d="M20.458336 5.803069
L20.410717 6.279259
" />
<path d="M20.410717 6.279259
L20.458336 6.231640
" />
<path d="M20.458336 6.231640
L20.553574 6.184021
" />
<path d="M20.553574 6.184021
L20.791669 6.184021
" />
<path d="M20.791669 6.184021
L20.886907 6.231640
" />
<path d="M20.886907 6.231640
L20.934526 6.279259
" />
<path d="M20.934526 6.279259
L20.982145 6.374497
" />
<path d="M20.982145 6.374497
L20.982145 6.612592
" />
<path d="M20.982145 6.612592
L20.934526 6.707830
" />
<path d="M20.934526 6.707830
L20.886907 6.755450
" />
<path d="M20.886907 6.755450
L20.791669 6.803069
" />
<path d="M20.791669 6.803069
L20.553574 6.803069
" />
<path d="M20.553574 6.803069
L20.458336 6.755450
" />
<path d="M20.458336 6.755450
L20.410717 6.707830
" />
<path d="M21.601193 5.803069
L21.696431 5.803069
" />
<path d="M21.696431 5.803069
L21.791669 5.850688
" />
<path d="M21.791669 5.850688
L21.839288 5.898307
" />
<path d="M21.839288 5.898307
L21.886907 5.993545
" />
<path d="M21.886907 5.993545
L21.934526 6.184021
" />
<path d="M21.934526 6.184021
L21.934526 6.422116
" />
<path d="M21.934526 6.422116
L21.886907 6.612592
" />
<path d="M21.886907 6.612592
L21.839288 6.707830
" />
<path d="M21.839288 6.707830
L21.791669 6.755450
" />
<path d="M21.791669 6.755450
L21.696431 6.803069
" />
<path d="M21.696431 6.803069
L21.601193 6.803069
" />
<path d="M21.601193 6.803069
L21.505955 6.755450
" />
<path d="M21.505955 6.755450
L21.458336 6.707830
" />
<path d="M21.458336 6.707830
L21.410717 6.612592
" />
<path d="M21.410717 6.612592
L21.363098 6.422116
" />
<path d="M21.363098 6.422116
L21.363098 6.184021
" />
<path d="M21.363098 6.184021
L21.410717 5.993545
" />
<path d="M21.410717 5.993545
L21.458336 5.898307
" />
<path d="M21.458336 5.898307
L21.505955 5.850688
" />
<path d="M21.505955 5.850688
L21.601193 5.803069
" />
<path d="M22.886907 6.803069
L22.315479 6.803069
" />
<path d="M22.601193 6.803069
L22.601193 5.803069
" />
<path d="M22.601193 5.803069
L22.505955 5.945926
" />
<path d="M22.505955 5.945926
L22.410717 6.041164
" />
<path d="M22.410717 6.041164
L22.315479 6.088783
" />
<path d="M23.744050 6.136402
L23.744050 6.803069
" />
<path d="M23.505955 5.755450
L23.267860 6.469735
" />
<path d="M23.267860 6.469735
L23.886907 6.469735
" />
<path d="M24.029765 6.898307
L24.791669 6.898307
" />
<path d="M25.029765 6.803069
L25.029765 5.803069
" />
<path d="M25.029765 5.803069
L25.363098 6.517354
" />
<path d="M25.363098 6.517354
L25.696431 5.803069
" />
<path d="M25.696431 5.803069
L25.696431 6.803069
" />
<path d="M26.601193 6.136402
L26.601193 6.803069
" />
<path d="M26.172622 6.136402
L26.172622 6.660211
" />
<path d="M26.172622 6.660211
L26.220241 6.755450
" />
<path d="M26.220241 6.755450
L26.315479 6.803069
" />
<path d="M26.315479 6.803069
L26.458336 6.803069
" />
<path d="M26.458336 6.803069
L26.553574 6.755450
" />
<path d="M26.553574 6.755450
L26.601193 6.707830
" />
<path d="M27.220241 6.803069
L27.125003 6.755450
" />
<path d="M27.125003 6.755450
L27.077384 6.660211
" />
<path d="M27.077384 6.660211
L27.077384 5.803069
" />
<path d="M27.458337 6.136402
L27.839289 6.136402
" />
<path d="M27.601194 5.803069
L27.601194 6.660211
" />
<path d="M27.601194 6.660211
L27.648813 6.755450
" />
<path d="M27.648813 6.755450
L27.744051 6.803069
" />
<path d="M27.744051 6.803069
L27.839289 6.803069
" />
<path d="M28.172623 6.803069
L28.172623 6.136402
" />
<path d="M28.172623 5.803069
L28.125004 5.850688
" />
<path d="M28.125004 5.850688
L28.172623 5.898307
" />
<path d="M28.172623 5.898307
L28.220242 5.850688
" />
<path d="M28.220242 5.850688
L28.172623 5.803069
" />
<path d="M28.172623 5.803069
L28.172623 5.898307
" />
<path d="M28.648813 6.136402
L28.648813 7.136402
" />
<path d="M28.648813 6.184021
L28.744051 6.136402
" />
<path d="M28.744051 6.136402
L28.934527 6.136402
" />
<path d="M28.934527 6.136402
L29.029765 6.184021
" />
<path d="M29.029765 6.184021
L29.077384 6.231640
" />
<path d="M29.077384 6.231640
L29.125003 6.326878
" />
<path d="M29.125003 6.326878
L29.125003 6.612592
" />
<path d="M29.125003 6.612592
L29.077384 6.707830
" />
<path d="M29.077384 6.707830
L29.029765 6.755450
" />
<path d="M29.029765 6.755450
L28.934527 6.803069
" />
<path d="M28.934527 6.803069
L28.744051 6.803069
" />
<path d="M28.744051 6.803069
L28.648813 6.755450
" />
<path d="M29.982146 6.136402
L29.982146 6.803069
" />
<path d="M29.553575 6.136402
L29.553575 6.660211
" />
<path d="M29.553575 6.660211
L29.601194 6.755450
" />
<path d="M29.601194 6.755450
L29.696432 6.803069
" />
<path d="M29.696432 6.803069
L29.839289 6.803069
" />
<path d="M29.839289 6.803069
L29.934527 6.755450
" />
<path d="M29.934527 6.755450
L29.982146 6.707830
" />
<path d="M30.458337 6.803069
L30.458337 6.136402
" />
<path d="M30.458337 6.326878
L30.505956 6.231640
" />
<path d="M30.505956 6.231640
L30.553575 6.184021
" />
<path d="M30.553575 6.184021
L30.648813 6.136402
" />
<path d="M30.648813 6.136402
L30.744051 6.136402
" />
<path d="M31.077385 6.136402
L31.077385 7.136402
" />
<path d="M31.077385 6.184021
L31.172623 6.136402
" />
<path d="M31.172623 6.136402
L31.363099 6.136402
" />
<path d="M31.363099 6.136402
L31.458337 6.184021
" />
<path d="M31.458337 6.184021
L31.505956 6.231640
" />
<path d="M31.505956 6.231640
L31.553575 6.326878
" />
<path d="M31.553575 6.326878
L31.553575 6.612592
" />
<path d="M31.553575 6.612592
L31.505956 6.707830
" />
<path d="M31.505956 6.707830
L31.458337 6.755450
" />
<path d="M31.458337 6.755450
L31.363099 6.803069
" />
<path d="M31.363099 6.803069
L31.172623 6.803069
" />
<path d="M31.172623 6.803069
L31.077385 6.755450
" />
<path d="M32.125004 6.803069
L32.029766 6.755450
" />
<path d="M32.029766 6.755450
L31.982147 6.707830
" />
<path d="M31.982147 6.707830
L31.934528 6.612592
" />
<path d="M31.934528 6.612592
L31.934528 6.326878
" />
<path d="M31.934528 6.326878
L31.982147 6.231640
" />
<path d="M31.982147 6.231640
L32.029766 6.184021
" />
<path d="M32.029766 6.184021
L32.125004 6.136402
" />
<path d="M32.125004 6.136402
L32.267861 6.136402
" />
<path d="M32.267861 6.136402
L32.363099 6.184021
" />
<path d="M32.363099 6.184021
L32.410718 6.231640
" />
<path d="M32.410718 6.231640
L32.458337 6.326878
" />
<path d="M32.458337 6.326878
L32.458337 6.612592
" />
<path d="M32.458337 6.612592
L32.410718 6.707830
" />
<path d="M32.410718 6.707830
L32.363099 6.755450
" />
<path d="M32.363099 6.755450
L32.267861 6.803069
" />
<path d="M32.267861 6.803069
L32.125004 6.803069
" />
<path d="M32.839290 6.755450
L32.934528 6.803069
" />
<path d="M32.934528 6.803069
L33.125004 6.803069
" />
<path d="M33.125004 6.803069
L33.220242 6.755450
" />
<path d="M33.220242 6.755450
L33.267861 6.660211
" />
<path d="M33.267861 6.660211
L33.267861 6.612592
" />
<path d="M33.267861 6.612592
L33.220242 6.517354
" />
<path d="M33.220242 6.517354
L33.125004 6.469735
" />
<path d="M33.125004 6.469735
L32.982147 6.469735
" />
<path d="M32.982147 6.469735
L32.886909 6.422116
" />
<path d="M32.886909 6.422116
L32.839290 6.326878
" />
<path d="M32.839290 6.326878
L32.839290 6.279259
" />
<path d="M32.839290 6.279259
L32.886909 6.184021
" />
<path d="M32.886909 6.184021
L32.982147 6.136402
" />
<path d="M32.982147 6.136402
L33.125004 6.136402
" />
<path d="M33.125004 6.136402
L33.220242 6.184021
" />
<path d="M34.077385 6.755450
L33.982147 6.803069
" />
<path d="M33.982147 6.803069
L33.791671 6.803069
" />
<path d="M33.791671 6.803069
L33.696433 6.755450
" />
<path d="M33.696433 6.755450
L33.648814 6.660211
" />
<path d="M33.648814 6.660211
L33.648814 6.279259
" />
<path d="M33.648814 6.279259
L33.696433 6.184021
" />
<path d="M33.696433 6.184021
L33.791671 6.136402
" />
<path d="M33.791671 6.136402
L33.982147 6.136402
" />
<path d="M33.982147 6.136402
L34.077385 6.184021
" />
<path d="M34.077385 6.184021
L34.125004 6.279259
" />
<path d="M34.125004 6.279259
L34.125004 6.374497
" />
<path d="M34.125004 6.374497
L33.648814 6.469735
" />
</g></g>
<g style="fill:none; 
stroke:#000000; stroke-width:0.090000; stroke-opacity:1; 
stroke-linecap:round; stroke-linejoin:round;">
<text x="17.220240" y="3.898250"
textLength="2.721429" font-size="0.800000" lengthAdjust="spacingAndGlyphs"
text-anchor="middle" opacity="0" stroke-opacity="0">REF**</text>
<g class="stroked-text"><desc>REF**</desc>
<path d="M16.420241 3.871141
L16.220241 3.585428
" />
<path d="M16.077384 3.871141
L16.077384 3.271142
" />
<path d="M16.077384 3.271142
L16.305955 3.271142
" />
<path d="M16.305955 3.271142
L16.363098 3.299713
" />
<path d="M16.363098 3.299713
L16.391669 3.328285
" />
<path d="M16.391669 3.328285
L16.420241 3.385428
" />
<path d="M16.420241 3.385428
L16.420241 3.471142
" />
<path d="M16.420241 3.471142
L16.391669 3.528285
" />
<path d="M16.391669 3.528285
L16.363098 3.556856
" />
<path d="M16.363098 3.556856
L16.305955 3.585428
" />
<path d="M16.305955 3.585428
L16.077384 3.585428
" />
<path d="M16.677384 3.556856
L16.877384 3.556856
" />
<path d="M16.963098 3.871141
L16.677384 3.871141
" />
<path d="M16.677384 3.871141
L16.677384 3.271142
" />
<path d="M16.677384 3.271142
L16.963098 3.271142
" />
<path d="M17.420240 3.556856
L17.220240 3.556856
" />
<path d="M17.220240 3.871141
L17.220240 3.271142
" />
<path d="M17.220240 3.271142
L17.505954 3.271142
" />
<path d="M17.820240 3.271142
L17.820240 3.413999
" />
<path d="M17.677383 3.356856
L17.820240 3.413999
" />
<path d="M17.820240 3.413999
L17.963097 3.356856
" />
<path d="M17.734526 3.528285
L17.820240 3.413999
" />
<path d="M17.820240 3.413999
L17.905954 3.528285
" />
<path d="M18.277383 3.271142
L18.277383 3.413999
" />
<path d="M18.134526 3.356856
L18.277383 3.413999
" />
<path d="M18.277383 3.413999
L18.420240 3.356856
" />
<path d="M18.191669 3.528285
L18.277383 3.413999
" />
<path d="M18.277383 3.413999
L18.363097 3.528285
" />
</g><path style="fill:none; 
stroke:#000000; stroke-width:0.100000; stroke-opacity:1; 
stroke-linecap:round; stroke-linejoin:round;fill:none"
d="M 15.970240,3.198250
18.470240,3.198250
18.470240,3.998250
15.970240,3.998250
Z" /> 
</g>
<g style="fill:none; 
stroke:#000000; stroke-width:0.100000; stroke-opacity:1; 
stroke-linecap:round; stroke-linejoin:round;">
<circle cx="17.220240" cy="3.598250" r="1.600000" /> 
</g>
<g style="fill:#000000; fill-opacity:1.000000; stroke:none;">
<circle cx="17.220240" cy="3.598250" r="0.800000" /> 
</g> 
</svg>
