<?xml version="1.0" standalone="no"?>
 <!DOCTYPE svg PUBLIC "-//W3C//DTD SVG 1.1//EN" 
 "http://www.w3.org/Graphics/SVG/1.1/DTD/svg11.dtd"> 
<svg
  xmlns:svg="http://www.w3.org/2000/svg"
  xmlns="http://www.w3.org/2000/svg"
  xmlns:xlink="http://www.w3.org/1999/xlink"
  xmlns:inkscape="http://www.inkscape.org/namespaces/inkscape"
  version="1.1"
  width="26.416000mm" height="14.071600mm" viewBox="0.000000 0.000000 26.416000 14.071600">
<title>SVG Image created as PinHeader_1x04_P2.54mm_Vertical.svg date 2026-04-21T12:25:33 </title>
  <desc>Image generated by PCBNEW </desc>
<g style="fill:#000000; fill-opacity:1.000000;stroke:#000000; stroke-opacity:1.000000;
stroke-linecap:round; stroke-linejoin:round;"
 transform="translate(0 0) scale(1 1)">
</g>
<g style="fill:none; 
stroke:#000000; stroke-width:0.150000; stroke-opacity:1; 
stroke-linecap:round; stroke-linejoin:round;">
<text x="13.220239" y="13.728250"
textLength="26.440478" font-size="1.333333" lengthAdjust="spacingAndGlyphs"
text-anchor="middle" opacity="0" stroke-opacity="0">PinHeader_1x04_P2.54mm_Vertical</text>
<g class="stroked-text"><desc>PinHeader_1x04_P2.54mm_Vertical</desc>
<path d="M0.363096 13.683069
L0.363096 12.683069
" />
<path d="M0.363096 12.683069
L0.744048 12.683069
" />
<path d="M0.744048 12.683069
L0.839286 12.730688
" />
<path d="M0.839286 12.730688
L0.886905 12.778307
" />
<path d="M0.886905 12.778307
L0.934524 12.873545
" />
<path d="M0.934524 12.873545
L0.934524 13.016402
" />
<path d="M0.934524 13.016402
L0.886905 13.111640
" />
<path d="M0.886905 13.111640
L0.839286 13.159259
" />
<path d="M0.839286 13.159259
L0.744048 13.206878
" />
<path d="M0.744048 13.206878
L0.363096 13.206878
" />
<path d="M1.363096 13.683069
L1.363096 13.016402
" />
<path d="M1.363096 12.683069
L1.315477 12.730688
" />
<path d="M1.315477 12.730688
L1.363096 12.778307
" />
<path d="M1.363096 12.778307
L1.410715 12.730688
" />
<path d="M1.410715 12.730688
L1.363096 12.683069
" />
<path d="M1.363096 12.683069
L1.363096 12.778307
" />
<path d="M1.839286 13.016402
L1.839286 13.683069
" />
<path d="M1.839286 13.111640
L1.886905 13.064021
" />
<path d="M1.886905 13.064021
L1.982143 13.016402
" />
<path d="M1.982143 13.016402
L2.125000 13.016402
" />
<path d="M2.125000 13.016402
L2.220238 13.064021
" />
<path d="M2.220238 13.064021
L2.267857 13.159259
" />
<path d="M2.267857 13.159259
L2.267857 13.683069
" />
<path d="M2.744048 13.683069
L2.744048 12.683069
" />
<path d="M2.744048 13.159259
L3.315476 13.159259
" />
<path d="M3.315476 13.683069
L3.315476 12.683069
" />
<path d="M4.172619 13.635450
L4.077381 13.683069
" />
<path d="M4.077381 13.683069
L3.886905 13.683069
" />
<path d="M3.886905 13.683069
L3.791667 13.635450
" />
<path d="M3.791667 13.635450
L3.744048 13.540211
" />
<path d="M3.744048 13.540211
L3.744048 13.159259
" />
<path d="M3.744048 13.159259
L3.791667 13.064021
" />
<path d="M3.791667 13.064021
L3.886905 13.016402
" />
<path d="M3.886905 13.016402
L4.077381 13.016402
" />
<path d="M4.077381 13.016402
L4.172619 13.064021
" />
<path d="M4.172619 13.064021
L4.220238 13.159259
" />
<path d="M4.220238 13.159259
L4.220238 13.254497
" />
<path d="M4.220238 13.254497
L3.744048 13.349735
" />
<path d="M5.077381 13.683069
L5.077381 13.159259
" />
<path d="M5.077381 13.159259
L5.029762 13.064021
" />
<path d="M5.029762 13.064021
L4.934524 13.016402
" />
<path d="M4.934524 13.016402
L4.744048 13.016402
" />
<path d="M4.744048 13.016402
L4.648810 13.064021
" />
<path d="M5.077381 13.635450
L4.982143 13.683069
" />
<path d="M4.982143 13.683069
L4.744048 13.683069
" />
<path d="M4.744048 13.683069
L4.648810 13.635450
" />
<path d="M4.648810 13.635450
L4.601191 13.540211
" />
<path d="M4.601191 13.540211
L4.601191 13.444973
" />
<path d="M4.601191 13.444973
L4.648810 13.349735
" />
<path d="M4.648810 13.349735
L4.744048 13.302116
" />
<path d="M4.744048 13.302116
L4.982143 13.302116
" />
<path d="M4.982143 13.302116
L5.077381 13.254497
" />
<path d="M5.982143 13.683069
L5.982143 12.683069
" />
<path d="M5.982143 13.635450
L5.886905 13.683069
" />
<path d="M5.886905 13.683069
L5.696429 13.683069
" />
<path d="M5.696429 13.683069
L5.601191 13.635450
" />
<path d="M5.601191 13.635450
L5.553572 13.587830
" />
<path d="M5.553572 13.587830
L5.505953 13.492592
" />
<path d="M5.505953 13.492592
L5.505953 13.206878
" />
<path d="M5.505953 13.206878
L5.553572 13.111640
" />
<path d="M5.553572 13.111640
L5.601191 13.064021
" />
<path d="M5.601191 13.064021
L5.696429 13.016402
" />
<path d="M5.696429 13.016402
L5.886905 13.016402
" />
<path d="M5.886905 13.016402
L5.982143 13.064021
" />
<path d="M6.839286 13.635450
L6.744048 13.683069
" />
<path d="M6.744048 13.683069
L6.553572 13.683069
" />
<path d="M6.553572 13.683069
L6.458334 13.635450
" />
<path d="M6.458334 13.635450
L6.410715 13.540211
" />
<path d="M6.410715 13.540211
L6.410715 13.159259
" />
<path d="M6.410715 13.159259
L6.458334 13.064021
" />
<path d="M6.458334 13.064021
L6.553572 13.016402
" />
<path d="M6.553572 13.016402
L6.744048 13.016402
" />
<path d="M6.744048 13.016402
L6.839286 13.064021
" />
<path d="M6.839286 13.064021
L6.886905 13.159259
" />
<path d="M6.886905 13.159259
L6.886905 13.254497
" />
<path d="M6.886905 13.254497
L6.410715 13.349735
" />
<path d="M7.315477 13.683069
L7.315477 13.016402
" />
<path d="M7.315477 13.206878
L7.363096 13.111640
" />
<path d="M7.363096 13.111640
L7.410715 13.064021
" />
<path d="M7.410715 13.064021
L7.505953 13.016402
" />
<path d="M7.505953 13.016402
L7.601191 13.016402
" />
<path d="M7.696429 13.778307
L8.458334 13.778307
" />
<path d="M9.220239 13.683069
L8.648811 13.683069
" />
<path d="M8.934525 13.683069
L8.934525 12.683069
" />
<path d="M8.934525 12.683069
L8.839287 12.825926
" />
<path d="M8.839287 12.825926
L8.744049 12.921164
" />
<path d="M8.744049 12.921164
L8.648811 12.968783
" />
<path d="M9.553573 13.683069
L10.077382 13.016402
" />
<path d="M9.553573 13.016402
L10.077382 13.683069
" />
<path d="M10.648811 12.683069
L10.744049 12.683069
" />
<path d="M10.744049 12.683069
L10.839287 12.730688
" />
<path d="M10.839287 12.730688
L10.886906 12.778307
" />
<path d="M10.886906 12.778307
L10.934525 12.873545
" />
<path d="M10.934525 12.873545
L10.982144 13.064021
" />
<path d="M10.982144 13.064021
L10.982144 13.302116
" />
<path d="M10.982144 13.302116
L10.934525 13.492592
" />
<path d="M10.934525 13.492592
L10.886906 13.587830
" />
<path d="M10.886906 13.587830
L10.839287 13.635450
" />
<path d="M10.839287 13.635450
L10.744049 13.683069
" />
<path d="M10.744049 13.683069
L10.648811 13.683069
" />
<path d="M10.648811 13.683069
L10.553573 13.635450
" />
<path d="M10.553573 13.635450
L10.505954 13.587830
" />
<path d="M10.505954 13.587830
L10.458335 13.492592
" />
<path d="M10.458335 13.492592
L10.410716 13.302116
" />
<path d="M10.410716 13.302116
L10.410716 13.064021
" />
<path d="M10.410716 13.064021
L10.458335 12.873545
" />
<path d="M10.458335 12.873545
L10.505954 12.778307
" />
<path d="M10.505954 12.778307
L10.553573 12.730688
" />
<path d="M10.553573 12.730688
L10.648811 12.683069
" />
<path d="M11.839287 13.016402
L11.839287 13.683069
" />
<path d="M11.601192 12.635450
L11.363097 13.349735
" />
<path d="M11.363097 13.349735
L11.982144 13.349735
" />
<path d="M12.125001 13.778307
L12.886906 13.778307
" />
<path d="M13.125002 13.683069
L13.125002 12.683069
" />
<path d="M13.125002 12.683069
L13.505953 12.683069
" />
<path d="M13.505953 12.683069
L13.601191 12.730688
" />
<path d="M13.601191 12.730688
L13.648810 12.778307
" />
<path d="M13.648810 12.778307
L13.696429 12.873545
" />
<path d="M13.696429 12.873545
L13.696429 13.016402
" />
<path d="M13.696429 13.016402
L13.648810 13.111640
" />
<path d="M13.648810 13.111640
L13.601191 13.159259
" />
<path d="M13.601191 13.159259
L13.505953 13.206878
" />
<path d="M13.505953 13.206878
L13.125002 13.206878
" />
<path d="M14.077382 12.778307
L14.125001 12.730688
" />
<path d="M14.125001 12.730688
L14.220239 12.683069
" />
<path d="M14.220239 12.683069
L14.458334 12.683069
" />
<path d="M14.458334 12.683069
L14.553572 12.730688
" />
<path d="M14.553572 12.730688
L14.601191 12.778307
" />
<path d="M14.601191 12.778307
L14.648810 12.873545
" />
<path d="M14.648810 12.873545
L14.648810 12.968783
" />
<path d="M14.648810 12.968783
L14.601191 13.111640
" />
<path d="M14.601191 13.111640
L14.029763 13.683069
" />
<path d="M14.029763 13.683069
L14.648810 13.683069
" />
<path d="M15.077382 13.587830
L15.125001 13.635450
" />
<path d="M15.125001 13.635450
L15.077382 13.683069
" />
<path d="M15.077382 13.683069
L15.029763 13.635450
" />
<path d="M15.029763 13.635450
L15.077382 13.587830
" />
<path d="M15.077382 13.587830
L15.077382 13.683069
" />
<path d="M16.029762 12.683069
L15.553572 12.683069
" />
<path d="M15.553572 12.683069
L15.505953 13.159259
" />
<path d="M15.505953 13.159259
L15.553572 13.111640
" />
<path d="M15.553572 13.111640
L15.648810 13.064021
" />
<path d="M15.648810 13.064021
L15.886905 13.064021
" />
<path d="M15.886905 13.064021
L15.982143 13.111640
" />
<path d="M15.982143 13.111640
L16.029762 13.159259
" />
<path d="M16.029762 13.159259
L16.077381 13.254497
" />
<path d="M16.077381 13.254497
L16.077381 13.492592
" />
<path d="M16.077381 13.492592
L16.029762 13.587830
" />
<path d="M16.029762 13.587830
L15.982143 13.635450
" />
<path d="M15.982143 13.635450
L15.886905 13.683069
" />
<path d="M15.886905 13.683069
L15.648810 13.683069
" />
<path d="M15.648810 13.683069
L15.553572 13.635450
" />
<path d="M15.553572 13.635450
L15.505953 13.587830
" />
<path d="M16.934524 13.016402
L16.934524 13.683069
" />
<path d="M16.696429 12.635450
L16.458334 13.349735
" />
<path d="M16.458334 13.349735
L17.077381 13.349735
" />
<path d="M17.458334 13.683069
L17.458334 13.016402
" />
<path d="M17.458334 13.111640
L17.505953 13.064021
" />
<path d="M17.505953 13.064021
L17.601191 13.016402
" />
<path d="M17.601191 13.016402
L17.744048 13.016402
" />
<path d="M17.744048 13.016402
L17.839286 13.064021
" />
<path d="M17.839286 13.064021
L17.886905 13.159259
" />
<path d="M17.886905 13.159259
L17.886905 13.683069
" />
<path d="M17.886905 13.159259
L17.934524 13.064021
" />
<path d="M17.934524 13.064021
L18.029762 13.016402
" />
<path d="M18.029762 13.016402
L18.172619 13.016402
" />
<path d="M18.172619 13.016402
L18.267858 13.064021
" />
<path d="M18.267858 13.064021
L18.315477 13.159259
" />
<path d="M18.315477 13.159259
L18.315477 13.683069
" />
<path d="M18.791667 13.683069
L18.791667 13.016402
" />
<path d="M18.791667 13.111640
L18.839286 13.064021
" />
<path d="M18.839286 13.064021
L18.934524 13.016402
" />
<path d="M18.934524 13.016402
L19.077381 13.016402
" />
<path d="M19.077381 13.016402
L19.172619 13.064021
" />
<path d="M19.172619 13.064021
L19.220238 13.159259
" />
<path d="M19.220238 13.159259
L19.220238 13.683069
" />
<path d="M19.220238 13.159259
L19.267857 13.064021
" />
<path d="M19.267857 13.064021
L19.363095 13.016402
" />
<path d="M19.363095 13.016402
L19.505952 13.016402
" />
<path d="M19.505952 13.016402
L19.601191 13.064021
" />
<path d="M19.601191 13.064021
L19.648810 13.159259
" />
<path d="M19.648810 13.159259
L19.648810 13.683069
" />
<path d="M19.886905 13.778307
L20.648809 13.778307
" />
<path d="M20.744048 12.683069
L21.077381 13.683069
" />
<path d="M21.077381 13.683069
L21.410714 12.683069
" />
<path d="M22.125000 13.635450
L22.029762 13.683069
" />
<path d="M22.029762 13.683069
L21.839286 13.683069
" />
<path d="M21.839286 13.683069
L21.744048 13.635450
" />
<path d="M21.744048 13.635450
L21.696429 13.540211
" />
<path d="M21.696429 13.540211
L21.696429 13.159259
" />
<path d="M21.696429 13.159259
L21.744048 13.064021
" />
<path d="M21.744048 13.064021
L21.839286 13.016402
" />
<path d="M21.839286 13.016402
L22.029762 13.016402
" />
<path d="M22.029762 13.016402
L22.125000 13.064021
" />
<path d="M22.125000 13.064021
L22.172619 13.159259
" />
<path d="M22.172619 13.159259
L22.172619 13.254497
" />
<path d="M22.172619 13.254497
L21.696429 13.349735
" />
<path d="M22.601191 13.683069
L22.601191 13.016402
" />
<path d="M22.601191 13.206878
L22.648810 13.111640
" />
<path d="M22.648810 13.111640
L22.696429 13.064021
" />
<path d="M22.696429 13.064021
L22.791667 13.016402
" />
<path d="M22.791667 13.016402
L22.886905 13.016402
" />
<path d="M23.077382 13.016402
L23.458334 13.016402
" />
<path d="M23.220239 12.683069
L23.220239 13.540211
" />
<path d="M23.220239 13.540211
L23.267858 13.635450
" />
<path d="M23.267858 13.635450
L23.363096 13.683069
" />
<path d="M23.363096 13.683069
L23.458334 13.683069
" />
<path d="M23.791668 13.683069
L23.791668 13.016402
" />
<path d="M23.791668 12.683069
L23.744049 12.730688
" />
<path d="M23.744049 12.730688
L23.791668 12.778307
" />
<path d="M23.791668 12.778307
L23.839287 12.730688
" />
<path d="M23.839287 12.730688
L23.791668 12.683069
" />
<path d="M23.791668 12.683069
L23.791668 12.778307
" />
<path d="M24.696429 13.635450
L24.601191 13.683069
" />
<path d="M24.601191 13.683069
L24.410715 13.683069
" />
<path d="M24.410715 13.683069
L24.315477 13.635450
" />
<path d="M24.315477 13.635450
L24.267858 13.587830
" />
<path d="M24.267858 13.587830
L24.220239 13.492592
" />
<path d="M24.220239 13.492592
L24.220239 13.206878
" />
<path d="M24.220239 13.206878
L24.267858 13.111640
" />
<path d="M24.267858 13.111640
L24.315477 13.064021
" />
<path d="M24.315477 13.064021
L24.410715 13.016402
" />
<path d="M24.410715 13.016402
L24.601191 13.016402
" />
<path d="M24.601191 13.016402
L24.696429 13.064021
" />
<path d="M25.553572 13.683069
L25.553572 13.159259
" />
<path d="M25.553572 13.159259
L25.505953 13.064021
" />
<path d="M25.505953 13.064021
L25.410715 13.016402
" />
<path d="M25.410715 13.016402
L25.220239 13.016402
" />
<path d="M25.220239 13.016402
L25.125001 13.064021
" />
<path d="M25.553572 13.635450
L25.458334 13.683069
" />
<path d="M25.458334 13.683069
L25.220239 13.683069
" />
<path d="M25.220239 13.683069
L25.125001 13.635450
" />
<path d="M25.125001 13.635450
L25.077382 13.540211
" />
<path d="M25.077382 13.540211
L25.077382 13.444973
" />
<path d="M25.077382 13.444973
L25.125001 13.349735
" />
<path d="M25.125001 13.349735
L25.220239 13.302116
" />
<path d="M25.220239 13.302116
L25.458334 13.302116
" />
<path d="M25.458334 13.302116
L25.553572 13.254497
" />
<path d="M26.172620 13.683069
L26.077382 13.635450
" />
<path d="M26.077382 13.635450
L26.029763 13.540211
" />
<path d="M26.029763 13.540211
L26.029763 12.683069
" />
</g><g transform="rotate(-90.000000 13.220239 7.038250)">
<text x="13.220239" y="7.538250"
textLength="4.535715" font-size="1.333333" lengthAdjust="spacingAndGlyphs"
text-anchor="middle" opacity="0" stroke-opacity="0">REF**</text>
</g>
<g class="stroked-text"><desc>REF**</desc>
<path d="M13.675058 8.371583
L13.198868 8.704916
" />
<path d="M13.675058 8.943011
L12.675059 8.943011
" />
<path d="M12.675059 8.943011
L12.675059 8.562059
" />
<path d="M12.675059 8.562059
L12.722678 8.466821
" />
<path d="M12.722678 8.466821
L12.770297 8.419202
" />
<path d="M12.770297 8.419202
L12.865535 8.371583
" />
<path d="M12.865535 8.371583
L13.008392 8.371583
" />
<path d="M13.008392 8.371583
L13.103630 8.419202
" />
<path d="M13.103630 8.419202
L13.151249 8.466821
" />
<path d="M13.151249 8.466821
L13.198868 8.562059
" />
<path d="M13.198868 8.562059
L13.198868 8.943011
" />
<path d="M13.151249 7.943011
L13.151249 7.609678
" />
<path d="M13.675058 7.466821
L13.675058 7.943011
" />
<path d="M13.675058 7.943011
L12.675059 7.943011
" />
<path d="M12.675059 7.943011
L12.675059 7.466821
" />
<path d="M13.151249 6.704916
L13.151249 7.038249
" />
<path d="M13.675058 7.038249
L12.675059 7.038249
" />
<path d="M12.675059 7.038249
L12.675059 6.562059
" />
<path d="M12.675059 6.038249
L12.913154 6.038249
" />
<path d="M12.817916 6.276344
L12.913154 6.038249
" />
<path d="M12.913154 6.038249
L12.817916 5.800154
" />
<path d="M13.103630 6.181106
L12.913154 6.038249
" />
<path d="M12.913154 6.038249
L13.103630 5.895392
" />
<path d="M12.675059 5.276344
L12.913154 5.276344
" />
<path d="M12.817916 5.514439
L12.913154 5.276344
" />
<path d="M12.913154 5.276344
L12.817916 5.038249
" />
<path d="M13.103630 5.419201
L12.913154 5.276344
" />
<path d="M12.913154 5.276344
L13.103630 5.133487
" />
</g></g>
<g style="fill:none; 
stroke:#000000; stroke-width:0.100000; stroke-opacity:1; 
stroke-linecap:round; stroke-linejoin:round;">
<path d="M11.950239 2.593250
L12.585239 1.958250
" />
<path d="M11.950239 12.118250
L11.950239 2.593250
" />
<path d="M12.585239 1.958250
L14.490239 1.958250
" />
<path d="M14.490239 1.958250
L14.490239 12.118250
" />
<path d="M14.490239 12.118250
L11.950239 12.118250
" />
</g>
<g style="fill:#000000; fill-opacity:1.000000; stroke:none;">
<circle cx="13.220239" cy="3.228250" r="0.500000" /> 
<circle cx="13.220239" cy="5.768250" r="0.500000" /> 
<circle cx="13.220239" cy="8.308250" r="0.500000" /> 
<circle cx="13.220239" cy="10.848250" r="0.500000" /> 
</g> 
</svg>
