<?xml version="1.0" standalone="no"?>
 <!DOCTYPE svg PUBLIC "-//W3C//DTD SVG 1.1//EN" 
 "http://www.w3.org/Graphics/SVG/1.1/DTD/svg11.dtd"> 
<svg
  xmlns:svg="http://www.w3.org/2000/svg"
  xmlns="http://www.w3.org/2000/svg"
  xmlns:xlink="http://www.w3.org/1999/xlink"
  xmlns:inkscape="http://www.inkscape.org/namespaces/inkscape"
  version="1.1"
  width="12.471400mm" height="10.388600mm" viewBox="0.000000 0.000000 12.471400 10.388600">
<title>SVG Image created as CP_Elec_6.3x5.9.svg date 2026-04-21T17:26:35 </title>
  <desc>Image generated by PCBNEW </desc>
<g style="fill:#000000; fill-opacity:1.000000;stroke:#000000; stroke-opacity:1.000000;
stroke-linecap:round; stroke-linejoin:round;"
 transform="translate(0 0) scale(1 1)">
</g>
<g style="fill:none; 
stroke:#000000; stroke-width:0.150000; stroke-opacity:1; 
stroke-linecap:round; stroke-linejoin:round;">
<text x="6.244048" y="10.048250"
textLength="12.488096" font-size="1.333333" lengthAdjust="spacingAndGlyphs"
text-anchor="middle" opacity="0" stroke-opacity="0">CP_Elec_6.3x5.9</text>
<g class="stroked-text"><desc>CP_Elec_6.3x5.9</desc>
<path d="M0.934524 9.907830
L0.886905 9.955450
" />
<path d="M0.886905 9.955450
L0.744048 10.003069
" />
<path d="M0.744048 10.003069
L0.648810 10.003069
" />
<path d="M0.648810 10.003069
L0.505953 9.955450
" />
<path d="M0.505953 9.955450
L0.410715 9.860211
" />
<path d="M0.410715 9.860211
L0.363096 9.764973
" />
<path d="M0.363096 9.764973
L0.315477 9.574497
" />
<path d="M0.315477 9.574497
L0.315477 9.431640
" />
<path d="M0.315477 9.431640
L0.363096 9.241164
" />
<path d="M0.363096 9.241164
L0.410715 9.145926
" />
<path d="M0.410715 9.145926
L0.505953 9.050688
" />
<path d="M0.505953 9.050688
L0.648810 9.003069
" />
<path d="M0.648810 9.003069
L0.744048 9.003069
" />
<path d="M0.744048 9.003069
L0.886905 9.050688
" />
<path d="M0.886905 9.050688
L0.934524 9.098307
" />
<path d="M1.363096 10.003069
L1.363096 9.003069
" />
<path d="M1.363096 9.003069
L1.744048 9.003069
" />
<path d="M1.744048 9.003069
L1.839286 9.050688
" />
<path d="M1.839286 9.050688
L1.886905 9.098307
" />
<path d="M1.886905 9.098307
L1.934524 9.193545
" />
<path d="M1.934524 9.193545
L1.934524 9.336402
" />
<path d="M1.934524 9.336402
L1.886905 9.431640
" />
<path d="M1.886905 9.431640
L1.839286 9.479259
" />
<path d="M1.839286 9.479259
L1.744048 9.526878
" />
<path d="M1.744048 9.526878
L1.363096 9.526878
" />
<path d="M2.125000 10.098307
L2.886905 10.098307
" />
<path d="M3.125001 9.479259
L3.458334 9.479259
" />
<path d="M3.601191 10.003069
L3.125001 10.003069
" />
<path d="M3.125001 10.003069
L3.125001 9.003069
" />
<path d="M3.125001 9.003069
L3.601191 9.003069
" />
<path d="M4.172620 10.003069
L4.077382 9.955450
" />
<path d="M4.077382 9.955450
L4.029763 9.860211
" />
<path d="M4.029763 9.860211
L4.029763 9.003069
" />
<path d="M4.934525 9.955450
L4.839287 10.003069
" />
<path d="M4.839287 10.003069
L4.648811 10.003069
" />
<path d="M4.648811 10.003069
L4.553573 9.955450
" />
<path d="M4.553573 9.955450
L4.505954 9.860211
" />
<path d="M4.505954 9.860211
L4.505954 9.479259
" />
<path d="M4.505954 9.479259
L4.553573 9.384021
" />
<path d="M4.553573 9.384021
L4.648811 9.336402
" />
<path d="M4.648811 9.336402
L4.839287 9.336402
" />
<path d="M4.839287 9.336402
L4.934525 9.384021
" />
<path d="M4.934525 9.384021
L4.982144 9.479259
" />
<path d="M4.982144 9.479259
L4.982144 9.574497
" />
<path d="M4.982144 9.574497
L4.505954 9.669735
" />
<path d="M5.839287 9.955450
L5.744049 10.003069
" />
<path d="M5.744049 10.003069
L5.553573 10.003069
" />
<path d="M5.553573 10.003069
L5.458335 9.955450
" />
<path d="M5.458335 9.955450
L5.410716 9.907830
" />
<path d="M5.410716 9.907830
L5.363097 9.812592
" />
<path d="M5.363097 9.812592
L5.363097 9.526878
" />
<path d="M5.363097 9.526878
L5.410716 9.431640
" />
<path d="M5.410716 9.431640
L5.458335 9.384021
" />
<path d="M5.458335 9.384021
L5.553573 9.336402
" />
<path d="M5.553573 9.336402
L5.744049 9.336402
" />
<path d="M5.744049 9.336402
L5.839287 9.384021
" />
<path d="M6.029763 10.098307
L6.791667 10.098307
" />
<path d="M7.458334 9.003069
L7.267858 9.003069
" />
<path d="M7.267858 9.003069
L7.172620 9.050688
" />
<path d="M7.172620 9.050688
L7.125001 9.098307
" />
<path d="M7.125001 9.098307
L7.029763 9.241164
" />
<path d="M7.029763 9.241164
L6.982144 9.431640
" />
<path d="M6.982144 9.431640
L6.982144 9.812592
" />
<path d="M6.982144 9.812592
L7.029763 9.907830
" />
<path d="M7.029763 9.907830
L7.077382 9.955450
" />
<path d="M7.077382 9.955450
L7.172620 10.003069
" />
<path d="M7.172620 10.003069
L7.363096 10.003069
" />
<path d="M7.363096 10.003069
L7.458334 9.955450
" />
<path d="M7.458334 9.955450
L7.505953 9.907830
" />
<path d="M7.505953 9.907830
L7.553572 9.812592
" />
<path d="M7.553572 9.812592
L7.553572 9.574497
" />
<path d="M7.553572 9.574497
L7.505953 9.479259
" />
<path d="M7.505953 9.479259
L7.458334 9.431640
" />
<path d="M7.458334 9.431640
L7.363096 9.384021
" />
<path d="M7.363096 9.384021
L7.172620 9.384021
" />
<path d="M7.172620 9.384021
L7.077382 9.431640
" />
<path d="M7.077382 9.431640
L7.029763 9.479259
" />
<path d="M7.029763 9.479259
L6.982144 9.574497
" />
<path d="M7.982144 9.907830
L8.029763 9.955450
" />
<path d="M8.029763 9.955450
L7.982144 10.003069
" />
<path d="M7.982144 10.003069
L7.934525 9.955450
" />
<path d="M7.934525 9.955450
L7.982144 9.907830
" />
<path d="M7.982144 9.907830
L7.982144 10.003069
" />
<path d="M8.363096 9.003069
L8.982143 9.003069
" />
<path d="M8.982143 9.003069
L8.648810 9.384021
" />
<path d="M8.648810 9.384021
L8.791667 9.384021
" />
<path d="M8.791667 9.384021
L8.886905 9.431640
" />
<path d="M8.886905 9.431640
L8.934524 9.479259
" />
<path d="M8.934524 9.479259
L8.982143 9.574497
" />
<path d="M8.982143 9.574497
L8.982143 9.812592
" />
<path d="M8.982143 9.812592
L8.934524 9.907830
" />
<path d="M8.934524 9.907830
L8.886905 9.955450
" />
<path d="M8.886905 9.955450
L8.791667 10.003069
" />
<path d="M8.791667 10.003069
L8.505953 10.003069
" />
<path d="M8.505953 10.003069
L8.410715 9.955450
" />
<path d="M8.410715 9.955450
L8.363096 9.907830
" />
<path d="M9.315477 10.003069
L9.839286 9.336402
" />
<path d="M9.315477 9.336402
L9.839286 10.003069
" />
<path d="M10.696429 9.003069
L10.220239 9.003069
" />
<path d="M10.220239 9.003069
L10.172620 9.479259
" />
<path d="M10.172620 9.479259
L10.220239 9.431640
" />
<path d="M10.220239 9.431640
L10.315477 9.384021
" />
<path d="M10.315477 9.384021
L10.553572 9.384021
" />
<path d="M10.553572 9.384021
L10.648810 9.431640
" />
<path d="M10.648810 9.431640
L10.696429 9.479259
" />
<path d="M10.696429 9.479259
L10.744048 9.574497
" />
<path d="M10.744048 9.574497
L10.744048 9.812592
" />
<path d="M10.744048 9.812592
L10.696429 9.907830
" />
<path d="M10.696429 9.907830
L10.648810 9.955450
" />
<path d="M10.648810 9.955450
L10.553572 10.003069
" />
<path d="M10.553572 10.003069
L10.315477 10.003069
" />
<path d="M10.315477 10.003069
L10.220239 9.955450
" />
<path d="M10.220239 9.955450
L10.172620 9.907830
" />
<path d="M11.172620 9.907830
L11.220239 9.955450
" />
<path d="M11.220239 9.955450
L11.172620 10.003069
" />
<path d="M11.172620 10.003069
L11.125001 9.955450
" />
<path d="M11.125001 9.955450
L11.172620 9.907830
" />
<path d="M11.172620 9.907830
L11.172620 10.003069
" />
<path d="M11.696429 10.003069
L11.886905 10.003069
" />
<path d="M11.886905 10.003069
L11.982143 9.955450
" />
<path d="M11.982143 9.955450
L12.029762 9.907830
" />
<path d="M12.029762 9.907830
L12.125000 9.764973
" />
<path d="M12.125000 9.764973
L12.172619 9.574497
" />
<path d="M12.172619 9.574497
L12.172619 9.193545
" />
<path d="M12.172619 9.193545
L12.125000 9.098307
" />
<path d="M12.125000 9.098307
L12.077381 9.050688
" />
<path d="M12.077381 9.050688
L11.982143 9.003069
" />
<path d="M11.982143 9.003069
L11.791667 9.003069
" />
<path d="M11.791667 9.003069
L11.696429 9.050688
" />
<path d="M11.696429 9.050688
L11.648810 9.098307
" />
<path d="M11.648810 9.098307
L11.601191 9.193545
" />
<path d="M11.601191 9.193545
L11.601191 9.431640
" />
<path d="M11.601191 9.431640
L11.648810 9.526878
" />
<path d="M11.648810 9.526878
L11.696429 9.574497
" />
<path d="M11.696429 9.574497
L11.791667 9.622116
" />
<path d="M11.791667 9.622116
L11.982143 9.622116
" />
<path d="M11.982143 9.622116
L12.077381 9.574497
" />
<path d="M12.077381 9.574497
L12.125000 9.526878
" />
<path d="M12.125000 9.526878
L12.172619 9.431640
" />
</g><text x="6.244048" y="5.698250"
textLength="4.535715" font-size="1.333333" lengthAdjust="spacingAndGlyphs"
text-anchor="middle" opacity="0" stroke-opacity="0">REF**</text>
<g class="stroked-text"><desc>REF**</desc>
<path d="M4.910715 5.653069
L4.577382 5.176879
" />
<path d="M4.339287 5.653069
L4.339287 4.653070
" />
<path d="M4.339287 4.653070
L4.720239 4.653070
" />
<path d="M4.720239 4.653070
L4.815477 4.700689
" />
<path d="M4.815477 4.700689
L4.863096 4.748308
" />
<path d="M4.863096 4.748308
L4.910715 4.843546
" />
<path d="M4.910715 4.843546
L4.910715 4.986403
" />
<path d="M4.910715 4.986403
L4.863096 5.081641
" />
<path d="M4.863096 5.081641
L4.815477 5.129260
" />
<path d="M4.815477 5.129260
L4.720239 5.176879
" />
<path d="M4.720239 5.176879
L4.339287 5.176879
" />
<path d="M5.339287 5.129260
L5.672620 5.129260
" />
<path d="M5.815477 5.653069
L5.339287 5.653069
" />
<path d="M5.339287 5.653069
L5.339287 4.653070
" />
<path d="M5.339287 4.653070
L5.815477 4.653070
" />
<path d="M6.577381 5.129260
L6.244048 5.129260
" />
<path d="M6.244048 5.653069
L6.244048 4.653070
" />
<path d="M6.244048 4.653070
L6.720238 4.653070
" />
<path d="M7.244048 4.653070
L7.244048 4.891165
" />
<path d="M7.005953 4.795927
L7.244048 4.891165
" />
<path d="M7.244048 4.891165
L7.482143 4.795927
" />
<path d="M7.101191 5.081641
L7.244048 4.891165
" />
<path d="M7.244048 4.891165
L7.386905 5.081641
" />
<path d="M8.005953 4.653070
L8.005953 4.891165
" />
<path d="M7.767858 4.795927
L8.005953 4.891165
" />
<path d="M8.005953 4.891165
L8.244048 4.795927
" />
<path d="M7.863096 5.081641
L8.005953 4.891165
" />
<path d="M8.005953 4.891165
L8.148810 5.081641
" />
</g></g>
<g style="fill:none; 
stroke:#000000; stroke-width:0.100000; stroke-opacity:1; 
stroke-linecap:round; stroke-linejoin:round;">
<path d="M2.944048 2.898250
L2.944048 7.498250
" />
<path d="M2.944048 2.898250
L3.944048 1.898250
" />
<path d="M2.944048 7.498250
L3.944048 8.498250
" />
<path d="M3.539210 3.868250
L4.169210 3.868250
" />
<path d="M3.854210 3.553250
L3.854210 4.183250
" />
<path d="M3.944048 1.898250
L9.544048 1.898250
" />
<path d="M3.944048 8.498250
L9.544048 8.498250
" />
<path d="M9.544048 1.898250
L9.544048 8.498250
" />
<circle cx="6.244048" cy="5.198250" r="3.150000" /> 
</g> 
</svg>
