<?xml version="1.0" standalone="no"?>
 <!DOCTYPE svg PUBLIC "-//W3C//DTD SVG 1.1//EN" 
 "http://www.w3.org/Graphics/SVG/1.1/DTD/svg11.dtd"> 
<svg
  xmlns:svg="http://www.w3.org/2000/svg"
  xmlns="http://www.w3.org/2000/svg"
  xmlns:xlink="http://www.w3.org/1999/xlink"
  xmlns:inkscape="http://www.inkscape.org/namespaces/inkscape"
  version="1.1"
  width="16.611600mm" height="4.978400mm" viewBox="0.000000 0.000000 16.611600 4.978400">
<title>SVG Image created as LED_0805_2012Metric.svg date 2026-04-21T00:15:38 </title>
  <desc>Image generated by PCBNEW </desc>
<g style="fill:#000000; fill-opacity:1.000000;stroke:#000000; stroke-opacity:1.000000;
stroke-linecap:round; stroke-linejoin:round;"
 transform="translate(0 0) scale(1 1)">
</g>
<g style="fill:none; 
stroke:#000000; stroke-width:0.150000; stroke-opacity:1; 
stroke-linecap:round; stroke-linejoin:round;">
<text x="8.315477" y="4.648250"
textLength="16.630954" font-size="1.333333" lengthAdjust="spacingAndGlyphs"
text-anchor="middle" opacity="0" stroke-opacity="0">LED_0805_2012Metric</text>
<g class="stroked-text"><desc>LED_0805_2012Metric</desc>
<path d="M0.839286 4.603069
L0.363096 4.603069
" />
<path d="M0.363096 4.603069
L0.363096 3.603069
" />
<path d="M1.172620 4.079259
L1.505953 4.079259
" />
<path d="M1.648810 4.603069
L1.172620 4.603069
" />
<path d="M1.172620 4.603069
L1.172620 3.603069
" />
<path d="M1.172620 3.603069
L1.648810 3.603069
" />
<path d="M2.077382 4.603069
L2.077382 3.603069
" />
<path d="M2.077382 3.603069
L2.315477 3.603069
" />
<path d="M2.315477 3.603069
L2.458334 3.650688
" />
<path d="M2.458334 3.650688
L2.553572 3.745926
" />
<path d="M2.553572 3.745926
L2.601191 3.841164
" />
<path d="M2.601191 3.841164
L2.648810 4.031640
" />
<path d="M2.648810 4.031640
L2.648810 4.174497
" />
<path d="M2.648810 4.174497
L2.601191 4.364973
" />
<path d="M2.601191 4.364973
L2.553572 4.460211
" />
<path d="M2.553572 4.460211
L2.458334 4.555450
" />
<path d="M2.458334 4.555450
L2.315477 4.603069
" />
<path d="M2.315477 4.603069
L2.077382 4.603069
" />
<path d="M2.839286 4.698307
L3.601191 4.698307
" />
<path d="M4.029763 3.603069
L4.125001 3.603069
" />
<path d="M4.125001 3.603069
L4.220239 3.650688
" />
<path d="M4.220239 3.650688
L4.267858 3.698307
" />
<path d="M4.267858 3.698307
L4.315477 3.793545
" />
<path d="M4.315477 3.793545
L4.363096 3.984021
" />
<path d="M4.363096 3.984021
L4.363096 4.222116
" />
<path d="M4.363096 4.222116
L4.315477 4.412592
" />
<path d="M4.315477 4.412592
L4.267858 4.507830
" />
<path d="M4.267858 4.507830
L4.220239 4.555450
" />
<path d="M4.220239 4.555450
L4.125001 4.603069
" />
<path d="M4.125001 4.603069
L4.029763 4.603069
" />
<path d="M4.029763 4.603069
L3.934525 4.555450
" />
<path d="M3.934525 4.555450
L3.886906 4.507830
" />
<path d="M3.886906 4.507830
L3.839287 4.412592
" />
<path d="M3.839287 4.412592
L3.791668 4.222116
" />
<path d="M3.791668 4.222116
L3.791668 3.984021
" />
<path d="M3.791668 3.984021
L3.839287 3.793545
" />
<path d="M3.839287 3.793545
L3.886906 3.698307
" />
<path d="M3.886906 3.698307
L3.934525 3.650688
" />
<path d="M3.934525 3.650688
L4.029763 3.603069
" />
<path d="M4.934525 4.031640
L4.839287 3.984021
" />
<path d="M4.839287 3.984021
L4.791668 3.936402
" />
<path d="M4.791668 3.936402
L4.744049 3.841164
" />
<path d="M4.744049 3.841164
L4.744049 3.793545
" />
<path d="M4.744049 3.793545
L4.791668 3.698307
" />
<path d="M4.791668 3.698307
L4.839287 3.650688
" />
<path d="M4.839287 3.650688
L4.934525 3.603069
" />
<path d="M4.934525 3.603069
L5.125001 3.603069
" />
<path d="M5.125001 3.603069
L5.220239 3.650688
" />
<path d="M5.220239 3.650688
L5.267858 3.698307
" />
<path d="M5.267858 3.698307
L5.315477 3.793545
" />
<path d="M5.315477 3.793545
L5.315477 3.841164
" />
<path d="M5.315477 3.841164
L5.267858 3.936402
" />
<path d="M5.267858 3.936402
L5.220239 3.984021
" />
<path d="M5.220239 3.984021
L5.125001 4.031640
" />
<path d="M5.125001 4.031640
L4.934525 4.031640
" />
<path d="M4.934525 4.031640
L4.839287 4.079259
" />
<path d="M4.839287 4.079259
L4.791668 4.126878
" />
<path d="M4.791668 4.126878
L4.744049 4.222116
" />
<path d="M4.744049 4.222116
L4.744049 4.412592
" />
<path d="M4.744049 4.412592
L4.791668 4.507830
" />
<path d="M4.791668 4.507830
L4.839287 4.555450
" />
<path d="M4.839287 4.555450
L4.934525 4.603069
" />
<path d="M4.934525 4.603069
L5.125001 4.603069
" />
<path d="M5.125001 4.603069
L5.220239 4.555450
" />
<path d="M5.220239 4.555450
L5.267858 4.507830
" />
<path d="M5.267858 4.507830
L5.315477 4.412592
" />
<path d="M5.315477 4.412592
L5.315477 4.222116
" />
<path d="M5.315477 4.222116
L5.267858 4.126878
" />
<path d="M5.267858 4.126878
L5.220239 4.079259
" />
<path d="M5.220239 4.079259
L5.125001 4.031640
" />
<path d="M5.934525 3.603069
L6.029763 3.603069
" />
<path d="M6.029763 3.603069
L6.125001 3.650688
" />
<path d="M6.125001 3.650688
L6.172620 3.698307
" />
<path d="M6.172620 3.698307
L6.220239 3.793545
" />
<path d="M6.220239 3.793545
L6.267858 3.984021
" />
<path d="M6.267858 3.984021
L6.267858 4.222116
" />
<path d="M6.267858 4.222116
L6.220239 4.412592
" />
<path d="M6.220239 4.412592
L6.172620 4.507830
" />
<path d="M6.172620 4.507830
L6.125001 4.555450
" />
<path d="M6.125001 4.555450
L6.029763 4.603069
" />
<path d="M6.029763 4.603069
L5.934525 4.603069
" />
<path d="M5.934525 4.603069
L5.839287 4.555450
" />
<path d="M5.839287 4.555450
L5.791668 4.507830
" />
<path d="M5.791668 4.507830
L5.744049 4.412592
" />
<path d="M5.744049 4.412592
L5.696430 4.222116
" />
<path d="M5.696430 4.222116
L5.696430 3.984021
" />
<path d="M5.696430 3.984021
L5.744049 3.793545
" />
<path d="M5.744049 3.793545
L5.791668 3.698307
" />
<path d="M5.791668 3.698307
L5.839287 3.650688
" />
<path d="M5.839287 3.650688
L5.934525 3.603069
" />
<path d="M7.172620 3.603069
L6.696430 3.603069
" />
<path d="M6.696430 3.603069
L6.648811 4.079259
" />
<path d="M6.648811 4.079259
L6.696430 4.031640
" />
<path d="M6.696430 4.031640
L6.791668 3.984021
" />
<path d="M6.791668 3.984021
L7.029763 3.984021
" />
<path d="M7.029763 3.984021
L7.125001 4.031640
" />
<path d="M7.125001 4.031640
L7.172620 4.079259
" />
<path d="M7.172620 4.079259
L7.220239 4.174497
" />
<path d="M7.220239 4.174497
L7.220239 4.412592
" />
<path d="M7.220239 4.412592
L7.172620 4.507830
" />
<path d="M7.172620 4.507830
L7.125001 4.555450
" />
<path d="M7.125001 4.555450
L7.029763 4.603069
" />
<path d="M7.029763 4.603069
L6.791668 4.603069
" />
<path d="M6.791668 4.603069
L6.696430 4.555450
" />
<path d="M6.696430 4.555450
L6.648811 4.507830
" />
<path d="M7.410715 4.698307
L8.172620 4.698307
" />
<path d="M8.363096 3.698307
L8.410715 3.650688
" />
<path d="M8.410715 3.650688
L8.505953 3.603069
" />
<path d="M8.505953 3.603069
L8.744048 3.603069
" />
<path d="M8.744048 3.603069
L8.839286 3.650688
" />
<path d="M8.839286 3.650688
L8.886905 3.698307
" />
<path d="M8.886905 3.698307
L8.934524 3.793545
" />
<path d="M8.934524 3.793545
L8.934524 3.888783
" />
<path d="M8.934524 3.888783
L8.886905 4.031640
" />
<path d="M8.886905 4.031640
L8.315477 4.603069
" />
<path d="M8.315477 4.603069
L8.934524 4.603069
" />
<path d="M9.553572 3.603069
L9.648810 3.603069
" />
<path d="M9.648810 3.603069
L9.744048 3.650688
" />
<path d="M9.744048 3.650688
L9.791667 3.698307
" />
<path d="M9.791667 3.698307
L9.839286 3.793545
" />
<path d="M9.839286 3.793545
L9.886905 3.984021
" />
<path d="M9.886905 3.984021
L9.886905 4.222116
" />
<path d="M9.886905 4.222116
L9.839286 4.412592
" />
<path d="M9.839286 4.412592
L9.791667 4.507830
" />
<path d="M9.791667 4.507830
L9.744048 4.555450
" />
<path d="M9.744048 4.555450
L9.648810 4.603069
" />
<path d="M9.648810 4.603069
L9.553572 4.603069
" />
<path d="M9.553572 4.603069
L9.458334 4.555450
" />
<path d="M9.458334 4.555450
L9.410715 4.507830
" />
<path d="M9.410715 4.507830
L9.363096 4.412592
" />
<path d="M9.363096 4.412592
L9.315477 4.222116
" />
<path d="M9.315477 4.222116
L9.315477 3.984021
" />
<path d="M9.315477 3.984021
L9.363096 3.793545
" />
<path d="M9.363096 3.793545
L9.410715 3.698307
" />
<path d="M9.410715 3.698307
L9.458334 3.650688
" />
<path d="M9.458334 3.650688
L9.553572 3.603069
" />
<path d="M10.839286 4.603069
L10.267858 4.603069
" />
<path d="M10.553572 4.603069
L10.553572 3.603069
" />
<path d="M10.553572 3.603069
L10.458334 3.745926
" />
<path d="M10.458334 3.745926
L10.363096 3.841164
" />
<path d="M10.363096 3.841164
L10.267858 3.888783
" />
<path d="M11.220239 3.698307
L11.267858 3.650688
" />
<path d="M11.267858 3.650688
L11.363096 3.603069
" />
<path d="M11.363096 3.603069
L11.601191 3.603069
" />
<path d="M11.601191 3.603069
L11.696429 3.650688
" />
<path d="M11.696429 3.650688
L11.744048 3.698307
" />
<path d="M11.744048 3.698307
L11.791667 3.793545
" />
<path d="M11.791667 3.793545
L11.791667 3.888783
" />
<path d="M11.791667 3.888783
L11.744048 4.031640
" />
<path d="M11.744048 4.031640
L11.172620 4.603069
" />
<path d="M11.172620 4.603069
L11.791667 4.603069
" />
<path d="M12.220239 4.603069
L12.220239 3.603069
" />
<path d="M12.220239 3.603069
L12.553572 4.317354
" />
<path d="M12.553572 4.317354
L12.886905 3.603069
" />
<path d="M12.886905 3.603069
L12.886905 4.603069
" />
<path d="M13.744048 4.555450
L13.648810 4.603069
" />
<path d="M13.648810 4.603069
L13.458334 4.603069
" />
<path d="M13.458334 4.603069
L13.363096 4.555450
" />
<path d="M13.363096 4.555450
L13.315477 4.460211
" />
<path d="M13.315477 4.460211
L13.315477 4.079259
" />
<path d="M13.315477 4.079259
L13.363096 3.984021
" />
<path d="M13.363096 3.984021
L13.458334 3.936402
" />
<path d="M13.458334 3.936402
L13.648810 3.936402
" />
<path d="M13.648810 3.936402
L13.744048 3.984021
" />
<path d="M13.744048 3.984021
L13.791667 4.079259
" />
<path d="M13.791667 4.079259
L13.791667 4.174497
" />
<path d="M13.791667 4.174497
L13.315477 4.269735
" />
<path d="M14.077382 3.936402
L14.458334 3.936402
" />
<path d="M14.220239 3.603069
L14.220239 4.460211
" />
<path d="M14.220239 4.460211
L14.267858 4.555450
" />
<path d="M14.267858 4.555450
L14.363096 4.603069
" />
<path d="M14.363096 4.603069
L14.458334 4.603069
" />
<path d="M14.791668 4.603069
L14.791668 3.936402
" />
<path d="M14.791668 4.126878
L14.839287 4.031640
" />
<path d="M14.839287 4.031640
L14.886906 3.984021
" />
<path d="M14.886906 3.984021
L14.982144 3.936402
" />
<path d="M14.982144 3.936402
L15.077382 3.936402
" />
<path d="M15.410716 4.603069
L15.410716 3.936402
" />
<path d="M15.410716 3.603069
L15.363097 3.650688
" />
<path d="M15.363097 3.650688
L15.410716 3.698307
" />
<path d="M15.410716 3.698307
L15.458335 3.650688
" />
<path d="M15.458335 3.650688
L15.410716 3.603069
" />
<path d="M15.410716 3.603069
L15.410716 3.698307
" />
<path d="M16.315477 4.555450
L16.220239 4.603069
" />
<path d="M16.220239 4.603069
L16.029763 4.603069
" />
<path d="M16.029763 4.603069
L15.934525 4.555450
" />
<path d="M15.934525 4.555450
L15.886906 4.507830
" />
<path d="M15.886906 4.507830
L15.839287 4.412592
" />
<path d="M15.839287 4.412592
L15.839287 4.126878
" />
<path d="M15.839287 4.126878
L15.886906 4.031640
" />
<path d="M15.886906 4.031640
L15.934525 3.984021
" />
<path d="M15.934525 3.984021
L16.029763 3.936402
" />
<path d="M16.029763 3.936402
L16.220239 3.936402
" />
<path d="M16.220239 3.936402
L16.315477 3.984021
" />
</g></g>
<g style="fill:none; 
stroke:#000000; stroke-width:0.080000; stroke-opacity:1; 
stroke-linecap:round; stroke-linejoin:round;">
<text x="8.315477" y="2.748250"
textLength="2.282856" font-size="0.666666" lengthAdjust="spacingAndGlyphs"
text-anchor="middle" opacity="0" stroke-opacity="0">REF**</text>
<g class="stroked-text"><desc>REF**</desc>
<path d="M7.648811 2.725399
L7.482145 2.487305
" />
<path d="M7.363097 2.725399
L7.363097 2.225400
" />
<path d="M7.363097 2.225400
L7.553573 2.225400
" />
<path d="M7.553573 2.225400
L7.601192 2.249210
" />
<path d="M7.601192 2.249210
L7.625002 2.273019
" />
<path d="M7.625002 2.273019
L7.648811 2.320638
" />
<path d="M7.648811 2.320638
L7.648811 2.392067
" />
<path d="M7.648811 2.392067
L7.625002 2.439686
" />
<path d="M7.625002 2.439686
L7.601192 2.463495
" />
<path d="M7.601192 2.463495
L7.553573 2.487305
" />
<path d="M7.553573 2.487305
L7.363097 2.487305
" />
<path d="M7.863097 2.463495
L8.029764 2.463495
" />
<path d="M8.101192 2.725399
L7.863097 2.725399
" />
<path d="M7.863097 2.725399
L7.863097 2.225400
" />
<path d="M7.863097 2.225400
L8.101192 2.225400
" />
<path d="M8.482144 2.463495
L8.315477 2.463495
" />
<path d="M8.315477 2.725399
L8.315477 2.225400
" />
<path d="M8.315477 2.225400
L8.553572 2.225400
" />
<path d="M8.815477 2.225400
L8.815477 2.344448
" />
<path d="M8.696429 2.296829
L8.815477 2.344448
" />
<path d="M8.815477 2.344448
L8.934524 2.296829
" />
<path d="M8.744048 2.439686
L8.815477 2.344448
" />
<path d="M8.815477 2.344448
L8.886905 2.439686
" />
<path d="M9.196429 2.225400
L9.196429 2.344448
" />
<path d="M9.077381 2.296829
L9.196429 2.344448
" />
<path d="M9.196429 2.344448
L9.315476 2.296829
" />
<path d="M9.125000 2.439686
L9.196429 2.344448
" />
<path d="M9.196429 2.344448
L9.267857 2.439686
" />
</g></g>
<g style="fill:none; 
stroke:#000000; stroke-width:0.100000; stroke-opacity:1; 
stroke-linecap:round; stroke-linejoin:round;">
<path d="M7.315477 2.198250
L7.315477 3.098250
" />
<path d="M7.315477 3.098250
L9.315477 3.098250
" />
<path d="M7.615477 1.898250
L7.315477 2.198250
" />
<path d="M9.315477 1.898250
L7.615477 1.898250
" />
<path d="M9.315477 3.098250
L9.315477 1.898250
" />
</g> 
</svg>
