<?xml version="1.0" standalone="no"?>
 <!DOCTYPE svg PUBLIC "-//W3C//DTD SVG 1.1//EN" 
 "http://www.w3.org/Graphics/SVG/1.1/DTD/svg11.dtd"> 
<svg
  xmlns:svg="http://www.w3.org/2000/svg"
  xmlns="http://www.w3.org/2000/svg"
  xmlns:xlink="http://www.w3.org/1999/xlink"
  xmlns:inkscape="http://www.inkscape.org/namespaces/inkscape"
  version="1.1"
  width="16.611600mm" height="4.978400mm" viewBox="0.000000 0.000000 16.611600 4.978400">
<title>SVG Image created as LED_0805_2012Metric.svg date 2026-04-21T00:15:37 </title>
  <desc>Image generated by PCBNEW </desc>
<g style="fill:#000000; fill-opacity:1.000000;stroke:#000000; stroke-opacity:1.000000;
stroke-linecap:round; stroke-linejoin:round;"
 transform="translate(0 0) scale(1 1)">
<path style="fill:none; 
stroke:#000000; stroke-width:0.050000; stroke-opacity:1; 
stroke-linecap:round; stroke-linejoin:round;fill:none"
d="M 6.635477,1.548250
9.995477,1.548250
9.995477,3.448250
6.635477,3.448250
Z" /> 
<path style="fill:#000000; fill-opacity:1.000000; stroke:none;fill-rule:evenodd;"
d="M 6.890477,2.042000
6.909031,1.948721
6.961870,1.869643
7.040948,1.816804
7.134227,1.798250
7.621727,1.798250
7.715006,1.816804
7.794084,1.869643
7.846923,1.948721
7.865477,2.042000
7.865477,2.954500
7.846923,3.047779
7.794084,3.126857
7.715006,3.179696
7.621727,3.198250
7.134227,3.198250
7.040948,3.179696
6.961870,3.126857
6.909031,3.047779
6.890477,2.954500
Z" /> 
<path style="fill:#000000; fill-opacity:1.000000; stroke:none;fill-rule:evenodd;"
d="M 8.765477,2.042000
8.784031,1.948721
8.836870,1.869643
8.915948,1.816804
9.009227,1.798250
9.496727,1.798250
9.590006,1.816804
9.669084,1.869643
9.721923,1.948721
9.740477,2.042000
9.740477,2.954500
9.721923,3.047779
9.669084,3.126857
9.590006,3.179696
9.496727,3.198250
9.009227,3.198250
8.915948,3.179696
8.836870,3.126857
8.784031,3.047779
8.765477,2.954500
Z" /> 
<path style="fill:#000000; fill-opacity:1.000000; stroke:none;fill-rule:evenodd;"
d="M 6.890477,2.042000
6.909031,1.948721
6.961870,1.869643
7.040948,1.816804
7.134227,1.798250
7.621727,1.798250
7.715006,1.816804
7.794084,1.869643
7.846923,1.948721
7.865477,2.042000
7.865477,2.954500
7.846923,3.047779
7.794084,3.126857
7.715006,3.179696
7.621727,3.198250
7.134227,3.198250
7.040948,3.179696
6.961870,3.126857
6.909031,3.047779
6.890477,2.954500
Z" /> 
<path style="fill:#000000; fill-opacity:1.000000; stroke:none;fill-rule:evenodd;"
d="M 8.765477,2.042000
8.784031,1.948721
8.836870,1.869643
8.915948,1.816804
9.009227,1.798250
9.496727,1.798250
9.590006,1.816804
9.669084,1.869643
9.721923,1.948721
9.740477,2.042000
9.740477,2.954500
9.721923,3.047779
9.669084,3.126857
9.590006,3.179696
9.496727,3.198250
9.009227,3.198250
8.915948,3.179696
8.836870,3.126857
8.784031,3.047779
8.765477,2.954500
Z" /> 
</g> 
</svg>
