<?xml version="1.0" standalone="no"?>
 <!DOCTYPE svg PUBLIC "-//W3C//DTD SVG 1.1//EN" 
 "http://www.w3.org/Graphics/SVG/1.1/DTD/svg11.dtd"> 
<svg
  xmlns:svg="http://www.w3.org/2000/svg"
  xmlns="http://www.w3.org/2000/svg"
  xmlns:xlink="http://www.w3.org/1999/xlink"
  xmlns:inkscape="http://www.inkscape.org/namespaces/inkscape"
  version="1.1"
  width="57.5000mm" height="63.2900mm" viewBox="0.0000 0.0000 57.5000 63.2900">
<title>SVG Image created as edge_cuts.svg date 2026-04-21T12:25:18 </title>
  <desc>Image generated by PCBNEW </desc>
<g style="fill:#000000; fill-opacity:1.0000;stroke:#000000; stroke-opacity:1.0000;
stroke-linecap:round; stroke-linejoin:round;"
 transform="translate(0 0) scale(1 1)">
</g>
<g style="fill:none; 
stroke:#000000; stroke-width:0.0500; stroke-opacity:1; 
stroke-linecap:round; stroke-linejoin:round;">
<path d="M2.0000 0.0000 A2.0000 2.0000 0.0 0 0 0.0000 2.0000" />
<path d="M0.0000 61.2900
L0.0000 2.0000
" />
<path d="M2.0000 0.0000
L55.5000 0.0000
" />
<path d="M0.0000 61.2900 A2.0000 2.0000 0.0 0 0 2.0000 63.2900" />
<path d="M57.5000 2.0000 A2.0000 2.0000 0.0 0 0 55.5000 0.0000" />
<path d="M55.5000 63.2900
L2.0000 63.2900
" />
<path d="M57.5000 2.0000
L57.5000 61.2900
" />
<path d="M55.5000 63.2900 A2.0000 2.0000 0.0 0 0 57.5000 61.2900" />
</g>
<g style="fill:#000000; fill-opacity:1.0000; stroke:none;">
<circle cx="19.6750" cy="27.2350" r="0.4000" /> 
<circle cx="14.6750" cy="27.2350" r="0.4000" /> 
<circle cx="48.3700" cy="11.4870" r="0.4000" /> 
<circle cx="53.3700" cy="11.4870" r="0.4000" /> 
<circle cx="13.4870" cy="10.5980" r="0.3750" /> 
<circle cx="21.1070" cy="10.5980" r="0.3750" /> 
<circle cx="36.4400" cy="53.8226" r="0.4000" /> 
<circle cx="44.0600" cy="53.8226" r="0.4000" /> 
<circle cx="12.6030" cy="58.3500" r="0.4000" /> 
<circle cx="12.6030" cy="60.8500" r="0.4000" /> 
<circle cx="26.1920" cy="12.1220" r="0.5000" /> 
<circle cx="28.7320" cy="9.5820" r="0.5000" /> 
<circle cx="31.2720" cy="12.1220" r="0.5000" /> 
</g>
<g style="fill:none; 
stroke:#000000; stroke-width:1.2500; stroke-opacity:1; 
stroke-linecap:round; stroke-linejoin:round;">
<path d="M48.3000 36.2520
L49.5500 36.2520
" />
<path d="M48.3000 40.9510
L49.5500 40.9510
" />
<path d="M48.3000 45.6500
L49.5500 45.6500
" />
</g>
<g style="fill:#000000; fill-opacity:1.0000; stroke:none;">
<circle cx="2.3160" cy="2.5970" r="0.3750" /> 
<circle cx="9.9360" cy="2.5970" r="0.3750" /> 
<circle cx="8.8800" cy="18.9800" r="0.4000" /> 
<circle cx="3.8800" cy="18.9800" r="0.4000" /> 
<circle cx="13.3650" cy="46.2850" r="0.4000" /> 
<circle cx="20.9850" cy="46.2850" r="0.4000" /> 
<circle cx="21.1120" cy="13.9000" r="0.3750" /> 
<circle cx="13.4920" cy="13.9000" r="0.3750" /> 
<circle cx="42.5000" cy="17.2900" r="0.4000" /> 
<circle cx="37.5000" cy="17.2900" r="0.4000" /> 
<circle cx="8.9200" cy="53.9050" r="0.4000" /> 
<circle cx="1.3000" cy="53.9050" r="0.4000" /> 
<circle cx="19.6750" cy="50.0950" r="0.4000" /> 
<circle cx="14.6750" cy="50.0950" r="0.4000" /> 
<circle cx="36.1900" cy="24.0400" r="0.4000" /> 
<circle cx="43.8100" cy="24.0400" r="0.4000" /> 
<circle cx="8.8800" cy="13.9000" r="0.4000" /> 
<circle cx="3.8800" cy="13.9000" r="0.4000" /> 
<circle cx="38.1300" cy="6.1400" r="0.5000" /> 
<circle cx="40.6700" cy="6.1400" r="0.5000" /> 
<circle cx="24.9220" cy="17.7100" r="0.4000" /> 
<circle cx="24.9220" cy="20.2500" r="0.4000" /> 
<circle cx="24.9220" cy="22.7900" r="0.4000" /> 
<circle cx="24.9220" cy="25.3300" r="0.4000" /> 
<circle cx="32.5420" cy="25.3300" r="0.4000" /> 
<circle cx="32.5420" cy="22.7900" r="0.4000" /> 
<circle cx="32.5420" cy="20.2500" r="0.4000" /> 
<circle cx="32.5420" cy="17.7100" r="0.4000" /> 
<circle cx="13.5800" cy="31.5177" r="0.5500" /> 
<circle cx="8.5000" cy="31.5177" r="0.6500" /> 
<circle cx="3.4200" cy="31.5177" r="0.5500" /> 
<circle cx="5.1100" cy="58.3500" r="0.4000" /> 
<circle cx="5.1100" cy="60.8500" r="0.4000" /> 
<circle cx="43.8100" cy="27.2900" r="0.4000" /> 
<circle cx="36.1900" cy="27.2900" r="0.4000" /> 
<circle cx="44.0600" cy="50.0332" r="0.4000" /> 
<circle cx="36.4400" cy="50.0332" r="0.4000" /> 
<circle cx="37.5000" cy="20.7900" r="0.4000" /> 
<circle cx="42.5000" cy="20.7900" r="0.4000" /> 
<circle cx="33.8300" cy="6.2677" r="0.5500" /> 
<circle cx="28.7500" cy="6.2677" r="0.6500" /> 
<circle cx="23.6700" cy="6.2677" r="0.5500" /> 
<circle cx="48.3700" cy="20.7900" r="0.4000" /> 
<circle cx="53.3700" cy="20.7900" r="0.4000" /> 
<circle cx="33.8300" cy="31.5177" r="0.5500" /> 
<circle cx="28.7500" cy="31.5177" r="0.6500" /> 
<circle cx="23.6700" cy="31.5177" r="0.5500" /> 
<circle cx="14.6750" cy="22.1550" r="0.4000" /> 
<circle cx="19.6750" cy="22.1550" r="0.4000" /> 
<circle cx="24.9220" cy="2.7240" r="0.4000" /> 
<circle cx="32.5420" cy="2.7240" r="0.4000" /> 
<circle cx="17.4290" cy="6.1530" r="0.5000" /> 
<circle cx="19.9690" cy="6.1530" r="0.5000" /> 
<circle cx="19.5500" cy="34.9900" r="0.4000" /> 
<circle cx="14.5500" cy="34.9900" r="0.4000" /> 
<circle cx="48.5440" cy="60.8900" r="0.4000" /> 
<circle cx="56.1640" cy="60.8900" r="0.4000" /> 
<circle cx="25.1500" cy="57.3340" r="0.4000" /> 
<circle cx="32.7700" cy="57.3340" r="0.4000" /> 
<circle cx="1.3000" cy="50.0950" r="0.4000" /> 
<circle cx="8.9200" cy="50.0950" r="0.4000" /> 
<circle cx="37.6000" cy="58.9900" r="0.4000" /> 
<circle cx="42.6000" cy="58.9900" r="0.4000" /> 
<circle cx="24.9500" cy="42.4750" r="0.4000" /> 
<circle cx="24.9500" cy="45.0150" r="0.4000" /> 
<circle cx="24.9500" cy="47.5550" r="0.4000" /> 
<circle cx="24.9500" cy="50.0950" r="0.4000" /> 
<circle cx="32.5700" cy="50.0950" r="0.4000" /> 
<circle cx="32.5700" cy="47.5550" r="0.4000" /> 
<circle cx="32.5700" cy="45.0150" r="0.4000" /> 
<circle cx="32.5700" cy="42.4750" r="0.4000" /> 
</g>
<g style="fill:none; 
stroke:#000000; stroke-width:1.2500; stroke-opacity:1; 
stroke-linecap:round; stroke-linejoin:round;">
<path d="M7.6600 36.3410
L8.9100 36.3410
" />
<path d="M7.6600 41.0400
L8.9100 41.0400
" />
<path d="M7.6600 45.7390
L8.9100 45.7390
" />
</g>
<g style="fill:#000000; fill-opacity:1.0000; stroke:none;">
<circle cx="49.8540" cy="53.6933" r="0.4000" /> 
<circle cx="54.8540" cy="53.6933" r="0.4000" /> 
<circle cx="20.9850" cy="42.4750" r="0.4000" /> 
<circle cx="13.3650" cy="42.4750" r="0.4000" /> 
<circle cx="25.1760" cy="60.7900" r="0.5000" /> 
<circle cx="27.7160" cy="60.7900" r="0.5000" /> 
<circle cx="30.2560" cy="60.7900" r="0.5000" /> 
<circle cx="32.7960" cy="60.7900" r="0.5000" /> 
<circle cx="49.8540" cy="50.0950" r="0.4000" /> 
<circle cx="54.8540" cy="50.0950" r="0.4000" /> 
<circle cx="54.2500" cy="31.5400" r="0.5500" /> 
<circle cx="49.1700" cy="31.5400" r="0.6500" /> 
<circle cx="44.0900" cy="31.5400" r="0.5500" /> 
<circle cx="19.8420" cy="58.2630" r="0.4000" /> 
<circle cx="19.8420" cy="60.7630" r="0.4000" /> 
<circle cx="36.1850" cy="10.5980" r="0.3750" /> 
<circle cx="43.8050" cy="10.5980" r="0.3750" /> 
<circle cx="10.1900" cy="26.6000" r="0.4000" /> 
<circle cx="2.5700" cy="26.6000" r="0.4000" /> 
<circle cx="36.4400" cy="42.4544" r="0.4000" /> 
<circle cx="44.0600" cy="42.4544" r="0.4000" /> 
<circle cx="8.8800" cy="22.7900" r="0.4000" /> 
<circle cx="3.8800" cy="22.7900" r="0.4000" /> 
<circle cx="42.7500" cy="38.6650" r="0.4000" /> 
<circle cx="37.7500" cy="38.6650" r="0.4000" /> 
<circle cx="13.5800" cy="6.2677" r="0.5500" /> 
<circle cx="8.5000" cy="6.2677" r="0.6500" /> 
<circle cx="3.4200" cy="6.2677" r="0.5500" /> 
<circle cx="32.5500" cy="38.6650" r="0.4000" /> 
<circle cx="24.9300" cy="38.6650" r="0.4000" /> 
<circle cx="53.2976" cy="24.5160" r="0.4000" /> 
<circle cx="48.2976" cy="24.5160" r="0.4000" /> 
<circle cx="44.0600" cy="46.2438" r="0.4000" /> 
<circle cx="36.4400" cy="46.2438" r="0.4000" /> 
<circle cx="43.8150" cy="13.9000" r="0.3750" /> 
<circle cx="36.1950" cy="13.9000" r="0.3750" /> 
<circle cx="20.9850" cy="53.9050" r="0.4000" /> 
<circle cx="13.3650" cy="53.9050" r="0.4000" /> 
<circle cx="13.3650" cy="17.0750" r="0.4000" /> 
<circle cx="20.9850" cy="17.0750" r="0.4000" /> 
<circle cx="54.0800" cy="6.2677" r="0.5500" /> 
<circle cx="49.0000" cy="6.2677" r="0.6500" /> 
<circle cx="43.9200" cy="6.2677" r="0.5500" /> 
<circle cx="14.6750" cy="38.6650" r="0.4000" /> 
<circle cx="19.6750" cy="38.6650" r="0.4000" /> 
<circle cx="49.8540" cy="57.2917" r="0.4000" /> 
<circle cx="54.8540" cy="57.2917" r="0.4000" /> 
<circle cx="47.0600" cy="17.2323" r="0.4000" /> 
<circle cx="54.6800" cy="17.2323" r="0.4000" /> 
<circle cx="27.4464" cy="53.9336" r="0.4500" /> 
<circle cx="29.9864" cy="53.9336" r="0.4500" /> 
</g> 
</svg>
