<?xml version="1.0" standalone="no"?>
 <!DOCTYPE svg PUBLIC "-//W3C//DTD SVG 1.1//EN" 
 "http://www.w3.org/Graphics/SVG/1.1/DTD/svg11.dtd"> 
<svg
  xmlns:svg="http://www.w3.org/2000/svg"
  xmlns="http://www.w3.org/2000/svg"
  xmlns:xlink="http://www.w3.org/1999/xlink"
  xmlns:inkscape="http://www.inkscape.org/namespaces/inkscape"
  version="1.1"
  width="57.5000mm" height="63.2900mm" viewBox="0.0000 0.0000 57.5000 63.2900">
<title>SVG Image created as f_mask.svg date 2026-04-21T12:25:16 </title>
  <desc>Image generated by PCBNEW </desc>
<g style="fill:#000000; fill-opacity:1.0000;stroke:#000000; stroke-opacity:1.0000;
stroke-linecap:round; stroke-linejoin:round;"
 transform="translate(0 0) scale(1 1)">
</g>
<g style="fill:#000000; fill-opacity:1.0000; stroke:none;">
<circle cx="19.6750" cy="27.2350" r="0.8000" /> 
<circle cx="14.6750" cy="27.2350" r="0.8000" /> 
<circle cx="48.3700" cy="11.4870" r="0.8000" /> 
<circle cx="53.3700" cy="11.4870" r="0.8000" /> 
<path style="fill:#000000; fill-opacity:1.0000; stroke:none;fill-rule:evenodd;"
d="M 12.7370,10.0980
12.7560,10.0023
12.8102,9.9212
12.8913,9.8670
12.9870,9.8480
13.9870,9.8480
14.0827,9.8670
14.1638,9.9212
14.2180,10.0023
14.2370,10.0980
14.2370,11.0980
14.2180,11.1937
14.1638,11.2748
14.0827,11.3290
13.9870,11.3480
12.9870,11.3480
12.8913,11.3290
12.8102,11.2748
12.7560,11.1937
12.7370,11.0980
Z" /> 
<circle cx="21.1070" cy="10.5980" r="0.7500" /> 
<circle cx="36.4400" cy="53.8226" r="0.8000" /> 
<circle cx="44.0600" cy="53.8226" r="0.8000" /> 
<path style="fill:#000000; fill-opacity:1.0000; stroke:none;fill-rule:evenodd;"
d="M 13.1530,57.5500
13.2487,57.5690
13.3298,57.6232
13.3840,57.7043
13.4030,57.8000
13.4030,58.9000
13.3840,58.9957
13.3298,59.0768
13.2487,59.1310
13.1530,59.1500
12.0530,59.1500
11.9573,59.1310
11.8762,59.0768
11.8220,58.9957
11.8030,58.9000
11.8030,57.8000
11.8220,57.7043
11.8762,57.6232
11.9573,57.5690
12.0530,57.5500
Z" /> 
<circle cx="12.6030" cy="60.8500" r="0.8000" /> 
<circle cx="26.1920" cy="12.1220" r="0.9652" /> 
<circle cx="28.7320" cy="9.5820" r="0.9652" /> 
<circle cx="31.2720" cy="12.1220" r="0.9652" /> 
</g>
<g style="fill:none; 
stroke:#000000; stroke-width:2.2500; stroke-opacity:1; 
stroke-linecap:round; stroke-linejoin:round;">
<path d="M48.3000 36.2520
L49.5500 36.2520
" />
<path d="M48.3000 40.9510
L49.5500 40.9510
" />
<path d="M48.3000 45.6500
L49.5500 45.6500
" />
<path style="fill:#000000; fill-opacity:1.0000; stroke:none;fill-rule:evenodd;"
d="M 1.5660,2.0970
1.5850,2.0013
1.6392,1.9202
1.7203,1.8660
1.8160,1.8470
2.8160,1.8470
2.9117,1.8660
2.9928,1.9202
3.0470,2.0013
3.0660,2.0970
3.0660,3.0970
3.0470,3.1927
2.9928,3.2738
2.9117,3.3280
2.8160,3.3470
1.8160,3.3470
1.7203,3.3280
1.6392,3.2738
1.5850,3.1927
1.5660,3.0970
Z" /> 
</g>
<g style="fill:#000000; fill-opacity:1.0000; stroke:none;">
<circle cx="9.9360" cy="2.5970" r="0.7500" /> 
<circle cx="8.8800" cy="18.9800" r="0.8000" /> 
<circle cx="3.8800" cy="18.9800" r="0.8000" /> 
<circle cx="13.3650" cy="46.2850" r="0.8000" /> 
<circle cx="20.9850" cy="46.2850" r="0.8000" /> 
<path style="fill:#000000; fill-opacity:1.0000; stroke:none;fill-rule:evenodd;"
d="M 21.8620,14.4000
21.8430,14.4957
21.7888,14.5768
21.7077,14.6310
21.6120,14.6500
20.6120,14.6500
20.5163,14.6310
20.4352,14.5768
20.3810,14.4957
20.3620,14.4000
20.3620,13.4000
20.3810,13.3043
20.4352,13.2232
20.5163,13.1690
20.6120,13.1500
21.6120,13.1500
21.7077,13.1690
21.7888,13.2232
21.8430,13.3043
21.8620,13.4000
Z" /> 
<circle cx="13.4920" cy="13.9000" r="0.7500" /> 
<circle cx="42.5000" cy="17.2900" r="0.8000" /> 
<circle cx="37.5000" cy="17.2900" r="0.8000" /> 
<circle cx="8.9200" cy="53.9050" r="0.8000" /> 
<circle cx="1.3000" cy="53.9050" r="0.8000" /> 
<circle cx="19.6750" cy="50.0950" r="0.8000" /> 
<circle cx="14.6750" cy="50.0950" r="0.8000" /> 
<circle cx="36.1900" cy="24.0400" r="0.8000" /> 
<circle cx="43.8100" cy="24.0400" r="0.8000" /> 
<circle cx="8.8800" cy="13.9000" r="0.8000" /> 
<circle cx="3.8800" cy="13.9000" r="0.8000" /> 
<path style="fill:#000000; fill-opacity:1.0000; stroke:none;fill-rule:evenodd;"
d="M 38.9800,6.9900
37.2800,6.9900
37.2800,5.2900
38.9800,5.2900
Z" /> 
<circle cx="40.6700" cy="6.1400" r="0.8500" /> 
<path style="fill:#000000; fill-opacity:1.0000; stroke:none;fill-rule:evenodd;"
d="M 24.1220,17.1600
24.1410,17.0643
24.1952,16.9832
24.2763,16.9290
24.3720,16.9100
25.4720,16.9100
25.5677,16.9290
25.6488,16.9832
25.7030,17.0643
25.7220,17.1600
25.7220,18.2600
25.7030,18.3557
25.6488,18.4368
25.5677,18.4910
25.4720,18.5100
24.3720,18.5100
24.2763,18.4910
24.1952,18.4368
24.1410,18.3557
24.1220,18.2600
Z" /> 
<circle cx="24.9220" cy="20.2500" r="0.8000" /> 
<circle cx="24.9220" cy="22.7900" r="0.8000" /> 
<circle cx="24.9220" cy="25.3300" r="0.8000" /> 
<circle cx="32.5420" cy="25.3300" r="0.8000" /> 
<circle cx="32.5420" cy="22.7900" r="0.8000" /> 
<circle cx="32.5420" cy="20.2500" r="0.8000" /> 
<circle cx="32.5420" cy="17.7100" r="0.8000" /> 
<path style="fill:#000000; fill-opacity:1.0000; stroke:none;fill-rule:evenodd;"
d="M 14.8300,32.5177
14.8110,32.6134
14.7568,32.6945
14.6757,32.7487
14.5800,32.7677
12.5800,32.7677
12.4843,32.7487
12.4032,32.6945
12.3490,32.6134
12.3300,32.5177
12.3300,30.5177
12.3490,30.4221
12.4032,30.3410
12.4843,30.2868
12.5800,30.2677
14.5800,30.2677
14.6757,30.2868
14.7568,30.3410
14.8110,30.4221
14.8300,30.5177
Z" /> 
<circle cx="8.5000" cy="31.5177" r="1.2500" /> 
<circle cx="3.4200" cy="31.5177" r="1.2500" /> 
<path style="fill:#000000; fill-opacity:1.0000; stroke:none;fill-rule:evenodd;"
d="M 5.6600,57.5500
5.7557,57.5690
5.8368,57.6232
5.8910,57.7043
5.9100,57.8000
5.9100,58.9000
5.8910,58.9957
5.8368,59.0768
5.7557,59.1310
5.6600,59.1500
4.5600,59.1500
4.4643,59.1310
4.3832,59.0768
4.3290,58.9957
4.3100,58.9000
4.3100,57.8000
4.3290,57.7043
4.3832,57.6232
4.4643,57.5690
4.5600,57.5500
Z" /> 
<circle cx="5.1100" cy="60.8500" r="0.8000" /> 
<circle cx="43.8100" cy="27.2900" r="0.8000" /> 
<circle cx="36.1900" cy="27.2900" r="0.8000" /> 
<circle cx="44.0600" cy="50.0332" r="0.8000" /> 
<circle cx="36.4400" cy="50.0332" r="0.8000" /> 
<circle cx="37.5000" cy="20.7900" r="0.8000" /> 
<circle cx="42.5000" cy="20.7900" r="0.8000" /> 
<path style="fill:#000000; fill-opacity:1.0000; stroke:none;fill-rule:evenodd;"
d="M 35.0800,7.2677
35.0610,7.3634
35.0068,7.4445
34.9257,7.4987
34.8300,7.5177
32.8300,7.5177
32.7343,7.4987
32.6532,7.4445
32.5990,7.3634
32.5800,7.2677
32.5800,5.2677
32.5990,5.1721
32.6532,5.0910
32.7343,5.0368
32.8300,5.0177
34.8300,5.0177
34.9257,5.0368
35.0068,5.0910
35.0610,5.1721
35.0800,5.2677
Z" /> 
<circle cx="28.7500" cy="6.2677" r="1.2500" /> 
<circle cx="23.6700" cy="6.2677" r="1.2500" /> 
<circle cx="48.3700" cy="20.7900" r="0.8000" /> 
<circle cx="53.3700" cy="20.7900" r="0.8000" /> 
<path style="fill:#000000; fill-opacity:1.0000; stroke:none;fill-rule:evenodd;"
d="M 35.0800,32.5177
35.0610,32.6134
35.0068,32.6945
34.9257,32.7487
34.8300,32.7677
32.8300,32.7677
32.7343,32.7487
32.6532,32.6945
32.5990,32.6134
32.5800,32.5177
32.5800,30.5177
32.5990,30.4221
32.6532,30.3410
32.7343,30.2868
32.8300,30.2677
34.8300,30.2677
34.9257,30.2868
35.0068,30.3410
35.0610,30.4221
35.0800,30.5177
Z" /> 
<circle cx="28.7500" cy="31.5177" r="1.2500" /> 
<circle cx="23.6700" cy="31.5177" r="1.2500" /> 
<circle cx="14.6750" cy="22.1550" r="0.8000" /> 
<circle cx="19.6750" cy="22.1550" r="0.8000" /> 
<circle cx="24.9220" cy="2.7240" r="0.8000" /> 
<circle cx="32.5420" cy="2.7240" r="0.8000" /> 
<path style="fill:#000000; fill-opacity:1.0000; stroke:none;fill-rule:evenodd;"
d="M 18.2790,7.0030
16.5790,7.0030
16.5790,5.3030
18.2790,5.3030
Z" /> 
<circle cx="19.9690" cy="6.1530" r="0.8500" /> 
<circle cx="19.5500" cy="34.9900" r="0.8000" /> 
<circle cx="14.5500" cy="34.9900" r="0.8000" /> 
<circle cx="48.5440" cy="60.8900" r="0.8000" /> 
<circle cx="56.1640" cy="60.8900" r="0.8000" /> 
<circle cx="25.1500" cy="57.3340" r="0.8000" /> 
<circle cx="32.7700" cy="57.3340" r="0.8000" /> 
<circle cx="1.3000" cy="50.0950" r="0.8000" /> 
<circle cx="8.9200" cy="50.0950" r="0.8000" /> 
<circle cx="37.6000" cy="58.9900" r="0.8000" /> 
<circle cx="42.6000" cy="58.9900" r="0.8000" /> 
<path style="fill:#000000; fill-opacity:1.0000; stroke:none;fill-rule:evenodd;"
d="M 24.1500,41.9250
24.1690,41.8293
24.2232,41.7482
24.3043,41.6940
24.4000,41.6750
25.5000,41.6750
25.5957,41.6940
25.6768,41.7482
25.7310,41.8293
25.7500,41.9250
25.7500,43.0250
25.7310,43.1207
25.6768,43.2018
25.5957,43.2560
25.5000,43.2750
24.4000,43.2750
24.3043,43.2560
24.2232,43.2018
24.1690,43.1207
24.1500,43.0250
Z" /> 
<circle cx="24.9500" cy="45.0150" r="0.8000" /> 
<circle cx="24.9500" cy="47.5550" r="0.8000" /> 
<circle cx="24.9500" cy="50.0950" r="0.8000" /> 
<circle cx="32.5700" cy="50.0950" r="0.8000" /> 
<circle cx="32.5700" cy="47.5550" r="0.8000" /> 
<circle cx="32.5700" cy="45.0150" r="0.8000" /> 
<circle cx="32.5700" cy="42.4750" r="0.8000" /> 
</g>
<g style="fill:none; 
stroke:#000000; stroke-width:2.2500; stroke-opacity:1; 
stroke-linecap:round; stroke-linejoin:round;">
<path d="M7.6600 36.3410
L8.9100 36.3410
" />
<path d="M7.6600 41.0400
L8.9100 41.0400
" />
<path d="M7.6600 45.7390
L8.9100 45.7390
" />
</g>
<g style="fill:#000000; fill-opacity:1.0000; stroke:none;">
<circle cx="49.8540" cy="53.6933" r="0.8000" /> 
<circle cx="54.8540" cy="53.6933" r="0.8000" /> 
<circle cx="20.9850" cy="42.4750" r="0.8000" /> 
<circle cx="13.3650" cy="42.4750" r="0.8000" /> 
<path style="fill:#000000; fill-opacity:1.0000; stroke:none;fill-rule:evenodd;"
d="M 26.0260,61.6400
24.3260,61.6400
24.3260,59.9400
26.0260,59.9400
Z" /> 
<circle cx="27.7160" cy="60.7900" r="0.8500" /> 
<circle cx="30.2560" cy="60.7900" r="0.8500" /> 
<circle cx="32.7960" cy="60.7900" r="0.8500" /> 
<circle cx="49.8540" cy="50.0950" r="0.8000" /> 
<circle cx="54.8540" cy="50.0950" r="0.8000" /> 
<path style="fill:#000000; fill-opacity:1.0000; stroke:none;fill-rule:evenodd;"
d="M 55.5000,32.5400
55.4810,32.6357
55.4268,32.7168
55.3457,32.7710
55.2500,32.7900
53.2500,32.7900
53.1543,32.7710
53.0732,32.7168
53.0190,32.6357
53.0000,32.5400
53.0000,30.5400
53.0190,30.4443
53.0732,30.3632
53.1543,30.3090
53.2500,30.2900
55.2500,30.2900
55.3457,30.3090
55.4268,30.3632
55.4810,30.4443
55.5000,30.5400
Z" /> 
<circle cx="49.1700" cy="31.5400" r="1.2500" /> 
<circle cx="44.0900" cy="31.5400" r="1.2500" /> 
<path style="fill:#000000; fill-opacity:1.0000; stroke:none;fill-rule:evenodd;"
d="M 20.3920,57.4630
20.4877,57.4820
20.5688,57.5362
20.6230,57.6173
20.6420,57.7130
20.6420,58.8130
20.6230,58.9087
20.5688,58.9898
20.4877,59.0440
20.3920,59.0630
19.2920,59.0630
19.1963,59.0440
19.1152,58.9898
19.0610,58.9087
19.0420,58.8130
19.0420,57.7130
19.0610,57.6173
19.1152,57.5362
19.1963,57.4820
19.2920,57.4630
Z" /> 
<circle cx="19.8420" cy="60.7630" r="0.8000" /> 
<path style="fill:#000000; fill-opacity:1.0000; stroke:none;fill-rule:evenodd;"
d="M 35.4350,10.0980
35.4540,10.0023
35.5082,9.9212
35.5893,9.8670
35.6850,9.8480
36.6850,9.8480
36.7807,9.8670
36.8618,9.9212
36.9160,10.0023
36.9350,10.0980
36.9350,11.0980
36.9160,11.1937
36.8618,11.2748
36.7807,11.3290
36.6850,11.3480
35.6850,11.3480
35.5893,11.3290
35.5082,11.2748
35.4540,11.1937
35.4350,11.0980
Z" /> 
<circle cx="43.8050" cy="10.5980" r="0.7500" /> 
<circle cx="10.1900" cy="26.6000" r="0.8000" /> 
<circle cx="2.5700" cy="26.6000" r="0.8000" /> 
<circle cx="36.4400" cy="42.4544" r="0.8000" /> 
<circle cx="44.0600" cy="42.4544" r="0.8000" /> 
<circle cx="8.8800" cy="22.7900" r="0.8000" /> 
<circle cx="3.8800" cy="22.7900" r="0.8000" /> 
<circle cx="42.7500" cy="38.6650" r="0.8000" /> 
<circle cx="37.7500" cy="38.6650" r="0.8000" /> 
<path style="fill:#000000; fill-opacity:1.0000; stroke:none;fill-rule:evenodd;"
d="M 14.8300,7.2677
14.8110,7.3634
14.7568,7.4445
14.6757,7.4987
14.5800,7.5177
12.5800,7.5177
12.4843,7.4987
12.4032,7.4445
12.3490,7.3634
12.3300,7.2677
12.3300,5.2677
12.3490,5.1721
12.4032,5.0910
12.4843,5.0368
12.5800,5.0177
14.5800,5.0177
14.6757,5.0368
14.7568,5.0910
14.8110,5.1721
14.8300,5.2677
Z" /> 
<circle cx="8.5000" cy="6.2677" r="1.2500" /> 
<circle cx="3.4200" cy="6.2677" r="1.2500" /> 
<circle cx="32.5500" cy="38.6650" r="0.8000" /> 
<circle cx="24.9300" cy="38.6650" r="0.8000" /> 
<circle cx="53.2976" cy="24.5160" r="0.8000" /> 
<circle cx="48.2976" cy="24.5160" r="0.8000" /> 
<circle cx="44.0600" cy="46.2438" r="0.8000" /> 
<circle cx="36.4400" cy="46.2438" r="0.8000" /> 
<path style="fill:#000000; fill-opacity:1.0000; stroke:none;fill-rule:evenodd;"
d="M 44.5650,14.4000
44.5460,14.4957
44.4918,14.5768
44.4107,14.6310
44.3150,14.6500
43.3150,14.6500
43.2193,14.6310
43.1382,14.5768
43.0840,14.4957
43.0650,14.4000
43.0650,13.4000
43.0840,13.3043
43.1382,13.2232
43.2193,13.1690
43.3150,13.1500
44.3150,13.1500
44.4107,13.1690
44.4918,13.2232
44.5460,13.3043
44.5650,13.4000
Z" /> 
<circle cx="36.1950" cy="13.9000" r="0.7500" /> 
<circle cx="20.9850" cy="53.9050" r="0.8000" /> 
<circle cx="13.3650" cy="53.9050" r="0.8000" /> 
<circle cx="13.3650" cy="17.0750" r="0.8000" /> 
<circle cx="20.9850" cy="17.0750" r="0.8000" /> 
<path style="fill:#000000; fill-opacity:1.0000; stroke:none;fill-rule:evenodd;"
d="M 55.3300,7.2677
55.3110,7.3634
55.2568,7.4445
55.1757,7.4987
55.0800,7.5177
53.0800,7.5177
52.9843,7.4987
52.9032,7.4445
52.8490,7.3634
52.8300,7.2677
52.8300,5.2677
52.8490,5.1721
52.9032,5.0910
52.9843,5.0368
53.0800,5.0177
55.0800,5.0177
55.1757,5.0368
55.2568,5.0910
55.3110,5.1721
55.3300,5.2677
Z" /> 
<circle cx="49.0000" cy="6.2677" r="1.2500" /> 
<circle cx="43.9200" cy="6.2677" r="1.2500" /> 
<circle cx="14.6750" cy="38.6650" r="0.8000" /> 
<circle cx="19.6750" cy="38.6650" r="0.8000" /> 
<circle cx="49.8540" cy="57.2917" r="0.8000" /> 
<circle cx="54.8540" cy="57.2917" r="0.8000" /> 
<circle cx="47.0600" cy="17.2323" r="0.8000" /> 
<circle cx="54.6800" cy="17.2323" r="0.8000" /> 
<path style="fill:#000000; fill-opacity:1.0000; stroke:none;fill-rule:evenodd;"
d="M 26.5464,54.8336
26.5464,53.0336
28.3464,53.0336
28.3464,54.8336
Z" /> 
<circle cx="29.9864" cy="53.9336" r="0.9000" /> 
</g>
<g style="fill:#FFFFFF; fill-opacity:1.0000; stroke:none;">
<circle cx="19.6750" cy="27.2350" r="0.4000" /> 
</g>
<g style="fill:#FFFFFF; fill-opacity:1.0000; stroke:none;">
<circle cx="14.6750" cy="27.2350" r="0.4000" /> 
</g>
<g style="fill:#FFFFFF; fill-opacity:1.0000; stroke:none;">
<circle cx="48.3700" cy="11.4870" r="0.4000" /> 
</g>
<g style="fill:#FFFFFF; fill-opacity:1.0000; stroke:none;">
<circle cx="53.3700" cy="11.4870" r="0.4000" /> 
</g>
<g style="fill:#FFFFFF; fill-opacity:1.0000; stroke:none;">
<circle cx="13.4870" cy="10.5980" r="0.3750" /> 
</g>
<g style="fill:#FFFFFF; fill-opacity:1.0000; stroke:none;">
<circle cx="21.1070" cy="10.5980" r="0.3750" /> 
</g>
<g style="fill:#FFFFFF; fill-opacity:1.0000; stroke:none;">
<circle cx="36.4400" cy="53.8226" r="0.4000" /> 
</g>
<g style="fill:#FFFFFF; fill-opacity:1.0000; stroke:none;">
<circle cx="44.0600" cy="53.8226" r="0.4000" /> 
</g>
<g style="fill:#FFFFFF; fill-opacity:1.0000; stroke:none;">
<circle cx="12.6030" cy="58.3500" r="0.4000" /> 
</g>
<g style="fill:#FFFFFF; fill-opacity:1.0000; stroke:none;">
<circle cx="12.6030" cy="60.8500" r="0.4000" /> 
</g>
<g style="fill:#FFFFFF; fill-opacity:1.0000; stroke:none;">
<circle cx="26.1920" cy="12.1220" r="0.5000" /> 
</g>
<g style="fill:#FFFFFF; fill-opacity:1.0000; stroke:none;">
<circle cx="28.7320" cy="9.5820" r="0.5000" /> 
</g>
<g style="fill:#FFFFFF; fill-opacity:1.0000; stroke:none;">
<circle cx="31.2720" cy="12.1220" r="0.5000" /> 
</g>
<g style="fill:none; 
stroke:#FFFFFF; stroke-width:1.2500; stroke-opacity:1; 
stroke-linecap:round; stroke-linejoin:round;">
<path d="M48.3000 36.2520
L49.5500 36.2520
" />
</g>
<g style="fill:none; 
stroke:#FFFFFF; stroke-width:1.2500; stroke-opacity:1; 
stroke-linecap:round; stroke-linejoin:round;">
<path d="M48.3000 40.9510
L49.5500 40.9510
" />
</g>
<g style="fill:none; 
stroke:#FFFFFF; stroke-width:1.2500; stroke-opacity:1; 
stroke-linecap:round; stroke-linejoin:round;">
<path d="M48.3000 45.6500
L49.5500 45.6500
" />
</g>
<g style="fill:#FFFFFF; fill-opacity:1.0000; stroke:none;">
<circle cx="2.3160" cy="2.5970" r="0.3750" /> 
</g>
<g style="fill:#FFFFFF; fill-opacity:1.0000; stroke:none;">
<circle cx="9.9360" cy="2.5970" r="0.3750" /> 
</g>
<g style="fill:#FFFFFF; fill-opacity:1.0000; stroke:none;">
<circle cx="8.8800" cy="18.9800" r="0.4000" /> 
</g>
<g style="fill:#FFFFFF; fill-opacity:1.0000; stroke:none;">
<circle cx="3.8800" cy="18.9800" r="0.4000" /> 
</g>
<g style="fill:#FFFFFF; fill-opacity:1.0000; stroke:none;">
<circle cx="13.3650" cy="46.2850" r="0.4000" /> 
</g>
<g style="fill:#FFFFFF; fill-opacity:1.0000; stroke:none;">
<circle cx="20.9850" cy="46.2850" r="0.4000" /> 
</g>
<g style="fill:#FFFFFF; fill-opacity:1.0000; stroke:none;">
<circle cx="21.1120" cy="13.9000" r="0.3750" /> 
</g>
<g style="fill:#FFFFFF; fill-opacity:1.0000; stroke:none;">
<circle cx="13.4920" cy="13.9000" r="0.3750" /> 
</g>
<g style="fill:#FFFFFF; fill-opacity:1.0000; stroke:none;">
<circle cx="42.5000" cy="17.2900" r="0.4000" /> 
</g>
<g style="fill:#FFFFFF; fill-opacity:1.0000; stroke:none;">
<circle cx="37.5000" cy="17.2900" r="0.4000" /> 
</g>
<g style="fill:#FFFFFF; fill-opacity:1.0000; stroke:none;">
<circle cx="8.9200" cy="53.9050" r="0.4000" /> 
</g>
<g style="fill:#FFFFFF; fill-opacity:1.0000; stroke:none;">
<circle cx="1.3000" cy="53.9050" r="0.4000" /> 
</g>
<g style="fill:#FFFFFF; fill-opacity:1.0000; stroke:none;">
<circle cx="19.6750" cy="50.0950" r="0.4000" /> 
</g>
<g style="fill:#FFFFFF; fill-opacity:1.0000; stroke:none;">
<circle cx="14.6750" cy="50.0950" r="0.4000" /> 
</g>
<g style="fill:#FFFFFF; fill-opacity:1.0000; stroke:none;">
<circle cx="36.1900" cy="24.0400" r="0.4000" /> 
</g>
<g style="fill:#FFFFFF; fill-opacity:1.0000; stroke:none;">
<circle cx="43.8100" cy="24.0400" r="0.4000" /> 
</g>
<g style="fill:#FFFFFF; fill-opacity:1.0000; stroke:none;">
<circle cx="8.8800" cy="13.9000" r="0.4000" /> 
</g>
<g style="fill:#FFFFFF; fill-opacity:1.0000; stroke:none;">
<circle cx="3.8800" cy="13.9000" r="0.4000" /> 
</g>
<g style="fill:#FFFFFF; fill-opacity:1.0000; stroke:none;">
<circle cx="38.1300" cy="6.1400" r="0.5000" /> 
</g>
<g style="fill:#FFFFFF; fill-opacity:1.0000; stroke:none;">
<circle cx="40.6700" cy="6.1400" r="0.5000" /> 
</g>
<g style="fill:#FFFFFF; fill-opacity:1.0000; stroke:none;">
<circle cx="24.9220" cy="17.7100" r="0.4000" /> 
</g>
<g style="fill:#FFFFFF; fill-opacity:1.0000; stroke:none;">
<circle cx="24.9220" cy="20.2500" r="0.4000" /> 
</g>
<g style="fill:#FFFFFF; fill-opacity:1.0000; stroke:none;">
<circle cx="24.9220" cy="22.7900" r="0.4000" /> 
</g>
<g style="fill:#FFFFFF; fill-opacity:1.0000; stroke:none;">
<circle cx="24.9220" cy="25.3300" r="0.4000" /> 
</g>
<g style="fill:#FFFFFF; fill-opacity:1.0000; stroke:none;">
<circle cx="32.5420" cy="25.3300" r="0.4000" /> 
</g>
<g style="fill:#FFFFFF; fill-opacity:1.0000; stroke:none;">
<circle cx="32.5420" cy="22.7900" r="0.4000" /> 
</g>
<g style="fill:#FFFFFF; fill-opacity:1.0000; stroke:none;">
<circle cx="32.5420" cy="20.2500" r="0.4000" /> 
</g>
<g style="fill:#FFFFFF; fill-opacity:1.0000; stroke:none;">
<circle cx="32.5420" cy="17.7100" r="0.4000" /> 
</g>
<g style="fill:#FFFFFF; fill-opacity:1.0000; stroke:none;">
<circle cx="13.5800" cy="31.5177" r="0.5500" /> 
</g>
<g style="fill:#FFFFFF; fill-opacity:1.0000; stroke:none;">
<circle cx="8.5000" cy="31.5177" r="0.6500" /> 
</g>
<g style="fill:#FFFFFF; fill-opacity:1.0000; stroke:none;">
<circle cx="3.4200" cy="31.5177" r="0.5500" /> 
</g>
<g style="fill:#FFFFFF; fill-opacity:1.0000; stroke:none;">
<circle cx="5.1100" cy="58.3500" r="0.4000" /> 
</g>
<g style="fill:#FFFFFF; fill-opacity:1.0000; stroke:none;">
<circle cx="5.1100" cy="60.8500" r="0.4000" /> 
</g>
<g style="fill:#FFFFFF; fill-opacity:1.0000; stroke:none;">
<circle cx="43.8100" cy="27.2900" r="0.4000" /> 
</g>
<g style="fill:#FFFFFF; fill-opacity:1.0000; stroke:none;">
<circle cx="36.1900" cy="27.2900" r="0.4000" /> 
</g>
<g style="fill:#FFFFFF; fill-opacity:1.0000; stroke:none;">
<circle cx="44.0600" cy="50.0332" r="0.4000" /> 
</g>
<g style="fill:#FFFFFF; fill-opacity:1.0000; stroke:none;">
<circle cx="36.4400" cy="50.0332" r="0.4000" /> 
</g>
<g style="fill:#FFFFFF; fill-opacity:1.0000; stroke:none;">
<circle cx="37.5000" cy="20.7900" r="0.4000" /> 
</g>
<g style="fill:#FFFFFF; fill-opacity:1.0000; stroke:none;">
<circle cx="42.5000" cy="20.7900" r="0.4000" /> 
</g>
<g style="fill:#FFFFFF; fill-opacity:1.0000; stroke:none;">
<circle cx="33.8300" cy="6.2677" r="0.5500" /> 
</g>
<g style="fill:#FFFFFF; fill-opacity:1.0000; stroke:none;">
<circle cx="28.7500" cy="6.2677" r="0.6500" /> 
</g>
<g style="fill:#FFFFFF; fill-opacity:1.0000; stroke:none;">
<circle cx="23.6700" cy="6.2677" r="0.5500" /> 
</g>
<g style="fill:#FFFFFF; fill-opacity:1.0000; stroke:none;">
<circle cx="48.3700" cy="20.7900" r="0.4000" /> 
</g>
<g style="fill:#FFFFFF; fill-opacity:1.0000; stroke:none;">
<circle cx="53.3700" cy="20.7900" r="0.4000" /> 
</g>
<g style="fill:#FFFFFF; fill-opacity:1.0000; stroke:none;">
<circle cx="33.8300" cy="31.5177" r="0.5500" /> 
</g>
<g style="fill:#FFFFFF; fill-opacity:1.0000; stroke:none;">
<circle cx="28.7500" cy="31.5177" r="0.6500" /> 
</g>
<g style="fill:#FFFFFF; fill-opacity:1.0000; stroke:none;">
<circle cx="23.6700" cy="31.5177" r="0.5500" /> 
</g>
<g style="fill:#FFFFFF; fill-opacity:1.0000; stroke:none;">
<circle cx="14.6750" cy="22.1550" r="0.4000" /> 
</g>
<g style="fill:#FFFFFF; fill-opacity:1.0000; stroke:none;">
<circle cx="19.6750" cy="22.1550" r="0.4000" /> 
</g>
<g style="fill:#FFFFFF; fill-opacity:1.0000; stroke:none;">
<circle cx="24.9220" cy="2.7240" r="0.4000" /> 
</g>
<g style="fill:#FFFFFF; fill-opacity:1.0000; stroke:none;">
<circle cx="32.5420" cy="2.7240" r="0.4000" /> 
</g>
<g style="fill:#FFFFFF; fill-opacity:1.0000; stroke:none;">
<circle cx="17.4290" cy="6.1530" r="0.5000" /> 
</g>
<g style="fill:#FFFFFF; fill-opacity:1.0000; stroke:none;">
<circle cx="19.9690" cy="6.1530" r="0.5000" /> 
</g>
<g style="fill:#FFFFFF; fill-opacity:1.0000; stroke:none;">
<circle cx="19.5500" cy="34.9900" r="0.4000" /> 
</g>
<g style="fill:#FFFFFF; fill-opacity:1.0000; stroke:none;">
<circle cx="14.5500" cy="34.9900" r="0.4000" /> 
</g>
<g style="fill:#FFFFFF; fill-opacity:1.0000; stroke:none;">
<circle cx="48.5440" cy="60.8900" r="0.4000" /> 
</g>
<g style="fill:#FFFFFF; fill-opacity:1.0000; stroke:none;">
<circle cx="56.1640" cy="60.8900" r="0.4000" /> 
</g>
<g style="fill:#FFFFFF; fill-opacity:1.0000; stroke:none;">
<circle cx="25.1500" cy="57.3340" r="0.4000" /> 
</g>
<g style="fill:#FFFFFF; fill-opacity:1.0000; stroke:none;">
<circle cx="32.7700" cy="57.3340" r="0.4000" /> 
</g>
<g style="fill:#FFFFFF; fill-opacity:1.0000; stroke:none;">
<circle cx="1.3000" cy="50.0950" r="0.4000" /> 
</g>
<g style="fill:#FFFFFF; fill-opacity:1.0000; stroke:none;">
<circle cx="8.9200" cy="50.0950" r="0.4000" /> 
</g>
<g style="fill:#FFFFFF; fill-opacity:1.0000; stroke:none;">
<circle cx="37.6000" cy="58.9900" r="0.4000" /> 
</g>
<g style="fill:#FFFFFF; fill-opacity:1.0000; stroke:none;">
<circle cx="42.6000" cy="58.9900" r="0.4000" /> 
</g>
<g style="fill:#FFFFFF; fill-opacity:1.0000; stroke:none;">
<circle cx="24.9500" cy="42.4750" r="0.4000" /> 
</g>
<g style="fill:#FFFFFF; fill-opacity:1.0000; stroke:none;">
<circle cx="24.9500" cy="45.0150" r="0.4000" /> 
</g>
<g style="fill:#FFFFFF; fill-opacity:1.0000; stroke:none;">
<circle cx="24.9500" cy="47.5550" r="0.4000" /> 
</g>
<g style="fill:#FFFFFF; fill-opacity:1.0000; stroke:none;">
<circle cx="24.9500" cy="50.0950" r="0.4000" /> 
</g>
<g style="fill:#FFFFFF; fill-opacity:1.0000; stroke:none;">
<circle cx="32.5700" cy="50.0950" r="0.4000" /> 
</g>
<g style="fill:#FFFFFF; fill-opacity:1.0000; stroke:none;">
<circle cx="32.5700" cy="47.5550" r="0.4000" /> 
</g>
<g style="fill:#FFFFFF; fill-opacity:1.0000; stroke:none;">
<circle cx="32.5700" cy="45.0150" r="0.4000" /> 
</g>
<g style="fill:#FFFFFF; fill-opacity:1.0000; stroke:none;">
<circle cx="32.5700" cy="42.4750" r="0.4000" /> 
</g>
<g style="fill:none; 
stroke:#FFFFFF; stroke-width:1.2500; stroke-opacity:1; 
stroke-linecap:round; stroke-linejoin:round;">
<path d="M7.6600 36.3410
L8.9100 36.3410
" />
</g>
<g style="fill:none; 
stroke:#FFFFFF; stroke-width:1.2500; stroke-opacity:1; 
stroke-linecap:round; stroke-linejoin:round;">
<path d="M7.6600 41.0400
L8.9100 41.0400
" />
</g>
<g style="fill:none; 
stroke:#FFFFFF; stroke-width:1.2500; stroke-opacity:1; 
stroke-linecap:round; stroke-linejoin:round;">
<path d="M7.6600 45.7390
L8.9100 45.7390
" />
</g>
<g style="fill:#FFFFFF; fill-opacity:1.0000; stroke:none;">
<circle cx="49.8540" cy="53.6933" r="0.4000" /> 
</g>
<g style="fill:#FFFFFF; fill-opacity:1.0000; stroke:none;">
<circle cx="54.8540" cy="53.6933" r="0.4000" /> 
</g>
<g style="fill:#FFFFFF; fill-opacity:1.0000; stroke:none;">
<circle cx="20.9850" cy="42.4750" r="0.4000" /> 
</g>
<g style="fill:#FFFFFF; fill-opacity:1.0000; stroke:none;">
<circle cx="13.3650" cy="42.4750" r="0.4000" /> 
</g>
<g style="fill:#FFFFFF; fill-opacity:1.0000; stroke:none;">
<circle cx="25.1760" cy="60.7900" r="0.5000" /> 
</g>
<g style="fill:#FFFFFF; fill-opacity:1.0000; stroke:none;">
<circle cx="27.7160" cy="60.7900" r="0.5000" /> 
</g>
<g style="fill:#FFFFFF; fill-opacity:1.0000; stroke:none;">
<circle cx="30.2560" cy="60.7900" r="0.5000" /> 
</g>
<g style="fill:#FFFFFF; fill-opacity:1.0000; stroke:none;">
<circle cx="32.7960" cy="60.7900" r="0.5000" /> 
</g>
<g style="fill:#FFFFFF; fill-opacity:1.0000; stroke:none;">
<circle cx="49.8540" cy="50.0950" r="0.4000" /> 
</g>
<g style="fill:#FFFFFF; fill-opacity:1.0000; stroke:none;">
<circle cx="54.8540" cy="50.0950" r="0.4000" /> 
</g>
<g style="fill:#FFFFFF; fill-opacity:1.0000; stroke:none;">
<circle cx="54.2500" cy="31.5400" r="0.5500" /> 
</g>
<g style="fill:#FFFFFF; fill-opacity:1.0000; stroke:none;">
<circle cx="49.1700" cy="31.5400" r="0.6500" /> 
</g>
<g style="fill:#FFFFFF; fill-opacity:1.0000; stroke:none;">
<circle cx="44.0900" cy="31.5400" r="0.5500" /> 
</g>
<g style="fill:#FFFFFF; fill-opacity:1.0000; stroke:none;">
<circle cx="19.8420" cy="58.2630" r="0.4000" /> 
</g>
<g style="fill:#FFFFFF; fill-opacity:1.0000; stroke:none;">
<circle cx="19.8420" cy="60.7630" r="0.4000" /> 
</g>
<g style="fill:#FFFFFF; fill-opacity:1.0000; stroke:none;">
<circle cx="36.1850" cy="10.5980" r="0.3750" /> 
</g>
<g style="fill:#FFFFFF; fill-opacity:1.0000; stroke:none;">
<circle cx="43.8050" cy="10.5980" r="0.3750" /> 
</g>
<g style="fill:#FFFFFF; fill-opacity:1.0000; stroke:none;">
<circle cx="10.1900" cy="26.6000" r="0.4000" /> 
</g>
<g style="fill:#FFFFFF; fill-opacity:1.0000; stroke:none;">
<circle cx="2.5700" cy="26.6000" r="0.4000" /> 
</g>
<g style="fill:#FFFFFF; fill-opacity:1.0000; stroke:none;">
<circle cx="36.4400" cy="42.4544" r="0.4000" /> 
</g>
<g style="fill:#FFFFFF; fill-opacity:1.0000; stroke:none;">
<circle cx="44.0600" cy="42.4544" r="0.4000" /> 
</g>
<g style="fill:#FFFFFF; fill-opacity:1.0000; stroke:none;">
<circle cx="8.8800" cy="22.7900" r="0.4000" /> 
</g>
<g style="fill:#FFFFFF; fill-opacity:1.0000; stroke:none;">
<circle cx="3.8800" cy="22.7900" r="0.4000" /> 
</g>
<g style="fill:#FFFFFF; fill-opacity:1.0000; stroke:none;">
<circle cx="42.7500" cy="38.6650" r="0.4000" /> 
</g>
<g style="fill:#FFFFFF; fill-opacity:1.0000; stroke:none;">
<circle cx="37.7500" cy="38.6650" r="0.4000" /> 
</g>
<g style="fill:#FFFFFF; fill-opacity:1.0000; stroke:none;">
<circle cx="13.5800" cy="6.2677" r="0.5500" /> 
</g>
<g style="fill:#FFFFFF; fill-opacity:1.0000; stroke:none;">
<circle cx="8.5000" cy="6.2677" r="0.6500" /> 
</g>
<g style="fill:#FFFFFF; fill-opacity:1.0000; stroke:none;">
<circle cx="3.4200" cy="6.2677" r="0.5500" /> 
</g>
<g style="fill:#FFFFFF; fill-opacity:1.0000; stroke:none;">
<circle cx="32.5500" cy="38.6650" r="0.4000" /> 
</g>
<g style="fill:#FFFFFF; fill-opacity:1.0000; stroke:none;">
<circle cx="24.9300" cy="38.6650" r="0.4000" /> 
</g>
<g style="fill:#FFFFFF; fill-opacity:1.0000; stroke:none;">
<circle cx="53.2976" cy="24.5160" r="0.4000" /> 
</g>
<g style="fill:#FFFFFF; fill-opacity:1.0000; stroke:none;">
<circle cx="48.2976" cy="24.5160" r="0.4000" /> 
</g>
<g style="fill:#FFFFFF; fill-opacity:1.0000; stroke:none;">
<circle cx="44.0600" cy="46.2438" r="0.4000" /> 
</g>
<g style="fill:#FFFFFF; fill-opacity:1.0000; stroke:none;">
<circle cx="36.4400" cy="46.2438" r="0.4000" /> 
</g>
<g style="fill:#FFFFFF; fill-opacity:1.0000; stroke:none;">
<circle cx="43.8150" cy="13.9000" r="0.3750" /> 
</g>
<g style="fill:#FFFFFF; fill-opacity:1.0000; stroke:none;">
<circle cx="36.1950" cy="13.9000" r="0.3750" /> 
</g>
<g style="fill:#FFFFFF; fill-opacity:1.0000; stroke:none;">
<circle cx="20.9850" cy="53.9050" r="0.4000" /> 
</g>
<g style="fill:#FFFFFF; fill-opacity:1.0000; stroke:none;">
<circle cx="13.3650" cy="53.9050" r="0.4000" /> 
</g>
<g style="fill:#FFFFFF; fill-opacity:1.0000; stroke:none;">
<circle cx="13.3650" cy="17.0750" r="0.4000" /> 
</g>
<g style="fill:#FFFFFF; fill-opacity:1.0000; stroke:none;">
<circle cx="20.9850" cy="17.0750" r="0.4000" /> 
</g>
<g style="fill:#FFFFFF; fill-opacity:1.0000; stroke:none;">
<circle cx="54.0800" cy="6.2677" r="0.5500" /> 
</g>
<g style="fill:#FFFFFF; fill-opacity:1.0000; stroke:none;">
<circle cx="49.0000" cy="6.2677" r="0.6500" /> 
</g>
<g style="fill:#FFFFFF; fill-opacity:1.0000; stroke:none;">
<circle cx="43.9200" cy="6.2677" r="0.5500" /> 
</g>
<g style="fill:#FFFFFF; fill-opacity:1.0000; stroke:none;">
<circle cx="14.6750" cy="38.6650" r="0.4000" /> 
</g>
<g style="fill:#FFFFFF; fill-opacity:1.0000; stroke:none;">
<circle cx="19.6750" cy="38.6650" r="0.4000" /> 
</g>
<g style="fill:#FFFFFF; fill-opacity:1.0000; stroke:none;">
<circle cx="49.8540" cy="57.2917" r="0.4000" /> 
</g>
<g style="fill:#FFFFFF; fill-opacity:1.0000; stroke:none;">
<circle cx="54.8540" cy="57.2917" r="0.4000" /> 
</g>
<g style="fill:#FFFFFF; fill-opacity:1.0000; stroke:none;">
<circle cx="47.0600" cy="17.2323" r="0.4000" /> 
</g>
<g style="fill:#FFFFFF; fill-opacity:1.0000; stroke:none;">
<circle cx="54.6800" cy="17.2323" r="0.4000" /> 
</g>
<g style="fill:#FFFFFF; fill-opacity:1.0000; stroke:none;">
<circle cx="27.4464" cy="53.9336" r="0.4500" /> 
</g>
<g style="fill:#FFFFFF; fill-opacity:1.0000; stroke:none;">
<circle cx="29.9864" cy="53.9336" r="0.4500" /> 
</g> 
</svg>
