<?xml version="1.0" standalone="no"?>
 <!DOCTYPE svg PUBLIC "-//W3C//DTD SVG 1.1//EN" 
 "http://www.w3.org/Graphics/SVG/1.1/DTD/svg11.dtd"> 
<svg
  xmlns:svg="http://www.w3.org/2000/svg"
  xmlns="http://www.w3.org/2000/svg"
  xmlns:xlink="http://www.w3.org/1999/xlink"
  xmlns:inkscape="http://www.inkscape.org/namespaces/inkscape"
  version="1.1"
  width="17.907000mm" height="28.702000mm" viewBox="0.000000 0.000000 17.907000 28.702000">
<title>SVG Image created as 16MM_B.MOUNT.svg date 2026-04-21T17:27:05 </title>
  <desc>Image generated by PCBNEW </desc>
<g style="fill:#000000; fill-opacity:1.000000;stroke:#000000; stroke-opacity:1.000000;
stroke-linecap:round; stroke-linejoin:round;"
 transform="translate(0 0) scale(1 1)">
<path style="fill:#000000; fill-opacity:1.000000; stroke:none;fill-rule:evenodd;"
d="M 15.283500,25.955500
15.264470,26.051171
15.210277,26.132277
15.129171,26.186470
15.033500,26.205500
13.033500,26.205500
12.937829,26.186470
12.856723,26.132277
12.802530,26.051171
12.783500,25.955500
12.783500,23.955500
12.802530,23.859829
12.856723,23.778723
12.937829,23.724530
13.033500,23.705500
15.033500,23.705500
15.129171,23.724530
15.210277,23.778723
15.264470,23.859829
15.283500,23.955500
Z" /> 
</g>
<g style="fill:#000000; fill-opacity:1.000000; stroke:none;">
<circle cx="8.953500" cy="24.955500" r="1.250000" /> 
<circle cx="3.873500" cy="24.955500" r="1.250000" /> 
<path style="fill:#000000; fill-opacity:1.000000; stroke:none;fill-rule:evenodd;"
d="M 15.283500,25.955500
15.264470,26.051171
15.210277,26.132277
15.129171,26.186470
15.033500,26.205500
13.033500,26.205500
12.937829,26.186470
12.856723,26.132277
12.802530,26.051171
12.783500,25.955500
12.783500,23.955500
12.802530,23.859829
12.856723,23.778723
12.937829,23.724530
13.033500,23.705500
15.033500,23.705500
15.129171,23.724530
15.210277,23.778723
15.264470,23.859829
15.283500,23.955500
Z" /> 
<circle cx="8.953500" cy="24.955500" r="1.250000" /> 
<circle cx="3.873500" cy="24.955500" r="1.250000" /> 
</g>
<g style="fill:#FFFFFF; fill-opacity:1.000000; stroke:none;">
<circle cx="14.033500" cy="24.955500" r="0.550000" /> 
</g>
<g style="fill:#FFFFFF; fill-opacity:1.000000; stroke:none;">
<circle cx="8.953500" cy="24.955500" r="0.650000" /> 
</g>
<g style="fill:#FFFFFF; fill-opacity:1.000000; stroke:none;">
<circle cx="3.873500" cy="24.955500" r="0.550000" /> 
</g> 
</svg>
