<?xml version="1.0" standalone="no"?>
 <!DOCTYPE svg PUBLIC "-//W3C//DTD SVG 1.1//EN" 
 "http://www.w3.org/Graphics/SVG/1.1/DTD/svg11.dtd"> 
<svg
  xmlns:svg="http://www.w3.org/2000/svg"
  xmlns="http://www.w3.org/2000/svg"
  xmlns:xlink="http://www.w3.org/1999/xlink"
  xmlns:inkscape="http://www.inkscape.org/namespaces/inkscape"
  version="1.1"
  width="14.909800mm" height="5.384800mm" viewBox="0.000000 0.000000 14.909800 5.384800">
<title>SVG Image created as C_1206_3216Metric.svg date 2026-04-21T00:15:27 </title>
  <desc>Image generated by PCBNEW </desc>
<g style="fill:#000000; fill-opacity:1.000000;stroke:#000000; stroke-opacity:1.000000;
stroke-linecap:round; stroke-linejoin:round;"
 transform="translate(0 0) scale(1 1)">
</g>
<g style="fill:none; 
stroke:#000000; stroke-width:0.150000; stroke-opacity:1; 
stroke-linecap:round; stroke-linejoin:round;">
<text x="7.458334" y="5.048250"
textLength="14.916668" font-size="1.333333" lengthAdjust="spacingAndGlyphs"
text-anchor="middle" opacity="0" stroke-opacity="0">C_1206_3216Metric</text>
<g class="stroked-text"><desc>C_1206_3216Metric</desc>
<path d="M0.934524 4.907830
L0.886905 4.955450
" />
<path d="M0.886905 4.955450
L0.744048 5.003069
" />
<path d="M0.744048 5.003069
L0.648810 5.003069
" />
<path d="M0.648810 5.003069
L0.505953 4.955450
" />
<path d="M0.505953 4.955450
L0.410715 4.860211
" />
<path d="M0.410715 4.860211
L0.363096 4.764973
" />
<path d="M0.363096 4.764973
L0.315477 4.574497
" />
<path d="M0.315477 4.574497
L0.315477 4.431640
" />
<path d="M0.315477 4.431640
L0.363096 4.241164
" />
<path d="M0.363096 4.241164
L0.410715 4.145926
" />
<path d="M0.410715 4.145926
L0.505953 4.050688
" />
<path d="M0.505953 4.050688
L0.648810 4.003069
" />
<path d="M0.648810 4.003069
L0.744048 4.003069
" />
<path d="M0.744048 4.003069
L0.886905 4.050688
" />
<path d="M0.886905 4.050688
L0.934524 4.098307
" />
<path d="M1.125000 5.098307
L1.886905 5.098307
" />
<path d="M2.648810 5.003069
L2.077382 5.003069
" />
<path d="M2.363096 5.003069
L2.363096 4.003069
" />
<path d="M2.363096 4.003069
L2.267858 4.145926
" />
<path d="M2.267858 4.145926
L2.172620 4.241164
" />
<path d="M2.172620 4.241164
L2.077382 4.288783
" />
<path d="M3.029763 4.098307
L3.077382 4.050688
" />
<path d="M3.077382 4.050688
L3.172620 4.003069
" />
<path d="M3.172620 4.003069
L3.410715 4.003069
" />
<path d="M3.410715 4.003069
L3.505953 4.050688
" />
<path d="M3.505953 4.050688
L3.553572 4.098307
" />
<path d="M3.553572 4.098307
L3.601191 4.193545
" />
<path d="M3.601191 4.193545
L3.601191 4.288783
" />
<path d="M3.601191 4.288783
L3.553572 4.431640
" />
<path d="M3.553572 4.431640
L2.982144 5.003069
" />
<path d="M2.982144 5.003069
L3.601191 5.003069
" />
<path d="M4.220239 4.003069
L4.315477 4.003069
" />
<path d="M4.315477 4.003069
L4.410715 4.050688
" />
<path d="M4.410715 4.050688
L4.458334 4.098307
" />
<path d="M4.458334 4.098307
L4.505953 4.193545
" />
<path d="M4.505953 4.193545
L4.553572 4.384021
" />
<path d="M4.553572 4.384021
L4.553572 4.622116
" />
<path d="M4.553572 4.622116
L4.505953 4.812592
" />
<path d="M4.505953 4.812592
L4.458334 4.907830
" />
<path d="M4.458334 4.907830
L4.410715 4.955450
" />
<path d="M4.410715 4.955450
L4.315477 5.003069
" />
<path d="M4.315477 5.003069
L4.220239 5.003069
" />
<path d="M4.220239 5.003069
L4.125001 4.955450
" />
<path d="M4.125001 4.955450
L4.077382 4.907830
" />
<path d="M4.077382 4.907830
L4.029763 4.812592
" />
<path d="M4.029763 4.812592
L3.982144 4.622116
" />
<path d="M3.982144 4.622116
L3.982144 4.384021
" />
<path d="M3.982144 4.384021
L4.029763 4.193545
" />
<path d="M4.029763 4.193545
L4.077382 4.098307
" />
<path d="M4.077382 4.098307
L4.125001 4.050688
" />
<path d="M4.125001 4.050688
L4.220239 4.003069
" />
<path d="M5.410715 4.003069
L5.220239 4.003069
" />
<path d="M5.220239 4.003069
L5.125001 4.050688
" />
<path d="M5.125001 4.050688
L5.077382 4.098307
" />
<path d="M5.077382 4.098307
L4.982144 4.241164
" />
<path d="M4.982144 4.241164
L4.934525 4.431640
" />
<path d="M4.934525 4.431640
L4.934525 4.812592
" />
<path d="M4.934525 4.812592
L4.982144 4.907830
" />
<path d="M4.982144 4.907830
L5.029763 4.955450
" />
<path d="M5.029763 4.955450
L5.125001 5.003069
" />
<path d="M5.125001 5.003069
L5.315477 5.003069
" />
<path d="M5.315477 5.003069
L5.410715 4.955450
" />
<path d="M5.410715 4.955450
L5.458334 4.907830
" />
<path d="M5.458334 4.907830
L5.505953 4.812592
" />
<path d="M5.505953 4.812592
L5.505953 4.574497
" />
<path d="M5.505953 4.574497
L5.458334 4.479259
" />
<path d="M5.458334 4.479259
L5.410715 4.431640
" />
<path d="M5.410715 4.431640
L5.315477 4.384021
" />
<path d="M5.315477 4.384021
L5.125001 4.384021
" />
<path d="M5.125001 4.384021
L5.029763 4.431640
" />
<path d="M5.029763 4.431640
L4.982144 4.479259
" />
<path d="M4.982144 4.479259
L4.934525 4.574497
" />
<path d="M5.696429 5.098307
L6.458334 5.098307
" />
<path d="M6.601192 4.003069
L7.220239 4.003069
" />
<path d="M7.220239 4.003069
L6.886906 4.384021
" />
<path d="M6.886906 4.384021
L7.029763 4.384021
" />
<path d="M7.029763 4.384021
L7.125001 4.431640
" />
<path d="M7.125001 4.431640
L7.172620 4.479259
" />
<path d="M7.172620 4.479259
L7.220239 4.574497
" />
<path d="M7.220239 4.574497
L7.220239 4.812592
" />
<path d="M7.220239 4.812592
L7.172620 4.907830
" />
<path d="M7.172620 4.907830
L7.125001 4.955450
" />
<path d="M7.125001 4.955450
L7.029763 5.003069
" />
<path d="M7.029763 5.003069
L6.744049 5.003069
" />
<path d="M6.744049 5.003069
L6.648811 4.955450
" />
<path d="M6.648811 4.955450
L6.601192 4.907830
" />
<path d="M7.601191 4.098307
L7.648810 4.050688
" />
<path d="M7.648810 4.050688
L7.744048 4.003069
" />
<path d="M7.744048 4.003069
L7.982143 4.003069
" />
<path d="M7.982143 4.003069
L8.077381 4.050688
" />
<path d="M8.077381 4.050688
L8.125000 4.098307
" />
<path d="M8.125000 4.098307
L8.172619 4.193545
" />
<path d="M8.172619 4.193545
L8.172619 4.288783
" />
<path d="M8.172619 4.288783
L8.125000 4.431640
" />
<path d="M8.125000 4.431640
L7.553572 5.003069
" />
<path d="M7.553572 5.003069
L8.172619 5.003069
" />
<path d="M9.125000 5.003069
L8.553572 5.003069
" />
<path d="M8.839286 5.003069
L8.839286 4.003069
" />
<path d="M8.839286 4.003069
L8.744048 4.145926
" />
<path d="M8.744048 4.145926
L8.648810 4.241164
" />
<path d="M8.648810 4.241164
L8.553572 4.288783
" />
<path d="M9.982143 4.003069
L9.791667 4.003069
" />
<path d="M9.791667 4.003069
L9.696429 4.050688
" />
<path d="M9.696429 4.050688
L9.648810 4.098307
" />
<path d="M9.648810 4.098307
L9.553572 4.241164
" />
<path d="M9.553572 4.241164
L9.505953 4.431640
" />
<path d="M9.505953 4.431640
L9.505953 4.812592
" />
<path d="M9.505953 4.812592
L9.553572 4.907830
" />
<path d="M9.553572 4.907830
L9.601191 4.955450
" />
<path d="M9.601191 4.955450
L9.696429 5.003069
" />
<path d="M9.696429 5.003069
L9.886905 5.003069
" />
<path d="M9.886905 5.003069
L9.982143 4.955450
" />
<path d="M9.982143 4.955450
L10.029762 4.907830
" />
<path d="M10.029762 4.907830
L10.077381 4.812592
" />
<path d="M10.077381 4.812592
L10.077381 4.574497
" />
<path d="M10.077381 4.574497
L10.029762 4.479259
" />
<path d="M10.029762 4.479259
L9.982143 4.431640
" />
<path d="M9.982143 4.431640
L9.886905 4.384021
" />
<path d="M9.886905 4.384021
L9.696429 4.384021
" />
<path d="M9.696429 4.384021
L9.601191 4.431640
" />
<path d="M9.601191 4.431640
L9.553572 4.479259
" />
<path d="M9.553572 4.479259
L9.505953 4.574497
" />
<path d="M10.505953 5.003069
L10.505953 4.003069
" />
<path d="M10.505953 4.003069
L10.839286 4.717354
" />
<path d="M10.839286 4.717354
L11.172619 4.003069
" />
<path d="M11.172619 4.003069
L11.172619 5.003069
" />
<path d="M12.029762 4.955450
L11.934524 5.003069
" />
<path d="M11.934524 5.003069
L11.744048 5.003069
" />
<path d="M11.744048 5.003069
L11.648810 4.955450
" />
<path d="M11.648810 4.955450
L11.601191 4.860211
" />
<path d="M11.601191 4.860211
L11.601191 4.479259
" />
<path d="M11.601191 4.479259
L11.648810 4.384021
" />
<path d="M11.648810 4.384021
L11.744048 4.336402
" />
<path d="M11.744048 4.336402
L11.934524 4.336402
" />
<path d="M11.934524 4.336402
L12.029762 4.384021
" />
<path d="M12.029762 4.384021
L12.077381 4.479259
" />
<path d="M12.077381 4.479259
L12.077381 4.574497
" />
<path d="M12.077381 4.574497
L11.601191 4.669735
" />
<path d="M12.363096 4.336402
L12.744048 4.336402
" />
<path d="M12.505953 4.003069
L12.505953 4.860211
" />
<path d="M12.505953 4.860211
L12.553572 4.955450
" />
<path d="M12.553572 4.955450
L12.648810 5.003069
" />
<path d="M12.648810 5.003069
L12.744048 5.003069
" />
<path d="M13.077382 5.003069
L13.077382 4.336402
" />
<path d="M13.077382 4.526878
L13.125001 4.431640
" />
<path d="M13.125001 4.431640
L13.172620 4.384021
" />
<path d="M13.172620 4.384021
L13.267858 4.336402
" />
<path d="M13.267858 4.336402
L13.363096 4.336402
" />
<path d="M13.696430 5.003069
L13.696430 4.336402
" />
<path d="M13.696430 4.003069
L13.648811 4.050688
" />
<path d="M13.648811 4.050688
L13.696430 4.098307
" />
<path d="M13.696430 4.098307
L13.744049 4.050688
" />
<path d="M13.744049 4.050688
L13.696430 4.003069
" />
<path d="M13.696430 4.003069
L13.696430 4.098307
" />
<path d="M14.601191 4.955450
L14.505953 5.003069
" />
<path d="M14.505953 5.003069
L14.315477 5.003069
" />
<path d="M14.315477 5.003069
L14.220239 4.955450
" />
<path d="M14.220239 4.955450
L14.172620 4.907830
" />
<path d="M14.172620 4.907830
L14.125001 4.812592
" />
<path d="M14.125001 4.812592
L14.125001 4.526878
" />
<path d="M14.125001 4.526878
L14.172620 4.431640
" />
<path d="M14.172620 4.431640
L14.220239 4.384021
" />
<path d="M14.220239 4.384021
L14.315477 4.336402
" />
<path d="M14.315477 4.336402
L14.505953 4.336402
" />
<path d="M14.505953 4.336402
L14.601191 4.384021
" />
</g></g>
<g style="fill:none; 
stroke:#000000; stroke-width:0.120000; stroke-opacity:1; 
stroke-linecap:round; stroke-linejoin:round;">
<text x="7.458334" y="3.098250"
textLength="3.628572" font-size="1.066666" lengthAdjust="spacingAndGlyphs"
text-anchor="middle" opacity="0" stroke-opacity="0">REF**</text>
<g class="stroked-text"><desc>REF**</desc>
<path d="M6.391668 3.062105
L6.125001 2.681153
" />
<path d="M5.934525 3.062105
L5.934525 2.262106
" />
<path d="M5.934525 2.262106
L6.239287 2.262106
" />
<path d="M6.239287 2.262106
L6.315477 2.300201
" />
<path d="M6.315477 2.300201
L6.353572 2.338296
" />
<path d="M6.353572 2.338296
L6.391668 2.414487
" />
<path d="M6.391668 2.414487
L6.391668 2.528772
" />
<path d="M6.391668 2.528772
L6.353572 2.604963
" />
<path d="M6.353572 2.604963
L6.315477 2.643058
" />
<path d="M6.315477 2.643058
L6.239287 2.681153
" />
<path d="M6.239287 2.681153
L5.934525 2.681153
" />
<path d="M6.734525 2.643058
L7.001191 2.643058
" />
<path d="M7.115477 3.062105
L6.734525 3.062105
" />
<path d="M6.734525 3.062105
L6.734525 2.262106
" />
<path d="M6.734525 2.262106
L7.115477 2.262106
" />
<path d="M7.725000 2.643058
L7.458334 2.643058
" />
<path d="M7.458334 3.062105
L7.458334 2.262106
" />
<path d="M7.458334 2.262106
L7.839286 2.262106
" />
<path d="M8.258333 2.262106
L8.258333 2.452582
" />
<path d="M8.067857 2.376391
L8.258333 2.452582
" />
<path d="M8.258333 2.452582
L8.448810 2.376391
" />
<path d="M8.144048 2.604963
L8.258333 2.452582
" />
<path d="M8.258333 2.452582
L8.372619 2.604963
" />
<path d="M8.867857 2.262106
L8.867857 2.452582
" />
<path d="M8.677381 2.376391
L8.867857 2.452582
" />
<path d="M8.867857 2.452582
L9.058334 2.376391
" />
<path d="M8.753572 2.604963
L8.867857 2.452582
" />
<path d="M8.867857 2.452582
L8.982143 2.604963
" />
</g><path style="fill:none; 
stroke:#000000; stroke-width:0.100000; stroke-opacity:1; 
stroke-linecap:round; stroke-linejoin:round;fill:none"
d="M 5.858334,1.898250
9.058334,1.898250
9.058334,3.498250
5.858334,3.498250
Z" /> 
</g> 
</svg>
