<?xml version="1.0" standalone="no"?>
 <!DOCTYPE svg PUBLIC "-//W3C//DTD SVG 1.1//EN" 
 "http://www.w3.org/Graphics/SVG/1.1/DTD/svg11.dtd"> 
<svg
  xmlns:svg="http://www.w3.org/2000/svg"
  xmlns="http://www.w3.org/2000/svg"
  xmlns:xlink="http://www.w3.org/1999/xlink"
  xmlns:inkscape="http://www.inkscape.org/namespaces/inkscape"
  version="1.1"
  width="14.909800mm" height="5.384800mm" viewBox="0.000000 0.000000 14.909800 5.384800">
<title>SVG Image created as C_1206_3216Metric.svg date 2026-04-21T00:15:27 </title>
  <desc>Image generated by PCBNEW </desc>
<g style="fill:#000000; fill-opacity:1.000000;stroke:#000000; stroke-opacity:1.000000;
stroke-linecap:round; stroke-linejoin:round;"
 transform="translate(0 0) scale(1 1)">
<path style="fill:none; 
stroke:#000000; stroke-width:0.050000; stroke-opacity:1; 
stroke-linecap:round; stroke-linejoin:round;fill:none"
d="M 5.158334,1.548250
9.758334,1.548250
9.758334,3.848250
5.158334,3.848250
Z" /> 
<path style="fill:#000000; fill-opacity:1.000000; stroke:none;fill-rule:evenodd;"
d="M 5.408334,2.048250
5.427364,1.952579
5.481557,1.871473
5.562663,1.817280
5.658334,1.798250
6.308334,1.798250
6.404005,1.817280
6.485111,1.871473
6.539304,1.952579
6.558334,2.048250
6.558334,3.348250
6.539304,3.443921
6.485111,3.525027
6.404005,3.579220
6.308334,3.598250
5.658334,3.598250
5.562663,3.579220
5.481557,3.525027
5.427364,3.443921
5.408334,3.348250
Z" /> 
<path style="fill:#000000; fill-opacity:1.000000; stroke:none;fill-rule:evenodd;"
d="M 8.358334,2.048250
8.377364,1.952579
8.431557,1.871473
8.512663,1.817280
8.608334,1.798250
9.258334,1.798250
9.354005,1.817280
9.435111,1.871473
9.489304,1.952579
9.508334,2.048250
9.508334,3.348250
9.489304,3.443921
9.435111,3.525027
9.354005,3.579220
9.258334,3.598250
8.608334,3.598250
8.512663,3.579220
8.431557,3.525027
8.377364,3.443921
8.358334,3.348250
Z" /> 
<path style="fill:#000000; fill-opacity:1.000000; stroke:none;fill-rule:evenodd;"
d="M 5.408334,2.048250
5.427364,1.952579
5.481557,1.871473
5.562663,1.817280
5.658334,1.798250
6.308334,1.798250
6.404005,1.817280
6.485111,1.871473
6.539304,1.952579
6.558334,2.048250
6.558334,3.348250
6.539304,3.443921
6.485111,3.525027
6.404005,3.579220
6.308334,3.598250
5.658334,3.598250
5.562663,3.579220
5.481557,3.525027
5.427364,3.443921
5.408334,3.348250
Z" /> 
<path style="fill:#000000; fill-opacity:1.000000; stroke:none;fill-rule:evenodd;"
d="M 8.358334,2.048250
8.377364,1.952579
8.431557,1.871473
8.512663,1.817280
8.608334,1.798250
9.258334,1.798250
9.354005,1.817280
9.435111,1.871473
9.489304,1.952579
9.508334,2.048250
9.508334,3.348250
9.489304,3.443921
9.435111,3.525027
9.354005,3.579220
9.258334,3.598250
8.608334,3.598250
8.512663,3.579220
8.431557,3.525027
8.377364,3.443921
8.358334,3.348250
Z" /> 
</g> 
</svg>
