<?xml version="1.0" standalone="no"?>
 <!DOCTYPE svg PUBLIC "-//W3C//DTD SVG 1.1//EN" 
 "http://www.w3.org/Graphics/SVG/1.1/DTD/svg11.dtd"> 
<svg
  xmlns:svg="http://www.w3.org/2000/svg"
  xmlns="http://www.w3.org/2000/svg"
  xmlns:xlink="http://www.w3.org/1999/xlink"
  xmlns:inkscape="http://www.inkscape.org/namespaces/inkscape"
  version="1.1"
  width="22.656800mm" height="8.483600mm" viewBox="0.000000 0.000000 22.656800 8.483600">
<title>SVG Image created as SOIC-8_3.9x4.9mm_P1.27mm.svg date 2026-04-21T00:15:42 </title>
  <desc>Image generated by PCBNEW </desc>
<g style="fill:#000000; fill-opacity:1.000000;stroke:#000000; stroke-opacity:1.000000;
stroke-linecap:round; stroke-linejoin:round;"
 transform="translate(0 0) scale(1 1)">
</g>
<g style="fill:none; 
stroke:#000000; stroke-width:0.150000; stroke-opacity:1; 
stroke-linecap:round; stroke-linejoin:round;">
<text x="11.339284" y="8.148250"
textLength="22.678569" font-size="1.333333" lengthAdjust="spacingAndGlyphs"
text-anchor="middle" opacity="0" stroke-opacity="0">SOIC-8_3.9x4.9mm_P1.27mm</text>
<g class="stroked-text"><desc>SOIC-8_3.9x4.9mm_P1.27mm</desc>
<path d="M0.315477 8.055450
L0.458334 8.103069
" />
<path d="M0.458334 8.103069
L0.696429 8.103069
" />
<path d="M0.696429 8.103069
L0.791667 8.055450
" />
<path d="M0.791667 8.055450
L0.839286 8.007830
" />
<path d="M0.839286 8.007830
L0.886905 7.912592
" />
<path d="M0.886905 7.912592
L0.886905 7.817354
" />
<path d="M0.886905 7.817354
L0.839286 7.722116
" />
<path d="M0.839286 7.722116
L0.791667 7.674497
" />
<path d="M0.791667 7.674497
L0.696429 7.626878
" />
<path d="M0.696429 7.626878
L0.505953 7.579259
" />
<path d="M0.505953 7.579259
L0.410715 7.531640
" />
<path d="M0.410715 7.531640
L0.363096 7.484021
" />
<path d="M0.363096 7.484021
L0.315477 7.388783
" />
<path d="M0.315477 7.388783
L0.315477 7.293545
" />
<path d="M0.315477 7.293545
L0.363096 7.198307
" />
<path d="M0.363096 7.198307
L0.410715 7.150688
" />
<path d="M0.410715 7.150688
L0.505953 7.103069
" />
<path d="M0.505953 7.103069
L0.744048 7.103069
" />
<path d="M0.744048 7.103069
L0.886905 7.150688
" />
<path d="M1.505953 7.103069
L1.696429 7.103069
" />
<path d="M1.696429 7.103069
L1.791667 7.150688
" />
<path d="M1.791667 7.150688
L1.886905 7.245926
" />
<path d="M1.886905 7.245926
L1.934524 7.436402
" />
<path d="M1.934524 7.436402
L1.934524 7.769735
" />
<path d="M1.934524 7.769735
L1.886905 7.960211
" />
<path d="M1.886905 7.960211
L1.791667 8.055450
" />
<path d="M1.791667 8.055450
L1.696429 8.103069
" />
<path d="M1.696429 8.103069
L1.505953 8.103069
" />
<path d="M1.505953 8.103069
L1.410715 8.055450
" />
<path d="M1.410715 8.055450
L1.315477 7.960211
" />
<path d="M1.315477 7.960211
L1.267858 7.769735
" />
<path d="M1.267858 7.769735
L1.267858 7.436402
" />
<path d="M1.267858 7.436402
L1.315477 7.245926
" />
<path d="M1.315477 7.245926
L1.410715 7.150688
" />
<path d="M1.410715 7.150688
L1.505953 7.103069
" />
<path d="M2.363096 8.103069
L2.363096 7.103069
" />
<path d="M3.410714 8.007830
L3.363095 8.055450
" />
<path d="M3.363095 8.055450
L3.220238 8.103069
" />
<path d="M3.220238 8.103069
L3.125000 8.103069
" />
<path d="M3.125000 8.103069
L2.982143 8.055450
" />
<path d="M2.982143 8.055450
L2.886905 7.960211
" />
<path d="M2.886905 7.960211
L2.839286 7.864973
" />
<path d="M2.839286 7.864973
L2.791667 7.674497
" />
<path d="M2.791667 7.674497
L2.791667 7.531640
" />
<path d="M2.791667 7.531640
L2.839286 7.341164
" />
<path d="M2.839286 7.341164
L2.886905 7.245926
" />
<path d="M2.886905 7.245926
L2.982143 7.150688
" />
<path d="M2.982143 7.150688
L3.125000 7.103069
" />
<path d="M3.125000 7.103069
L3.220238 7.103069
" />
<path d="M3.220238 7.103069
L3.363095 7.150688
" />
<path d="M3.363095 7.150688
L3.410714 7.198307
" />
<path d="M3.839286 7.722116
L4.601190 7.722116
" />
<path d="M5.220238 7.531640
L5.125000 7.484021
" />
<path d="M5.125000 7.484021
L5.077381 7.436402
" />
<path d="M5.077381 7.436402
L5.029762 7.341164
" />
<path d="M5.029762 7.341164
L5.029762 7.293545
" />
<path d="M5.029762 7.293545
L5.077381 7.198307
" />
<path d="M5.077381 7.198307
L5.125000 7.150688
" />
<path d="M5.125000 7.150688
L5.220238 7.103069
" />
<path d="M5.220238 7.103069
L5.410714 7.103069
" />
<path d="M5.410714 7.103069
L5.505952 7.150688
" />
<path d="M5.505952 7.150688
L5.553571 7.198307
" />
<path d="M5.553571 7.198307
L5.601190 7.293545
" />
<path d="M5.601190 7.293545
L5.601190 7.341164
" />
<path d="M5.601190 7.341164
L5.553571 7.436402
" />
<path d="M5.553571 7.436402
L5.505952 7.484021
" />
<path d="M5.505952 7.484021
L5.410714 7.531640
" />
<path d="M5.410714 7.531640
L5.220238 7.531640
" />
<path d="M5.220238 7.531640
L5.125000 7.579259
" />
<path d="M5.125000 7.579259
L5.077381 7.626878
" />
<path d="M5.077381 7.626878
L5.029762 7.722116
" />
<path d="M5.029762 7.722116
L5.029762 7.912592
" />
<path d="M5.029762 7.912592
L5.077381 8.007830
" />
<path d="M5.077381 8.007830
L5.125000 8.055450
" />
<path d="M5.125000 8.055450
L5.220238 8.103069
" />
<path d="M5.220238 8.103069
L5.410714 8.103069
" />
<path d="M5.410714 8.103069
L5.505952 8.055450
" />
<path d="M5.505952 8.055450
L5.553571 8.007830
" />
<path d="M5.553571 8.007830
L5.601190 7.912592
" />
<path d="M5.601190 7.912592
L5.601190 7.722116
" />
<path d="M5.601190 7.722116
L5.553571 7.626878
" />
<path d="M5.553571 7.626878
L5.505952 7.579259
" />
<path d="M5.505952 7.579259
L5.410714 7.531640
" />
<path d="M5.791666 8.198307
L6.553571 8.198307
" />
<path d="M6.696429 7.103069
L7.315476 7.103069
" />
<path d="M7.315476 7.103069
L6.982143 7.484021
" />
<path d="M6.982143 7.484021
L7.125000 7.484021
" />
<path d="M7.125000 7.484021
L7.220238 7.531640
" />
<path d="M7.220238 7.531640
L7.267857 7.579259
" />
<path d="M7.267857 7.579259
L7.315476 7.674497
" />
<path d="M7.315476 7.674497
L7.315476 7.912592
" />
<path d="M7.315476 7.912592
L7.267857 8.007830
" />
<path d="M7.267857 8.007830
L7.220238 8.055450
" />
<path d="M7.220238 8.055450
L7.125000 8.103069
" />
<path d="M7.125000 8.103069
L6.839286 8.103069
" />
<path d="M6.839286 8.103069
L6.744048 8.055450
" />
<path d="M6.744048 8.055450
L6.696429 8.007830
" />
<path d="M7.744048 8.007830
L7.791667 8.055450
" />
<path d="M7.791667 8.055450
L7.744048 8.103069
" />
<path d="M7.744048 8.103069
L7.696429 8.055450
" />
<path d="M7.696429 8.055450
L7.744048 8.007830
" />
<path d="M7.744048 8.007830
L7.744048 8.103069
" />
<path d="M8.267857 8.103069
L8.458333 8.103069
" />
<path d="M8.458333 8.103069
L8.553571 8.055450
" />
<path d="M8.553571 8.055450
L8.601190 8.007830
" />
<path d="M8.601190 8.007830
L8.696428 7.864973
" />
<path d="M8.696428 7.864973
L8.744047 7.674497
" />
<path d="M8.744047 7.674497
L8.744047 7.293545
" />
<path d="M8.744047 7.293545
L8.696428 7.198307
" />
<path d="M8.696428 7.198307
L8.648809 7.150688
" />
<path d="M8.648809 7.150688
L8.553571 7.103069
" />
<path d="M8.553571 7.103069
L8.363095 7.103069
" />
<path d="M8.363095 7.103069
L8.267857 7.150688
" />
<path d="M8.267857 7.150688
L8.220238 7.198307
" />
<path d="M8.220238 7.198307
L8.172619 7.293545
" />
<path d="M8.172619 7.293545
L8.172619 7.531640
" />
<path d="M8.172619 7.531640
L8.220238 7.626878
" />
<path d="M8.220238 7.626878
L8.267857 7.674497
" />
<path d="M8.267857 7.674497
L8.363095 7.722116
" />
<path d="M8.363095 7.722116
L8.553571 7.722116
" />
<path d="M8.553571 7.722116
L8.648809 7.674497
" />
<path d="M8.648809 7.674497
L8.696428 7.626878
" />
<path d="M8.696428 7.626878
L8.744047 7.531640
" />
<path d="M9.077381 8.103069
L9.601190 7.436402
" />
<path d="M9.077381 7.436402
L9.601190 8.103069
" />
<path d="M10.410714 7.436402
L10.410714 8.103069
" />
<path d="M10.172619 7.055450
L9.934524 7.769735
" />
<path d="M9.934524 7.769735
L10.553571 7.769735
" />
<path d="M10.934524 8.007830
L10.982143 8.055450
" />
<path d="M10.982143 8.055450
L10.934524 8.103069
" />
<path d="M10.934524 8.103069
L10.886905 8.055450
" />
<path d="M10.886905 8.055450
L10.934524 8.007830
" />
<path d="M10.934524 8.007830
L10.934524 8.103069
" />
<path d="M11.458332 8.103069
L11.648808 8.103069
" />
<path d="M11.648808 8.103069
L11.744046 8.055450
" />
<path d="M11.744046 8.055450
L11.791665 8.007830
" />
<path d="M11.791665 8.007830
L11.886903 7.864973
" />
<path d="M11.886903 7.864973
L11.934522 7.674497
" />
<path d="M11.934522 7.674497
L11.934522 7.293545
" />
<path d="M11.934522 7.293545
L11.886903 7.198307
" />
<path d="M11.886903 7.198307
L11.839284 7.150688
" />
<path d="M11.839284 7.150688
L11.744046 7.103069
" />
<path d="M11.744046 7.103069
L11.553570 7.103069
" />
<path d="M11.553570 7.103069
L11.458332 7.150688
" />
<path d="M11.458332 7.150688
L11.410713 7.198307
" />
<path d="M11.410713 7.198307
L11.363094 7.293545
" />
<path d="M11.363094 7.293545
L11.363094 7.531640
" />
<path d="M11.363094 7.531640
L11.410713 7.626878
" />
<path d="M11.410713 7.626878
L11.458332 7.674497
" />
<path d="M11.458332 7.674497
L11.553570 7.722116
" />
<path d="M11.553570 7.722116
L11.744046 7.722116
" />
<path d="M11.744046 7.722116
L11.839284 7.674497
" />
<path d="M11.839284 7.674497
L11.886903 7.626878
" />
<path d="M11.886903 7.626878
L11.934522 7.531640
" />
<path d="M12.363094 8.103069
L12.363094 7.436402
" />
<path d="M12.363094 7.531640
L12.410713 7.484021
" />
<path d="M12.410713 7.484021
L12.505951 7.436402
" />
<path d="M12.505951 7.436402
L12.648808 7.436402
" />
<path d="M12.648808 7.436402
L12.744046 7.484021
" />
<path d="M12.744046 7.484021
L12.791665 7.579259
" />
<path d="M12.791665 7.579259
L12.791665 8.103069
" />
<path d="M12.791665 7.579259
L12.839284 7.484021
" />
<path d="M12.839284 7.484021
L12.934522 7.436402
" />
<path d="M12.934522 7.436402
L13.077379 7.436402
" />
<path d="M13.077379 7.436402
L13.172618 7.484021
" />
<path d="M13.172618 7.484021
L13.220237 7.579259
" />
<path d="M13.220237 7.579259
L13.220237 8.103069
" />
<path d="M13.696427 8.103069
L13.696427 7.436402
" />
<path d="M13.696427 7.531640
L13.744046 7.484021
" />
<path d="M13.744046 7.484021
L13.839284 7.436402
" />
<path d="M13.839284 7.436402
L13.982141 7.436402
" />
<path d="M13.982141 7.436402
L14.077379 7.484021
" />
<path d="M14.077379 7.484021
L14.124998 7.579259
" />
<path d="M14.124998 7.579259
L14.124998 8.103069
" />
<path d="M14.124998 7.579259
L14.172617 7.484021
" />
<path d="M14.172617 7.484021
L14.267855 7.436402
" />
<path d="M14.267855 7.436402
L14.410712 7.436402
" />
<path d="M14.410712 7.436402
L14.505951 7.484021
" />
<path d="M14.505951 7.484021
L14.553570 7.579259
" />
<path d="M14.553570 7.579259
L14.553570 8.103069
" />
<path d="M14.791665 8.198307
L15.553569 8.198307
" />
<path d="M15.791665 8.103069
L15.791665 7.103069
" />
<path d="M15.791665 7.103069
L16.172617 7.103069
" />
<path d="M16.172617 7.103069
L16.267855 7.150688
" />
<path d="M16.267855 7.150688
L16.315474 7.198307
" />
<path d="M16.315474 7.198307
L16.363093 7.293545
" />
<path d="M16.363093 7.293545
L16.363093 7.436402
" />
<path d="M16.363093 7.436402
L16.315474 7.531640
" />
<path d="M16.315474 7.531640
L16.267855 7.579259
" />
<path d="M16.267855 7.579259
L16.172617 7.626878
" />
<path d="M16.172617 7.626878
L15.791665 7.626878
" />
<path d="M17.315474 8.103069
L16.744046 8.103069
" />
<path d="M17.029760 8.103069
L17.029760 7.103069
" />
<path d="M17.029760 7.103069
L16.934522 7.245926
" />
<path d="M16.934522 7.245926
L16.839284 7.341164
" />
<path d="M16.839284 7.341164
L16.744046 7.388783
" />
<path d="M17.744046 8.007830
L17.791665 8.055450
" />
<path d="M17.791665 8.055450
L17.744046 8.103069
" />
<path d="M17.744046 8.103069
L17.696427 8.055450
" />
<path d="M17.696427 8.055450
L17.744046 8.007830
" />
<path d="M17.744046 8.007830
L17.744046 8.103069
" />
<path d="M18.172617 7.198307
L18.220236 7.150688
" />
<path d="M18.220236 7.150688
L18.315474 7.103069
" />
<path d="M18.315474 7.103069
L18.553569 7.103069
" />
<path d="M18.553569 7.103069
L18.648807 7.150688
" />
<path d="M18.648807 7.150688
L18.696426 7.198307
" />
<path d="M18.696426 7.198307
L18.744045 7.293545
" />
<path d="M18.744045 7.293545
L18.744045 7.388783
" />
<path d="M18.744045 7.388783
L18.696426 7.531640
" />
<path d="M18.696426 7.531640
L18.124998 8.103069
" />
<path d="M18.124998 8.103069
L18.744045 8.103069
" />
<path d="M19.077379 7.103069
L19.744045 7.103069
" />
<path d="M19.744045 7.103069
L19.315474 8.103069
" />
<path d="M20.124998 8.103069
L20.124998 7.436402
" />
<path d="M20.124998 7.531640
L20.172617 7.484021
" />
<path d="M20.172617 7.484021
L20.267855 7.436402
" />
<path d="M20.267855 7.436402
L20.410712 7.436402
" />
<path d="M20.410712 7.436402
L20.505950 7.484021
" />
<path d="M20.505950 7.484021
L20.553569 7.579259
" />
<path d="M20.553569 7.579259
L20.553569 8.103069
" />
<path d="M20.553569 7.579259
L20.601188 7.484021
" />
<path d="M20.601188 7.484021
L20.696426 7.436402
" />
<path d="M20.696426 7.436402
L20.839283 7.436402
" />
<path d="M20.839283 7.436402
L20.934522 7.484021
" />
<path d="M20.934522 7.484021
L20.982141 7.579259
" />
<path d="M20.982141 7.579259
L20.982141 8.103069
" />
<path d="M21.458331 8.103069
L21.458331 7.436402
" />
<path d="M21.458331 7.531640
L21.505950 7.484021
" />
<path d="M21.505950 7.484021
L21.601188 7.436402
" />
<path d="M21.601188 7.436402
L21.744045 7.436402
" />
<path d="M21.744045 7.436402
L21.839283 7.484021
" />
<path d="M21.839283 7.484021
L21.886902 7.579259
" />
<path d="M21.886902 7.579259
L21.886902 8.103069
" />
<path d="M21.886902 7.579259
L21.934521 7.484021
" />
<path d="M21.934521 7.484021
L22.029759 7.436402
" />
<path d="M22.029759 7.436402
L22.172616 7.436402
" />
<path d="M22.172616 7.436402
L22.267855 7.484021
" />
<path d="M22.267855 7.484021
L22.315474 7.579259
" />
<path d="M22.315474 7.579259
L22.315474 8.103069
" />
</g><g transform="rotate(-90.000000 11.339284 4.248250)">
<text x="11.339284" y="4.748250"
textLength="4.535715" font-size="1.333333" lengthAdjust="spacingAndGlyphs"
text-anchor="middle" opacity="0" stroke-opacity="0">REF**</text>
</g>
<g class="stroked-text"><desc>REF**</desc>
<path d="M11.794103 5.581583
L11.317913 5.914916
" />
<path d="M11.794103 6.153011
L10.794104 6.153011
" />
<path d="M10.794104 6.153011
L10.794104 5.772059
" />
<path d="M10.794104 5.772059
L10.841723 5.676821
" />
<path d="M10.841723 5.676821
L10.889342 5.629202
" />
<path d="M10.889342 5.629202
L10.984580 5.581583
" />
<path d="M10.984580 5.581583
L11.127437 5.581583
" />
<path d="M11.127437 5.581583
L11.222675 5.629202
" />
<path d="M11.222675 5.629202
L11.270294 5.676821
" />
<path d="M11.270294 5.676821
L11.317913 5.772059
" />
<path d="M11.317913 5.772059
L11.317913 6.153011
" />
<path d="M11.270294 5.153011
L11.270294 4.819678
" />
<path d="M11.794103 4.676821
L11.794103 5.153011
" />
<path d="M11.794103 5.153011
L10.794104 5.153011
" />
<path d="M10.794104 5.153011
L10.794104 4.676821
" />
<path d="M11.270294 3.914917
L11.270294 4.248250
" />
<path d="M11.794103 4.248250
L10.794104 4.248250
" />
<path d="M10.794104 4.248250
L10.794104 3.772060
" />
<path d="M10.794104 3.248250
L11.032199 3.248250
" />
<path d="M10.936961 3.486345
L11.032199 3.248250
" />
<path d="M11.032199 3.248250
L10.936961 3.010155
" />
<path d="M11.222675 3.391107
L11.032199 3.248250
" />
<path d="M11.032199 3.248250
L11.222675 3.105393
" />
<path d="M10.794104 2.486345
L11.032199 2.486345
" />
<path d="M10.936961 2.724440
L11.032199 2.486345
" />
<path d="M11.032199 2.486345
L10.936961 2.248250
" />
<path d="M11.222675 2.629202
L11.032199 2.486345
" />
<path d="M11.032199 2.486345
L11.222675 2.343488
" />
</g><path style="fill:none; 
stroke:#000000; stroke-width:0.100000; stroke-opacity:1; 
stroke-linecap:round; stroke-linejoin:round;fill:none"
d="M 13.289284,6.698250
9.389284,6.698250
9.389284,2.773250
10.364284,1.798250
13.289284,1.798250
Z" /> 
</g> 
</svg>
