<?xml version="1.0" standalone="no"?>
 <!DOCTYPE svg PUBLIC "-//W3C//DTD SVG 1.1//EN" 
 "http://www.w3.org/Graphics/SVG/1.1/DTD/svg11.dtd"> 
<svg
  xmlns:svg="http://www.w3.org/2000/svg"
  xmlns="http://www.w3.org/2000/svg"
  xmlns:xlink="http://www.w3.org/1999/xlink"
  xmlns:inkscape="http://www.inkscape.org/namespaces/inkscape"
  version="1.1"
  width="22.656800mm" height="8.483600mm" viewBox="0.000000 0.000000 22.656800 8.483600">
<title>SVG Image created as SOIC-8_3.9x4.9mm_P1.27mm.svg date 2026-04-21T17:26:57 </title>
  <desc>Image generated by PCBNEW </desc>
<g style="fill:#000000; fill-opacity:1.000000;stroke:#000000; stroke-opacity:1.000000;
stroke-linecap:round; stroke-linejoin:round;"
 transform="translate(0 0) scale(1 1)">
</g>
<g style="fill:none; 
stroke:#000000; stroke-width:0.050000; stroke-opacity:1; 
stroke-linecap:round; stroke-linejoin:round;">
<path d="M7.639284 1.788250
L9.139284 1.788250
" />
<path d="M7.639284 6.708250
L7.639284 1.788250
" />
<path d="M9.139284 1.548250
L13.539284 1.548250
" />
<path d="M9.139284 1.788250
L9.139284 1.548250
" />
<path d="M9.139284 6.708250
L7.639284 6.708250
" />
<path d="M9.139284 6.948250
L9.139284 6.708250
" />
<path d="M13.539284 1.548250
L13.539284 1.788250
" />
<path d="M13.539284 1.788250
L15.039284 1.788250
" />
<path d="M13.539284 6.708250
L13.539284 6.948250
" />
<path d="M13.539284 6.948250
L9.139284 6.948250
" />
<path d="M15.039284 1.788250
L15.039284 6.708250
" />
<path d="M15.039284 6.708250
L13.539284 6.708250
" />
<path style="fill:#000000; fill-opacity:1.000000; stroke:none;fill-rule:evenodd;"
d="M 7.889284,2.193250
7.900702,2.135847
7.933218,2.087184
7.981881,2.054668
8.039284,2.043250
9.689284,2.043250
9.746687,2.054668
9.795350,2.087184
9.827866,2.135847
9.839284,2.193250
9.839284,2.493250
9.827866,2.550653
9.795350,2.599316
9.746687,2.631832
9.689284,2.643250
8.039284,2.643250
7.981881,2.631832
7.933218,2.599316
7.900702,2.550653
7.889284,2.493250
Z" /> 
<path style="fill:#000000; fill-opacity:1.000000; stroke:none;fill-rule:evenodd;"
d="M 7.889284,3.463250
7.900702,3.405847
7.933218,3.357184
7.981881,3.324668
8.039284,3.313250
9.689284,3.313250
9.746687,3.324668
9.795350,3.357184
9.827866,3.405847
9.839284,3.463250
9.839284,3.763250
9.827866,3.820653
9.795350,3.869316
9.746687,3.901832
9.689284,3.913250
8.039284,3.913250
7.981881,3.901832
7.933218,3.869316
7.900702,3.820653
7.889284,3.763250
Z" /> 
<path style="fill:#000000; fill-opacity:1.000000; stroke:none;fill-rule:evenodd;"
d="M 7.889284,4.733250
7.900702,4.675847
7.933218,4.627184
7.981881,4.594668
8.039284,4.583250
9.689284,4.583250
9.746687,4.594668
9.795350,4.627184
9.827866,4.675847
9.839284,4.733250
9.839284,5.033250
9.827866,5.090653
9.795350,5.139316
9.746687,5.171832
9.689284,5.183250
8.039284,5.183250
7.981881,5.171832
7.933218,5.139316
7.900702,5.090653
7.889284,5.033250
Z" /> 
<path style="fill:#000000; fill-opacity:1.000000; stroke:none;fill-rule:evenodd;"
d="M 7.889284,6.003250
7.900702,5.945847
7.933218,5.897184
7.981881,5.864668
8.039284,5.853250
9.689284,5.853250
9.746687,5.864668
9.795350,5.897184
9.827866,5.945847
9.839284,6.003250
9.839284,6.303250
9.827866,6.360653
9.795350,6.409316
9.746687,6.441832
9.689284,6.453250
8.039284,6.453250
7.981881,6.441832
7.933218,6.409316
7.900702,6.360653
7.889284,6.303250
Z" /> 
<path style="fill:#000000; fill-opacity:1.000000; stroke:none;fill-rule:evenodd;"
d="M 12.839284,6.003250
12.850702,5.945847
12.883218,5.897184
12.931881,5.864668
12.989284,5.853250
14.639284,5.853250
14.696687,5.864668
14.745350,5.897184
14.777866,5.945847
14.789284,6.003250
14.789284,6.303250
14.777866,6.360653
14.745350,6.409316
14.696687,6.441832
14.639284,6.453250
12.989284,6.453250
12.931881,6.441832
12.883218,6.409316
12.850702,6.360653
12.839284,6.303250
Z" /> 
<path style="fill:#000000; fill-opacity:1.000000; stroke:none;fill-rule:evenodd;"
d="M 12.839284,4.733250
12.850702,4.675847
12.883218,4.627184
12.931881,4.594668
12.989284,4.583250
14.639284,4.583250
14.696687,4.594668
14.745350,4.627184
14.777866,4.675847
14.789284,4.733250
14.789284,5.033250
14.777866,5.090653
14.745350,5.139316
14.696687,5.171832
14.639284,5.183250
12.989284,5.183250
12.931881,5.171832
12.883218,5.139316
12.850702,5.090653
12.839284,5.033250
Z" /> 
<path style="fill:#000000; fill-opacity:1.000000; stroke:none;fill-rule:evenodd;"
d="M 12.839284,3.463250
12.850702,3.405847
12.883218,3.357184
12.931881,3.324668
12.989284,3.313250
14.639284,3.313250
14.696687,3.324668
14.745350,3.357184
14.777866,3.405847
14.789284,3.463250
14.789284,3.763250
14.777866,3.820653
14.745350,3.869316
14.696687,3.901832
14.639284,3.913250
12.989284,3.913250
12.931881,3.901832
12.883218,3.869316
12.850702,3.820653
12.839284,3.763250
Z" /> 
<path style="fill:#000000; fill-opacity:1.000000; stroke:none;fill-rule:evenodd;"
d="M 12.839284,2.193250
12.850702,2.135847
12.883218,2.087184
12.931881,2.054668
12.989284,2.043250
14.639284,2.043250
14.696687,2.054668
14.745350,2.087184
14.777866,2.135847
14.789284,2.193250
14.789284,2.493250
14.777866,2.550653
14.745350,2.599316
14.696687,2.631832
14.639284,2.643250
12.989284,2.643250
12.931881,2.631832
12.883218,2.599316
12.850702,2.550653
12.839284,2.493250
Z" /> 
<path style="fill:#000000; fill-opacity:1.000000; stroke:none;fill-rule:evenodd;"
d="M 7.889284,2.193250
7.900702,2.135847
7.933218,2.087184
7.981881,2.054668
8.039284,2.043250
9.689284,2.043250
9.746687,2.054668
9.795350,2.087184
9.827866,2.135847
9.839284,2.193250
9.839284,2.493250
9.827866,2.550653
9.795350,2.599316
9.746687,2.631832
9.689284,2.643250
8.039284,2.643250
7.981881,2.631832
7.933218,2.599316
7.900702,2.550653
7.889284,2.493250
Z" /> 
<path style="fill:#000000; fill-opacity:1.000000; stroke:none;fill-rule:evenodd;"
d="M 7.889284,3.463250
7.900702,3.405847
7.933218,3.357184
7.981881,3.324668
8.039284,3.313250
9.689284,3.313250
9.746687,3.324668
9.795350,3.357184
9.827866,3.405847
9.839284,3.463250
9.839284,3.763250
9.827866,3.820653
9.795350,3.869316
9.746687,3.901832
9.689284,3.913250
8.039284,3.913250
7.981881,3.901832
7.933218,3.869316
7.900702,3.820653
7.889284,3.763250
Z" /> 
<path style="fill:#000000; fill-opacity:1.000000; stroke:none;fill-rule:evenodd;"
d="M 7.889284,4.733250
7.900702,4.675847
7.933218,4.627184
7.981881,4.594668
8.039284,4.583250
9.689284,4.583250
9.746687,4.594668
9.795350,4.627184
9.827866,4.675847
9.839284,4.733250
9.839284,5.033250
9.827866,5.090653
9.795350,5.139316
9.746687,5.171832
9.689284,5.183250
8.039284,5.183250
7.981881,5.171832
7.933218,5.139316
7.900702,5.090653
7.889284,5.033250
Z" /> 
<path style="fill:#000000; fill-opacity:1.000000; stroke:none;fill-rule:evenodd;"
d="M 7.889284,6.003250
7.900702,5.945847
7.933218,5.897184
7.981881,5.864668
8.039284,5.853250
9.689284,5.853250
9.746687,5.864668
9.795350,5.897184
9.827866,5.945847
9.839284,6.003250
9.839284,6.303250
9.827866,6.360653
9.795350,6.409316
9.746687,6.441832
9.689284,6.453250
8.039284,6.453250
7.981881,6.441832
7.933218,6.409316
7.900702,6.360653
7.889284,6.303250
Z" /> 
<path style="fill:#000000; fill-opacity:1.000000; stroke:none;fill-rule:evenodd;"
d="M 12.839284,6.003250
12.850702,5.945847
12.883218,5.897184
12.931881,5.864668
12.989284,5.853250
14.639284,5.853250
14.696687,5.864668
14.745350,5.897184
14.777866,5.945847
14.789284,6.003250
14.789284,6.303250
14.777866,6.360653
14.745350,6.409316
14.696687,6.441832
14.639284,6.453250
12.989284,6.453250
12.931881,6.441832
12.883218,6.409316
12.850702,6.360653
12.839284,6.303250
Z" /> 
<path style="fill:#000000; fill-opacity:1.000000; stroke:none;fill-rule:evenodd;"
d="M 12.839284,4.733250
12.850702,4.675847
12.883218,4.627184
12.931881,4.594668
12.989284,4.583250
14.639284,4.583250
14.696687,4.594668
14.745350,4.627184
14.777866,4.675847
14.789284,4.733250
14.789284,5.033250
14.777866,5.090653
14.745350,5.139316
14.696687,5.171832
14.639284,5.183250
12.989284,5.183250
12.931881,5.171832
12.883218,5.139316
12.850702,5.090653
12.839284,5.033250
Z" /> 
<path style="fill:#000000; fill-opacity:1.000000; stroke:none;fill-rule:evenodd;"
d="M 12.839284,3.463250
12.850702,3.405847
12.883218,3.357184
12.931881,3.324668
12.989284,3.313250
14.639284,3.313250
14.696687,3.324668
14.745350,3.357184
14.777866,3.405847
14.789284,3.463250
14.789284,3.763250
14.777866,3.820653
14.745350,3.869316
14.696687,3.901832
14.639284,3.913250
12.989284,3.913250
12.931881,3.901832
12.883218,3.869316
12.850702,3.820653
12.839284,3.763250
Z" /> 
<path style="fill:#000000; fill-opacity:1.000000; stroke:none;fill-rule:evenodd;"
d="M 12.839284,2.193250
12.850702,2.135847
12.883218,2.087184
12.931881,2.054668
12.989284,2.043250
14.639284,2.043250
14.696687,2.054668
14.745350,2.087184
14.777866,2.135847
14.789284,2.193250
14.789284,2.493250
14.777866,2.550653
14.745350,2.599316
14.696687,2.631832
14.639284,2.643250
12.989284,2.643250
12.931881,2.631832
12.883218,2.599316
12.850702,2.550653
12.839284,2.493250
Z" /> 
</g> 
</svg>
