<?xml version="1.0" standalone="no"?>
 <!DOCTYPE svg PUBLIC "-//W3C//DTD SVG 1.1//EN" 
 "http://www.w3.org/Graphics/SVG/1.1/DTD/svg11.dtd"> 
<svg
  xmlns:svg="http://www.w3.org/2000/svg"
  xmlns="http://www.w3.org/2000/svg"
  xmlns:xlink="http://www.w3.org/1999/xlink"
  xmlns:inkscape="http://www.inkscape.org/namespaces/inkscape"
  version="1.1"
  width="14.909800mm" height="5.054600mm" viewBox="0.000000 0.000000 14.909800 5.054600">
<title>SVG Image created as C_0805_2012Metric.svg date 2026-04-21T17:26:40 </title>
  <desc>Image generated by PCBNEW </desc>
<g style="fill:#000000; fill-opacity:1.000000;stroke:#000000; stroke-opacity:1.000000;
stroke-linecap:round; stroke-linejoin:round;"
 transform="translate(0 0) scale(1 1)">
</g>
<g style="fill:none; 
stroke:#000000; stroke-width:0.150000; stroke-opacity:1; 
stroke-linecap:round; stroke-linejoin:round;">
<text x="7.458334" y="4.708250"
textLength="14.916668" font-size="1.333333" lengthAdjust="spacingAndGlyphs"
text-anchor="middle" opacity="0" stroke-opacity="0">C_0805_2012Metric</text>
<g class="stroked-text"><desc>C_0805_2012Metric</desc>
<path d="M0.934524 4.567830
L0.886905 4.615450
" />
<path d="M0.886905 4.615450
L0.744048 4.663069
" />
<path d="M0.744048 4.663069
L0.648810 4.663069
" />
<path d="M0.648810 4.663069
L0.505953 4.615450
" />
<path d="M0.505953 4.615450
L0.410715 4.520211
" />
<path d="M0.410715 4.520211
L0.363096 4.424973
" />
<path d="M0.363096 4.424973
L0.315477 4.234497
" />
<path d="M0.315477 4.234497
L0.315477 4.091640
" />
<path d="M0.315477 4.091640
L0.363096 3.901164
" />
<path d="M0.363096 3.901164
L0.410715 3.805926
" />
<path d="M0.410715 3.805926
L0.505953 3.710688
" />
<path d="M0.505953 3.710688
L0.648810 3.663069
" />
<path d="M0.648810 3.663069
L0.744048 3.663069
" />
<path d="M0.744048 3.663069
L0.886905 3.710688
" />
<path d="M0.886905 3.710688
L0.934524 3.758307
" />
<path d="M1.125000 4.758307
L1.886905 4.758307
" />
<path d="M2.315477 3.663069
L2.410715 3.663069
" />
<path d="M2.410715 3.663069
L2.505953 3.710688
" />
<path d="M2.505953 3.710688
L2.553572 3.758307
" />
<path d="M2.553572 3.758307
L2.601191 3.853545
" />
<path d="M2.601191 3.853545
L2.648810 4.044021
" />
<path d="M2.648810 4.044021
L2.648810 4.282116
" />
<path d="M2.648810 4.282116
L2.601191 4.472592
" />
<path d="M2.601191 4.472592
L2.553572 4.567830
" />
<path d="M2.553572 4.567830
L2.505953 4.615450
" />
<path d="M2.505953 4.615450
L2.410715 4.663069
" />
<path d="M2.410715 4.663069
L2.315477 4.663069
" />
<path d="M2.315477 4.663069
L2.220239 4.615450
" />
<path d="M2.220239 4.615450
L2.172620 4.567830
" />
<path d="M2.172620 4.567830
L2.125001 4.472592
" />
<path d="M2.125001 4.472592
L2.077382 4.282116
" />
<path d="M2.077382 4.282116
L2.077382 4.044021
" />
<path d="M2.077382 4.044021
L2.125001 3.853545
" />
<path d="M2.125001 3.853545
L2.172620 3.758307
" />
<path d="M2.172620 3.758307
L2.220239 3.710688
" />
<path d="M2.220239 3.710688
L2.315477 3.663069
" />
<path d="M3.220239 4.091640
L3.125001 4.044021
" />
<path d="M3.125001 4.044021
L3.077382 3.996402
" />
<path d="M3.077382 3.996402
L3.029763 3.901164
" />
<path d="M3.029763 3.901164
L3.029763 3.853545
" />
<path d="M3.029763 3.853545
L3.077382 3.758307
" />
<path d="M3.077382 3.758307
L3.125001 3.710688
" />
<path d="M3.125001 3.710688
L3.220239 3.663069
" />
<path d="M3.220239 3.663069
L3.410715 3.663069
" />
<path d="M3.410715 3.663069
L3.505953 3.710688
" />
<path d="M3.505953 3.710688
L3.553572 3.758307
" />
<path d="M3.553572 3.758307
L3.601191 3.853545
" />
<path d="M3.601191 3.853545
L3.601191 3.901164
" />
<path d="M3.601191 3.901164
L3.553572 3.996402
" />
<path d="M3.553572 3.996402
L3.505953 4.044021
" />
<path d="M3.505953 4.044021
L3.410715 4.091640
" />
<path d="M3.410715 4.091640
L3.220239 4.091640
" />
<path d="M3.220239 4.091640
L3.125001 4.139259
" />
<path d="M3.125001 4.139259
L3.077382 4.186878
" />
<path d="M3.077382 4.186878
L3.029763 4.282116
" />
<path d="M3.029763 4.282116
L3.029763 4.472592
" />
<path d="M3.029763 4.472592
L3.077382 4.567830
" />
<path d="M3.077382 4.567830
L3.125001 4.615450
" />
<path d="M3.125001 4.615450
L3.220239 4.663069
" />
<path d="M3.220239 4.663069
L3.410715 4.663069
" />
<path d="M3.410715 4.663069
L3.505953 4.615450
" />
<path d="M3.505953 4.615450
L3.553572 4.567830
" />
<path d="M3.553572 4.567830
L3.601191 4.472592
" />
<path d="M3.601191 4.472592
L3.601191 4.282116
" />
<path d="M3.601191 4.282116
L3.553572 4.186878
" />
<path d="M3.553572 4.186878
L3.505953 4.139259
" />
<path d="M3.505953 4.139259
L3.410715 4.091640
" />
<path d="M4.220239 3.663069
L4.315477 3.663069
" />
<path d="M4.315477 3.663069
L4.410715 3.710688
" />
<path d="M4.410715 3.710688
L4.458334 3.758307
" />
<path d="M4.458334 3.758307
L4.505953 3.853545
" />
<path d="M4.505953 3.853545
L4.553572 4.044021
" />
<path d="M4.553572 4.044021
L4.553572 4.282116
" />
<path d="M4.553572 4.282116
L4.505953 4.472592
" />
<path d="M4.505953 4.472592
L4.458334 4.567830
" />
<path d="M4.458334 4.567830
L4.410715 4.615450
" />
<path d="M4.410715 4.615450
L4.315477 4.663069
" />
<path d="M4.315477 4.663069
L4.220239 4.663069
" />
<path d="M4.220239 4.663069
L4.125001 4.615450
" />
<path d="M4.125001 4.615450
L4.077382 4.567830
" />
<path d="M4.077382 4.567830
L4.029763 4.472592
" />
<path d="M4.029763 4.472592
L3.982144 4.282116
" />
<path d="M3.982144 4.282116
L3.982144 4.044021
" />
<path d="M3.982144 4.044021
L4.029763 3.853545
" />
<path d="M4.029763 3.853545
L4.077382 3.758307
" />
<path d="M4.077382 3.758307
L4.125001 3.710688
" />
<path d="M4.125001 3.710688
L4.220239 3.663069
" />
<path d="M5.458334 3.663069
L4.982144 3.663069
" />
<path d="M4.982144 3.663069
L4.934525 4.139259
" />
<path d="M4.934525 4.139259
L4.982144 4.091640
" />
<path d="M4.982144 4.091640
L5.077382 4.044021
" />
<path d="M5.077382 4.044021
L5.315477 4.044021
" />
<path d="M5.315477 4.044021
L5.410715 4.091640
" />
<path d="M5.410715 4.091640
L5.458334 4.139259
" />
<path d="M5.458334 4.139259
L5.505953 4.234497
" />
<path d="M5.505953 4.234497
L5.505953 4.472592
" />
<path d="M5.505953 4.472592
L5.458334 4.567830
" />
<path d="M5.458334 4.567830
L5.410715 4.615450
" />
<path d="M5.410715 4.615450
L5.315477 4.663069
" />
<path d="M5.315477 4.663069
L5.077382 4.663069
" />
<path d="M5.077382 4.663069
L4.982144 4.615450
" />
<path d="M4.982144 4.615450
L4.934525 4.567830
" />
<path d="M5.696429 4.758307
L6.458334 4.758307
" />
<path d="M6.648811 3.758307
L6.696430 3.710688
" />
<path d="M6.696430 3.710688
L6.791668 3.663069
" />
<path d="M6.791668 3.663069
L7.029763 3.663069
" />
<path d="M7.029763 3.663069
L7.125001 3.710688
" />
<path d="M7.125001 3.710688
L7.172620 3.758307
" />
<path d="M7.172620 3.758307
L7.220239 3.853545
" />
<path d="M7.220239 3.853545
L7.220239 3.948783
" />
<path d="M7.220239 3.948783
L7.172620 4.091640
" />
<path d="M7.172620 4.091640
L6.601192 4.663069
" />
<path d="M6.601192 4.663069
L7.220239 4.663069
" />
<path d="M7.839286 3.663069
L7.934524 3.663069
" />
<path d="M7.934524 3.663069
L8.029762 3.710688
" />
<path d="M8.029762 3.710688
L8.077381 3.758307
" />
<path d="M8.077381 3.758307
L8.125000 3.853545
" />
<path d="M8.125000 3.853545
L8.172619 4.044021
" />
<path d="M8.172619 4.044021
L8.172619 4.282116
" />
<path d="M8.172619 4.282116
L8.125000 4.472592
" />
<path d="M8.125000 4.472592
L8.077381 4.567830
" />
<path d="M8.077381 4.567830
L8.029762 4.615450
" />
<path d="M8.029762 4.615450
L7.934524 4.663069
" />
<path d="M7.934524 4.663069
L7.839286 4.663069
" />
<path d="M7.839286 4.663069
L7.744048 4.615450
" />
<path d="M7.744048 4.615450
L7.696429 4.567830
" />
<path d="M7.696429 4.567830
L7.648810 4.472592
" />
<path d="M7.648810 4.472592
L7.601191 4.282116
" />
<path d="M7.601191 4.282116
L7.601191 4.044021
" />
<path d="M7.601191 4.044021
L7.648810 3.853545
" />
<path d="M7.648810 3.853545
L7.696429 3.758307
" />
<path d="M7.696429 3.758307
L7.744048 3.710688
" />
<path d="M7.744048 3.710688
L7.839286 3.663069
" />
<path d="M9.125000 4.663069
L8.553572 4.663069
" />
<path d="M8.839286 4.663069
L8.839286 3.663069
" />
<path d="M8.839286 3.663069
L8.744048 3.805926
" />
<path d="M8.744048 3.805926
L8.648810 3.901164
" />
<path d="M8.648810 3.901164
L8.553572 3.948783
" />
<path d="M9.505953 3.758307
L9.553572 3.710688
" />
<path d="M9.553572 3.710688
L9.648810 3.663069
" />
<path d="M9.648810 3.663069
L9.886905 3.663069
" />
<path d="M9.886905 3.663069
L9.982143 3.710688
" />
<path d="M9.982143 3.710688
L10.029762 3.758307
" />
<path d="M10.029762 3.758307
L10.077381 3.853545
" />
<path d="M10.077381 3.853545
L10.077381 3.948783
" />
<path d="M10.077381 3.948783
L10.029762 4.091640
" />
<path d="M10.029762 4.091640
L9.458334 4.663069
" />
<path d="M9.458334 4.663069
L10.077381 4.663069
" />
<path d="M10.505953 4.663069
L10.505953 3.663069
" />
<path d="M10.505953 3.663069
L10.839286 4.377354
" />
<path d="M10.839286 4.377354
L11.172619 3.663069
" />
<path d="M11.172619 3.663069
L11.172619 4.663069
" />
<path d="M12.029762 4.615450
L11.934524 4.663069
" />
<path d="M11.934524 4.663069
L11.744048 4.663069
" />
<path d="M11.744048 4.663069
L11.648810 4.615450
" />
<path d="M11.648810 4.615450
L11.601191 4.520211
" />
<path d="M11.601191 4.520211
L11.601191 4.139259
" />
<path d="M11.601191 4.139259
L11.648810 4.044021
" />
<path d="M11.648810 4.044021
L11.744048 3.996402
" />
<path d="M11.744048 3.996402
L11.934524 3.996402
" />
<path d="M11.934524 3.996402
L12.029762 4.044021
" />
<path d="M12.029762 4.044021
L12.077381 4.139259
" />
<path d="M12.077381 4.139259
L12.077381 4.234497
" />
<path d="M12.077381 4.234497
L11.601191 4.329735
" />
<path d="M12.363096 3.996402
L12.744048 3.996402
" />
<path d="M12.505953 3.663069
L12.505953 4.520211
" />
<path d="M12.505953 4.520211
L12.553572 4.615450
" />
<path d="M12.553572 4.615450
L12.648810 4.663069
" />
<path d="M12.648810 4.663069
L12.744048 4.663069
" />
<path d="M13.077382 4.663069
L13.077382 3.996402
" />
<path d="M13.077382 4.186878
L13.125001 4.091640
" />
<path d="M13.125001 4.091640
L13.172620 4.044021
" />
<path d="M13.172620 4.044021
L13.267858 3.996402
" />
<path d="M13.267858 3.996402
L13.363096 3.996402
" />
<path d="M13.696430 4.663069
L13.696430 3.996402
" />
<path d="M13.696430 3.663069
L13.648811 3.710688
" />
<path d="M13.648811 3.710688
L13.696430 3.758307
" />
<path d="M13.696430 3.758307
L13.744049 3.710688
" />
<path d="M13.744049 3.710688
L13.696430 3.663069
" />
<path d="M13.696430 3.663069
L13.696430 3.758307
" />
<path d="M14.601191 4.615450
L14.505953 4.663069
" />
<path d="M14.505953 4.663069
L14.315477 4.663069
" />
<path d="M14.315477 4.663069
L14.220239 4.615450
" />
<path d="M14.220239 4.615450
L14.172620 4.567830
" />
<path d="M14.172620 4.567830
L14.125001 4.472592
" />
<path d="M14.125001 4.472592
L14.125001 4.186878
" />
<path d="M14.125001 4.186878
L14.172620 4.091640
" />
<path d="M14.172620 4.091640
L14.220239 4.044021
" />
<path d="M14.220239 4.044021
L14.315477 3.996402
" />
<path d="M14.315477 3.996402
L14.505953 3.996402
" />
<path d="M14.505953 3.996402
L14.601191 4.044021
" />
</g></g>
<g style="fill:none; 
stroke:#000000; stroke-width:0.080000; stroke-opacity:1; 
stroke-linecap:round; stroke-linejoin:round;">
<text x="7.458334" y="2.778250"
textLength="2.282856" font-size="0.666666" lengthAdjust="spacingAndGlyphs"
text-anchor="middle" opacity="0" stroke-opacity="0">REF**</text>
<g class="stroked-text"><desc>REF**</desc>
<path d="M6.791668 2.755399
L6.625002 2.517305
" />
<path d="M6.505954 2.755399
L6.505954 2.255400
" />
<path d="M6.505954 2.255400
L6.696430 2.255400
" />
<path d="M6.696430 2.255400
L6.744049 2.279210
" />
<path d="M6.744049 2.279210
L6.767859 2.303019
" />
<path d="M6.767859 2.303019
L6.791668 2.350638
" />
<path d="M6.791668 2.350638
L6.791668 2.422067
" />
<path d="M6.791668 2.422067
L6.767859 2.469686
" />
<path d="M6.767859 2.469686
L6.744049 2.493495
" />
<path d="M6.744049 2.493495
L6.696430 2.517305
" />
<path d="M6.696430 2.517305
L6.505954 2.517305
" />
<path d="M7.005954 2.493495
L7.172621 2.493495
" />
<path d="M7.244049 2.755399
L7.005954 2.755399
" />
<path d="M7.005954 2.755399
L7.005954 2.255400
" />
<path d="M7.005954 2.255400
L7.244049 2.255400
" />
<path d="M7.625001 2.493495
L7.458334 2.493495
" />
<path d="M7.458334 2.755399
L7.458334 2.255400
" />
<path d="M7.458334 2.255400
L7.696429 2.255400
" />
<path d="M7.958334 2.255400
L7.958334 2.374448
" />
<path d="M7.839286 2.326829
L7.958334 2.374448
" />
<path d="M7.958334 2.374448
L8.077381 2.326829
" />
<path d="M7.886905 2.469686
L7.958334 2.374448
" />
<path d="M7.958334 2.374448
L8.029762 2.469686
" />
<path d="M8.339286 2.255400
L8.339286 2.374448
" />
<path d="M8.220238 2.326829
L8.339286 2.374448
" />
<path d="M8.339286 2.374448
L8.458333 2.326829
" />
<path d="M8.267857 2.469686
L8.339286 2.374448
" />
<path d="M8.339286 2.374448
L8.410714 2.469686
" />
</g><path style="fill:none; 
stroke:#000000; stroke-width:0.100000; stroke-opacity:1; 
stroke-linecap:round; stroke-linejoin:round;fill:none"
d="M 6.458334,1.903250
8.458334,1.903250
8.458334,3.153250
6.458334,3.153250
Z" /> 
</g> 
</svg>
