<?xml version="1.0" standalone="no"?>
 <!DOCTYPE svg PUBLIC "-//W3C//DTD SVG 1.1//EN" 
 "http://www.w3.org/Graphics/SVG/1.1/DTD/svg11.dtd"> 
<svg
  xmlns:svg="http://www.w3.org/2000/svg"
  xmlns="http://www.w3.org/2000/svg"
  xmlns:xlink="http://www.w3.org/1999/xlink"
  xmlns:inkscape="http://www.inkscape.org/namespaces/inkscape"
  version="1.1"
  width="14.909800mm" height="5.054600mm" viewBox="0.000000 0.000000 14.909800 5.054600">
<title>SVG Image created as C_0805_2012Metric.svg date 2026-04-21T00:15:25 </title>
  <desc>Image generated by PCBNEW </desc>
<g style="fill:#000000; fill-opacity:1.000000;stroke:#000000; stroke-opacity:1.000000;
stroke-linecap:round; stroke-linejoin:round;"
 transform="translate(0 0) scale(1 1)">
<path style="fill:none; 
stroke:#000000; stroke-width:0.050000; stroke-opacity:1; 
stroke-linecap:round; stroke-linejoin:round;fill:none"
d="M 5.758334,1.548250
9.158334,1.548250
9.158334,3.508250
5.758334,3.508250
Z" /> 
<path style="fill:#000000; fill-opacity:1.000000; stroke:none;fill-rule:evenodd;"
d="M 6.008334,2.053250
6.027364,1.957579
6.081557,1.876473
6.162663,1.822280
6.258334,1.803250
6.758334,1.803250
6.854005,1.822280
6.935111,1.876473
6.989304,1.957579
7.008334,2.053250
7.008334,3.003250
6.989304,3.098921
6.935111,3.180027
6.854005,3.234220
6.758334,3.253250
6.258334,3.253250
6.162663,3.234220
6.081557,3.180027
6.027364,3.098921
6.008334,3.003250
Z" /> 
<path style="fill:#000000; fill-opacity:1.000000; stroke:none;fill-rule:evenodd;"
d="M 7.908334,2.053250
7.927364,1.957579
7.981557,1.876473
8.062663,1.822280
8.158334,1.803250
8.658334,1.803250
8.754005,1.822280
8.835111,1.876473
8.889304,1.957579
8.908334,2.053250
8.908334,3.003250
8.889304,3.098921
8.835111,3.180027
8.754005,3.234220
8.658334,3.253250
8.158334,3.253250
8.062663,3.234220
7.981557,3.180027
7.927364,3.098921
7.908334,3.003250
Z" /> 
<path style="fill:#000000; fill-opacity:1.000000; stroke:none;fill-rule:evenodd;"
d="M 6.008334,2.053250
6.027364,1.957579
6.081557,1.876473
6.162663,1.822280
6.258334,1.803250
6.758334,1.803250
6.854005,1.822280
6.935111,1.876473
6.989304,1.957579
7.008334,2.053250
7.008334,3.003250
6.989304,3.098921
6.935111,3.180027
6.854005,3.234220
6.758334,3.253250
6.258334,3.253250
6.162663,3.234220
6.081557,3.180027
6.027364,3.098921
6.008334,3.003250
Z" /> 
<path style="fill:#000000; fill-opacity:1.000000; stroke:none;fill-rule:evenodd;"
d="M 7.908334,2.053250
7.927364,1.957579
7.981557,1.876473
8.062663,1.822280
8.158334,1.803250
8.658334,1.803250
8.754005,1.822280
8.835111,1.876473
8.889304,1.957579
8.908334,2.053250
8.908334,3.003250
8.889304,3.098921
8.835111,3.180027
8.754005,3.234220
8.658334,3.253250
8.158334,3.253250
8.062663,3.234220
7.981557,3.180027
7.927364,3.098921
7.908334,3.003250
Z" /> 
</g> 
</svg>
