<?xml version="1.0" standalone="no"?>
 <!DOCTYPE svg PUBLIC "-//W3C//DTD SVG 1.1//EN" 
 "http://www.w3.org/Graphics/SVG/1.1/DTD/svg11.dtd"> 
<svg
  xmlns:svg="http://www.w3.org/2000/svg"
  xmlns="http://www.w3.org/2000/svg"
  xmlns:xlink="http://www.w3.org/1999/xlink"
  xmlns:inkscape="http://www.inkscape.org/namespaces/inkscape"
  version="1.1"
  width="6.146800mm" height="6.477000mm" viewBox="0.000000 0.000000 6.146800 6.477000">
<title>SVG Image created as SOT-23.svg date 2026-04-21T00:15:42 </title>
  <desc>Image generated by PCBNEW </desc>
<g style="fill:#000000; fill-opacity:1.000000;stroke:#000000; stroke-opacity:1.000000;
stroke-linecap:round; stroke-linejoin:round;"
 transform="translate(0 0) scale(1 1)">
</g>
<g style="fill:none; 
stroke:#000000; stroke-width:0.050000; stroke-opacity:1; 
stroke-linecap:round; stroke-linejoin:round;">
<path d="M1.147381 1.748250
L2.177381 1.748250
" />
<path d="M1.147381 2.858250
L1.147381 1.748250
" />
<path d="M1.147381 3.638250
L2.177381 3.638250
" />
<path d="M1.147381 4.748250
L1.147381 3.638250
" />
<path d="M2.177381 1.548250
L3.977381 1.548250
" />
<path d="M2.177381 1.748250
L2.177381 1.548250
" />
<path d="M2.177381 2.858250
L1.147381 2.858250
" />
<path d="M2.177381 3.638250
L2.177381 2.858250
" />
<path d="M2.177381 4.748250
L1.147381 4.748250
" />
<path d="M2.177381 4.948250
L2.177381 4.748250
" />
<path d="M3.977381 1.548250
L3.977381 2.698250
" />
<path d="M3.977381 2.698250
L5.007381 2.698250
" />
<path d="M3.977381 3.798250
L3.977381 4.948250
" />
<path d="M3.977381 4.948250
L2.177381 4.948250
" />
<path d="M5.007381 2.698250
L5.007381 3.798250
" />
<path d="M5.007381 3.798250
L3.977381 3.798250
" />
</g> 
</svg>
