<?xml version="1.0" standalone="no"?>
 <!DOCTYPE svg PUBLIC "-//W3C//DTD SVG 1.1//EN" 
 "http://www.w3.org/Graphics/SVG/1.1/DTD/svg11.dtd"> 
<svg
  xmlns:svg="http://www.w3.org/2000/svg"
  xmlns="http://www.w3.org/2000/svg"
  xmlns:xlink="http://www.w3.org/1999/xlink"
  xmlns:inkscape="http://www.inkscape.org/namespaces/inkscape"
  version="1.1"
  width="6.146800mm" height="6.477000mm" viewBox="0.000000 0.000000 6.146800 6.477000">
<title>SVG Image created as SOT-23.svg date 2026-04-21T17:27:00 </title>
  <desc>Image generated by PCBNEW </desc>
<g style="fill:#000000; fill-opacity:1.000000;stroke:#000000; stroke-opacity:1.000000;
stroke-linecap:round; stroke-linejoin:round;"
 transform="translate(0 0) scale(1 1)">
</g>
<g style="fill:none; 
stroke:#000000; stroke-width:0.150000; stroke-opacity:1; 
stroke-linecap:round; stroke-linejoin:round;">
<text x="3.077381" y="6.148250"
textLength="6.154762" font-size="1.333333" lengthAdjust="spacingAndGlyphs"
text-anchor="middle" opacity="0" stroke-opacity="0">SOT-23</text>
<g class="stroked-text"><desc>SOT-23</desc>
<path d="M0.315477 6.055450
L0.458334 6.103069
" />
<path d="M0.458334 6.103069
L0.696429 6.103069
" />
<path d="M0.696429 6.103069
L0.791667 6.055450
" />
<path d="M0.791667 6.055450
L0.839286 6.007830
" />
<path d="M0.839286 6.007830
L0.886905 5.912592
" />
<path d="M0.886905 5.912592
L0.886905 5.817354
" />
<path d="M0.886905 5.817354
L0.839286 5.722116
" />
<path d="M0.839286 5.722116
L0.791667 5.674497
" />
<path d="M0.791667 5.674497
L0.696429 5.626878
" />
<path d="M0.696429 5.626878
L0.505953 5.579259
" />
<path d="M0.505953 5.579259
L0.410715 5.531640
" />
<path d="M0.410715 5.531640
L0.363096 5.484021
" />
<path d="M0.363096 5.484021
L0.315477 5.388783
" />
<path d="M0.315477 5.388783
L0.315477 5.293545
" />
<path d="M0.315477 5.293545
L0.363096 5.198307
" />
<path d="M0.363096 5.198307
L0.410715 5.150688
" />
<path d="M0.410715 5.150688
L0.505953 5.103069
" />
<path d="M0.505953 5.103069
L0.744048 5.103069
" />
<path d="M0.744048 5.103069
L0.886905 5.150688
" />
<path d="M1.505953 5.103069
L1.696429 5.103069
" />
<path d="M1.696429 5.103069
L1.791667 5.150688
" />
<path d="M1.791667 5.150688
L1.886905 5.245926
" />
<path d="M1.886905 5.245926
L1.934524 5.436402
" />
<path d="M1.934524 5.436402
L1.934524 5.769735
" />
<path d="M1.934524 5.769735
L1.886905 5.960211
" />
<path d="M1.886905 5.960211
L1.791667 6.055450
" />
<path d="M1.791667 6.055450
L1.696429 6.103069
" />
<path d="M1.696429 6.103069
L1.505953 6.103069
" />
<path d="M1.505953 6.103069
L1.410715 6.055450
" />
<path d="M1.410715 6.055450
L1.315477 5.960211
" />
<path d="M1.315477 5.960211
L1.267858 5.769735
" />
<path d="M1.267858 5.769735
L1.267858 5.436402
" />
<path d="M1.267858 5.436402
L1.315477 5.245926
" />
<path d="M1.315477 5.245926
L1.410715 5.150688
" />
<path d="M1.410715 5.150688
L1.505953 5.103069
" />
<path d="M2.220239 5.103069
L2.791667 5.103069
" />
<path d="M2.505953 6.103069
L2.505953 5.103069
" />
<path d="M3.125000 5.722116
L3.886905 5.722116
" />
<path d="M4.315476 5.198307
L4.363095 5.150688
" />
<path d="M4.363095 5.150688
L4.458333 5.103069
" />
<path d="M4.458333 5.103069
L4.696428 5.103069
" />
<path d="M4.696428 5.103069
L4.791666 5.150688
" />
<path d="M4.791666 5.150688
L4.839285 5.198307
" />
<path d="M4.839285 5.198307
L4.886904 5.293545
" />
<path d="M4.886904 5.293545
L4.886904 5.388783
" />
<path d="M4.886904 5.388783
L4.839285 5.531640
" />
<path d="M4.839285 5.531640
L4.267857 6.103069
" />
<path d="M4.267857 6.103069
L4.886904 6.103069
" />
<path d="M5.220238 5.103069
L5.839285 5.103069
" />
<path d="M5.839285 5.103069
L5.505952 5.484021
" />
<path d="M5.505952 5.484021
L5.648809 5.484021
" />
<path d="M5.648809 5.484021
L5.744047 5.531640
" />
<path d="M5.744047 5.531640
L5.791666 5.579259
" />
<path d="M5.791666 5.579259
L5.839285 5.674497
" />
<path d="M5.839285 5.674497
L5.839285 5.912592
" />
<path d="M5.839285 5.912592
L5.791666 6.007830
" />
<path d="M5.791666 6.007830
L5.744047 6.055450
" />
<path d="M5.744047 6.055450
L5.648809 6.103069
" />
<path d="M5.648809 6.103069
L5.363095 6.103069
" />
<path d="M5.363095 6.103069
L5.267857 6.055450
" />
<path d="M5.267857 6.055450
L5.220238 6.007830
" />
</g></g>
<g style="fill:none; 
stroke:#000000; stroke-width:0.110000; stroke-opacity:1; 
stroke-linecap:round; stroke-linejoin:round;">
<g transform="rotate(-90.000000 3.077381 3.248250)">
<text x="3.077381" y="3.608250"
textLength="3.271714" font-size="0.960000" lengthAdjust="spacingAndGlyphs"
text-anchor="middle" opacity="0" stroke-opacity="0">REF**</text>
</g>
<g class="stroked-text"><desc>REF**</desc>
<path d="M3.404746 4.208249
L3.061890 4.448249
" />
<path d="M3.404746 4.619678
L2.684747 4.619678
" />
<path d="M2.684747 4.619678
L2.684747 4.345392
" />
<path d="M2.684747 4.345392
L2.719033 4.276821
" />
<path d="M2.719033 4.276821
L2.753319 4.242535
" />
<path d="M2.753319 4.242535
L2.821890 4.208249
" />
<path d="M2.821890 4.208249
L2.924747 4.208249
" />
<path d="M2.924747 4.208249
L2.993319 4.242535
" />
<path d="M2.993319 4.242535
L3.027604 4.276821
" />
<path d="M3.027604 4.276821
L3.061890 4.345392
" />
<path d="M3.061890 4.345392
L3.061890 4.619678
" />
<path d="M3.027604 3.899678
L3.027604 3.659678
" />
<path d="M3.404746 3.556821
L3.404746 3.899678
" />
<path d="M3.404746 3.899678
L2.684747 3.899678
" />
<path d="M2.684747 3.899678
L2.684747 3.556821
" />
<path d="M3.027604 3.008250
L3.027604 3.248250
" />
<path d="M3.404746 3.248250
L2.684747 3.248250
" />
<path d="M2.684747 3.248250
L2.684747 2.905393
" />
<path d="M2.684747 2.528250
L2.856176 2.528250
" />
<path d="M2.787604 2.699678
L2.856176 2.528250
" />
<path d="M2.856176 2.528250
L2.787604 2.356821
" />
<path d="M2.993319 2.631107
L2.856176 2.528250
" />
<path d="M2.856176 2.528250
L2.993319 2.425393
" />
<path d="M2.684747 1.979679
L2.856176 1.979679
" />
<path d="M2.787604 2.151107
L2.856176 1.979679
" />
<path d="M2.856176 1.979679
L2.787604 1.808250
" />
<path d="M2.993319 2.082536
L2.856176 1.979679
" />
<path d="M2.856176 1.979679
L2.993319 1.876822
" />
</g><path style="fill:none; 
stroke:#000000; stroke-width:0.100000; stroke-opacity:1; 
stroke-linecap:round; stroke-linejoin:round;fill:none"
d="M 3.727381,4.698250
2.427381,4.698250
2.427381,2.123250
2.752381,1.798250
3.727381,1.798250
Z" /> 
</g> 
</svg>
