<?xml version="1.0" standalone="no"?>
 <!DOCTYPE svg PUBLIC "-//W3C//DTD SVG 1.1//EN" 
 "http://www.w3.org/Graphics/SVG/1.1/DTD/svg11.dtd"> 
<svg
  xmlns:svg="http://www.w3.org/2000/svg"
  xmlns="http://www.w3.org/2000/svg"
  xmlns:xlink="http://www.w3.org/1999/xlink"
  xmlns:inkscape="http://www.inkscape.org/namespaces/inkscape"
  version="1.1"
  width="6.146800mm" height="6.477000mm" viewBox="0.000000 0.000000 6.146800 6.477000">
<title>SVG Image created as SOT-23.svg date 2026-04-21T00:15:43 </title>
  <desc>Image generated by PCBNEW </desc>
<g style="fill:#000000; fill-opacity:1.000000;stroke:#000000; stroke-opacity:1.000000;
stroke-linecap:round; stroke-linejoin:round;"
 transform="translate(0 0) scale(1 1)">
</g>
<g style="fill:none; 
stroke:#000000; stroke-width:0.050000; stroke-opacity:1; 
stroke-linecap:round; stroke-linejoin:round;">
<path d="M1.147381 1.748250
L2.177381 1.748250
" />
<path d="M1.147381 2.858250
L1.147381 1.748250
" />
<path d="M1.147381 3.638250
L2.177381 3.638250
" />
<path d="M1.147381 4.748250
L1.147381 3.638250
" />
<path d="M2.177381 1.548250
L3.977381 1.548250
" />
<path d="M2.177381 1.748250
L2.177381 1.548250
" />
<path d="M2.177381 2.858250
L1.147381 2.858250
" />
<path d="M2.177381 3.638250
L2.177381 2.858250
" />
<path d="M2.177381 4.748250
L1.147381 4.748250
" />
<path d="M2.177381 4.948250
L2.177381 4.748250
" />
<path d="M3.977381 1.548250
L3.977381 2.698250
" />
<path d="M3.977381 2.698250
L5.007381 2.698250
" />
<path d="M3.977381 3.798250
L3.977381 4.948250
" />
<path d="M3.977381 4.948250
L2.177381 4.948250
" />
<path d="M5.007381 2.698250
L5.007381 3.798250
" />
<path d="M5.007381 3.798250
L3.977381 3.798250
" />
<path style="fill:#000000; fill-opacity:1.000000; stroke:none;fill-rule:evenodd;"
d="M 1.402381,2.148250
1.413799,2.090847
1.446315,2.042184
1.494978,2.009668
1.552381,1.998250
2.727381,1.998250
2.784784,2.009668
2.833447,2.042184
2.865963,2.090847
2.877381,2.148250
2.877381,2.448250
2.865963,2.505653
2.833447,2.554316
2.784784,2.586832
2.727381,2.598250
1.552381,2.598250
1.494978,2.586832
1.446315,2.554316
1.413799,2.505653
1.402381,2.448250
Z" /> 
<path style="fill:#000000; fill-opacity:1.000000; stroke:none;fill-rule:evenodd;"
d="M 1.402381,4.048250
1.413799,3.990847
1.446315,3.942184
1.494978,3.909668
1.552381,3.898250
2.727381,3.898250
2.784784,3.909668
2.833447,3.942184
2.865963,3.990847
2.877381,4.048250
2.877381,4.348250
2.865963,4.405653
2.833447,4.454316
2.784784,4.486832
2.727381,4.498250
1.552381,4.498250
1.494978,4.486832
1.446315,4.454316
1.413799,4.405653
1.402381,4.348250
Z" /> 
<path style="fill:#000000; fill-opacity:1.000000; stroke:none;fill-rule:evenodd;"
d="M 3.277381,3.098250
3.288799,3.040847
3.321315,2.992184
3.369978,2.959668
3.427381,2.948250
4.602381,2.948250
4.659784,2.959668
4.708447,2.992184
4.740963,3.040847
4.752381,3.098250
4.752381,3.398250
4.740963,3.455653
4.708447,3.504316
4.659784,3.536832
4.602381,3.548250
3.427381,3.548250
3.369978,3.536832
3.321315,3.504316
3.288799,3.455653
3.277381,3.398250
Z" /> 
<path style="fill:#000000; fill-opacity:1.000000; stroke:none;fill-rule:evenodd;"
d="M 1.402381,2.148250
1.413799,2.090847
1.446315,2.042184
1.494978,2.009668
1.552381,1.998250
2.727381,1.998250
2.784784,2.009668
2.833447,2.042184
2.865963,2.090847
2.877381,2.148250
2.877381,2.448250
2.865963,2.505653
2.833447,2.554316
2.784784,2.586832
2.727381,2.598250
1.552381,2.598250
1.494978,2.586832
1.446315,2.554316
1.413799,2.505653
1.402381,2.448250
Z" /> 
<path style="fill:#000000; fill-opacity:1.000000; stroke:none;fill-rule:evenodd;"
d="M 1.402381,4.048250
1.413799,3.990847
1.446315,3.942184
1.494978,3.909668
1.552381,3.898250
2.727381,3.898250
2.784784,3.909668
2.833447,3.942184
2.865963,3.990847
2.877381,4.048250
2.877381,4.348250
2.865963,4.405653
2.833447,4.454316
2.784784,4.486832
2.727381,4.498250
1.552381,4.498250
1.494978,4.486832
1.446315,4.454316
1.413799,4.405653
1.402381,4.348250
Z" /> 
<path style="fill:#000000; fill-opacity:1.000000; stroke:none;fill-rule:evenodd;"
d="M 3.277381,3.098250
3.288799,3.040847
3.321315,2.992184
3.369978,2.959668
3.427381,2.948250
4.602381,2.948250
4.659784,2.959668
4.708447,2.992184
4.740963,3.040847
4.752381,3.098250
4.752381,3.398250
4.740963,3.455653
4.708447,3.504316
4.659784,3.536832
4.602381,3.548250
3.427381,3.548250
3.369978,3.536832
3.321315,3.504316
3.288799,3.455653
3.277381,3.398250
Z" /> 
</g> 
</svg>
