<?xml version="1.0" standalone="no"?>
 <!DOCTYPE svg PUBLIC "-//W3C//DTD SVG 1.1//EN" 
 "http://www.w3.org/Graphics/SVG/1.1/DTD/svg11.dtd"> 
<svg
  xmlns:svg="http://www.w3.org/2000/svg"
  xmlns="http://www.w3.org/2000/svg"
  xmlns:xlink="http://www.w3.org/1999/xlink"
  xmlns:inkscape="http://www.inkscape.org/namespaces/inkscape"
  version="1.1"
  width="25.755600mm" height="19.685000mm" viewBox="0.000000 0.000000 25.755600 19.685000">
<title>SVG Image created as BarrelJack_Wuerth_6941xx301002.svg date 2026-04-21T17:26:48 </title>
  <desc>Image generated by PCBNEW </desc>
<g style="fill:#000000; fill-opacity:1.000000;stroke:#000000; stroke-opacity:1.000000;
stroke-linecap:round; stroke-linejoin:round;"
 transform="translate(0 0) scale(1 1)">
</g>
<g style="fill:none; 
stroke:#000000; stroke-width:0.150000; stroke-opacity:1; 
stroke-linecap:round; stroke-linejoin:round;">
<text x="12.886907" y="19.348250"
textLength="25.773814" font-size="1.333333" lengthAdjust="spacingAndGlyphs"
text-anchor="middle" opacity="0" stroke-opacity="0">BarrelJack_Wuerth_6941xx301002</text>
<g class="stroked-text"><desc>BarrelJack_Wuerth_6941xx301002</desc>
<path d="M0.696429 18.779259
L0.839286 18.826878
" />
<path d="M0.839286 18.826878
L0.886905 18.874497
" />
<path d="M0.886905 18.874497
L0.934524 18.969735
" />
<path d="M0.934524 18.969735
L0.934524 19.112592
" />
<path d="M0.934524 19.112592
L0.886905 19.207830
" />
<path d="M0.886905 19.207830
L0.839286 19.255450
" />
<path d="M0.839286 19.255450
L0.744048 19.303069
" />
<path d="M0.744048 19.303069
L0.363096 19.303069
" />
<path d="M0.363096 19.303069
L0.363096 18.303069
" />
<path d="M0.363096 18.303069
L0.696429 18.303069
" />
<path d="M0.696429 18.303069
L0.791667 18.350688
" />
<path d="M0.791667 18.350688
L0.839286 18.398307
" />
<path d="M0.839286 18.398307
L0.886905 18.493545
" />
<path d="M0.886905 18.493545
L0.886905 18.588783
" />
<path d="M0.886905 18.588783
L0.839286 18.684021
" />
<path d="M0.839286 18.684021
L0.791667 18.731640
" />
<path d="M0.791667 18.731640
L0.696429 18.779259
" />
<path d="M0.696429 18.779259
L0.363096 18.779259
" />
<path d="M1.791667 19.303069
L1.791667 18.779259
" />
<path d="M1.791667 18.779259
L1.744048 18.684021
" />
<path d="M1.744048 18.684021
L1.648810 18.636402
" />
<path d="M1.648810 18.636402
L1.458334 18.636402
" />
<path d="M1.458334 18.636402
L1.363096 18.684021
" />
<path d="M1.791667 19.255450
L1.696429 19.303069
" />
<path d="M1.696429 19.303069
L1.458334 19.303069
" />
<path d="M1.458334 19.303069
L1.363096 19.255450
" />
<path d="M1.363096 19.255450
L1.315477 19.160211
" />
<path d="M1.315477 19.160211
L1.315477 19.064973
" />
<path d="M1.315477 19.064973
L1.363096 18.969735
" />
<path d="M1.363096 18.969735
L1.458334 18.922116
" />
<path d="M1.458334 18.922116
L1.696429 18.922116
" />
<path d="M1.696429 18.922116
L1.791667 18.874497
" />
<path d="M2.267858 19.303069
L2.267858 18.636402
" />
<path d="M2.267858 18.826878
L2.315477 18.731640
" />
<path d="M2.315477 18.731640
L2.363096 18.684021
" />
<path d="M2.363096 18.684021
L2.458334 18.636402
" />
<path d="M2.458334 18.636402
L2.553572 18.636402
" />
<path d="M2.886906 19.303069
L2.886906 18.636402
" />
<path d="M2.886906 18.826878
L2.934525 18.731640
" />
<path d="M2.934525 18.731640
L2.982144 18.684021
" />
<path d="M2.982144 18.684021
L3.077382 18.636402
" />
<path d="M3.077382 18.636402
L3.172620 18.636402
" />
<path d="M3.886906 19.255450
L3.791668 19.303069
" />
<path d="M3.791668 19.303069
L3.601192 19.303069
" />
<path d="M3.601192 19.303069
L3.505954 19.255450
" />
<path d="M3.505954 19.255450
L3.458335 19.160211
" />
<path d="M3.458335 19.160211
L3.458335 18.779259
" />
<path d="M3.458335 18.779259
L3.505954 18.684021
" />
<path d="M3.505954 18.684021
L3.601192 18.636402
" />
<path d="M3.601192 18.636402
L3.791668 18.636402
" />
<path d="M3.791668 18.636402
L3.886906 18.684021
" />
<path d="M3.886906 18.684021
L3.934525 18.779259
" />
<path d="M3.934525 18.779259
L3.934525 18.874497
" />
<path d="M3.934525 18.874497
L3.458335 18.969735
" />
<path d="M4.505954 19.303069
L4.410716 19.255450
" />
<path d="M4.410716 19.255450
L4.363097 19.160211
" />
<path d="M4.363097 19.160211
L4.363097 18.303069
" />
<path d="M5.172621 18.303069
L5.172621 19.017354
" />
<path d="M5.172621 19.017354
L5.125002 19.160211
" />
<path d="M5.125002 19.160211
L5.029764 19.255450
" />
<path d="M5.029764 19.255450
L4.886907 19.303069
" />
<path d="M4.886907 19.303069
L4.791669 19.303069
" />
<path d="M6.077383 19.303069
L6.077383 18.779259
" />
<path d="M6.077383 18.779259
L6.029764 18.684021
" />
<path d="M6.029764 18.684021
L5.934526 18.636402
" />
<path d="M5.934526 18.636402
L5.744050 18.636402
" />
<path d="M5.744050 18.636402
L5.648812 18.684021
" />
<path d="M6.077383 19.255450
L5.982145 19.303069
" />
<path d="M5.982145 19.303069
L5.744050 19.303069
" />
<path d="M5.744050 19.303069
L5.648812 19.255450
" />
<path d="M5.648812 19.255450
L5.601193 19.160211
" />
<path d="M5.601193 19.160211
L5.601193 19.064973
" />
<path d="M5.601193 19.064973
L5.648812 18.969735
" />
<path d="M5.648812 18.969735
L5.744050 18.922116
" />
<path d="M5.744050 18.922116
L5.982145 18.922116
" />
<path d="M5.982145 18.922116
L6.077383 18.874497
" />
<path d="M6.982145 19.255450
L6.886907 19.303069
" />
<path d="M6.886907 19.303069
L6.696431 19.303069
" />
<path d="M6.696431 19.303069
L6.601193 19.255450
" />
<path d="M6.601193 19.255450
L6.553574 19.207830
" />
<path d="M6.553574 19.207830
L6.505955 19.112592
" />
<path d="M6.505955 19.112592
L6.505955 18.826878
" />
<path d="M6.505955 18.826878
L6.553574 18.731640
" />
<path d="M6.553574 18.731640
L6.601193 18.684021
" />
<path d="M6.601193 18.684021
L6.696431 18.636402
" />
<path d="M6.696431 18.636402
L6.886907 18.636402
" />
<path d="M6.886907 18.636402
L6.982145 18.684021
" />
<path d="M7.410717 19.303069
L7.410717 18.303069
" />
<path d="M7.505955 18.922116
L7.791669 19.303069
" />
<path d="M7.791669 18.636402
L7.410717 19.017354
" />
<path d="M7.982145 19.398307
L8.744050 19.398307
" />
<path d="M8.886908 18.303069
L9.125003 19.303069
" />
<path d="M9.125003 19.303069
L9.315479 18.588783
" />
<path d="M9.315479 18.588783
L9.505955 19.303069
" />
<path d="M9.505955 19.303069
L9.744050 18.303069
" />
<path d="M10.553574 18.636402
L10.553574 19.303069
" />
<path d="M10.125003 18.636402
L10.125003 19.160211
" />
<path d="M10.125003 19.160211
L10.172622 19.255450
" />
<path d="M10.172622 19.255450
L10.267860 19.303069
" />
<path d="M10.267860 19.303069
L10.410717 19.303069
" />
<path d="M10.410717 19.303069
L10.505955 19.255450
" />
<path d="M10.505955 19.255450
L10.553574 19.207830
" />
<path d="M11.410717 19.255450
L11.315479 19.303069
" />
<path d="M11.315479 19.303069
L11.125003 19.303069
" />
<path d="M11.125003 19.303069
L11.029765 19.255450
" />
<path d="M11.029765 19.255450
L10.982146 19.160211
" />
<path d="M10.982146 19.160211
L10.982146 18.779259
" />
<path d="M10.982146 18.779259
L11.029765 18.684021
" />
<path d="M11.029765 18.684021
L11.125003 18.636402
" />
<path d="M11.125003 18.636402
L11.315479 18.636402
" />
<path d="M11.315479 18.636402
L11.410717 18.684021
" />
<path d="M11.410717 18.684021
L11.458336 18.779259
" />
<path d="M11.458336 18.779259
L11.458336 18.874497
" />
<path d="M11.458336 18.874497
L10.982146 18.969735
" />
<path d="M11.886908 19.303069
L11.886908 18.636402
" />
<path d="M11.886908 18.826878
L11.934527 18.731640
" />
<path d="M11.934527 18.731640
L11.982146 18.684021
" />
<path d="M11.982146 18.684021
L12.077384 18.636402
" />
<path d="M12.077384 18.636402
L12.172622 18.636402
" />
<path d="M12.363099 18.636402
L12.744051 18.636402
" />
<path d="M12.505956 18.303069
L12.505956 19.160211
" />
<path d="M12.505956 19.160211
L12.553575 19.255450
" />
<path d="M12.553575 19.255450
L12.648813 19.303069
" />
<path d="M12.648813 19.303069
L12.744051 19.303069
" />
<path d="M13.077384 19.303069
L13.077384 18.303069
" />
<path d="M13.505955 19.303069
L13.505955 18.779259
" />
<path d="M13.505955 18.779259
L13.458336 18.684021
" />
<path d="M13.458336 18.684021
L13.363098 18.636402
" />
<path d="M13.363098 18.636402
L13.220241 18.636402
" />
<path d="M13.220241 18.636402
L13.125003 18.684021
" />
<path d="M13.125003 18.684021
L13.077384 18.731640
" />
<path d="M13.744051 19.398307
L14.505955 19.398307
" />
<path d="M15.172622 18.303069
L14.982146 18.303069
" />
<path d="M14.982146 18.303069
L14.886908 18.350688
" />
<path d="M14.886908 18.350688
L14.839289 18.398307
" />
<path d="M14.839289 18.398307
L14.744051 18.541164
" />
<path d="M14.744051 18.541164
L14.696432 18.731640
" />
<path d="M14.696432 18.731640
L14.696432 19.112592
" />
<path d="M14.696432 19.112592
L14.744051 19.207830
" />
<path d="M14.744051 19.207830
L14.791670 19.255450
" />
<path d="M14.791670 19.255450
L14.886908 19.303069
" />
<path d="M14.886908 19.303069
L15.077384 19.303069
" />
<path d="M15.077384 19.303069
L15.172622 19.255450
" />
<path d="M15.172622 19.255450
L15.220241 19.207830
" />
<path d="M15.220241 19.207830
L15.267860 19.112592
" />
<path d="M15.267860 19.112592
L15.267860 18.874497
" />
<path d="M15.267860 18.874497
L15.220241 18.779259
" />
<path d="M15.220241 18.779259
L15.172622 18.731640
" />
<path d="M15.172622 18.731640
L15.077384 18.684021
" />
<path d="M15.077384 18.684021
L14.886908 18.684021
" />
<path d="M14.886908 18.684021
L14.791670 18.731640
" />
<path d="M14.791670 18.731640
L14.744051 18.779259
" />
<path d="M14.744051 18.779259
L14.696432 18.874497
" />
<path d="M15.744051 19.303069
L15.934527 19.303069
" />
<path d="M15.934527 19.303069
L16.029765 19.255450
" />
<path d="M16.029765 19.255450
L16.077384 19.207830
" />
<path d="M16.077384 19.207830
L16.172622 19.064973
" />
<path d="M16.172622 19.064973
L16.220241 18.874497
" />
<path d="M16.220241 18.874497
L16.220241 18.493545
" />
<path d="M16.220241 18.493545
L16.172622 18.398307
" />
<path d="M16.172622 18.398307
L16.125003 18.350688
" />
<path d="M16.125003 18.350688
L16.029765 18.303069
" />
<path d="M16.029765 18.303069
L15.839289 18.303069
" />
<path d="M15.839289 18.303069
L15.744051 18.350688
" />
<path d="M15.744051 18.350688
L15.696432 18.398307
" />
<path d="M15.696432 18.398307
L15.648813 18.493545
" />
<path d="M15.648813 18.493545
L15.648813 18.731640
" />
<path d="M15.648813 18.731640
L15.696432 18.826878
" />
<path d="M15.696432 18.826878
L15.744051 18.874497
" />
<path d="M15.744051 18.874497
L15.839289 18.922116
" />
<path d="M15.839289 18.922116
L16.029765 18.922116
" />
<path d="M16.029765 18.922116
L16.125003 18.874497
" />
<path d="M16.125003 18.874497
L16.172622 18.826878
" />
<path d="M16.172622 18.826878
L16.220241 18.731640
" />
<path d="M17.077384 18.636402
L17.077384 19.303069
" />
<path d="M16.839289 18.255450
L16.601194 18.969735
" />
<path d="M16.601194 18.969735
L17.220241 18.969735
" />
<path d="M18.125003 19.303069
L17.553575 19.303069
" />
<path d="M17.839289 19.303069
L17.839289 18.303069
" />
<path d="M17.839289 18.303069
L17.744051 18.445926
" />
<path d="M17.744051 18.445926
L17.648813 18.541164
" />
<path d="M17.648813 18.541164
L17.553575 18.588783
" />
<path d="M18.458337 19.303069
L18.982146 18.636402
" />
<path d="M18.458337 18.636402
L18.982146 19.303069
" />
<path d="M19.267861 19.303069
L19.791670 18.636402
" />
<path d="M19.267861 18.636402
L19.791670 19.303069
" />
<path d="M20.077385 18.303069
L20.696432 18.303069
" />
<path d="M20.696432 18.303069
L20.363099 18.684021
" />
<path d="M20.363099 18.684021
L20.505956 18.684021
" />
<path d="M20.505956 18.684021
L20.601194 18.731640
" />
<path d="M20.601194 18.731640
L20.648813 18.779259
" />
<path d="M20.648813 18.779259
L20.696432 18.874497
" />
<path d="M20.696432 18.874497
L20.696432 19.112592
" />
<path d="M20.696432 19.112592
L20.648813 19.207830
" />
<path d="M20.648813 19.207830
L20.601194 19.255450
" />
<path d="M20.601194 19.255450
L20.505956 19.303069
" />
<path d="M20.505956 19.303069
L20.220242 19.303069
" />
<path d="M20.220242 19.303069
L20.125004 19.255450
" />
<path d="M20.125004 19.255450
L20.077385 19.207830
" />
<path d="M21.315480 18.303069
L21.410718 18.303069
" />
<path d="M21.410718 18.303069
L21.505956 18.350688
" />
<path d="M21.505956 18.350688
L21.553575 18.398307
" />
<path d="M21.553575 18.398307
L21.601194 18.493545
" />
<path d="M21.601194 18.493545
L21.648813 18.684021
" />
<path d="M21.648813 18.684021
L21.648813 18.922116
" />
<path d="M21.648813 18.922116
L21.601194 19.112592
" />
<path d="M21.601194 19.112592
L21.553575 19.207830
" />
<path d="M21.553575 19.207830
L21.505956 19.255450
" />
<path d="M21.505956 19.255450
L21.410718 19.303069
" />
<path d="M21.410718 19.303069
L21.315480 19.303069
" />
<path d="M21.315480 19.303069
L21.220242 19.255450
" />
<path d="M21.220242 19.255450
L21.172623 19.207830
" />
<path d="M21.172623 19.207830
L21.125004 19.112592
" />
<path d="M21.125004 19.112592
L21.077385 18.922116
" />
<path d="M21.077385 18.922116
L21.077385 18.684021
" />
<path d="M21.077385 18.684021
L21.125004 18.493545
" />
<path d="M21.125004 18.493545
L21.172623 18.398307
" />
<path d="M21.172623 18.398307
L21.220242 18.350688
" />
<path d="M21.220242 18.350688
L21.315480 18.303069
" />
<path d="M22.601194 19.303069
L22.029766 19.303069
" />
<path d="M22.315480 19.303069
L22.315480 18.303069
" />
<path d="M22.315480 18.303069
L22.220242 18.445926
" />
<path d="M22.220242 18.445926
L22.125004 18.541164
" />
<path d="M22.125004 18.541164
L22.029766 18.588783
" />
<path d="M23.220242 18.303069
L23.315480 18.303069
" />
<path d="M23.315480 18.303069
L23.410718 18.350688
" />
<path d="M23.410718 18.350688
L23.458337 18.398307
" />
<path d="M23.458337 18.398307
L23.505956 18.493545
" />
<path d="M23.505956 18.493545
L23.553575 18.684021
" />
<path d="M23.553575 18.684021
L23.553575 18.922116
" />
<path d="M23.553575 18.922116
L23.505956 19.112592
" />
<path d="M23.505956 19.112592
L23.458337 19.207830
" />
<path d="M23.458337 19.207830
L23.410718 19.255450
" />
<path d="M23.410718 19.255450
L23.315480 19.303069
" />
<path d="M23.315480 19.303069
L23.220242 19.303069
" />
<path d="M23.220242 19.303069
L23.125004 19.255450
" />
<path d="M23.125004 19.255450
L23.077385 19.207830
" />
<path d="M23.077385 19.207830
L23.029766 19.112592
" />
<path d="M23.029766 19.112592
L22.982147 18.922116
" />
<path d="M22.982147 18.922116
L22.982147 18.684021
" />
<path d="M22.982147 18.684021
L23.029766 18.493545
" />
<path d="M23.029766 18.493545
L23.077385 18.398307
" />
<path d="M23.077385 18.398307
L23.125004 18.350688
" />
<path d="M23.125004 18.350688
L23.220242 18.303069
" />
<path d="M24.172623 18.303069
L24.267861 18.303069
" />
<path d="M24.267861 18.303069
L24.363099 18.350688
" />
<path d="M24.363099 18.350688
L24.410718 18.398307
" />
<path d="M24.410718 18.398307
L24.458337 18.493545
" />
<path d="M24.458337 18.493545
L24.505956 18.684021
" />
<path d="M24.505956 18.684021
L24.505956 18.922116
" />
<path d="M24.505956 18.922116
L24.458337 19.112592
" />
<path d="M24.458337 19.112592
L24.410718 19.207830
" />
<path d="M24.410718 19.207830
L24.363099 19.255450
" />
<path d="M24.363099 19.255450
L24.267861 19.303069
" />
<path d="M24.267861 19.303069
L24.172623 19.303069
" />
<path d="M24.172623 19.303069
L24.077385 19.255450
" />
<path d="M24.077385 19.255450
L24.029766 19.207830
" />
<path d="M24.029766 19.207830
L23.982147 19.112592
" />
<path d="M23.982147 19.112592
L23.934528 18.922116
" />
<path d="M23.934528 18.922116
L23.934528 18.684021
" />
<path d="M23.934528 18.684021
L23.982147 18.493545
" />
<path d="M23.982147 18.493545
L24.029766 18.398307
" />
<path d="M24.029766 18.398307
L24.077385 18.350688
" />
<path d="M24.077385 18.350688
L24.172623 18.303069
" />
<path d="M24.886909 18.398307
L24.934528 18.350688
" />
<path d="M24.934528 18.350688
L25.029766 18.303069
" />
<path d="M25.029766 18.303069
L25.267861 18.303069
" />
<path d="M25.267861 18.303069
L25.363099 18.350688
" />
<path d="M25.363099 18.350688
L25.410718 18.398307
" />
<path d="M25.410718 18.398307
L25.458337 18.493545
" />
<path d="M25.458337 18.493545
L25.458337 18.588783
" />
<path d="M25.458337 18.588783
L25.410718 18.731640
" />
<path d="M25.410718 18.731640
L24.839290 19.303069
" />
<path d="M24.839290 19.303069
L25.458337 19.303069
" />
</g><text x="12.886907" y="11.348250"
textLength="4.535715" font-size="1.333333" lengthAdjust="spacingAndGlyphs"
text-anchor="middle" opacity="0" stroke-opacity="0">REF**</text>
<g class="stroked-text"><desc>REF**</desc>
<path d="M11.553574 11.303069
L11.220241 10.826878
" />
<path d="M10.982146 11.303069
L10.982146 10.303069
" />
<path d="M10.982146 10.303069
L11.363098 10.303069
" />
<path d="M11.363098 10.303069
L11.458336 10.350688
" />
<path d="M11.458336 10.350688
L11.505955 10.398307
" />
<path d="M11.505955 10.398307
L11.553574 10.493545
" />
<path d="M11.553574 10.493545
L11.553574 10.636402
" />
<path d="M11.553574 10.636402
L11.505955 10.731640
" />
<path d="M11.505955 10.731640
L11.458336 10.779259
" />
<path d="M11.458336 10.779259
L11.363098 10.826878
" />
<path d="M11.363098 10.826878
L10.982146 10.826878
" />
<path d="M11.982146 10.779259
L12.315479 10.779259
" />
<path d="M12.458336 11.303069
L11.982146 11.303069
" />
<path d="M11.982146 11.303069
L11.982146 10.303069
" />
<path d="M11.982146 10.303069
L12.458336 10.303069
" />
<path d="M13.220240 10.779259
L12.886907 10.779259
" />
<path d="M12.886907 11.303069
L12.886907 10.303069
" />
<path d="M12.886907 10.303069
L13.363097 10.303069
" />
<path d="M13.886907 10.303069
L13.886907 10.541164
" />
<path d="M13.648812 10.445926
L13.886907 10.541164
" />
<path d="M13.886907 10.541164
L14.125002 10.445926
" />
<path d="M13.744050 10.731640
L13.886907 10.541164
" />
<path d="M13.886907 10.541164
L14.029764 10.731640
" />
<path d="M14.648812 10.303069
L14.648812 10.541164
" />
<path d="M14.410717 10.445926
L14.648812 10.541164
" />
<path d="M14.648812 10.541164
L14.886907 10.445926
" />
<path d="M14.505955 10.731640
L14.648812 10.541164
" />
<path d="M14.648812 10.541164
L14.791669 10.731640
" />
</g></g>
<g style="fill:none; 
stroke:#000000; stroke-width:0.100000; stroke-opacity:1; 
stroke-linecap:round; stroke-linejoin:round;">
<path d="M8.386907 3.448250
L9.386907 2.448250
" />
<path d="M8.386907 16.948250
L8.386907 3.448250
" />
<path d="M17.386907 2.448250
L9.386907 2.448250
" />
<path d="M17.386907 2.448250
L17.386907 16.948250
" />
<path d="M17.386907 16.948250
L8.386907 16.948250
" />
</g>
<g style="fill:none; 
stroke:#000000; stroke-width:0.800000; stroke-opacity:1; 
stroke-linecap:round; stroke-linejoin:round;">
<path d="M11.586907 3.348250
L14.186907 3.348250
" />
<path d="M11.786907 9.148250
L13.986907 9.148250
" />
<path d="M17.686907 7.448250
L17.686907 5.248250
" />
</g> 
</svg>
