<?xml version="1.0" standalone="no"?>
 <!DOCTYPE svg PUBLIC "-//W3C//DTD SVG 1.1//EN" 
 "http://www.w3.org/Graphics/SVG/1.1/DTD/svg11.dtd"> 
<svg
  xmlns:svg="http://www.w3.org/2000/svg"
  xmlns="http://www.w3.org/2000/svg"
  xmlns:xlink="http://www.w3.org/1999/xlink"
  xmlns:inkscape="http://www.inkscape.org/namespaces/inkscape"
  version="1.1"
  width="26.187400mm" height="24.993600mm" viewBox="0.000000 0.000000 26.187400 24.993600">
<title>SVG Image created as PinSocket_1x08_P2.54mm_Vertical.svg date 2026-04-21T00:15:35 </title>
  <desc>Image generated by PCBNEW </desc>
<g style="fill:#000000; fill-opacity:1.000000;stroke:#000000; stroke-opacity:1.000000;
stroke-linecap:round; stroke-linejoin:round;"
 transform="translate(0 0) scale(1 1)">
</g>
<g style="fill:none; 
stroke:#000000; stroke-width:0.150000; stroke-opacity:1; 
stroke-linecap:round; stroke-linejoin:round;">
<text x="13.101191" y="24.668250"
textLength="26.202383" font-size="1.333333" lengthAdjust="spacingAndGlyphs"
text-anchor="middle" opacity="0" stroke-opacity="0">PinSocket_1x08_P2.54mm_Vertical</text>
<g class="stroked-text"><desc>PinSocket_1x08_P2.54mm_Vertical</desc>
<path d="M0.363096 24.623069
L0.363096 23.623069
" />
<path d="M0.363096 23.623069
L0.744048 23.623069
" />
<path d="M0.744048 23.623069
L0.839286 23.670688
" />
<path d="M0.839286 23.670688
L0.886905 23.718307
" />
<path d="M0.886905 23.718307
L0.934524 23.813545
" />
<path d="M0.934524 23.813545
L0.934524 23.956402
" />
<path d="M0.934524 23.956402
L0.886905 24.051640
" />
<path d="M0.886905 24.051640
L0.839286 24.099259
" />
<path d="M0.839286 24.099259
L0.744048 24.146878
" />
<path d="M0.744048 24.146878
L0.363096 24.146878
" />
<path d="M1.363096 24.623069
L1.363096 23.956402
" />
<path d="M1.363096 23.623069
L1.315477 23.670688
" />
<path d="M1.315477 23.670688
L1.363096 23.718307
" />
<path d="M1.363096 23.718307
L1.410715 23.670688
" />
<path d="M1.410715 23.670688
L1.363096 23.623069
" />
<path d="M1.363096 23.623069
L1.363096 23.718307
" />
<path d="M1.839286 23.956402
L1.839286 24.623069
" />
<path d="M1.839286 24.051640
L1.886905 24.004021
" />
<path d="M1.886905 24.004021
L1.982143 23.956402
" />
<path d="M1.982143 23.956402
L2.125000 23.956402
" />
<path d="M2.125000 23.956402
L2.220238 24.004021
" />
<path d="M2.220238 24.004021
L2.267857 24.099259
" />
<path d="M2.267857 24.099259
L2.267857 24.623069
" />
<path d="M2.696429 24.575450
L2.839286 24.623069
" />
<path d="M2.839286 24.623069
L3.077381 24.623069
" />
<path d="M3.077381 24.623069
L3.172619 24.575450
" />
<path d="M3.172619 24.575450
L3.220238 24.527830
" />
<path d="M3.220238 24.527830
L3.267857 24.432592
" />
<path d="M3.267857 24.432592
L3.267857 24.337354
" />
<path d="M3.267857 24.337354
L3.220238 24.242116
" />
<path d="M3.220238 24.242116
L3.172619 24.194497
" />
<path d="M3.172619 24.194497
L3.077381 24.146878
" />
<path d="M3.077381 24.146878
L2.886905 24.099259
" />
<path d="M2.886905 24.099259
L2.791667 24.051640
" />
<path d="M2.791667 24.051640
L2.744048 24.004021
" />
<path d="M2.744048 24.004021
L2.696429 23.908783
" />
<path d="M2.696429 23.908783
L2.696429 23.813545
" />
<path d="M2.696429 23.813545
L2.744048 23.718307
" />
<path d="M2.744048 23.718307
L2.791667 23.670688
" />
<path d="M2.791667 23.670688
L2.886905 23.623069
" />
<path d="M2.886905 23.623069
L3.125000 23.623069
" />
<path d="M3.125000 23.623069
L3.267857 23.670688
" />
<path d="M3.839286 24.623069
L3.744048 24.575450
" />
<path d="M3.744048 24.575450
L3.696429 24.527830
" />
<path d="M3.696429 24.527830
L3.648810 24.432592
" />
<path d="M3.648810 24.432592
L3.648810 24.146878
" />
<path d="M3.648810 24.146878
L3.696429 24.051640
" />
<path d="M3.696429 24.051640
L3.744048 24.004021
" />
<path d="M3.744048 24.004021
L3.839286 23.956402
" />
<path d="M3.839286 23.956402
L3.982143 23.956402
" />
<path d="M3.982143 23.956402
L4.077381 24.004021
" />
<path d="M4.077381 24.004021
L4.125000 24.051640
" />
<path d="M4.125000 24.051640
L4.172619 24.146878
" />
<path d="M4.172619 24.146878
L4.172619 24.432592
" />
<path d="M4.172619 24.432592
L4.125000 24.527830
" />
<path d="M4.125000 24.527830
L4.077381 24.575450
" />
<path d="M4.077381 24.575450
L3.982143 24.623069
" />
<path d="M3.982143 24.623069
L3.839286 24.623069
" />
<path d="M5.029762 24.575450
L4.934524 24.623069
" />
<path d="M4.934524 24.623069
L4.744048 24.623069
" />
<path d="M4.744048 24.623069
L4.648810 24.575450
" />
<path d="M4.648810 24.575450
L4.601191 24.527830
" />
<path d="M4.601191 24.527830
L4.553572 24.432592
" />
<path d="M4.553572 24.432592
L4.553572 24.146878
" />
<path d="M4.553572 24.146878
L4.601191 24.051640
" />
<path d="M4.601191 24.051640
L4.648810 24.004021
" />
<path d="M4.648810 24.004021
L4.744048 23.956402
" />
<path d="M4.744048 23.956402
L4.934524 23.956402
" />
<path d="M4.934524 23.956402
L5.029762 24.004021
" />
<path d="M5.458334 24.623069
L5.458334 23.623069
" />
<path d="M5.553572 24.242116
L5.839286 24.623069
" />
<path d="M5.839286 23.956402
L5.458334 24.337354
" />
<path d="M6.648810 24.575450
L6.553572 24.623069
" />
<path d="M6.553572 24.623069
L6.363096 24.623069
" />
<path d="M6.363096 24.623069
L6.267858 24.575450
" />
<path d="M6.267858 24.575450
L6.220239 24.480211
" />
<path d="M6.220239 24.480211
L6.220239 24.099259
" />
<path d="M6.220239 24.099259
L6.267858 24.004021
" />
<path d="M6.267858 24.004021
L6.363096 23.956402
" />
<path d="M6.363096 23.956402
L6.553572 23.956402
" />
<path d="M6.553572 23.956402
L6.648810 24.004021
" />
<path d="M6.648810 24.004021
L6.696429 24.099259
" />
<path d="M6.696429 24.099259
L6.696429 24.194497
" />
<path d="M6.696429 24.194497
L6.220239 24.289735
" />
<path d="M6.982144 23.956402
L7.363096 23.956402
" />
<path d="M7.125001 23.623069
L7.125001 24.480211
" />
<path d="M7.125001 24.480211
L7.172620 24.575450
" />
<path d="M7.172620 24.575450
L7.267858 24.623069
" />
<path d="M7.267858 24.623069
L7.363096 24.623069
" />
<path d="M7.458334 24.718307
L8.220239 24.718307
" />
<path d="M8.982144 24.623069
L8.410716 24.623069
" />
<path d="M8.696430 24.623069
L8.696430 23.623069
" />
<path d="M8.696430 23.623069
L8.601192 23.765926
" />
<path d="M8.601192 23.765926
L8.505954 23.861164
" />
<path d="M8.505954 23.861164
L8.410716 23.908783
" />
<path d="M9.315478 24.623069
L9.839287 23.956402
" />
<path d="M9.315478 23.956402
L9.839287 24.623069
" />
<path d="M10.410716 23.623069
L10.505954 23.623069
" />
<path d="M10.505954 23.623069
L10.601192 23.670688
" />
<path d="M10.601192 23.670688
L10.648811 23.718307
" />
<path d="M10.648811 23.718307
L10.696430 23.813545
" />
<path d="M10.696430 23.813545
L10.744049 24.004021
" />
<path d="M10.744049 24.004021
L10.744049 24.242116
" />
<path d="M10.744049 24.242116
L10.696430 24.432592
" />
<path d="M10.696430 24.432592
L10.648811 24.527830
" />
<path d="M10.648811 24.527830
L10.601192 24.575450
" />
<path d="M10.601192 24.575450
L10.505954 24.623069
" />
<path d="M10.505954 24.623069
L10.410716 24.623069
" />
<path d="M10.410716 24.623069
L10.315478 24.575450
" />
<path d="M10.315478 24.575450
L10.267859 24.527830
" />
<path d="M10.267859 24.527830
L10.220240 24.432592
" />
<path d="M10.220240 24.432592
L10.172621 24.242116
" />
<path d="M10.172621 24.242116
L10.172621 24.004021
" />
<path d="M10.172621 24.004021
L10.220240 23.813545
" />
<path d="M10.220240 23.813545
L10.267859 23.718307
" />
<path d="M10.267859 23.718307
L10.315478 23.670688
" />
<path d="M10.315478 23.670688
L10.410716 23.623069
" />
<path d="M11.315478 24.051640
L11.220240 24.004021
" />
<path d="M11.220240 24.004021
L11.172621 23.956402
" />
<path d="M11.172621 23.956402
L11.125002 23.861164
" />
<path d="M11.125002 23.861164
L11.125002 23.813545
" />
<path d="M11.125002 23.813545
L11.172621 23.718307
" />
<path d="M11.172621 23.718307
L11.220240 23.670688
" />
<path d="M11.220240 23.670688
L11.315478 23.623069
" />
<path d="M11.315478 23.623069
L11.505954 23.623069
" />
<path d="M11.505954 23.623069
L11.601192 23.670688
" />
<path d="M11.601192 23.670688
L11.648811 23.718307
" />
<path d="M11.648811 23.718307
L11.696430 23.813545
" />
<path d="M11.696430 23.813545
L11.696430 23.861164
" />
<path d="M11.696430 23.861164
L11.648811 23.956402
" />
<path d="M11.648811 23.956402
L11.601192 24.004021
" />
<path d="M11.601192 24.004021
L11.505954 24.051640
" />
<path d="M11.505954 24.051640
L11.315478 24.051640
" />
<path d="M11.315478 24.051640
L11.220240 24.099259
" />
<path d="M11.220240 24.099259
L11.172621 24.146878
" />
<path d="M11.172621 24.146878
L11.125002 24.242116
" />
<path d="M11.125002 24.242116
L11.125002 24.432592
" />
<path d="M11.125002 24.432592
L11.172621 24.527830
" />
<path d="M11.172621 24.527830
L11.220240 24.575450
" />
<path d="M11.220240 24.575450
L11.315478 24.623069
" />
<path d="M11.315478 24.623069
L11.505954 24.623069
" />
<path d="M11.505954 24.623069
L11.601192 24.575450
" />
<path d="M11.601192 24.575450
L11.648811 24.527830
" />
<path d="M11.648811 24.527830
L11.696430 24.432592
" />
<path d="M11.696430 24.432592
L11.696430 24.242116
" />
<path d="M11.696430 24.242116
L11.648811 24.146878
" />
<path d="M11.648811 24.146878
L11.601192 24.099259
" />
<path d="M11.601192 24.099259
L11.505954 24.051640
" />
<path d="M11.886906 24.718307
L12.648811 24.718307
" />
<path d="M12.886907 24.623069
L12.886907 23.623069
" />
<path d="M12.886907 23.623069
L13.267858 23.623069
" />
<path d="M13.267858 23.623069
L13.363096 23.670688
" />
<path d="M13.363096 23.670688
L13.410715 23.718307
" />
<path d="M13.410715 23.718307
L13.458334 23.813545
" />
<path d="M13.458334 23.813545
L13.458334 23.956402
" />
<path d="M13.458334 23.956402
L13.410715 24.051640
" />
<path d="M13.410715 24.051640
L13.363096 24.099259
" />
<path d="M13.363096 24.099259
L13.267858 24.146878
" />
<path d="M13.267858 24.146878
L12.886907 24.146878
" />
<path d="M13.839287 23.718307
L13.886906 23.670688
" />
<path d="M13.886906 23.670688
L13.982144 23.623069
" />
<path d="M13.982144 23.623069
L14.220239 23.623069
" />
<path d="M14.220239 23.623069
L14.315477 23.670688
" />
<path d="M14.315477 23.670688
L14.363096 23.718307
" />
<path d="M14.363096 23.718307
L14.410715 23.813545
" />
<path d="M14.410715 23.813545
L14.410715 23.908783
" />
<path d="M14.410715 23.908783
L14.363096 24.051640
" />
<path d="M14.363096 24.051640
L13.791668 24.623069
" />
<path d="M13.791668 24.623069
L14.410715 24.623069
" />
<path d="M14.839287 24.527830
L14.886906 24.575450
" />
<path d="M14.886906 24.575450
L14.839287 24.623069
" />
<path d="M14.839287 24.623069
L14.791668 24.575450
" />
<path d="M14.791668 24.575450
L14.839287 24.527830
" />
<path d="M14.839287 24.527830
L14.839287 24.623069
" />
<path d="M15.791667 23.623069
L15.315477 23.623069
" />
<path d="M15.315477 23.623069
L15.267858 24.099259
" />
<path d="M15.267858 24.099259
L15.315477 24.051640
" />
<path d="M15.315477 24.051640
L15.410715 24.004021
" />
<path d="M15.410715 24.004021
L15.648810 24.004021
" />
<path d="M15.648810 24.004021
L15.744048 24.051640
" />
<path d="M15.744048 24.051640
L15.791667 24.099259
" />
<path d="M15.791667 24.099259
L15.839286 24.194497
" />
<path d="M15.839286 24.194497
L15.839286 24.432592
" />
<path d="M15.839286 24.432592
L15.791667 24.527830
" />
<path d="M15.791667 24.527830
L15.744048 24.575450
" />
<path d="M15.744048 24.575450
L15.648810 24.623069
" />
<path d="M15.648810 24.623069
L15.410715 24.623069
" />
<path d="M15.410715 24.623069
L15.315477 24.575450
" />
<path d="M15.315477 24.575450
L15.267858 24.527830
" />
<path d="M16.696429 23.956402
L16.696429 24.623069
" />
<path d="M16.458334 23.575450
L16.220239 24.289735
" />
<path d="M16.220239 24.289735
L16.839286 24.289735
" />
<path d="M17.220239 24.623069
L17.220239 23.956402
" />
<path d="M17.220239 24.051640
L17.267858 24.004021
" />
<path d="M17.267858 24.004021
L17.363096 23.956402
" />
<path d="M17.363096 23.956402
L17.505953 23.956402
" />
<path d="M17.505953 23.956402
L17.601191 24.004021
" />
<path d="M17.601191 24.004021
L17.648810 24.099259
" />
<path d="M17.648810 24.099259
L17.648810 24.623069
" />
<path d="M17.648810 24.099259
L17.696429 24.004021
" />
<path d="M17.696429 24.004021
L17.791667 23.956402
" />
<path d="M17.791667 23.956402
L17.934524 23.956402
" />
<path d="M17.934524 23.956402
L18.029763 24.004021
" />
<path d="M18.029763 24.004021
L18.077382 24.099259
" />
<path d="M18.077382 24.099259
L18.077382 24.623069
" />
<path d="M18.553572 24.623069
L18.553572 23.956402
" />
<path d="M18.553572 24.051640
L18.601191 24.004021
" />
<path d="M18.601191 24.004021
L18.696429 23.956402
" />
<path d="M18.696429 23.956402
L18.839286 23.956402
" />
<path d="M18.839286 23.956402
L18.934524 24.004021
" />
<path d="M18.934524 24.004021
L18.982143 24.099259
" />
<path d="M18.982143 24.099259
L18.982143 24.623069
" />
<path d="M18.982143 24.099259
L19.029762 24.004021
" />
<path d="M19.029762 24.004021
L19.125000 23.956402
" />
<path d="M19.125000 23.956402
L19.267857 23.956402
" />
<path d="M19.267857 23.956402
L19.363096 24.004021
" />
<path d="M19.363096 24.004021
L19.410715 24.099259
" />
<path d="M19.410715 24.099259
L19.410715 24.623069
" />
<path d="M19.648810 24.718307
L20.410714 24.718307
" />
<path d="M20.505953 23.623069
L20.839286 24.623069
" />
<path d="M20.839286 24.623069
L21.172619 23.623069
" />
<path d="M21.886905 24.575450
L21.791667 24.623069
" />
<path d="M21.791667 24.623069
L21.601191 24.623069
" />
<path d="M21.601191 24.623069
L21.505953 24.575450
" />
<path d="M21.505953 24.575450
L21.458334 24.480211
" />
<path d="M21.458334 24.480211
L21.458334 24.099259
" />
<path d="M21.458334 24.099259
L21.505953 24.004021
" />
<path d="M21.505953 24.004021
L21.601191 23.956402
" />
<path d="M21.601191 23.956402
L21.791667 23.956402
" />
<path d="M21.791667 23.956402
L21.886905 24.004021
" />
<path d="M21.886905 24.004021
L21.934524 24.099259
" />
<path d="M21.934524 24.099259
L21.934524 24.194497
" />
<path d="M21.934524 24.194497
L21.458334 24.289735
" />
<path d="M22.363096 24.623069
L22.363096 23.956402
" />
<path d="M22.363096 24.146878
L22.410715 24.051640
" />
<path d="M22.410715 24.051640
L22.458334 24.004021
" />
<path d="M22.458334 24.004021
L22.553572 23.956402
" />
<path d="M22.553572 23.956402
L22.648810 23.956402
" />
<path d="M22.839287 23.956402
L23.220239 23.956402
" />
<path d="M22.982144 23.623069
L22.982144 24.480211
" />
<path d="M22.982144 24.480211
L23.029763 24.575450
" />
<path d="M23.029763 24.575450
L23.125001 24.623069
" />
<path d="M23.125001 24.623069
L23.220239 24.623069
" />
<path d="M23.553573 24.623069
L23.553573 23.956402
" />
<path d="M23.553573 23.623069
L23.505954 23.670688
" />
<path d="M23.505954 23.670688
L23.553573 23.718307
" />
<path d="M23.553573 23.718307
L23.601192 23.670688
" />
<path d="M23.601192 23.670688
L23.553573 23.623069
" />
<path d="M23.553573 23.623069
L23.553573 23.718307
" />
<path d="M24.458334 24.575450
L24.363096 24.623069
" />
<path d="M24.363096 24.623069
L24.172620 24.623069
" />
<path d="M24.172620 24.623069
L24.077382 24.575450
" />
<path d="M24.077382 24.575450
L24.029763 24.527830
" />
<path d="M24.029763 24.527830
L23.982144 24.432592
" />
<path d="M23.982144 24.432592
L23.982144 24.146878
" />
<path d="M23.982144 24.146878
L24.029763 24.051640
" />
<path d="M24.029763 24.051640
L24.077382 24.004021
" />
<path d="M24.077382 24.004021
L24.172620 23.956402
" />
<path d="M24.172620 23.956402
L24.363096 23.956402
" />
<path d="M24.363096 23.956402
L24.458334 24.004021
" />
<path d="M25.315477 24.623069
L25.315477 24.099259
" />
<path d="M25.315477 24.099259
L25.267858 24.004021
" />
<path d="M25.267858 24.004021
L25.172620 23.956402
" />
<path d="M25.172620 23.956402
L24.982144 23.956402
" />
<path d="M24.982144 23.956402
L24.886906 24.004021
" />
<path d="M25.315477 24.575450
L25.220239 24.623069
" />
<path d="M25.220239 24.623069
L24.982144 24.623069
" />
<path d="M24.982144 24.623069
L24.886906 24.575450
" />
<path d="M24.886906 24.575450
L24.839287 24.480211
" />
<path d="M24.839287 24.480211
L24.839287 24.384973
" />
<path d="M24.839287 24.384973
L24.886906 24.289735
" />
<path d="M24.886906 24.289735
L24.982144 24.242116
" />
<path d="M24.982144 24.242116
L25.220239 24.242116
" />
<path d="M25.220239 24.242116
L25.315477 24.194497
" />
<path d="M25.934525 24.623069
L25.839287 24.575450
" />
<path d="M25.839287 24.575450
L25.791668 24.480211
" />
<path d="M25.791668 24.480211
L25.791668 23.623069
" />
</g><g transform="rotate(-90.000000 13.101191 12.508250)">
<text x="13.101191" y="13.008250"
textLength="4.535715" font-size="1.333333" lengthAdjust="spacingAndGlyphs"
text-anchor="middle" opacity="0" stroke-opacity="0">REF**</text>
</g>
<g class="stroked-text"><desc>REF**</desc>
<path d="M13.556010 13.841583
L13.079820 14.174916
" />
<path d="M13.556010 14.413011
L12.556011 14.413011
" />
<path d="M12.556011 14.413011
L12.556011 14.032059
" />
<path d="M12.556011 14.032059
L12.603630 13.936821
" />
<path d="M12.603630 13.936821
L12.651249 13.889202
" />
<path d="M12.651249 13.889202
L12.746487 13.841583
" />
<path d="M12.746487 13.841583
L12.889344 13.841583
" />
<path d="M12.889344 13.841583
L12.984582 13.889202
" />
<path d="M12.984582 13.889202
L13.032201 13.936821
" />
<path d="M13.032201 13.936821
L13.079820 14.032059
" />
<path d="M13.079820 14.032059
L13.079820 14.413011
" />
<path d="M13.032201 13.413011
L13.032201 13.079678
" />
<path d="M13.556010 12.936821
L13.556010 13.413011
" />
<path d="M13.556010 13.413011
L12.556011 13.413011
" />
<path d="M12.556011 13.413011
L12.556011 12.936821
" />
<path d="M13.032201 12.174916
L13.032201 12.508249
" />
<path d="M13.556010 12.508249
L12.556011 12.508249
" />
<path d="M12.556011 12.508249
L12.556011 12.032059
" />
<path d="M12.556011 11.508249
L12.794106 11.508249
" />
<path d="M12.698868 11.746344
L12.794106 11.508249
" />
<path d="M12.794106 11.508249
L12.698868 11.270154
" />
<path d="M12.984582 11.651106
L12.794106 11.508249
" />
<path d="M12.794106 11.508249
L12.984582 11.365392
" />
<path d="M12.556011 10.746344
L12.794106 10.746344
" />
<path d="M12.698868 10.984439
L12.794106 10.746344
" />
<path d="M12.794106 10.746344
L12.698868 10.508249
" />
<path d="M12.984582 10.889201
L12.794106 10.746344
" />
<path d="M12.794106 10.746344
L12.984582 10.603487
" />
</g></g>
<g style="fill:none; 
stroke:#000000; stroke-width:0.100000; stroke-opacity:1; 
stroke-linecap:round; stroke-linejoin:round;">
<path d="M11.831191 2.348250
L13.736191 2.348250
" />
<path d="M11.831191 22.668250
L11.831191 2.348250
" />
<path d="M13.736191 2.348250
L14.371191 2.983250
" />
<path d="M14.371191 2.983250
L14.371191 22.668250
" />
<path d="M14.371191 22.668250
L11.831191 22.668250
" />
</g>
<g style="fill:#000000; fill-opacity:1.000000; stroke:none;">
<circle cx="13.101191" cy="3.618250" r="0.500000" /> 
<circle cx="13.101191" cy="6.158250" r="0.500000" /> 
<circle cx="13.101191" cy="8.698250" r="0.500000" /> 
<circle cx="13.101191" cy="11.238250" r="0.500000" /> 
<circle cx="13.101191" cy="13.778250" r="0.500000" /> 
<circle cx="13.101191" cy="16.318250" r="0.500000" /> 
<circle cx="13.101191" cy="18.858250" r="0.500000" /> 
<circle cx="13.101191" cy="21.398250" r="0.500000" /> 
</g> 
</svg>
