<?xml version="1.0" standalone="no"?>
 <!DOCTYPE svg PUBLIC "-//W3C//DTD SVG 1.1//EN" 
 "http://www.w3.org/Graphics/SVG/1.1/DTD/svg11.dtd"> 
<svg
  xmlns:svg="http://www.w3.org/2000/svg"
  xmlns="http://www.w3.org/2000/svg"
  xmlns:xlink="http://www.w3.org/1999/xlink"
  xmlns:inkscape="http://www.inkscape.org/namespaces/inkscape"
  version="1.1"
  width="26.670000mm" height="6.680200mm" viewBox="0.000000 0.000000 26.670000 6.680200">
<title>SVG Image created as C_Disc_D5.0mm_W2.5mm_P5.00mm.svg date 2026-04-21T12:25:23 </title>
  <desc>Image generated by PCBNEW </desc>
<g style="fill:#000000; fill-opacity:1.000000;stroke:#000000; stroke-opacity:1.000000;
stroke-linecap:round; stroke-linejoin:round;"
 transform="translate(0 0) scale(1 1)">
</g>
<g style="fill:none; 
stroke:#000000; stroke-width:0.150000; stroke-opacity:1; 
stroke-linecap:round; stroke-linejoin:round;">
<text x="13.339284" y="6.348250"
textLength="26.678569" font-size="1.333333" lengthAdjust="spacingAndGlyphs"
text-anchor="middle" opacity="0" stroke-opacity="0">C_Disc_D5.0mm_W2.5mm_P5.00mm</text>
<g class="stroked-text"><desc>C_Disc_D5.0mm_W2.5mm_P5.00mm</desc>
<path d="M0.934524 6.207830
L0.886905 6.255450
" />
<path d="M0.886905 6.255450
L0.744048 6.303069
" />
<path d="M0.744048 6.303069
L0.648810 6.303069
" />
<path d="M0.648810 6.303069
L0.505953 6.255450
" />
<path d="M0.505953 6.255450
L0.410715 6.160211
" />
<path d="M0.410715 6.160211
L0.363096 6.064973
" />
<path d="M0.363096 6.064973
L0.315477 5.874497
" />
<path d="M0.315477 5.874497
L0.315477 5.731640
" />
<path d="M0.315477 5.731640
L0.363096 5.541164
" />
<path d="M0.363096 5.541164
L0.410715 5.445926
" />
<path d="M0.410715 5.445926
L0.505953 5.350688
" />
<path d="M0.505953 5.350688
L0.648810 5.303069
" />
<path d="M0.648810 5.303069
L0.744048 5.303069
" />
<path d="M0.744048 5.303069
L0.886905 5.350688
" />
<path d="M0.886905 5.350688
L0.934524 5.398307
" />
<path d="M1.125000 6.398307
L1.886905 6.398307
" />
<path d="M2.125001 6.303069
L2.125001 5.303069
" />
<path d="M2.125001 5.303069
L2.363096 5.303069
" />
<path d="M2.363096 5.303069
L2.505953 5.350688
" />
<path d="M2.505953 5.350688
L2.601191 5.445926
" />
<path d="M2.601191 5.445926
L2.648810 5.541164
" />
<path d="M2.648810 5.541164
L2.696429 5.731640
" />
<path d="M2.696429 5.731640
L2.696429 5.874497
" />
<path d="M2.696429 5.874497
L2.648810 6.064973
" />
<path d="M2.648810 6.064973
L2.601191 6.160211
" />
<path d="M2.601191 6.160211
L2.505953 6.255450
" />
<path d="M2.505953 6.255450
L2.363096 6.303069
" />
<path d="M2.363096 6.303069
L2.125001 6.303069
" />
<path d="M3.125001 6.303069
L3.125001 5.636402
" />
<path d="M3.125001 5.303069
L3.077382 5.350688
" />
<path d="M3.077382 5.350688
L3.125001 5.398307
" />
<path d="M3.125001 5.398307
L3.172620 5.350688
" />
<path d="M3.172620 5.350688
L3.125001 5.303069
" />
<path d="M3.125001 5.303069
L3.125001 5.398307
" />
<path d="M3.553572 6.255450
L3.648810 6.303069
" />
<path d="M3.648810 6.303069
L3.839286 6.303069
" />
<path d="M3.839286 6.303069
L3.934524 6.255450
" />
<path d="M3.934524 6.255450
L3.982143 6.160211
" />
<path d="M3.982143 6.160211
L3.982143 6.112592
" />
<path d="M3.982143 6.112592
L3.934524 6.017354
" />
<path d="M3.934524 6.017354
L3.839286 5.969735
" />
<path d="M3.839286 5.969735
L3.696429 5.969735
" />
<path d="M3.696429 5.969735
L3.601191 5.922116
" />
<path d="M3.601191 5.922116
L3.553572 5.826878
" />
<path d="M3.553572 5.826878
L3.553572 5.779259
" />
<path d="M3.553572 5.779259
L3.601191 5.684021
" />
<path d="M3.601191 5.684021
L3.696429 5.636402
" />
<path d="M3.696429 5.636402
L3.839286 5.636402
" />
<path d="M3.839286 5.636402
L3.934524 5.684021
" />
<path d="M4.839286 6.255450
L4.744048 6.303069
" />
<path d="M4.744048 6.303069
L4.553572 6.303069
" />
<path d="M4.553572 6.303069
L4.458334 6.255450
" />
<path d="M4.458334 6.255450
L4.410715 6.207830
" />
<path d="M4.410715 6.207830
L4.363096 6.112592
" />
<path d="M4.363096 6.112592
L4.363096 5.826878
" />
<path d="M4.363096 5.826878
L4.410715 5.731640
" />
<path d="M4.410715 5.731640
L4.458334 5.684021
" />
<path d="M4.458334 5.684021
L4.553572 5.636402
" />
<path d="M4.553572 5.636402
L4.744048 5.636402
" />
<path d="M4.744048 5.636402
L4.839286 5.684021
" />
<path d="M5.029762 6.398307
L5.791667 6.398307
" />
<path d="M6.029763 6.303069
L6.029763 5.303069
" />
<path d="M6.029763 5.303069
L6.267858 5.303069
" />
<path d="M6.267858 5.303069
L6.410715 5.350688
" />
<path d="M6.410715 5.350688
L6.505953 5.445926
" />
<path d="M6.505953 5.445926
L6.553572 5.541164
" />
<path d="M6.553572 5.541164
L6.601191 5.731640
" />
<path d="M6.601191 5.731640
L6.601191 5.874497
" />
<path d="M6.601191 5.874497
L6.553572 6.064973
" />
<path d="M6.553572 6.064973
L6.505953 6.160211
" />
<path d="M6.505953 6.160211
L6.410715 6.255450
" />
<path d="M6.410715 6.255450
L6.267858 6.303069
" />
<path d="M6.267858 6.303069
L6.029763 6.303069
" />
<path d="M7.505953 5.303069
L7.029763 5.303069
" />
<path d="M7.029763 5.303069
L6.982144 5.779259
" />
<path d="M6.982144 5.779259
L7.029763 5.731640
" />
<path d="M7.029763 5.731640
L7.125001 5.684021
" />
<path d="M7.125001 5.684021
L7.363096 5.684021
" />
<path d="M7.363096 5.684021
L7.458334 5.731640
" />
<path d="M7.458334 5.731640
L7.505953 5.779259
" />
<path d="M7.505953 5.779259
L7.553572 5.874497
" />
<path d="M7.553572 5.874497
L7.553572 6.112592
" />
<path d="M7.553572 6.112592
L7.505953 6.207830
" />
<path d="M7.505953 6.207830
L7.458334 6.255450
" />
<path d="M7.458334 6.255450
L7.363096 6.303069
" />
<path d="M7.363096 6.303069
L7.125001 6.303069
" />
<path d="M7.125001 6.303069
L7.029763 6.255450
" />
<path d="M7.029763 6.255450
L6.982144 6.207830
" />
<path d="M7.982144 6.207830
L8.029763 6.255450
" />
<path d="M8.029763 6.255450
L7.982144 6.303069
" />
<path d="M7.982144 6.303069
L7.934525 6.255450
" />
<path d="M7.934525 6.255450
L7.982144 6.207830
" />
<path d="M7.982144 6.207830
L7.982144 6.303069
" />
<path d="M8.648810 5.303069
L8.744048 5.303069
" />
<path d="M8.744048 5.303069
L8.839286 5.350688
" />
<path d="M8.839286 5.350688
L8.886905 5.398307
" />
<path d="M8.886905 5.398307
L8.934524 5.493545
" />
<path d="M8.934524 5.493545
L8.982143 5.684021
" />
<path d="M8.982143 5.684021
L8.982143 5.922116
" />
<path d="M8.982143 5.922116
L8.934524 6.112592
" />
<path d="M8.934524 6.112592
L8.886905 6.207830
" />
<path d="M8.886905 6.207830
L8.839286 6.255450
" />
<path d="M8.839286 6.255450
L8.744048 6.303069
" />
<path d="M8.744048 6.303069
L8.648810 6.303069
" />
<path d="M8.648810 6.303069
L8.553572 6.255450
" />
<path d="M8.553572 6.255450
L8.505953 6.207830
" />
<path d="M8.505953 6.207830
L8.458334 6.112592
" />
<path d="M8.458334 6.112592
L8.410715 5.922116
" />
<path d="M8.410715 5.922116
L8.410715 5.684021
" />
<path d="M8.410715 5.684021
L8.458334 5.493545
" />
<path d="M8.458334 5.493545
L8.505953 5.398307
" />
<path d="M8.505953 5.398307
L8.553572 5.350688
" />
<path d="M8.553572 5.350688
L8.648810 5.303069
" />
<path d="M9.410715 6.303069
L9.410715 5.636402
" />
<path d="M9.410715 5.731640
L9.458334 5.684021
" />
<path d="M9.458334 5.684021
L9.553572 5.636402
" />
<path d="M9.553572 5.636402
L9.696429 5.636402
" />
<path d="M9.696429 5.636402
L9.791667 5.684021
" />
<path d="M9.791667 5.684021
L9.839286 5.779259
" />
<path d="M9.839286 5.779259
L9.839286 6.303069
" />
<path d="M9.839286 5.779259
L9.886905 5.684021
" />
<path d="M9.886905 5.684021
L9.982143 5.636402
" />
<path d="M9.982143 5.636402
L10.125000 5.636402
" />
<path d="M10.125000 5.636402
L10.220239 5.684021
" />
<path d="M10.220239 5.684021
L10.267858 5.779259
" />
<path d="M10.267858 5.779259
L10.267858 6.303069
" />
<path d="M10.744048 6.303069
L10.744048 5.636402
" />
<path d="M10.744048 5.731640
L10.791667 5.684021
" />
<path d="M10.791667 5.684021
L10.886904 5.636402
" />
<path d="M10.886904 5.636402
L11.029761 5.636402
" />
<path d="M11.029761 5.636402
L11.124999 5.684021
" />
<path d="M11.124999 5.684021
L11.172618 5.779259
" />
<path d="M11.172618 5.779259
L11.172618 6.303069
" />
<path d="M11.172618 5.779259
L11.220237 5.684021
" />
<path d="M11.220237 5.684021
L11.315475 5.636402
" />
<path d="M11.315475 5.636402
L11.458332 5.636402
" />
<path d="M11.458332 5.636402
L11.553571 5.684021
" />
<path d="M11.553571 5.684021
L11.601190 5.779259
" />
<path d="M11.601190 5.779259
L11.601190 6.303069
" />
<path d="M11.839285 6.398307
L12.601189 6.398307
" />
<path d="M12.744047 5.303069
L12.982142 6.303069
" />
<path d="M12.982142 6.303069
L13.172618 5.588783
" />
<path d="M13.172618 5.588783
L13.363094 6.303069
" />
<path d="M13.363094 6.303069
L13.601190 5.303069
" />
<path d="M13.934523 5.398307
L13.982142 5.350688
" />
<path d="M13.982142 5.350688
L14.077380 5.303069
" />
<path d="M14.077380 5.303069
L14.315475 5.303069
" />
<path d="M14.315475 5.303069
L14.410713 5.350688
" />
<path d="M14.410713 5.350688
L14.458332 5.398307
" />
<path d="M14.458332 5.398307
L14.505951 5.493545
" />
<path d="M14.505951 5.493545
L14.505951 5.588783
" />
<path d="M14.505951 5.588783
L14.458332 5.731640
" />
<path d="M14.458332 5.731640
L13.886904 6.303069
" />
<path d="M13.886904 6.303069
L14.505951 6.303069
" />
<path d="M14.934523 6.207830
L14.982142 6.255450
" />
<path d="M14.982142 6.255450
L14.934523 6.303069
" />
<path d="M14.934523 6.303069
L14.886904 6.255450
" />
<path d="M14.886904 6.255450
L14.934523 6.207830
" />
<path d="M14.934523 6.207830
L14.934523 6.303069
" />
<path d="M15.886903 5.303069
L15.410713 5.303069
" />
<path d="M15.410713 5.303069
L15.363094 5.779259
" />
<path d="M15.363094 5.779259
L15.410713 5.731640
" />
<path d="M15.410713 5.731640
L15.505951 5.684021
" />
<path d="M15.505951 5.684021
L15.744046 5.684021
" />
<path d="M15.744046 5.684021
L15.839284 5.731640
" />
<path d="M15.839284 5.731640
L15.886903 5.779259
" />
<path d="M15.886903 5.779259
L15.934522 5.874497
" />
<path d="M15.934522 5.874497
L15.934522 6.112592
" />
<path d="M15.934522 6.112592
L15.886903 6.207830
" />
<path d="M15.886903 6.207830
L15.839284 6.255450
" />
<path d="M15.839284 6.255450
L15.744046 6.303069
" />
<path d="M15.744046 6.303069
L15.505951 6.303069
" />
<path d="M15.505951 6.303069
L15.410713 6.255450
" />
<path d="M15.410713 6.255450
L15.363094 6.207830
" />
<path d="M16.363094 6.303069
L16.363094 5.636402
" />
<path d="M16.363094 5.731640
L16.410713 5.684021
" />
<path d="M16.410713 5.684021
L16.505951 5.636402
" />
<path d="M16.505951 5.636402
L16.648808 5.636402
" />
<path d="M16.648808 5.636402
L16.744046 5.684021
" />
<path d="M16.744046 5.684021
L16.791665 5.779259
" />
<path d="M16.791665 5.779259
L16.791665 6.303069
" />
<path d="M16.791665 5.779259
L16.839284 5.684021
" />
<path d="M16.839284 5.684021
L16.934522 5.636402
" />
<path d="M16.934522 5.636402
L17.077379 5.636402
" />
<path d="M17.077379 5.636402
L17.172618 5.684021
" />
<path d="M17.172618 5.684021
L17.220237 5.779259
" />
<path d="M17.220237 5.779259
L17.220237 6.303069
" />
<path d="M17.696427 6.303069
L17.696427 5.636402
" />
<path d="M17.696427 5.731640
L17.744046 5.684021
" />
<path d="M17.744046 5.684021
L17.839284 5.636402
" />
<path d="M17.839284 5.636402
L17.982141 5.636402
" />
<path d="M17.982141 5.636402
L18.077379 5.684021
" />
<path d="M18.077379 5.684021
L18.124998 5.779259
" />
<path d="M18.124998 5.779259
L18.124998 6.303069
" />
<path d="M18.124998 5.779259
L18.172617 5.684021
" />
<path d="M18.172617 5.684021
L18.267855 5.636402
" />
<path d="M18.267855 5.636402
L18.410712 5.636402
" />
<path d="M18.410712 5.636402
L18.505951 5.684021
" />
<path d="M18.505951 5.684021
L18.553570 5.779259
" />
<path d="M18.553570 5.779259
L18.553570 6.303069
" />
<path d="M18.791665 6.398307
L19.553569 6.398307
" />
<path d="M19.791665 6.303069
L19.791665 5.303069
" />
<path d="M19.791665 5.303069
L20.172617 5.303069
" />
<path d="M20.172617 5.303069
L20.267855 5.350688
" />
<path d="M20.267855 5.350688
L20.315474 5.398307
" />
<path d="M20.315474 5.398307
L20.363093 5.493545
" />
<path d="M20.363093 5.493545
L20.363093 5.636402
" />
<path d="M20.363093 5.636402
L20.315474 5.731640
" />
<path d="M20.315474 5.731640
L20.267855 5.779259
" />
<path d="M20.267855 5.779259
L20.172617 5.826878
" />
<path d="M20.172617 5.826878
L19.791665 5.826878
" />
<path d="M21.267855 5.303069
L20.791665 5.303069
" />
<path d="M20.791665 5.303069
L20.744046 5.779259
" />
<path d="M20.744046 5.779259
L20.791665 5.731640
" />
<path d="M20.791665 5.731640
L20.886903 5.684021
" />
<path d="M20.886903 5.684021
L21.124998 5.684021
" />
<path d="M21.124998 5.684021
L21.220236 5.731640
" />
<path d="M21.220236 5.731640
L21.267855 5.779259
" />
<path d="M21.267855 5.779259
L21.315474 5.874497
" />
<path d="M21.315474 5.874497
L21.315474 6.112592
" />
<path d="M21.315474 6.112592
L21.267855 6.207830
" />
<path d="M21.267855 6.207830
L21.220236 6.255450
" />
<path d="M21.220236 6.255450
L21.124998 6.303069
" />
<path d="M21.124998 6.303069
L20.886903 6.303069
" />
<path d="M20.886903 6.303069
L20.791665 6.255450
" />
<path d="M20.791665 6.255450
L20.744046 6.207830
" />
<path d="M21.744046 6.207830
L21.791665 6.255450
" />
<path d="M21.791665 6.255450
L21.744046 6.303069
" />
<path d="M21.744046 6.303069
L21.696427 6.255450
" />
<path d="M21.696427 6.255450
L21.744046 6.207830
" />
<path d="M21.744046 6.207830
L21.744046 6.303069
" />
<path d="M22.410712 5.303069
L22.505950 5.303069
" />
<path d="M22.505950 5.303069
L22.601188 5.350688
" />
<path d="M22.601188 5.350688
L22.648807 5.398307
" />
<path d="M22.648807 5.398307
L22.696426 5.493545
" />
<path d="M22.696426 5.493545
L22.744045 5.684021
" />
<path d="M22.744045 5.684021
L22.744045 5.922116
" />
<path d="M22.744045 5.922116
L22.696426 6.112592
" />
<path d="M22.696426 6.112592
L22.648807 6.207830
" />
<path d="M22.648807 6.207830
L22.601188 6.255450
" />
<path d="M22.601188 6.255450
L22.505950 6.303069
" />
<path d="M22.505950 6.303069
L22.410712 6.303069
" />
<path d="M22.410712 6.303069
L22.315474 6.255450
" />
<path d="M22.315474 6.255450
L22.267855 6.207830
" />
<path d="M22.267855 6.207830
L22.220236 6.112592
" />
<path d="M22.220236 6.112592
L22.172617 5.922116
" />
<path d="M22.172617 5.922116
L22.172617 5.684021
" />
<path d="M22.172617 5.684021
L22.220236 5.493545
" />
<path d="M22.220236 5.493545
L22.267855 5.398307
" />
<path d="M22.267855 5.398307
L22.315474 5.350688
" />
<path d="M22.315474 5.350688
L22.410712 5.303069
" />
<path d="M23.363093 5.303069
L23.458331 5.303069
" />
<path d="M23.458331 5.303069
L23.553569 5.350688
" />
<path d="M23.553569 5.350688
L23.601188 5.398307
" />
<path d="M23.601188 5.398307
L23.648807 5.493545
" />
<path d="M23.648807 5.493545
L23.696426 5.684021
" />
<path d="M23.696426 5.684021
L23.696426 5.922116
" />
<path d="M23.696426 5.922116
L23.648807 6.112592
" />
<path d="M23.648807 6.112592
L23.601188 6.207830
" />
<path d="M23.601188 6.207830
L23.553569 6.255450
" />
<path d="M23.553569 6.255450
L23.458331 6.303069
" />
<path d="M23.458331 6.303069
L23.363093 6.303069
" />
<path d="M23.363093 6.303069
L23.267855 6.255450
" />
<path d="M23.267855 6.255450
L23.220236 6.207830
" />
<path d="M23.220236 6.207830
L23.172617 6.112592
" />
<path d="M23.172617 6.112592
L23.124998 5.922116
" />
<path d="M23.124998 5.922116
L23.124998 5.684021
" />
<path d="M23.124998 5.684021
L23.172617 5.493545
" />
<path d="M23.172617 5.493545
L23.220236 5.398307
" />
<path d="M23.220236 5.398307
L23.267855 5.350688
" />
<path d="M23.267855 5.350688
L23.363093 5.303069
" />
<path d="M24.124998 6.303069
L24.124998 5.636402
" />
<path d="M24.124998 5.731640
L24.172617 5.684021
" />
<path d="M24.172617 5.684021
L24.267855 5.636402
" />
<path d="M24.267855 5.636402
L24.410712 5.636402
" />
<path d="M24.410712 5.636402
L24.505950 5.684021
" />
<path d="M24.505950 5.684021
L24.553569 5.779259
" />
<path d="M24.553569 5.779259
L24.553569 6.303069
" />
<path d="M24.553569 5.779259
L24.601188 5.684021
" />
<path d="M24.601188 5.684021
L24.696426 5.636402
" />
<path d="M24.696426 5.636402
L24.839283 5.636402
" />
<path d="M24.839283 5.636402
L24.934522 5.684021
" />
<path d="M24.934522 5.684021
L24.982141 5.779259
" />
<path d="M24.982141 5.779259
L24.982141 6.303069
" />
<path d="M25.458331 6.303069
L25.458331 5.636402
" />
<path d="M25.458331 5.731640
L25.505950 5.684021
" />
<path d="M25.505950 5.684021
L25.601188 5.636402
" />
<path d="M25.601188 5.636402
L25.744045 5.636402
" />
<path d="M25.744045 5.636402
L25.839283 5.684021
" />
<path d="M25.839283 5.684021
L25.886902 5.779259
" />
<path d="M25.886902 5.779259
L25.886902 6.303069
" />
<path d="M25.886902 5.779259
L25.934521 5.684021
" />
<path d="M25.934521 5.684021
L26.029759 5.636402
" />
<path d="M26.029759 5.636402
L26.172616 5.636402
" />
<path d="M26.172616 5.636402
L26.267855 5.684021
" />
<path d="M26.267855 5.684021
L26.315474 5.779259
" />
<path d="M26.315474 5.779259
L26.315474 6.303069
" />
</g><text x="13.339284" y="3.848250"
textLength="4.535715" font-size="1.333333" lengthAdjust="spacingAndGlyphs"
text-anchor="middle" opacity="0" stroke-opacity="0">REF**</text>
<g class="stroked-text"><desc>REF**</desc>
<path d="M12.005950 3.803069
L11.672617 3.326879
" />
<path d="M11.434522 3.803069
L11.434522 2.803070
" />
<path d="M11.434522 2.803070
L11.815474 2.803070
" />
<path d="M11.815474 2.803070
L11.910712 2.850689
" />
<path d="M11.910712 2.850689
L11.958331 2.898308
" />
<path d="M11.958331 2.898308
L12.005950 2.993546
" />
<path d="M12.005950 2.993546
L12.005950 3.136403
" />
<path d="M12.005950 3.136403
L11.958331 3.231641
" />
<path d="M11.958331 3.231641
L11.910712 3.279260
" />
<path d="M11.910712 3.279260
L11.815474 3.326879
" />
<path d="M11.815474 3.326879
L11.434522 3.326879
" />
<path d="M12.434522 3.279260
L12.767855 3.279260
" />
<path d="M12.910712 3.803069
L12.434522 3.803069
" />
<path d="M12.434522 3.803069
L12.434522 2.803070
" />
<path d="M12.434522 2.803070
L12.910712 2.803070
" />
<path d="M13.672617 3.279260
L13.339284 3.279260
" />
<path d="M13.339284 3.803069
L13.339284 2.803070
" />
<path d="M13.339284 2.803070
L13.815474 2.803070
" />
<path d="M14.339284 2.803070
L14.339284 3.041165
" />
<path d="M14.101189 2.945927
L14.339284 3.041165
" />
<path d="M14.339284 3.041165
L14.577379 2.945927
" />
<path d="M14.196427 3.231641
L14.339284 3.041165
" />
<path d="M14.339284 3.041165
L14.482141 3.231641
" />
<path d="M15.101189 2.803070
L15.101189 3.041165
" />
<path d="M14.863094 2.945927
L15.101189 3.041165
" />
<path d="M15.101189 3.041165
L15.339284 2.945927
" />
<path d="M14.958332 3.231641
L15.101189 3.041165
" />
<path d="M15.101189 3.041165
L15.244046 3.231641
" />
</g><path style="fill:none; 
stroke:#000000; stroke-width:0.100000; stroke-opacity:1; 
stroke-linecap:round; stroke-linejoin:round;fill:none"
d="M 10.839284,2.098250
15.839284,2.098250
15.839284,4.598250
10.839284,4.598250
Z" /> 
</g>
<g style="fill:#000000; fill-opacity:1.000000; stroke:none;">
<circle cx="10.839284" cy="3.348250" r="0.400000" /> 
<circle cx="15.839284" cy="3.348250" r="0.400000" /> 
</g> 
</svg>
