<?xml version="1.0" standalone="no"?>
 <!DOCTYPE svg PUBLIC "-//W3C//DTD SVG 1.1//EN" 
 "http://www.w3.org/Graphics/SVG/1.1/DTD/svg11.dtd"> 
<svg
  xmlns:svg="http://www.w3.org/2000/svg"
  xmlns="http://www.w3.org/2000/svg"
  xmlns:xlink="http://www.w3.org/1999/xlink"
  xmlns:inkscape="http://www.inkscape.org/namespaces/inkscape"
  version="1.1"
  width="45.389800mm" height="8.686800mm" viewBox="0.000000 0.000000 45.389800 8.686800">
<title>SVG Image created as C_Rect_L7.2mm_W4.5mm_P5.00mm_FKS2_FKP2_MKS2_MKP2.svg date 2026-04-21T17:26:44 </title>
  <desc>Image generated by PCBNEW </desc>
<g style="fill:#000000; fill-opacity:1.000000;stroke:#000000; stroke-opacity:1.000000;
stroke-linecap:round; stroke-linejoin:round;"
 transform="translate(0 0) scale(1 1)">
</g>
<g style="fill:none; 
stroke:#000000; stroke-width:0.150000; stroke-opacity:1; 
stroke-linecap:round; stroke-linejoin:round;">
<text x="22.696428" y="8.348250"
textLength="45.392857" font-size="1.333333" lengthAdjust="spacingAndGlyphs"
text-anchor="middle" opacity="0" stroke-opacity="0">C_Rect_L7.2mm_W4.5mm_P5.00mm_FKS2_FKP2_MKS2_MKP2</text>
<g class="stroked-text"><desc>C_Rect_L7.2mm_W4.5mm_P5.00mm_FKS2_FKP2_MKS2_MKP2</desc>
<path d="M0.934524 8.207830
L0.886905 8.255450
" />
<path d="M0.886905 8.255450
L0.744048 8.303069
" />
<path d="M0.744048 8.303069
L0.648810 8.303069
" />
<path d="M0.648810 8.303069
L0.505953 8.255450
" />
<path d="M0.505953 8.255450
L0.410715 8.160211
" />
<path d="M0.410715 8.160211
L0.363096 8.064973
" />
<path d="M0.363096 8.064973
L0.315477 7.874497
" />
<path d="M0.315477 7.874497
L0.315477 7.731640
" />
<path d="M0.315477 7.731640
L0.363096 7.541164
" />
<path d="M0.363096 7.541164
L0.410715 7.445926
" />
<path d="M0.410715 7.445926
L0.505953 7.350688
" />
<path d="M0.505953 7.350688
L0.648810 7.303069
" />
<path d="M0.648810 7.303069
L0.744048 7.303069
" />
<path d="M0.744048 7.303069
L0.886905 7.350688
" />
<path d="M0.886905 7.350688
L0.934524 7.398307
" />
<path d="M1.125000 8.398307
L1.886905 8.398307
" />
<path d="M2.696429 8.303069
L2.363096 7.826878
" />
<path d="M2.125001 8.303069
L2.125001 7.303069
" />
<path d="M2.125001 7.303069
L2.505953 7.303069
" />
<path d="M2.505953 7.303069
L2.601191 7.350688
" />
<path d="M2.601191 7.350688
L2.648810 7.398307
" />
<path d="M2.648810 7.398307
L2.696429 7.493545
" />
<path d="M2.696429 7.493545
L2.696429 7.636402
" />
<path d="M2.696429 7.636402
L2.648810 7.731640
" />
<path d="M2.648810 7.731640
L2.601191 7.779259
" />
<path d="M2.601191 7.779259
L2.505953 7.826878
" />
<path d="M2.505953 7.826878
L2.125001 7.826878
" />
<path d="M3.505953 8.255450
L3.410715 8.303069
" />
<path d="M3.410715 8.303069
L3.220239 8.303069
" />
<path d="M3.220239 8.303069
L3.125001 8.255450
" />
<path d="M3.125001 8.255450
L3.077382 8.160211
" />
<path d="M3.077382 8.160211
L3.077382 7.779259
" />
<path d="M3.077382 7.779259
L3.125001 7.684021
" />
<path d="M3.125001 7.684021
L3.220239 7.636402
" />
<path d="M3.220239 7.636402
L3.410715 7.636402
" />
<path d="M3.410715 7.636402
L3.505953 7.684021
" />
<path d="M3.505953 7.684021
L3.553572 7.779259
" />
<path d="M3.553572 7.779259
L3.553572 7.874497
" />
<path d="M3.553572 7.874497
L3.077382 7.969735
" />
<path d="M4.410715 8.255450
L4.315477 8.303069
" />
<path d="M4.315477 8.303069
L4.125001 8.303069
" />
<path d="M4.125001 8.303069
L4.029763 8.255450
" />
<path d="M4.029763 8.255450
L3.982144 8.207830
" />
<path d="M3.982144 8.207830
L3.934525 8.112592
" />
<path d="M3.934525 8.112592
L3.934525 7.826878
" />
<path d="M3.934525 7.826878
L3.982144 7.731640
" />
<path d="M3.982144 7.731640
L4.029763 7.684021
" />
<path d="M4.029763 7.684021
L4.125001 7.636402
" />
<path d="M4.125001 7.636402
L4.315477 7.636402
" />
<path d="M4.315477 7.636402
L4.410715 7.684021
" />
<path d="M4.696430 7.636402
L5.077382 7.636402
" />
<path d="M4.839287 7.303069
L4.839287 8.160211
" />
<path d="M4.839287 8.160211
L4.886906 8.255450
" />
<path d="M4.886906 8.255450
L4.982144 8.303069
" />
<path d="M4.982144 8.303069
L5.077382 8.303069
" />
<path d="M5.172620 8.398307
L5.934525 8.398307
" />
<path d="M6.648811 8.303069
L6.172621 8.303069
" />
<path d="M6.172621 8.303069
L6.172621 7.303069
" />
<path d="M6.886907 7.303069
L7.553573 7.303069
" />
<path d="M7.553573 7.303069
L7.125002 8.303069
" />
<path d="M7.934526 8.207830
L7.982145 8.255450
" />
<path d="M7.982145 8.255450
L7.934526 8.303069
" />
<path d="M7.934526 8.303069
L7.886907 8.255450
" />
<path d="M7.886907 8.255450
L7.934526 8.207830
" />
<path d="M7.934526 8.207830
L7.934526 8.303069
" />
<path d="M8.363097 7.398307
L8.410716 7.350688
" />
<path d="M8.410716 7.350688
L8.505954 7.303069
" />
<path d="M8.505954 7.303069
L8.744049 7.303069
" />
<path d="M8.744049 7.303069
L8.839287 7.350688
" />
<path d="M8.839287 7.350688
L8.886906 7.398307
" />
<path d="M8.886906 7.398307
L8.934525 7.493545
" />
<path d="M8.934525 7.493545
L8.934525 7.588783
" />
<path d="M8.934525 7.588783
L8.886906 7.731640
" />
<path d="M8.886906 7.731640
L8.315478 8.303069
" />
<path d="M8.315478 8.303069
L8.934525 8.303069
" />
<path d="M9.363097 8.303069
L9.363097 7.636402
" />
<path d="M9.363097 7.731640
L9.410716 7.684021
" />
<path d="M9.410716 7.684021
L9.505954 7.636402
" />
<path d="M9.505954 7.636402
L9.648811 7.636402
" />
<path d="M9.648811 7.636402
L9.744049 7.684021
" />
<path d="M9.744049 7.684021
L9.791668 7.779259
" />
<path d="M9.791668 7.779259
L9.791668 8.303069
" />
<path d="M9.791668 7.779259
L9.839287 7.684021
" />
<path d="M9.839287 7.684021
L9.934525 7.636402
" />
<path d="M9.934525 7.636402
L10.077382 7.636402
" />
<path d="M10.077382 7.636402
L10.172621 7.684021
" />
<path d="M10.172621 7.684021
L10.220240 7.779259
" />
<path d="M10.220240 7.779259
L10.220240 8.303069
" />
<path d="M10.696430 8.303069
L10.696430 7.636402
" />
<path d="M10.696430 7.731640
L10.744049 7.684021
" />
<path d="M10.744049 7.684021
L10.839287 7.636402
" />
<path d="M10.839287 7.636402
L10.982144 7.636402
" />
<path d="M10.982144 7.636402
L11.077382 7.684021
" />
<path d="M11.077382 7.684021
L11.125001 7.779259
" />
<path d="M11.125001 7.779259
L11.125001 8.303069
" />
<path d="M11.125001 7.779259
L11.172620 7.684021
" />
<path d="M11.172620 7.684021
L11.267858 7.636402
" />
<path d="M11.267858 7.636402
L11.410715 7.636402
" />
<path d="M11.410715 7.636402
L11.505954 7.684021
" />
<path d="M11.505954 7.684021
L11.553573 7.779259
" />
<path d="M11.553573 7.779259
L11.553573 8.303069
" />
<path d="M11.791667 8.398307
L12.553572 8.398307
" />
<path d="M12.696430 7.303069
L12.934525 8.303069
" />
<path d="M12.934525 8.303069
L13.125001 7.588783
" />
<path d="M13.125001 7.588783
L13.315477 8.303069
" />
<path d="M13.315477 8.303069
L13.553572 7.303069
" />
<path d="M14.363096 7.636402
L14.363096 8.303069
" />
<path d="M14.125001 7.255450
L13.886906 7.969735
" />
<path d="M13.886906 7.969735
L14.505953 7.969735
" />
<path d="M14.886906 8.207830
L14.934525 8.255450
" />
<path d="M14.934525 8.255450
L14.886906 8.303069
" />
<path d="M14.886906 8.303069
L14.839287 8.255450
" />
<path d="M14.839287 8.255450
L14.886906 8.207830
" />
<path d="M14.886906 8.207830
L14.886906 8.303069
" />
<path d="M15.839286 7.303069
L15.363096 7.303069
" />
<path d="M15.363096 7.303069
L15.315477 7.779259
" />
<path d="M15.315477 7.779259
L15.363096 7.731640
" />
<path d="M15.363096 7.731640
L15.458334 7.684021
" />
<path d="M15.458334 7.684021
L15.696429 7.684021
" />
<path d="M15.696429 7.684021
L15.791667 7.731640
" />
<path d="M15.791667 7.731640
L15.839286 7.779259
" />
<path d="M15.839286 7.779259
L15.886905 7.874497
" />
<path d="M15.886905 7.874497
L15.886905 8.112592
" />
<path d="M15.886905 8.112592
L15.839286 8.207830
" />
<path d="M15.839286 8.207830
L15.791667 8.255450
" />
<path d="M15.791667 8.255450
L15.696429 8.303069
" />
<path d="M15.696429 8.303069
L15.458334 8.303069
" />
<path d="M15.458334 8.303069
L15.363096 8.255450
" />
<path d="M15.363096 8.255450
L15.315477 8.207830
" />
<path d="M16.315477 8.303069
L16.315477 7.636402
" />
<path d="M16.315477 7.731640
L16.363096 7.684021
" />
<path d="M16.363096 7.684021
L16.458334 7.636402
" />
<path d="M16.458334 7.636402
L16.601191 7.636402
" />
<path d="M16.601191 7.636402
L16.696429 7.684021
" />
<path d="M16.696429 7.684021
L16.744048 7.779259
" />
<path d="M16.744048 7.779259
L16.744048 8.303069
" />
<path d="M16.744048 7.779259
L16.791667 7.684021
" />
<path d="M16.791667 7.684021
L16.886905 7.636402
" />
<path d="M16.886905 7.636402
L17.029762 7.636402
" />
<path d="M17.029762 7.636402
L17.125001 7.684021
" />
<path d="M17.125001 7.684021
L17.172620 7.779259
" />
<path d="M17.172620 7.779259
L17.172620 8.303069
" />
<path d="M17.648810 8.303069
L17.648810 7.636402
" />
<path d="M17.648810 7.731640
L17.696429 7.684021
" />
<path d="M17.696429 7.684021
L17.791667 7.636402
" />
<path d="M17.791667 7.636402
L17.934524 7.636402
" />
<path d="M17.934524 7.636402
L18.029762 7.684021
" />
<path d="M18.029762 7.684021
L18.077381 7.779259
" />
<path d="M18.077381 7.779259
L18.077381 8.303069
" />
<path d="M18.077381 7.779259
L18.125000 7.684021
" />
<path d="M18.125000 7.684021
L18.220238 7.636402
" />
<path d="M18.220238 7.636402
L18.363095 7.636402
" />
<path d="M18.363095 7.636402
L18.458334 7.684021
" />
<path d="M18.458334 7.684021
L18.505953 7.779259
" />
<path d="M18.505953 7.779259
L18.505953 8.303069
" />
<path d="M18.744047 8.398307
L19.505952 8.398307
" />
<path d="M19.744048 8.303069
L19.744048 7.303069
" />
<path d="M19.744048 7.303069
L20.125000 7.303069
" />
<path d="M20.125000 7.303069
L20.220237 7.350688
" />
<path d="M20.220237 7.350688
L20.267856 7.398307
" />
<path d="M20.267856 7.398307
L20.315475 7.493545
" />
<path d="M20.315475 7.493545
L20.315475 7.636402
" />
<path d="M20.315475 7.636402
L20.267856 7.731640
" />
<path d="M20.267856 7.731640
L20.220237 7.779259
" />
<path d="M20.220237 7.779259
L20.125000 7.826878
" />
<path d="M20.125000 7.826878
L19.744048 7.826878
" />
<path d="M21.220237 7.303069
L20.744047 7.303069
" />
<path d="M20.744047 7.303069
L20.696428 7.779259
" />
<path d="M20.696428 7.779259
L20.744047 7.731640
" />
<path d="M20.744047 7.731640
L20.839285 7.684021
" />
<path d="M20.839285 7.684021
L21.077380 7.684021
" />
<path d="M21.077380 7.684021
L21.172618 7.731640
" />
<path d="M21.172618 7.731640
L21.220237 7.779259
" />
<path d="M21.220237 7.779259
L21.267856 7.874497
" />
<path d="M21.267856 7.874497
L21.267856 8.112592
" />
<path d="M21.267856 8.112592
L21.220237 8.207830
" />
<path d="M21.220237 8.207830
L21.172618 8.255450
" />
<path d="M21.172618 8.255450
L21.077380 8.303069
" />
<path d="M21.077380 8.303069
L20.839285 8.303069
" />
<path d="M20.839285 8.303069
L20.744047 8.255450
" />
<path d="M20.744047 8.255450
L20.696428 8.207830
" />
<path d="M21.696428 8.207830
L21.744047 8.255450
" />
<path d="M21.744047 8.255450
L21.696428 8.303069
" />
<path d="M21.696428 8.303069
L21.648809 8.255450
" />
<path d="M21.648809 8.255450
L21.696428 8.207830
" />
<path d="M21.696428 8.207830
L21.696428 8.303069
" />
<path d="M22.363094 7.303069
L22.458332 7.303069
" />
<path d="M22.458332 7.303069
L22.553570 7.350688
" />
<path d="M22.553570 7.350688
L22.601189 7.398307
" />
<path d="M22.601189 7.398307
L22.648808 7.493545
" />
<path d="M22.648808 7.493545
L22.696427 7.684021
" />
<path d="M22.696427 7.684021
L22.696427 7.922116
" />
<path d="M22.696427 7.922116
L22.648808 8.112592
" />
<path d="M22.648808 8.112592
L22.601189 8.207830
" />
<path d="M22.601189 8.207830
L22.553570 8.255450
" />
<path d="M22.553570 8.255450
L22.458332 8.303069
" />
<path d="M22.458332 8.303069
L22.363094 8.303069
" />
<path d="M22.363094 8.303069
L22.267856 8.255450
" />
<path d="M22.267856 8.255450
L22.220237 8.207830
" />
<path d="M22.220237 8.207830
L22.172618 8.112592
" />
<path d="M22.172618 8.112592
L22.124999 7.922116
" />
<path d="M22.124999 7.922116
L22.124999 7.684021
" />
<path d="M22.124999 7.684021
L22.172618 7.493545
" />
<path d="M22.172618 7.493545
L22.220237 7.398307
" />
<path d="M22.220237 7.398307
L22.267856 7.350688
" />
<path d="M22.267856 7.350688
L22.363094 7.303069
" />
<path d="M23.315475 7.303069
L23.410713 7.303069
" />
<path d="M23.410713 7.303069
L23.505951 7.350688
" />
<path d="M23.505951 7.350688
L23.553570 7.398307
" />
<path d="M23.553570 7.398307
L23.601189 7.493545
" />
<path d="M23.601189 7.493545
L23.648808 7.684021
" />
<path d="M23.648808 7.684021
L23.648808 7.922116
" />
<path d="M23.648808 7.922116
L23.601189 8.112592
" />
<path d="M23.601189 8.112592
L23.553570 8.207830
" />
<path d="M23.553570 8.207830
L23.505951 8.255450
" />
<path d="M23.505951 8.255450
L23.410713 8.303069
" />
<path d="M23.410713 8.303069
L23.315475 8.303069
" />
<path d="M23.315475 8.303069
L23.220237 8.255450
" />
<path d="M23.220237 8.255450
L23.172618 8.207830
" />
<path d="M23.172618 8.207830
L23.124999 8.112592
" />
<path d="M23.124999 8.112592
L23.077380 7.922116
" />
<path d="M23.077380 7.922116
L23.077380 7.684021
" />
<path d="M23.077380 7.684021
L23.124999 7.493545
" />
<path d="M23.124999 7.493545
L23.172618 7.398307
" />
<path d="M23.172618 7.398307
L23.220237 7.350688
" />
<path d="M23.220237 7.350688
L23.315475 7.303069
" />
<path d="M24.077380 8.303069
L24.077380 7.636402
" />
<path d="M24.077380 7.731640
L24.124999 7.684021
" />
<path d="M24.124999 7.684021
L24.220237 7.636402
" />
<path d="M24.220237 7.636402
L24.363094 7.636402
" />
<path d="M24.363094 7.636402
L24.458332 7.684021
" />
<path d="M24.458332 7.684021
L24.505951 7.779259
" />
<path d="M24.505951 7.779259
L24.505951 8.303069
" />
<path d="M24.505951 7.779259
L24.553570 7.684021
" />
<path d="M24.553570 7.684021
L24.648808 7.636402
" />
<path d="M24.648808 7.636402
L24.791665 7.636402
" />
<path d="M24.791665 7.636402
L24.886904 7.684021
" />
<path d="M24.886904 7.684021
L24.934523 7.779259
" />
<path d="M24.934523 7.779259
L24.934523 8.303069
" />
<path d="M25.410713 8.303069
L25.410713 7.636402
" />
<path d="M25.410713 7.731640
L25.458332 7.684021
" />
<path d="M25.458332 7.684021
L25.553570 7.636402
" />
<path d="M25.553570 7.636402
L25.696427 7.636402
" />
<path d="M25.696427 7.636402
L25.791665 7.684021
" />
<path d="M25.791665 7.684021
L25.839284 7.779259
" />
<path d="M25.839284 7.779259
L25.839284 8.303069
" />
<path d="M25.839284 7.779259
L25.886903 7.684021
" />
<path d="M25.886903 7.684021
L25.982141 7.636402
" />
<path d="M25.982141 7.636402
L26.124998 7.636402
" />
<path d="M26.124998 7.636402
L26.220237 7.684021
" />
<path d="M26.220237 7.684021
L26.267856 7.779259
" />
<path d="M26.267856 7.779259
L26.267856 8.303069
" />
<path d="M26.505951 8.398307
L27.267855 8.398307
" />
<path d="M27.839284 7.779259
L27.505951 7.779259
" />
<path d="M27.505951 8.303069
L27.505951 7.303069
" />
<path d="M27.505951 7.303069
L27.982141 7.303069
" />
<path d="M28.363094 8.303069
L28.363094 7.303069
" />
<path d="M28.934522 8.303069
L28.505951 7.731640
" />
<path d="M28.934522 7.303069
L28.363094 7.874497
" />
<path d="M29.315475 8.255450
L29.458332 8.303069
" />
<path d="M29.458332 8.303069
L29.696427 8.303069
" />
<path d="M29.696427 8.303069
L29.791665 8.255450
" />
<path d="M29.791665 8.255450
L29.839284 8.207830
" />
<path d="M29.839284 8.207830
L29.886903 8.112592
" />
<path d="M29.886903 8.112592
L29.886903 8.017354
" />
<path d="M29.886903 8.017354
L29.839284 7.922116
" />
<path d="M29.839284 7.922116
L29.791665 7.874497
" />
<path d="M29.791665 7.874497
L29.696427 7.826878
" />
<path d="M29.696427 7.826878
L29.505951 7.779259
" />
<path d="M29.505951 7.779259
L29.410713 7.731640
" />
<path d="M29.410713 7.731640
L29.363094 7.684021
" />
<path d="M29.363094 7.684021
L29.315475 7.588783
" />
<path d="M29.315475 7.588783
L29.315475 7.493545
" />
<path d="M29.315475 7.493545
L29.363094 7.398307
" />
<path d="M29.363094 7.398307
L29.410713 7.350688
" />
<path d="M29.410713 7.350688
L29.505951 7.303069
" />
<path d="M29.505951 7.303069
L29.744046 7.303069
" />
<path d="M29.744046 7.303069
L29.886903 7.350688
" />
<path d="M30.267856 7.398307
L30.315475 7.350688
" />
<path d="M30.315475 7.350688
L30.410713 7.303069
" />
<path d="M30.410713 7.303069
L30.648808 7.303069
" />
<path d="M30.648808 7.303069
L30.744046 7.350688
" />
<path d="M30.744046 7.350688
L30.791665 7.398307
" />
<path d="M30.791665 7.398307
L30.839284 7.493545
" />
<path d="M30.839284 7.493545
L30.839284 7.588783
" />
<path d="M30.839284 7.588783
L30.791665 7.731640
" />
<path d="M30.791665 7.731640
L30.220237 8.303069
" />
<path d="M30.220237 8.303069
L30.839284 8.303069
" />
<path d="M31.029761 8.398307
L31.791665 8.398307
" />
<path d="M32.363094 7.779259
L32.029761 7.779259
" />
<path d="M32.029761 8.303069
L32.029761 7.303069
" />
<path d="M32.029761 7.303069
L32.505951 7.303069
" />
<path d="M32.886904 8.303069
L32.886904 7.303069
" />
<path d="M33.458332 8.303069
L33.029761 7.731640
" />
<path d="M33.458332 7.303069
L32.886904 7.874497
" />
<path d="M33.886904 8.303069
L33.886904 7.303069
" />
<path d="M33.886904 7.303069
L34.267856 7.303069
" />
<path d="M34.267856 7.303069
L34.363094 7.350688
" />
<path d="M34.363094 7.350688
L34.410713 7.398307
" />
<path d="M34.410713 7.398307
L34.458332 7.493545
" />
<path d="M34.458332 7.493545
L34.458332 7.636402
" />
<path d="M34.458332 7.636402
L34.410713 7.731640
" />
<path d="M34.410713 7.731640
L34.363094 7.779259
" />
<path d="M34.363094 7.779259
L34.267856 7.826878
" />
<path d="M34.267856 7.826878
L33.886904 7.826878
" />
<path d="M34.839285 7.398307
L34.886904 7.350688
" />
<path d="M34.886904 7.350688
L34.982142 7.303069
" />
<path d="M34.982142 7.303069
L35.220237 7.303069
" />
<path d="M35.220237 7.303069
L35.315475 7.350688
" />
<path d="M35.315475 7.350688
L35.363094 7.398307
" />
<path d="M35.363094 7.398307
L35.410713 7.493545
" />
<path d="M35.410713 7.493545
L35.410713 7.588783
" />
<path d="M35.410713 7.588783
L35.363094 7.731640
" />
<path d="M35.363094 7.731640
L34.791666 8.303069
" />
<path d="M34.791666 8.303069
L35.410713 8.303069
" />
<path d="M35.601190 8.398307
L36.363094 8.398307
" />
<path d="M36.601190 8.303069
L36.601190 7.303069
" />
<path d="M36.601190 7.303069
L36.934523 8.017354
" />
<path d="M36.934523 8.017354
L37.267856 7.303069
" />
<path d="M37.267856 7.303069
L37.267856 8.303069
" />
<path d="M37.744047 8.303069
L37.744047 7.303069
" />
<path d="M38.315475 8.303069
L37.886904 7.731640
" />
<path d="M38.315475 7.303069
L37.744047 7.874497
" />
<path d="M38.696428 8.255450
L38.839285 8.303069
" />
<path d="M38.839285 8.303069
L39.077380 8.303069
" />
<path d="M39.077380 8.303069
L39.172618 8.255450
" />
<path d="M39.172618 8.255450
L39.220237 8.207830
" />
<path d="M39.220237 8.207830
L39.267856 8.112592
" />
<path d="M39.267856 8.112592
L39.267856 8.017354
" />
<path d="M39.267856 8.017354
L39.220237 7.922116
" />
<path d="M39.220237 7.922116
L39.172618 7.874497
" />
<path d="M39.172618 7.874497
L39.077380 7.826878
" />
<path d="M39.077380 7.826878
L38.886904 7.779259
" />
<path d="M38.886904 7.779259
L38.791666 7.731640
" />
<path d="M38.791666 7.731640
L38.744047 7.684021
" />
<path d="M38.744047 7.684021
L38.696428 7.588783
" />
<path d="M38.696428 7.588783
L38.696428 7.493545
" />
<path d="M38.696428 7.493545
L38.744047 7.398307
" />
<path d="M38.744047 7.398307
L38.791666 7.350688
" />
<path d="M38.791666 7.350688
L38.886904 7.303069
" />
<path d="M38.886904 7.303069
L39.124999 7.303069
" />
<path d="M39.124999 7.303069
L39.267856 7.350688
" />
<path d="M39.648809 7.398307
L39.696428 7.350688
" />
<path d="M39.696428 7.350688
L39.791666 7.303069
" />
<path d="M39.791666 7.303069
L40.029761 7.303069
" />
<path d="M40.029761 7.303069
L40.124999 7.350688
" />
<path d="M40.124999 7.350688
L40.172618 7.398307
" />
<path d="M40.172618 7.398307
L40.220237 7.493545
" />
<path d="M40.220237 7.493545
L40.220237 7.588783
" />
<path d="M40.220237 7.588783
L40.172618 7.731640
" />
<path d="M40.172618 7.731640
L39.601190 8.303069
" />
<path d="M39.601190 8.303069
L40.220237 8.303069
" />
<path d="M40.410714 8.398307
L41.172618 8.398307
" />
<path d="M41.410714 8.303069
L41.410714 7.303069
" />
<path d="M41.410714 7.303069
L41.744047 8.017354
" />
<path d="M41.744047 8.017354
L42.077380 7.303069
" />
<path d="M42.077380 7.303069
L42.077380 8.303069
" />
<path d="M42.553571 8.303069
L42.553571 7.303069
" />
<path d="M43.124999 8.303069
L42.696428 7.731640
" />
<path d="M43.124999 7.303069
L42.553571 7.874497
" />
<path d="M43.553571 8.303069
L43.553571 7.303069
" />
<path d="M43.553571 7.303069
L43.934523 7.303069
" />
<path d="M43.934523 7.303069
L44.029761 7.350688
" />
<path d="M44.029761 7.350688
L44.077380 7.398307
" />
<path d="M44.077380 7.398307
L44.124999 7.493545
" />
<path d="M44.124999 7.493545
L44.124999 7.636402
" />
<path d="M44.124999 7.636402
L44.077380 7.731640
" />
<path d="M44.077380 7.731640
L44.029761 7.779259
" />
<path d="M44.029761 7.779259
L43.934523 7.826878
" />
<path d="M43.934523 7.826878
L43.553571 7.826878
" />
<path d="M44.505952 7.398307
L44.553571 7.350688
" />
<path d="M44.553571 7.350688
L44.648809 7.303069
" />
<path d="M44.648809 7.303069
L44.886904 7.303069
" />
<path d="M44.886904 7.303069
L44.982142 7.350688
" />
<path d="M44.982142 7.350688
L45.029761 7.398307
" />
<path d="M45.029761 7.398307
L45.077380 7.493545
" />
<path d="M45.077380 7.493545
L45.077380 7.588783
" />
<path d="M45.077380 7.588783
L45.029761 7.731640
" />
<path d="M45.029761 7.731640
L44.458333 8.303069
" />
<path d="M44.458333 8.303069
L45.077380 8.303069
" />
</g><text x="22.696428" y="4.848250"
textLength="4.535715" font-size="1.333333" lengthAdjust="spacingAndGlyphs"
text-anchor="middle" opacity="0" stroke-opacity="0">REF**</text>
<g class="stroked-text"><desc>REF**</desc>
<path d="M21.363094 4.803069
L21.029761 4.326879
" />
<path d="M20.791666 4.803069
L20.791666 3.803070
" />
<path d="M20.791666 3.803070
L21.172618 3.803070
" />
<path d="M21.172618 3.803070
L21.267856 3.850689
" />
<path d="M21.267856 3.850689
L21.315475 3.898308
" />
<path d="M21.315475 3.898308
L21.363094 3.993546
" />
<path d="M21.363094 3.993546
L21.363094 4.136403
" />
<path d="M21.363094 4.136403
L21.315475 4.231641
" />
<path d="M21.315475 4.231641
L21.267856 4.279260
" />
<path d="M21.267856 4.279260
L21.172618 4.326879
" />
<path d="M21.172618 4.326879
L20.791666 4.326879
" />
<path d="M21.791666 4.279260
L22.124999 4.279260
" />
<path d="M22.267856 4.803069
L21.791666 4.803069
" />
<path d="M21.791666 4.803069
L21.791666 3.803070
" />
<path d="M21.791666 3.803070
L22.267856 3.803070
" />
<path d="M23.029761 4.279260
L22.696428 4.279260
" />
<path d="M22.696428 4.803069
L22.696428 3.803070
" />
<path d="M22.696428 3.803070
L23.172618 3.803070
" />
<path d="M23.696428 3.803070
L23.696428 4.041165
" />
<path d="M23.458333 3.945927
L23.696428 4.041165
" />
<path d="M23.696428 4.041165
L23.934523 3.945927
" />
<path d="M23.553571 4.231641
L23.696428 4.041165
" />
<path d="M23.696428 4.041165
L23.839285 4.231641
" />
<path d="M24.458333 3.803070
L24.458333 4.041165
" />
<path d="M24.220238 3.945927
L24.458333 4.041165
" />
<path d="M24.458333 4.041165
L24.696428 3.945927
" />
<path d="M24.315476 4.231641
L24.458333 4.041165
" />
<path d="M24.458333 4.041165
L24.601190 4.231641
" />
</g><path style="fill:none; 
stroke:#000000; stroke-width:0.100000; stroke-opacity:1; 
stroke-linecap:round; stroke-linejoin:round;fill:none"
d="M 19.096428,2.098250
26.296428,2.098250
26.296428,6.598250
19.096428,6.598250
Z" /> 
</g>
<g style="fill:#000000; fill-opacity:1.000000; stroke:none;">
<circle cx="20.196428" cy="4.348250" r="0.400000" /> 
<circle cx="25.196428" cy="4.348250" r="0.400000" /> 
</g> 
</svg>
