<?xml version="1.0" standalone="no"?>
 <!DOCTYPE svg PUBLIC "-//W3C//DTD SVG 1.1//EN" 
 "http://www.w3.org/Graphics/SVG/1.1/DTD/svg11.dtd"> 
<svg
  xmlns:svg="http://www.w3.org/2000/svg"
  xmlns="http://www.w3.org/2000/svg"
  xmlns:xlink="http://www.w3.org/1999/xlink"
  xmlns:inkscape="http://www.inkscape.org/namespaces/inkscape"
  version="1.1"
  width="45.389800mm" height="9.677400mm" viewBox="0.000000 0.000000 45.389800 9.677400">
<title>SVG Image created as C_Rect_L7.2mm_W5.5mm_P5.00mm_FKS2_FKP2_MKS2_MKP2.svg date 2026-04-21T12:25:29 </title>
  <desc>Image generated by PCBNEW </desc>
<g style="fill:#000000; fill-opacity:1.000000;stroke:#000000; stroke-opacity:1.000000;
stroke-linecap:round; stroke-linejoin:round;"
 transform="translate(0 0) scale(1 1)">
</g>
<g style="fill:none; 
stroke:#000000; stroke-width:0.150000; stroke-opacity:1; 
stroke-linecap:round; stroke-linejoin:round;">
<text x="22.696428" y="9.348250"
textLength="45.392857" font-size="1.333333" lengthAdjust="spacingAndGlyphs"
text-anchor="middle" opacity="0" stroke-opacity="0">C_Rect_L7.2mm_W5.5mm_P5.00mm_FKS2_FKP2_MKS2_MKP2</text>
<g class="stroked-text"><desc>C_Rect_L7.2mm_W5.5mm_P5.00mm_FKS2_FKP2_MKS2_MKP2</desc>
<path d="M0.934524 9.207830
L0.886905 9.255450
" />
<path d="M0.886905 9.255450
L0.744048 9.303069
" />
<path d="M0.744048 9.303069
L0.648810 9.303069
" />
<path d="M0.648810 9.303069
L0.505953 9.255450
" />
<path d="M0.505953 9.255450
L0.410715 9.160211
" />
<path d="M0.410715 9.160211
L0.363096 9.064973
" />
<path d="M0.363096 9.064973
L0.315477 8.874497
" />
<path d="M0.315477 8.874497
L0.315477 8.731640
" />
<path d="M0.315477 8.731640
L0.363096 8.541164
" />
<path d="M0.363096 8.541164
L0.410715 8.445926
" />
<path d="M0.410715 8.445926
L0.505953 8.350688
" />
<path d="M0.505953 8.350688
L0.648810 8.303069
" />
<path d="M0.648810 8.303069
L0.744048 8.303069
" />
<path d="M0.744048 8.303069
L0.886905 8.350688
" />
<path d="M0.886905 8.350688
L0.934524 8.398307
" />
<path d="M1.125000 9.398307
L1.886905 9.398307
" />
<path d="M2.696429 9.303069
L2.363096 8.826878
" />
<path d="M2.125001 9.303069
L2.125001 8.303069
" />
<path d="M2.125001 8.303069
L2.505953 8.303069
" />
<path d="M2.505953 8.303069
L2.601191 8.350688
" />
<path d="M2.601191 8.350688
L2.648810 8.398307
" />
<path d="M2.648810 8.398307
L2.696429 8.493545
" />
<path d="M2.696429 8.493545
L2.696429 8.636402
" />
<path d="M2.696429 8.636402
L2.648810 8.731640
" />
<path d="M2.648810 8.731640
L2.601191 8.779259
" />
<path d="M2.601191 8.779259
L2.505953 8.826878
" />
<path d="M2.505953 8.826878
L2.125001 8.826878
" />
<path d="M3.505953 9.255450
L3.410715 9.303069
" />
<path d="M3.410715 9.303069
L3.220239 9.303069
" />
<path d="M3.220239 9.303069
L3.125001 9.255450
" />
<path d="M3.125001 9.255450
L3.077382 9.160211
" />
<path d="M3.077382 9.160211
L3.077382 8.779259
" />
<path d="M3.077382 8.779259
L3.125001 8.684021
" />
<path d="M3.125001 8.684021
L3.220239 8.636402
" />
<path d="M3.220239 8.636402
L3.410715 8.636402
" />
<path d="M3.410715 8.636402
L3.505953 8.684021
" />
<path d="M3.505953 8.684021
L3.553572 8.779259
" />
<path d="M3.553572 8.779259
L3.553572 8.874497
" />
<path d="M3.553572 8.874497
L3.077382 8.969735
" />
<path d="M4.410715 9.255450
L4.315477 9.303069
" />
<path d="M4.315477 9.303069
L4.125001 9.303069
" />
<path d="M4.125001 9.303069
L4.029763 9.255450
" />
<path d="M4.029763 9.255450
L3.982144 9.207830
" />
<path d="M3.982144 9.207830
L3.934525 9.112592
" />
<path d="M3.934525 9.112592
L3.934525 8.826878
" />
<path d="M3.934525 8.826878
L3.982144 8.731640
" />
<path d="M3.982144 8.731640
L4.029763 8.684021
" />
<path d="M4.029763 8.684021
L4.125001 8.636402
" />
<path d="M4.125001 8.636402
L4.315477 8.636402
" />
<path d="M4.315477 8.636402
L4.410715 8.684021
" />
<path d="M4.696430 8.636402
L5.077382 8.636402
" />
<path d="M4.839287 8.303069
L4.839287 9.160211
" />
<path d="M4.839287 9.160211
L4.886906 9.255450
" />
<path d="M4.886906 9.255450
L4.982144 9.303069
" />
<path d="M4.982144 9.303069
L5.077382 9.303069
" />
<path d="M5.172620 9.398307
L5.934525 9.398307
" />
<path d="M6.648811 9.303069
L6.172621 9.303069
" />
<path d="M6.172621 9.303069
L6.172621 8.303069
" />
<path d="M6.886907 8.303069
L7.553573 8.303069
" />
<path d="M7.553573 8.303069
L7.125002 9.303069
" />
<path d="M7.934526 9.207830
L7.982145 9.255450
" />
<path d="M7.982145 9.255450
L7.934526 9.303069
" />
<path d="M7.934526 9.303069
L7.886907 9.255450
" />
<path d="M7.886907 9.255450
L7.934526 9.207830
" />
<path d="M7.934526 9.207830
L7.934526 9.303069
" />
<path d="M8.363097 8.398307
L8.410716 8.350688
" />
<path d="M8.410716 8.350688
L8.505954 8.303069
" />
<path d="M8.505954 8.303069
L8.744049 8.303069
" />
<path d="M8.744049 8.303069
L8.839287 8.350688
" />
<path d="M8.839287 8.350688
L8.886906 8.398307
" />
<path d="M8.886906 8.398307
L8.934525 8.493545
" />
<path d="M8.934525 8.493545
L8.934525 8.588783
" />
<path d="M8.934525 8.588783
L8.886906 8.731640
" />
<path d="M8.886906 8.731640
L8.315478 9.303069
" />
<path d="M8.315478 9.303069
L8.934525 9.303069
" />
<path d="M9.363097 9.303069
L9.363097 8.636402
" />
<path d="M9.363097 8.731640
L9.410716 8.684021
" />
<path d="M9.410716 8.684021
L9.505954 8.636402
" />
<path d="M9.505954 8.636402
L9.648811 8.636402
" />
<path d="M9.648811 8.636402
L9.744049 8.684021
" />
<path d="M9.744049 8.684021
L9.791668 8.779259
" />
<path d="M9.791668 8.779259
L9.791668 9.303069
" />
<path d="M9.791668 8.779259
L9.839287 8.684021
" />
<path d="M9.839287 8.684021
L9.934525 8.636402
" />
<path d="M9.934525 8.636402
L10.077382 8.636402
" />
<path d="M10.077382 8.636402
L10.172621 8.684021
" />
<path d="M10.172621 8.684021
L10.220240 8.779259
" />
<path d="M10.220240 8.779259
L10.220240 9.303069
" />
<path d="M10.696430 9.303069
L10.696430 8.636402
" />
<path d="M10.696430 8.731640
L10.744049 8.684021
" />
<path d="M10.744049 8.684021
L10.839287 8.636402
" />
<path d="M10.839287 8.636402
L10.982144 8.636402
" />
<path d="M10.982144 8.636402
L11.077382 8.684021
" />
<path d="M11.077382 8.684021
L11.125001 8.779259
" />
<path d="M11.125001 8.779259
L11.125001 9.303069
" />
<path d="M11.125001 8.779259
L11.172620 8.684021
" />
<path d="M11.172620 8.684021
L11.267858 8.636402
" />
<path d="M11.267858 8.636402
L11.410715 8.636402
" />
<path d="M11.410715 8.636402
L11.505954 8.684021
" />
<path d="M11.505954 8.684021
L11.553573 8.779259
" />
<path d="M11.553573 8.779259
L11.553573 9.303069
" />
<path d="M11.791667 9.398307
L12.553572 9.398307
" />
<path d="M12.696430 8.303069
L12.934525 9.303069
" />
<path d="M12.934525 9.303069
L13.125001 8.588783
" />
<path d="M13.125001 8.588783
L13.315477 9.303069
" />
<path d="M13.315477 9.303069
L13.553572 8.303069
" />
<path d="M14.410715 8.303069
L13.934525 8.303069
" />
<path d="M13.934525 8.303069
L13.886906 8.779259
" />
<path d="M13.886906 8.779259
L13.934525 8.731640
" />
<path d="M13.934525 8.731640
L14.029763 8.684021
" />
<path d="M14.029763 8.684021
L14.267858 8.684021
" />
<path d="M14.267858 8.684021
L14.363096 8.731640
" />
<path d="M14.363096 8.731640
L14.410715 8.779259
" />
<path d="M14.410715 8.779259
L14.458334 8.874497
" />
<path d="M14.458334 8.874497
L14.458334 9.112592
" />
<path d="M14.458334 9.112592
L14.410715 9.207830
" />
<path d="M14.410715 9.207830
L14.363096 9.255450
" />
<path d="M14.363096 9.255450
L14.267858 9.303069
" />
<path d="M14.267858 9.303069
L14.029763 9.303069
" />
<path d="M14.029763 9.303069
L13.934525 9.255450
" />
<path d="M13.934525 9.255450
L13.886906 9.207830
" />
<path d="M14.886906 9.207830
L14.934525 9.255450
" />
<path d="M14.934525 9.255450
L14.886906 9.303069
" />
<path d="M14.886906 9.303069
L14.839287 9.255450
" />
<path d="M14.839287 9.255450
L14.886906 9.207830
" />
<path d="M14.886906 9.207830
L14.886906 9.303069
" />
<path d="M15.839286 8.303069
L15.363096 8.303069
" />
<path d="M15.363096 8.303069
L15.315477 8.779259
" />
<path d="M15.315477 8.779259
L15.363096 8.731640
" />
<path d="M15.363096 8.731640
L15.458334 8.684021
" />
<path d="M15.458334 8.684021
L15.696429 8.684021
" />
<path d="M15.696429 8.684021
L15.791667 8.731640
" />
<path d="M15.791667 8.731640
L15.839286 8.779259
" />
<path d="M15.839286 8.779259
L15.886905 8.874497
" />
<path d="M15.886905 8.874497
L15.886905 9.112592
" />
<path d="M15.886905 9.112592
L15.839286 9.207830
" />
<path d="M15.839286 9.207830
L15.791667 9.255450
" />
<path d="M15.791667 9.255450
L15.696429 9.303069
" />
<path d="M15.696429 9.303069
L15.458334 9.303069
" />
<path d="M15.458334 9.303069
L15.363096 9.255450
" />
<path d="M15.363096 9.255450
L15.315477 9.207830
" />
<path d="M16.315477 9.303069
L16.315477 8.636402
" />
<path d="M16.315477 8.731640
L16.363096 8.684021
" />
<path d="M16.363096 8.684021
L16.458334 8.636402
" />
<path d="M16.458334 8.636402
L16.601191 8.636402
" />
<path d="M16.601191 8.636402
L16.696429 8.684021
" />
<path d="M16.696429 8.684021
L16.744048 8.779259
" />
<path d="M16.744048 8.779259
L16.744048 9.303069
" />
<path d="M16.744048 8.779259
L16.791667 8.684021
" />
<path d="M16.791667 8.684021
L16.886905 8.636402
" />
<path d="M16.886905 8.636402
L17.029762 8.636402
" />
<path d="M17.029762 8.636402
L17.125001 8.684021
" />
<path d="M17.125001 8.684021
L17.172620 8.779259
" />
<path d="M17.172620 8.779259
L17.172620 9.303069
" />
<path d="M17.648810 9.303069
L17.648810 8.636402
" />
<path d="M17.648810 8.731640
L17.696429 8.684021
" />
<path d="M17.696429 8.684021
L17.791667 8.636402
" />
<path d="M17.791667 8.636402
L17.934524 8.636402
" />
<path d="M17.934524 8.636402
L18.029762 8.684021
" />
<path d="M18.029762 8.684021
L18.077381 8.779259
" />
<path d="M18.077381 8.779259
L18.077381 9.303069
" />
<path d="M18.077381 8.779259
L18.125000 8.684021
" />
<path d="M18.125000 8.684021
L18.220238 8.636402
" />
<path d="M18.220238 8.636402
L18.363095 8.636402
" />
<path d="M18.363095 8.636402
L18.458334 8.684021
" />
<path d="M18.458334 8.684021
L18.505953 8.779259
" />
<path d="M18.505953 8.779259
L18.505953 9.303069
" />
<path d="M18.744047 9.398307
L19.505952 9.398307
" />
<path d="M19.744048 9.303069
L19.744048 8.303069
" />
<path d="M19.744048 8.303069
L20.125000 8.303069
" />
<path d="M20.125000 8.303069
L20.220237 8.350688
" />
<path d="M20.220237 8.350688
L20.267856 8.398307
" />
<path d="M20.267856 8.398307
L20.315475 8.493545
" />
<path d="M20.315475 8.493545
L20.315475 8.636402
" />
<path d="M20.315475 8.636402
L20.267856 8.731640
" />
<path d="M20.267856 8.731640
L20.220237 8.779259
" />
<path d="M20.220237 8.779259
L20.125000 8.826878
" />
<path d="M20.125000 8.826878
L19.744048 8.826878
" />
<path d="M21.220237 8.303069
L20.744047 8.303069
" />
<path d="M20.744047 8.303069
L20.696428 8.779259
" />
<path d="M20.696428 8.779259
L20.744047 8.731640
" />
<path d="M20.744047 8.731640
L20.839285 8.684021
" />
<path d="M20.839285 8.684021
L21.077380 8.684021
" />
<path d="M21.077380 8.684021
L21.172618 8.731640
" />
<path d="M21.172618 8.731640
L21.220237 8.779259
" />
<path d="M21.220237 8.779259
L21.267856 8.874497
" />
<path d="M21.267856 8.874497
L21.267856 9.112592
" />
<path d="M21.267856 9.112592
L21.220237 9.207830
" />
<path d="M21.220237 9.207830
L21.172618 9.255450
" />
<path d="M21.172618 9.255450
L21.077380 9.303069
" />
<path d="M21.077380 9.303069
L20.839285 9.303069
" />
<path d="M20.839285 9.303069
L20.744047 9.255450
" />
<path d="M20.744047 9.255450
L20.696428 9.207830
" />
<path d="M21.696428 9.207830
L21.744047 9.255450
" />
<path d="M21.744047 9.255450
L21.696428 9.303069
" />
<path d="M21.696428 9.303069
L21.648809 9.255450
" />
<path d="M21.648809 9.255450
L21.696428 9.207830
" />
<path d="M21.696428 9.207830
L21.696428 9.303069
" />
<path d="M22.363094 8.303069
L22.458332 8.303069
" />
<path d="M22.458332 8.303069
L22.553570 8.350688
" />
<path d="M22.553570 8.350688
L22.601189 8.398307
" />
<path d="M22.601189 8.398307
L22.648808 8.493545
" />
<path d="M22.648808 8.493545
L22.696427 8.684021
" />
<path d="M22.696427 8.684021
L22.696427 8.922116
" />
<path d="M22.696427 8.922116
L22.648808 9.112592
" />
<path d="M22.648808 9.112592
L22.601189 9.207830
" />
<path d="M22.601189 9.207830
L22.553570 9.255450
" />
<path d="M22.553570 9.255450
L22.458332 9.303069
" />
<path d="M22.458332 9.303069
L22.363094 9.303069
" />
<path d="M22.363094 9.303069
L22.267856 9.255450
" />
<path d="M22.267856 9.255450
L22.220237 9.207830
" />
<path d="M22.220237 9.207830
L22.172618 9.112592
" />
<path d="M22.172618 9.112592
L22.124999 8.922116
" />
<path d="M22.124999 8.922116
L22.124999 8.684021
" />
<path d="M22.124999 8.684021
L22.172618 8.493545
" />
<path d="M22.172618 8.493545
L22.220237 8.398307
" />
<path d="M22.220237 8.398307
L22.267856 8.350688
" />
<path d="M22.267856 8.350688
L22.363094 8.303069
" />
<path d="M23.315475 8.303069
L23.410713 8.303069
" />
<path d="M23.410713 8.303069
L23.505951 8.350688
" />
<path d="M23.505951 8.350688
L23.553570 8.398307
" />
<path d="M23.553570 8.398307
L23.601189 8.493545
" />
<path d="M23.601189 8.493545
L23.648808 8.684021
" />
<path d="M23.648808 8.684021
L23.648808 8.922116
" />
<path d="M23.648808 8.922116
L23.601189 9.112592
" />
<path d="M23.601189 9.112592
L23.553570 9.207830
" />
<path d="M23.553570 9.207830
L23.505951 9.255450
" />
<path d="M23.505951 9.255450
L23.410713 9.303069
" />
<path d="M23.410713 9.303069
L23.315475 9.303069
" />
<path d="M23.315475 9.303069
L23.220237 9.255450
" />
<path d="M23.220237 9.255450
L23.172618 9.207830
" />
<path d="M23.172618 9.207830
L23.124999 9.112592
" />
<path d="M23.124999 9.112592
L23.077380 8.922116
" />
<path d="M23.077380 8.922116
L23.077380 8.684021
" />
<path d="M23.077380 8.684021
L23.124999 8.493545
" />
<path d="M23.124999 8.493545
L23.172618 8.398307
" />
<path d="M23.172618 8.398307
L23.220237 8.350688
" />
<path d="M23.220237 8.350688
L23.315475 8.303069
" />
<path d="M24.077380 9.303069
L24.077380 8.636402
" />
<path d="M24.077380 8.731640
L24.124999 8.684021
" />
<path d="M24.124999 8.684021
L24.220237 8.636402
" />
<path d="M24.220237 8.636402
L24.363094 8.636402
" />
<path d="M24.363094 8.636402
L24.458332 8.684021
" />
<path d="M24.458332 8.684021
L24.505951 8.779259
" />
<path d="M24.505951 8.779259
L24.505951 9.303069
" />
<path d="M24.505951 8.779259
L24.553570 8.684021
" />
<path d="M24.553570 8.684021
L24.648808 8.636402
" />
<path d="M24.648808 8.636402
L24.791665 8.636402
" />
<path d="M24.791665 8.636402
L24.886904 8.684021
" />
<path d="M24.886904 8.684021
L24.934523 8.779259
" />
<path d="M24.934523 8.779259
L24.934523 9.303069
" />
<path d="M25.410713 9.303069
L25.410713 8.636402
" />
<path d="M25.410713 8.731640
L25.458332 8.684021
" />
<path d="M25.458332 8.684021
L25.553570 8.636402
" />
<path d="M25.553570 8.636402
L25.696427 8.636402
" />
<path d="M25.696427 8.636402
L25.791665 8.684021
" />
<path d="M25.791665 8.684021
L25.839284 8.779259
" />
<path d="M25.839284 8.779259
L25.839284 9.303069
" />
<path d="M25.839284 8.779259
L25.886903 8.684021
" />
<path d="M25.886903 8.684021
L25.982141 8.636402
" />
<path d="M25.982141 8.636402
L26.124998 8.636402
" />
<path d="M26.124998 8.636402
L26.220237 8.684021
" />
<path d="M26.220237 8.684021
L26.267856 8.779259
" />
<path d="M26.267856 8.779259
L26.267856 9.303069
" />
<path d="M26.505951 9.398307
L27.267855 9.398307
" />
<path d="M27.839284 8.779259
L27.505951 8.779259
" />
<path d="M27.505951 9.303069
L27.505951 8.303069
" />
<path d="M27.505951 8.303069
L27.982141 8.303069
" />
<path d="M28.363094 9.303069
L28.363094 8.303069
" />
<path d="M28.934522 9.303069
L28.505951 8.731640
" />
<path d="M28.934522 8.303069
L28.363094 8.874497
" />
<path d="M29.315475 9.255450
L29.458332 9.303069
" />
<path d="M29.458332 9.303069
L29.696427 9.303069
" />
<path d="M29.696427 9.303069
L29.791665 9.255450
" />
<path d="M29.791665 9.255450
L29.839284 9.207830
" />
<path d="M29.839284 9.207830
L29.886903 9.112592
" />
<path d="M29.886903 9.112592
L29.886903 9.017354
" />
<path d="M29.886903 9.017354
L29.839284 8.922116
" />
<path d="M29.839284 8.922116
L29.791665 8.874497
" />
<path d="M29.791665 8.874497
L29.696427 8.826878
" />
<path d="M29.696427 8.826878
L29.505951 8.779259
" />
<path d="M29.505951 8.779259
L29.410713 8.731640
" />
<path d="M29.410713 8.731640
L29.363094 8.684021
" />
<path d="M29.363094 8.684021
L29.315475 8.588783
" />
<path d="M29.315475 8.588783
L29.315475 8.493545
" />
<path d="M29.315475 8.493545
L29.363094 8.398307
" />
<path d="M29.363094 8.398307
L29.410713 8.350688
" />
<path d="M29.410713 8.350688
L29.505951 8.303069
" />
<path d="M29.505951 8.303069
L29.744046 8.303069
" />
<path d="M29.744046 8.303069
L29.886903 8.350688
" />
<path d="M30.267856 8.398307
L30.315475 8.350688
" />
<path d="M30.315475 8.350688
L30.410713 8.303069
" />
<path d="M30.410713 8.303069
L30.648808 8.303069
" />
<path d="M30.648808 8.303069
L30.744046 8.350688
" />
<path d="M30.744046 8.350688
L30.791665 8.398307
" />
<path d="M30.791665 8.398307
L30.839284 8.493545
" />
<path d="M30.839284 8.493545
L30.839284 8.588783
" />
<path d="M30.839284 8.588783
L30.791665 8.731640
" />
<path d="M30.791665 8.731640
L30.220237 9.303069
" />
<path d="M30.220237 9.303069
L30.839284 9.303069
" />
<path d="M31.029761 9.398307
L31.791665 9.398307
" />
<path d="M32.363094 8.779259
L32.029761 8.779259
" />
<path d="M32.029761 9.303069
L32.029761 8.303069
" />
<path d="M32.029761 8.303069
L32.505951 8.303069
" />
<path d="M32.886904 9.303069
L32.886904 8.303069
" />
<path d="M33.458332 9.303069
L33.029761 8.731640
" />
<path d="M33.458332 8.303069
L32.886904 8.874497
" />
<path d="M33.886904 9.303069
L33.886904 8.303069
" />
<path d="M33.886904 8.303069
L34.267856 8.303069
" />
<path d="M34.267856 8.303069
L34.363094 8.350688
" />
<path d="M34.363094 8.350688
L34.410713 8.398307
" />
<path d="M34.410713 8.398307
L34.458332 8.493545
" />
<path d="M34.458332 8.493545
L34.458332 8.636402
" />
<path d="M34.458332 8.636402
L34.410713 8.731640
" />
<path d="M34.410713 8.731640
L34.363094 8.779259
" />
<path d="M34.363094 8.779259
L34.267856 8.826878
" />
<path d="M34.267856 8.826878
L33.886904 8.826878
" />
<path d="M34.839285 8.398307
L34.886904 8.350688
" />
<path d="M34.886904 8.350688
L34.982142 8.303069
" />
<path d="M34.982142 8.303069
L35.220237 8.303069
" />
<path d="M35.220237 8.303069
L35.315475 8.350688
" />
<path d="M35.315475 8.350688
L35.363094 8.398307
" />
<path d="M35.363094 8.398307
L35.410713 8.493545
" />
<path d="M35.410713 8.493545
L35.410713 8.588783
" />
<path d="M35.410713 8.588783
L35.363094 8.731640
" />
<path d="M35.363094 8.731640
L34.791666 9.303069
" />
<path d="M34.791666 9.303069
L35.410713 9.303069
" />
<path d="M35.601190 9.398307
L36.363094 9.398307
" />
<path d="M36.601190 9.303069
L36.601190 8.303069
" />
<path d="M36.601190 8.303069
L36.934523 9.017354
" />
<path d="M36.934523 9.017354
L37.267856 8.303069
" />
<path d="M37.267856 8.303069
L37.267856 9.303069
" />
<path d="M37.744047 9.303069
L37.744047 8.303069
" />
<path d="M38.315475 9.303069
L37.886904 8.731640
" />
<path d="M38.315475 8.303069
L37.744047 8.874497
" />
<path d="M38.696428 9.255450
L38.839285 9.303069
" />
<path d="M38.839285 9.303069
L39.077380 9.303069
" />
<path d="M39.077380 9.303069
L39.172618 9.255450
" />
<path d="M39.172618 9.255450
L39.220237 9.207830
" />
<path d="M39.220237 9.207830
L39.267856 9.112592
" />
<path d="M39.267856 9.112592
L39.267856 9.017354
" />
<path d="M39.267856 9.017354
L39.220237 8.922116
" />
<path d="M39.220237 8.922116
L39.172618 8.874497
" />
<path d="M39.172618 8.874497
L39.077380 8.826878
" />
<path d="M39.077380 8.826878
L38.886904 8.779259
" />
<path d="M38.886904 8.779259
L38.791666 8.731640
" />
<path d="M38.791666 8.731640
L38.744047 8.684021
" />
<path d="M38.744047 8.684021
L38.696428 8.588783
" />
<path d="M38.696428 8.588783
L38.696428 8.493545
" />
<path d="M38.696428 8.493545
L38.744047 8.398307
" />
<path d="M38.744047 8.398307
L38.791666 8.350688
" />
<path d="M38.791666 8.350688
L38.886904 8.303069
" />
<path d="M38.886904 8.303069
L39.124999 8.303069
" />
<path d="M39.124999 8.303069
L39.267856 8.350688
" />
<path d="M39.648809 8.398307
L39.696428 8.350688
" />
<path d="M39.696428 8.350688
L39.791666 8.303069
" />
<path d="M39.791666 8.303069
L40.029761 8.303069
" />
<path d="M40.029761 8.303069
L40.124999 8.350688
" />
<path d="M40.124999 8.350688
L40.172618 8.398307
" />
<path d="M40.172618 8.398307
L40.220237 8.493545
" />
<path d="M40.220237 8.493545
L40.220237 8.588783
" />
<path d="M40.220237 8.588783
L40.172618 8.731640
" />
<path d="M40.172618 8.731640
L39.601190 9.303069
" />
<path d="M39.601190 9.303069
L40.220237 9.303069
" />
<path d="M40.410714 9.398307
L41.172618 9.398307
" />
<path d="M41.410714 9.303069
L41.410714 8.303069
" />
<path d="M41.410714 8.303069
L41.744047 9.017354
" />
<path d="M41.744047 9.017354
L42.077380 8.303069
" />
<path d="M42.077380 8.303069
L42.077380 9.303069
" />
<path d="M42.553571 9.303069
L42.553571 8.303069
" />
<path d="M43.124999 9.303069
L42.696428 8.731640
" />
<path d="M43.124999 8.303069
L42.553571 8.874497
" />
<path d="M43.553571 9.303069
L43.553571 8.303069
" />
<path d="M43.553571 8.303069
L43.934523 8.303069
" />
<path d="M43.934523 8.303069
L44.029761 8.350688
" />
<path d="M44.029761 8.350688
L44.077380 8.398307
" />
<path d="M44.077380 8.398307
L44.124999 8.493545
" />
<path d="M44.124999 8.493545
L44.124999 8.636402
" />
<path d="M44.124999 8.636402
L44.077380 8.731640
" />
<path d="M44.077380 8.731640
L44.029761 8.779259
" />
<path d="M44.029761 8.779259
L43.934523 8.826878
" />
<path d="M43.934523 8.826878
L43.553571 8.826878
" />
<path d="M44.505952 8.398307
L44.553571 8.350688
" />
<path d="M44.553571 8.350688
L44.648809 8.303069
" />
<path d="M44.648809 8.303069
L44.886904 8.303069
" />
<path d="M44.886904 8.303069
L44.982142 8.350688
" />
<path d="M44.982142 8.350688
L45.029761 8.398307
" />
<path d="M45.029761 8.398307
L45.077380 8.493545
" />
<path d="M45.077380 8.493545
L45.077380 8.588783
" />
<path d="M45.077380 8.588783
L45.029761 8.731640
" />
<path d="M45.029761 8.731640
L44.458333 9.303069
" />
<path d="M44.458333 9.303069
L45.077380 9.303069
" />
</g><text x="22.696428" y="5.348250"
textLength="4.535715" font-size="1.333333" lengthAdjust="spacingAndGlyphs"
text-anchor="middle" opacity="0" stroke-opacity="0">REF**</text>
<g class="stroked-text"><desc>REF**</desc>
<path d="M21.363094 5.303069
L21.029761 4.826879
" />
<path d="M20.791666 5.303069
L20.791666 4.303070
" />
<path d="M20.791666 4.303070
L21.172618 4.303070
" />
<path d="M21.172618 4.303070
L21.267856 4.350689
" />
<path d="M21.267856 4.350689
L21.315475 4.398308
" />
<path d="M21.315475 4.398308
L21.363094 4.493546
" />
<path d="M21.363094 4.493546
L21.363094 4.636403
" />
<path d="M21.363094 4.636403
L21.315475 4.731641
" />
<path d="M21.315475 4.731641
L21.267856 4.779260
" />
<path d="M21.267856 4.779260
L21.172618 4.826879
" />
<path d="M21.172618 4.826879
L20.791666 4.826879
" />
<path d="M21.791666 4.779260
L22.124999 4.779260
" />
<path d="M22.267856 5.303069
L21.791666 5.303069
" />
<path d="M21.791666 5.303069
L21.791666 4.303070
" />
<path d="M21.791666 4.303070
L22.267856 4.303070
" />
<path d="M23.029761 4.779260
L22.696428 4.779260
" />
<path d="M22.696428 5.303069
L22.696428 4.303070
" />
<path d="M22.696428 4.303070
L23.172618 4.303070
" />
<path d="M23.696428 4.303070
L23.696428 4.541165
" />
<path d="M23.458333 4.445927
L23.696428 4.541165
" />
<path d="M23.696428 4.541165
L23.934523 4.445927
" />
<path d="M23.553571 4.731641
L23.696428 4.541165
" />
<path d="M23.696428 4.541165
L23.839285 4.731641
" />
<path d="M24.458333 4.303070
L24.458333 4.541165
" />
<path d="M24.220238 4.445927
L24.458333 4.541165
" />
<path d="M24.458333 4.541165
L24.696428 4.445927
" />
<path d="M24.315476 4.731641
L24.458333 4.541165
" />
<path d="M24.458333 4.541165
L24.601190 4.731641
" />
</g><path style="fill:none; 
stroke:#000000; stroke-width:0.100000; stroke-opacity:1; 
stroke-linecap:round; stroke-linejoin:round;fill:none"
d="M 19.096428,2.098250
26.296428,2.098250
26.296428,7.598250
19.096428,7.598250
Z" /> 
</g>
<g style="fill:#000000; fill-opacity:1.000000; stroke:none;">
<circle cx="20.196428" cy="4.848250" r="0.400000" /> 
<circle cx="25.196428" cy="4.848250" r="0.400000" /> 
</g> 
</svg>
