<?xml version="1.0" standalone="no"?>
 <!DOCTYPE svg PUBLIC "-//W3C//DTD SVG 1.1//EN" 
 "http://www.w3.org/Graphics/SVG/1.1/DTD/svg11.dtd"> 
<svg
  xmlns:svg="http://www.w3.org/2000/svg"
  xmlns="http://www.w3.org/2000/svg"
  xmlns:xlink="http://www.w3.org/1999/xlink"
  xmlns:inkscape="http://www.inkscape.org/namespaces/inkscape"
  version="1.1"
  width="14.909800mm" height="4.546600mm" viewBox="0.000000 0.000000 14.909800 4.546600">
<title>SVG Image created as R_0603_1608Metric.svg date 2026-04-21T00:15:44 </title>
  <desc>Image generated by PCBNEW </desc>
<g style="fill:#000000; fill-opacity:1.000000;stroke:#000000; stroke-opacity:1.000000;
stroke-linecap:round; stroke-linejoin:round;"
 transform="translate(0 0) scale(1 1)">
<path style="fill:none; 
stroke:#000000; stroke-width:0.050000; stroke-opacity:1; 
stroke-linecap:round; stroke-linejoin:round;fill:none"
d="M 5.978334,1.548250
8.938334,1.548250
8.938334,3.008250
5.978334,3.008250
Z" /> 
<path style="fill:#000000; fill-opacity:1.000000; stroke:none;fill-rule:evenodd;"
d="M 6.233334,2.003250
6.248558,1.926713
6.291913,1.861829
6.356797,1.818474
6.433334,1.803250
6.833334,1.803250
6.909871,1.818474
6.974755,1.861829
7.018110,1.926713
7.033334,2.003250
7.033334,2.553250
7.018110,2.629787
6.974755,2.694671
6.909871,2.738026
6.833334,2.753250
6.433334,2.753250
6.356797,2.738026
6.291913,2.694671
6.248558,2.629787
6.233334,2.553250
Z" /> 
<path style="fill:#000000; fill-opacity:1.000000; stroke:none;fill-rule:evenodd;"
d="M 7.883334,2.003250
7.898558,1.926713
7.941913,1.861829
8.006797,1.818474
8.083334,1.803250
8.483334,1.803250
8.559871,1.818474
8.624755,1.861829
8.668110,1.926713
8.683334,2.003250
8.683334,2.553250
8.668110,2.629787
8.624755,2.694671
8.559871,2.738026
8.483334,2.753250
8.083334,2.753250
8.006797,2.738026
7.941913,2.694671
7.898558,2.629787
7.883334,2.553250
Z" /> 
<path style="fill:#000000; fill-opacity:1.000000; stroke:none;fill-rule:evenodd;"
d="M 6.233334,2.003250
6.248558,1.926713
6.291913,1.861829
6.356797,1.818474
6.433334,1.803250
6.833334,1.803250
6.909871,1.818474
6.974755,1.861829
7.018110,1.926713
7.033334,2.003250
7.033334,2.553250
7.018110,2.629787
6.974755,2.694671
6.909871,2.738026
6.833334,2.753250
6.433334,2.753250
6.356797,2.738026
6.291913,2.694671
6.248558,2.629787
6.233334,2.553250
Z" /> 
<path style="fill:#000000; fill-opacity:1.000000; stroke:none;fill-rule:evenodd;"
d="M 7.883334,2.003250
7.898558,1.926713
7.941913,1.861829
8.006797,1.818474
8.083334,1.803250
8.483334,1.803250
8.559871,1.818474
8.624755,1.861829
8.668110,1.926713
8.683334,2.003250
8.683334,2.553250
8.668110,2.629787
8.624755,2.694671
8.559871,2.738026
8.483334,2.753250
8.083334,2.753250
8.006797,2.738026
7.941913,2.694671
7.898558,2.629787
7.883334,2.553250
Z" /> 
</g> 
</svg>
