<?xml version="1.0" standalone="no"?>
 <!DOCTYPE svg PUBLIC "-//W3C//DTD SVG 1.1//EN" 
 "http://www.w3.org/Graphics/SVG/1.1/DTD/svg11.dtd"> 
<svg
  xmlns:svg="http://www.w3.org/2000/svg"
  xmlns="http://www.w3.org/2000/svg"
  xmlns:xlink="http://www.w3.org/1999/xlink"
  xmlns:inkscape="http://www.inkscape.org/namespaces/inkscape"
  version="1.1"
  width="26.416000mm" height="8.991600mm" viewBox="0.000000 0.000000 26.416000 8.991600">
<title>SVG Image created as PinHeader_1x02_P2.54mm_Vertical.svg date 2026-04-21T12:25:31 </title>
  <desc>Image generated by PCBNEW </desc>
<g style="fill:#000000; fill-opacity:1.000000;stroke:#000000; stroke-opacity:1.000000;
stroke-linecap:round; stroke-linejoin:round;"
 transform="translate(0 0) scale(1 1)">
</g>
<g style="fill:none; 
stroke:#000000; stroke-width:0.150000; stroke-opacity:1; 
stroke-linecap:round; stroke-linejoin:round;">
<text x="13.220239" y="8.648250"
textLength="26.440478" font-size="1.333333" lengthAdjust="spacingAndGlyphs"
text-anchor="middle" opacity="0" stroke-opacity="0">PinHeader_1x02_P2.54mm_Vertical</text>
<g class="stroked-text"><desc>PinHeader_1x02_P2.54mm_Vertical</desc>
<path d="M0.363096 8.603069
L0.363096 7.603069
" />
<path d="M0.363096 7.603069
L0.744048 7.603069
" />
<path d="M0.744048 7.603069
L0.839286 7.650688
" />
<path d="M0.839286 7.650688
L0.886905 7.698307
" />
<path d="M0.886905 7.698307
L0.934524 7.793545
" />
<path d="M0.934524 7.793545
L0.934524 7.936402
" />
<path d="M0.934524 7.936402
L0.886905 8.031640
" />
<path d="M0.886905 8.031640
L0.839286 8.079259
" />
<path d="M0.839286 8.079259
L0.744048 8.126878
" />
<path d="M0.744048 8.126878
L0.363096 8.126878
" />
<path d="M1.363096 8.603069
L1.363096 7.936402
" />
<path d="M1.363096 7.603069
L1.315477 7.650688
" />
<path d="M1.315477 7.650688
L1.363096 7.698307
" />
<path d="M1.363096 7.698307
L1.410715 7.650688
" />
<path d="M1.410715 7.650688
L1.363096 7.603069
" />
<path d="M1.363096 7.603069
L1.363096 7.698307
" />
<path d="M1.839286 7.936402
L1.839286 8.603069
" />
<path d="M1.839286 8.031640
L1.886905 7.984021
" />
<path d="M1.886905 7.984021
L1.982143 7.936402
" />
<path d="M1.982143 7.936402
L2.125000 7.936402
" />
<path d="M2.125000 7.936402
L2.220238 7.984021
" />
<path d="M2.220238 7.984021
L2.267857 8.079259
" />
<path d="M2.267857 8.079259
L2.267857 8.603069
" />
<path d="M2.744048 8.603069
L2.744048 7.603069
" />
<path d="M2.744048 8.079259
L3.315476 8.079259
" />
<path d="M3.315476 8.603069
L3.315476 7.603069
" />
<path d="M4.172619 8.555450
L4.077381 8.603069
" />
<path d="M4.077381 8.603069
L3.886905 8.603069
" />
<path d="M3.886905 8.603069
L3.791667 8.555450
" />
<path d="M3.791667 8.555450
L3.744048 8.460211
" />
<path d="M3.744048 8.460211
L3.744048 8.079259
" />
<path d="M3.744048 8.079259
L3.791667 7.984021
" />
<path d="M3.791667 7.984021
L3.886905 7.936402
" />
<path d="M3.886905 7.936402
L4.077381 7.936402
" />
<path d="M4.077381 7.936402
L4.172619 7.984021
" />
<path d="M4.172619 7.984021
L4.220238 8.079259
" />
<path d="M4.220238 8.079259
L4.220238 8.174497
" />
<path d="M4.220238 8.174497
L3.744048 8.269735
" />
<path d="M5.077381 8.603069
L5.077381 8.079259
" />
<path d="M5.077381 8.079259
L5.029762 7.984021
" />
<path d="M5.029762 7.984021
L4.934524 7.936402
" />
<path d="M4.934524 7.936402
L4.744048 7.936402
" />
<path d="M4.744048 7.936402
L4.648810 7.984021
" />
<path d="M5.077381 8.555450
L4.982143 8.603069
" />
<path d="M4.982143 8.603069
L4.744048 8.603069
" />
<path d="M4.744048 8.603069
L4.648810 8.555450
" />
<path d="M4.648810 8.555450
L4.601191 8.460211
" />
<path d="M4.601191 8.460211
L4.601191 8.364973
" />
<path d="M4.601191 8.364973
L4.648810 8.269735
" />
<path d="M4.648810 8.269735
L4.744048 8.222116
" />
<path d="M4.744048 8.222116
L4.982143 8.222116
" />
<path d="M4.982143 8.222116
L5.077381 8.174497
" />
<path d="M5.982143 8.603069
L5.982143 7.603069
" />
<path d="M5.982143 8.555450
L5.886905 8.603069
" />
<path d="M5.886905 8.603069
L5.696429 8.603069
" />
<path d="M5.696429 8.603069
L5.601191 8.555450
" />
<path d="M5.601191 8.555450
L5.553572 8.507830
" />
<path d="M5.553572 8.507830
L5.505953 8.412592
" />
<path d="M5.505953 8.412592
L5.505953 8.126878
" />
<path d="M5.505953 8.126878
L5.553572 8.031640
" />
<path d="M5.553572 8.031640
L5.601191 7.984021
" />
<path d="M5.601191 7.984021
L5.696429 7.936402
" />
<path d="M5.696429 7.936402
L5.886905 7.936402
" />
<path d="M5.886905 7.936402
L5.982143 7.984021
" />
<path d="M6.839286 8.555450
L6.744048 8.603069
" />
<path d="M6.744048 8.603069
L6.553572 8.603069
" />
<path d="M6.553572 8.603069
L6.458334 8.555450
" />
<path d="M6.458334 8.555450
L6.410715 8.460211
" />
<path d="M6.410715 8.460211
L6.410715 8.079259
" />
<path d="M6.410715 8.079259
L6.458334 7.984021
" />
<path d="M6.458334 7.984021
L6.553572 7.936402
" />
<path d="M6.553572 7.936402
L6.744048 7.936402
" />
<path d="M6.744048 7.936402
L6.839286 7.984021
" />
<path d="M6.839286 7.984021
L6.886905 8.079259
" />
<path d="M6.886905 8.079259
L6.886905 8.174497
" />
<path d="M6.886905 8.174497
L6.410715 8.269735
" />
<path d="M7.315477 8.603069
L7.315477 7.936402
" />
<path d="M7.315477 8.126878
L7.363096 8.031640
" />
<path d="M7.363096 8.031640
L7.410715 7.984021
" />
<path d="M7.410715 7.984021
L7.505953 7.936402
" />
<path d="M7.505953 7.936402
L7.601191 7.936402
" />
<path d="M7.696429 8.698307
L8.458334 8.698307
" />
<path d="M9.220239 8.603069
L8.648811 8.603069
" />
<path d="M8.934525 8.603069
L8.934525 7.603069
" />
<path d="M8.934525 7.603069
L8.839287 7.745926
" />
<path d="M8.839287 7.745926
L8.744049 7.841164
" />
<path d="M8.744049 7.841164
L8.648811 7.888783
" />
<path d="M9.553573 8.603069
L10.077382 7.936402
" />
<path d="M9.553573 7.936402
L10.077382 8.603069
" />
<path d="M10.648811 7.603069
L10.744049 7.603069
" />
<path d="M10.744049 7.603069
L10.839287 7.650688
" />
<path d="M10.839287 7.650688
L10.886906 7.698307
" />
<path d="M10.886906 7.698307
L10.934525 7.793545
" />
<path d="M10.934525 7.793545
L10.982144 7.984021
" />
<path d="M10.982144 7.984021
L10.982144 8.222116
" />
<path d="M10.982144 8.222116
L10.934525 8.412592
" />
<path d="M10.934525 8.412592
L10.886906 8.507830
" />
<path d="M10.886906 8.507830
L10.839287 8.555450
" />
<path d="M10.839287 8.555450
L10.744049 8.603069
" />
<path d="M10.744049 8.603069
L10.648811 8.603069
" />
<path d="M10.648811 8.603069
L10.553573 8.555450
" />
<path d="M10.553573 8.555450
L10.505954 8.507830
" />
<path d="M10.505954 8.507830
L10.458335 8.412592
" />
<path d="M10.458335 8.412592
L10.410716 8.222116
" />
<path d="M10.410716 8.222116
L10.410716 7.984021
" />
<path d="M10.410716 7.984021
L10.458335 7.793545
" />
<path d="M10.458335 7.793545
L10.505954 7.698307
" />
<path d="M10.505954 7.698307
L10.553573 7.650688
" />
<path d="M10.553573 7.650688
L10.648811 7.603069
" />
<path d="M11.363097 7.698307
L11.410716 7.650688
" />
<path d="M11.410716 7.650688
L11.505954 7.603069
" />
<path d="M11.505954 7.603069
L11.744049 7.603069
" />
<path d="M11.744049 7.603069
L11.839287 7.650688
" />
<path d="M11.839287 7.650688
L11.886906 7.698307
" />
<path d="M11.886906 7.698307
L11.934525 7.793545
" />
<path d="M11.934525 7.793545
L11.934525 7.888783
" />
<path d="M11.934525 7.888783
L11.886906 8.031640
" />
<path d="M11.886906 8.031640
L11.315478 8.603069
" />
<path d="M11.315478 8.603069
L11.934525 8.603069
" />
<path d="M12.125001 8.698307
L12.886906 8.698307
" />
<path d="M13.125002 8.603069
L13.125002 7.603069
" />
<path d="M13.125002 7.603069
L13.505953 7.603069
" />
<path d="M13.505953 7.603069
L13.601191 7.650688
" />
<path d="M13.601191 7.650688
L13.648810 7.698307
" />
<path d="M13.648810 7.698307
L13.696429 7.793545
" />
<path d="M13.696429 7.793545
L13.696429 7.936402
" />
<path d="M13.696429 7.936402
L13.648810 8.031640
" />
<path d="M13.648810 8.031640
L13.601191 8.079259
" />
<path d="M13.601191 8.079259
L13.505953 8.126878
" />
<path d="M13.505953 8.126878
L13.125002 8.126878
" />
<path d="M14.077382 7.698307
L14.125001 7.650688
" />
<path d="M14.125001 7.650688
L14.220239 7.603069
" />
<path d="M14.220239 7.603069
L14.458334 7.603069
" />
<path d="M14.458334 7.603069
L14.553572 7.650688
" />
<path d="M14.553572 7.650688
L14.601191 7.698307
" />
<path d="M14.601191 7.698307
L14.648810 7.793545
" />
<path d="M14.648810 7.793545
L14.648810 7.888783
" />
<path d="M14.648810 7.888783
L14.601191 8.031640
" />
<path d="M14.601191 8.031640
L14.029763 8.603069
" />
<path d="M14.029763 8.603069
L14.648810 8.603069
" />
<path d="M15.077382 8.507830
L15.125001 8.555450
" />
<path d="M15.125001 8.555450
L15.077382 8.603069
" />
<path d="M15.077382 8.603069
L15.029763 8.555450
" />
<path d="M15.029763 8.555450
L15.077382 8.507830
" />
<path d="M15.077382 8.507830
L15.077382 8.603069
" />
<path d="M16.029762 7.603069
L15.553572 7.603069
" />
<path d="M15.553572 7.603069
L15.505953 8.079259
" />
<path d="M15.505953 8.079259
L15.553572 8.031640
" />
<path d="M15.553572 8.031640
L15.648810 7.984021
" />
<path d="M15.648810 7.984021
L15.886905 7.984021
" />
<path d="M15.886905 7.984021
L15.982143 8.031640
" />
<path d="M15.982143 8.031640
L16.029762 8.079259
" />
<path d="M16.029762 8.079259
L16.077381 8.174497
" />
<path d="M16.077381 8.174497
L16.077381 8.412592
" />
<path d="M16.077381 8.412592
L16.029762 8.507830
" />
<path d="M16.029762 8.507830
L15.982143 8.555450
" />
<path d="M15.982143 8.555450
L15.886905 8.603069
" />
<path d="M15.886905 8.603069
L15.648810 8.603069
" />
<path d="M15.648810 8.603069
L15.553572 8.555450
" />
<path d="M15.553572 8.555450
L15.505953 8.507830
" />
<path d="M16.934524 7.936402
L16.934524 8.603069
" />
<path d="M16.696429 7.555450
L16.458334 8.269735
" />
<path d="M16.458334 8.269735
L17.077381 8.269735
" />
<path d="M17.458334 8.603069
L17.458334 7.936402
" />
<path d="M17.458334 8.031640
L17.505953 7.984021
" />
<path d="M17.505953 7.984021
L17.601191 7.936402
" />
<path d="M17.601191 7.936402
L17.744048 7.936402
" />
<path d="M17.744048 7.936402
L17.839286 7.984021
" />
<path d="M17.839286 7.984021
L17.886905 8.079259
" />
<path d="M17.886905 8.079259
L17.886905 8.603069
" />
<path d="M17.886905 8.079259
L17.934524 7.984021
" />
<path d="M17.934524 7.984021
L18.029762 7.936402
" />
<path d="M18.029762 7.936402
L18.172619 7.936402
" />
<path d="M18.172619 7.936402
L18.267858 7.984021
" />
<path d="M18.267858 7.984021
L18.315477 8.079259
" />
<path d="M18.315477 8.079259
L18.315477 8.603069
" />
<path d="M18.791667 8.603069
L18.791667 7.936402
" />
<path d="M18.791667 8.031640
L18.839286 7.984021
" />
<path d="M18.839286 7.984021
L18.934524 7.936402
" />
<path d="M18.934524 7.936402
L19.077381 7.936402
" />
<path d="M19.077381 7.936402
L19.172619 7.984021
" />
<path d="M19.172619 7.984021
L19.220238 8.079259
" />
<path d="M19.220238 8.079259
L19.220238 8.603069
" />
<path d="M19.220238 8.079259
L19.267857 7.984021
" />
<path d="M19.267857 7.984021
L19.363095 7.936402
" />
<path d="M19.363095 7.936402
L19.505952 7.936402
" />
<path d="M19.505952 7.936402
L19.601191 7.984021
" />
<path d="M19.601191 7.984021
L19.648810 8.079259
" />
<path d="M19.648810 8.079259
L19.648810 8.603069
" />
<path d="M19.886905 8.698307
L20.648809 8.698307
" />
<path d="M20.744048 7.603069
L21.077381 8.603069
" />
<path d="M21.077381 8.603069
L21.410714 7.603069
" />
<path d="M22.125000 8.555450
L22.029762 8.603069
" />
<path d="M22.029762 8.603069
L21.839286 8.603069
" />
<path d="M21.839286 8.603069
L21.744048 8.555450
" />
<path d="M21.744048 8.555450
L21.696429 8.460211
" />
<path d="M21.696429 8.460211
L21.696429 8.079259
" />
<path d="M21.696429 8.079259
L21.744048 7.984021
" />
<path d="M21.744048 7.984021
L21.839286 7.936402
" />
<path d="M21.839286 7.936402
L22.029762 7.936402
" />
<path d="M22.029762 7.936402
L22.125000 7.984021
" />
<path d="M22.125000 7.984021
L22.172619 8.079259
" />
<path d="M22.172619 8.079259
L22.172619 8.174497
" />
<path d="M22.172619 8.174497
L21.696429 8.269735
" />
<path d="M22.601191 8.603069
L22.601191 7.936402
" />
<path d="M22.601191 8.126878
L22.648810 8.031640
" />
<path d="M22.648810 8.031640
L22.696429 7.984021
" />
<path d="M22.696429 7.984021
L22.791667 7.936402
" />
<path d="M22.791667 7.936402
L22.886905 7.936402
" />
<path d="M23.077382 7.936402
L23.458334 7.936402
" />
<path d="M23.220239 7.603069
L23.220239 8.460211
" />
<path d="M23.220239 8.460211
L23.267858 8.555450
" />
<path d="M23.267858 8.555450
L23.363096 8.603069
" />
<path d="M23.363096 8.603069
L23.458334 8.603069
" />
<path d="M23.791668 8.603069
L23.791668 7.936402
" />
<path d="M23.791668 7.603069
L23.744049 7.650688
" />
<path d="M23.744049 7.650688
L23.791668 7.698307
" />
<path d="M23.791668 7.698307
L23.839287 7.650688
" />
<path d="M23.839287 7.650688
L23.791668 7.603069
" />
<path d="M23.791668 7.603069
L23.791668 7.698307
" />
<path d="M24.696429 8.555450
L24.601191 8.603069
" />
<path d="M24.601191 8.603069
L24.410715 8.603069
" />
<path d="M24.410715 8.603069
L24.315477 8.555450
" />
<path d="M24.315477 8.555450
L24.267858 8.507830
" />
<path d="M24.267858 8.507830
L24.220239 8.412592
" />
<path d="M24.220239 8.412592
L24.220239 8.126878
" />
<path d="M24.220239 8.126878
L24.267858 8.031640
" />
<path d="M24.267858 8.031640
L24.315477 7.984021
" />
<path d="M24.315477 7.984021
L24.410715 7.936402
" />
<path d="M24.410715 7.936402
L24.601191 7.936402
" />
<path d="M24.601191 7.936402
L24.696429 7.984021
" />
<path d="M25.553572 8.603069
L25.553572 8.079259
" />
<path d="M25.553572 8.079259
L25.505953 7.984021
" />
<path d="M25.505953 7.984021
L25.410715 7.936402
" />
<path d="M25.410715 7.936402
L25.220239 7.936402
" />
<path d="M25.220239 7.936402
L25.125001 7.984021
" />
<path d="M25.553572 8.555450
L25.458334 8.603069
" />
<path d="M25.458334 8.603069
L25.220239 8.603069
" />
<path d="M25.220239 8.603069
L25.125001 8.555450
" />
<path d="M25.125001 8.555450
L25.077382 8.460211
" />
<path d="M25.077382 8.460211
L25.077382 8.364973
" />
<path d="M25.077382 8.364973
L25.125001 8.269735
" />
<path d="M25.125001 8.269735
L25.220239 8.222116
" />
<path d="M25.220239 8.222116
L25.458334 8.222116
" />
<path d="M25.458334 8.222116
L25.553572 8.174497
" />
<path d="M26.172620 8.603069
L26.077382 8.555450
" />
<path d="M26.077382 8.555450
L26.029763 8.460211
" />
<path d="M26.029763 8.460211
L26.029763 7.603069
" />
</g><g transform="rotate(-90.000000 13.220239 4.498250)">
<text x="13.220239" y="4.998250"
textLength="4.535715" font-size="1.333333" lengthAdjust="spacingAndGlyphs"
text-anchor="middle" opacity="0" stroke-opacity="0">REF**</text>
</g>
<g class="stroked-text"><desc>REF**</desc>
<path d="M13.675058 5.831583
L13.198868 6.164916
" />
<path d="M13.675058 6.403011
L12.675059 6.403011
" />
<path d="M12.675059 6.403011
L12.675059 6.022059
" />
<path d="M12.675059 6.022059
L12.722678 5.926821
" />
<path d="M12.722678 5.926821
L12.770297 5.879202
" />
<path d="M12.770297 5.879202
L12.865535 5.831583
" />
<path d="M12.865535 5.831583
L13.008392 5.831583
" />
<path d="M13.008392 5.831583
L13.103630 5.879202
" />
<path d="M13.103630 5.879202
L13.151249 5.926821
" />
<path d="M13.151249 5.926821
L13.198868 6.022059
" />
<path d="M13.198868 6.022059
L13.198868 6.403011
" />
<path d="M13.151249 5.403011
L13.151249 5.069678
" />
<path d="M13.675058 4.926821
L13.675058 5.403011
" />
<path d="M13.675058 5.403011
L12.675059 5.403011
" />
<path d="M12.675059 5.403011
L12.675059 4.926821
" />
<path d="M13.151249 4.164916
L13.151249 4.498249
" />
<path d="M13.675058 4.498249
L12.675059 4.498249
" />
<path d="M12.675059 4.498249
L12.675059 4.022059
" />
<path d="M12.675059 3.498249
L12.913154 3.498249
" />
<path d="M12.817916 3.736344
L12.913154 3.498249
" />
<path d="M12.913154 3.498249
L12.817916 3.260154
" />
<path d="M13.103630 3.641106
L12.913154 3.498249
" />
<path d="M12.913154 3.498249
L13.103630 3.355392
" />
<path d="M12.675059 2.736345
L12.913154 2.736345
" />
<path d="M12.817916 2.974440
L12.913154 2.736345
" />
<path d="M12.913154 2.736345
L12.817916 2.498250
" />
<path d="M13.103630 2.879202
L12.913154 2.736345
" />
<path d="M12.913154 2.736345
L13.103630 2.593488
" />
</g></g>
<g style="fill:none; 
stroke:#000000; stroke-width:0.100000; stroke-opacity:1; 
stroke-linecap:round; stroke-linejoin:round;">
<path d="M11.950239 2.593250
L12.585239 1.958250
" />
<path d="M11.950239 7.038250
L11.950239 2.593250
" />
<path d="M12.585239 1.958250
L14.490239 1.958250
" />
<path d="M14.490239 1.958250
L14.490239 7.038250
" />
<path d="M14.490239 7.038250
L11.950239 7.038250
" />
</g>
<g style="fill:#000000; fill-opacity:1.000000; stroke:none;">
<circle cx="13.220239" cy="3.228250" r="0.500000" /> 
<circle cx="13.220239" cy="5.768250" r="0.500000" /> 
</g> 
</svg>
